<svg width="60" height="60" viewBox="0 0 60 60" fill="none" xmlns="http://www.w3.org/2000/svg">
<g clip-path="url(#clip0_116_11466)">
<path d="M21.0751 24.7686C21.7688 25.4624 22.3032 26.2499 22.6688 27.0936C21.8063 27.4593 20.9907 28.0124 20.2876 28.7155C18.2719 30.7311 17.5876 33.5624 18.2344 36.1405C16.1157 35.6061 13.8282 35.9718 11.9626 37.2468C11.2688 36.8811 10.6032 36.4124 10.0219 35.8218C9.33756 35.1374 8.80319 34.3593 8.43756 33.5249C7.11569 30.6468 7.65006 27.1405 10.0219 24.7686C11.4751 23.3155 13.3407 22.5655 15.2344 22.4999C17.3438 22.3968 19.4719 23.1655 21.0751 24.7686Z" fill="#9D2888"/>
<path d="M22.6687 27.0937C22.3031 26.2499 21.7687 25.4624 21.075 24.7687C20.8294 24.523 20.5678 24.3037 20.2997 24.0974C16.6828 26.3943 15.6628 31.2121 13.125 33.7499C12.3459 34.919 10.919 34.9546 9.31592 35.0005C9.53154 35.2855 9.76217 35.5621 10.0219 35.8218C10.6031 36.4124 11.2687 36.8812 11.9625 37.2468C13.8281 35.9718 16.1156 35.6062 18.2344 36.1405C17.5875 33.5624 18.2719 30.7312 20.2875 28.7155C20.9906 28.0124 21.8062 27.4593 22.6687 27.0937Z" fill="#813990"/>
<path d="M10.3989 29.2416C10.5732 28.3182 11.1029 26.7685 12.7042 25.8498C13.4842 25.4026 14.5079 25.7448 14.8689 26.5679C15.1885 27.2991 15.4201 28.3182 15.1314 29.5388C15.0517 29.8754 14.837 30.1632 14.5614 30.3723C13.7907 30.9582 12.1464 31.9004 10.7898 30.5823C10.4373 30.2401 10.307 29.7254 10.3989 29.2416Z" fill="#C47EB8"/>
<path d="M41.5968 18.4595V18.4688L40.0218 20.0345C39.6937 19.697 39.3468 19.4157 38.9812 19.1626C40.4531 18.8251 41.4749 18.497 41.5968 18.4595Z" fill="#C47EB8"/>
<path d="M40.022 20.0344L41.597 18.4688C41.5501 18.6187 41.2313 19.6312 40.9032 21.075C40.6407 20.7094 40.3595 20.3625 40.022 20.0344Z" fill="#9D2888"/>
<path d="M59.0625 27.1875L55.8187 27.9281C55.8187 27.9281 59.0625 31.875 58.9781 42.1406C58.9781 42.1406 54.0468 37.2093 47.4562 34.9781C46.5843 34.6781 45.6843 34.4343 44.7656 34.2468C42.4875 33.7874 41.2593 32.2781 40.6687 30.3562C39.7687 27.45 40.3312 23.6062 40.9031 21.0843V21.075C41.2312 19.6312 41.55 18.6187 41.5968 18.4687C41.5968 18.4687 41.5968 18.4687 41.5968 18.4593C41.6062 18.45 41.6062 18.45 41.6062 18.45C41.6062 18.45 53.5312 21.6562 59.0625 27.1875Z" fill="#80A53F"/>
<path d="M56.7778 40.231C58.1662 41.3335 58.9781 42.1407 58.9781 42.1407C59.0625 31.875 55.8187 27.9282 55.8187 27.9282L59.0625 27.1875C54.4837 22.6088 45.5287 19.6247 42.5793 18.7332C48.9562 24.5869 52.4334 32.7994 56.7778 40.231Z" fill="#24725F"/>
<path d="M47.1282 6.60938L49.5001 8.98125C49.5001 8.98125 46.3407 10.5562 44.7657 15.2906L44.7188 15.3094C43.5376 13.1437 43.6595 10.0875 47.1282 6.60938Z" fill="#80A53F"/>
<path d="M47.4562 34.9781C48.3374 37.6781 47.7093 40.7718 45.553 42.9281C43.3874 45.0937 40.2749 45.7218 37.5655 44.8218H37.5562C37.6593 42.7125 36.8905 40.5843 35.2874 38.9812C34.5937 38.2875 33.8155 37.7625 32.9624 37.3875C33.5437 36.1031 33.7405 34.6874 33.5624 33.3093C35.8593 33.5999 38.2593 32.85 40.0218 31.0875C40.2655 30.8531 40.4718 30.6093 40.6687 30.3562C41.2593 32.2781 42.4874 33.7874 44.7655 34.2468C45.6843 34.4343 46.5843 34.6781 47.4562 34.9781Z" fill="#813990"/>
<path d="M47.4563 34.9781C46.5844 34.6781 45.6844 34.4343 44.7656 34.2468C42.4875 33.7874 41.2594 32.2781 40.6688 30.3562C40.4719 30.6093 40.2656 30.8531 40.0219 31.0875C39.4959 31.6134 38.9081 32.0381 38.2884 32.3831C38.3194 32.5218 38.3625 32.6634 38.4375 32.8125C40.3125 35.625 45.9375 36.5625 44.0625 40.3125C42.66 42.4153 40.2094 42.9459 37.4944 43.4718C37.5516 43.919 37.5778 44.3709 37.5563 44.8218H37.5656C40.275 45.7218 43.3875 45.0937 45.5531 42.9281C47.7094 40.7718 48.3375 37.6781 47.4563 34.9781Z" fill="#620774"/>
<path d="M38.9812 19.1625C36.4593 19.725 32.6155 20.2875 29.7093 19.3969C27.7874 18.8062 26.2687 17.5781 25.8093 15.2906C25.6218 14.3719 25.378 13.4718 25.078 12.6C22.8468 6.00935 17.9155 1.0781 17.9155 1.0781C28.1249 0.937476 32.128 4.23748 32.128 4.23748L35.2874 1.0781C40.8187 6.60935 41.6062 18.45 41.6062 18.45C41.6062 18.45 41.6062 18.45 41.5968 18.4594C41.4749 18.4969 40.453 18.825 38.9812 19.1625Z" fill="#80A53F"/>
<path d="M40.0828 18.8916C40.9444 18.6666 41.5087 18.4866 41.5969 18.4594C41.6062 18.45 41.6063 18.45 41.6063 18.45C41.6063 18.45 40.8188 6.60938 35.2875 1.07812L32.1281 4.2375C32.1281 4.2375 28.4241 1.20656 19.1016 1.08563C27.6028 4.40438 35.1591 11.3025 40.0828 18.8916Z" fill="#24725F"/>
<path d="M40.9032 21.0751V21.0845C40.3314 23.6063 39.7689 27.4501 40.6689 30.3563C40.472 30.6095 40.2657 30.8532 40.022 31.0876C38.2595 32.8501 35.8595 33.6001 33.5626 33.3095C31.8845 33.122 30.2626 32.3813 28.9689 31.0876C27.6751 29.7938 26.9345 28.172 26.747 26.4938C26.4564 24.197 27.2064 21.797 28.9689 20.0345C29.2126 19.7907 29.4564 19.5845 29.7095 19.397C32.6157 20.2876 36.4595 19.7251 38.9814 19.1626C39.347 19.4157 39.6939 19.697 40.022 20.0345C40.3595 20.3626 40.6407 20.7095 40.9032 21.0751Z" fill="#9D2888"/>
<path d="M40.903 21.0845V21.0751C40.6405 20.7095 40.3593 20.3626 40.0218 20.0345C39.6937 19.697 39.3468 19.4157 38.9812 19.1626C36.4593 19.7251 32.6155 20.2876 29.7093 19.397C29.4562 19.5845 29.2124 19.7907 28.9687 20.0345C28.5402 20.4629 28.1737 20.9307 27.8652 21.4238C30.134 21.8813 32.4299 22.5835 34.5937 22.6492C35.669 22.682 36.4771 23.627 36.2924 24.6863C36.1124 25.7223 35.999 26.6242 36.5624 27.1876C37.4802 28.1054 38.8977 28.816 40.3902 29.1723C39.9187 26.4667 40.4062 23.2763 40.903 21.0845Z" fill="#620774"/>
<path d="M26.4656 51.5906C25.6593 51.2249 24.9 50.6999 24.2343 50.0343C23.6531 49.4531 23.175 48.7874 22.8093 48.0937C24.0843 46.2281 24.45 43.9406 23.9156 41.8218C26.4937 42.4687 29.325 41.7843 31.3406 39.7687C32.0531 39.0562 32.5968 38.25 32.9625 37.3875C33.8156 37.7625 34.5937 38.2875 35.2875 38.9812C36.8906 40.5843 37.6593 42.7125 37.5562 44.8218C37.4906 46.7156 36.7406 48.5812 35.2875 50.0343C32.8968 52.4249 29.3625 52.9406 26.4656 51.5906Z" fill="#813990"/>
<path d="M35.2875 38.9812C35.0821 38.7759 34.8665 38.5893 34.6462 38.4131C35.8443 42.7171 36.9806 46.77 31.875 49.6875C28.4025 51.0768 26.4721 46.8093 23.7993 46.0275C23.5753 46.7503 23.2509 47.4478 22.8093 48.0937C23.175 48.7875 23.6531 49.4531 24.2343 50.0343C24.9 50.7 25.6593 51.225 26.4656 51.5906C29.3625 52.9406 32.8968 52.425 35.2875 50.0343C36.7406 48.5812 37.4906 46.7156 37.5562 44.8218C37.6593 42.7125 36.8906 40.5843 35.2875 38.9812Z" fill="#620774"/>
<path d="M33.5624 33.3094C33.7405 34.6875 33.5437 36.1032 32.9624 37.3875C32.5968 38.25 32.053 39.0563 31.3405 39.7688C29.3249 41.7844 26.4937 42.4688 23.9155 41.8219C22.5843 41.4938 21.328 40.8094 20.2874 39.7688C19.2468 38.7282 18.5624 37.4719 18.2343 36.1407C17.5874 33.5625 18.2718 30.7313 20.2874 28.7157C20.9905 28.0125 21.8062 27.4594 22.6687 27.0938C23.953 26.5219 25.3687 26.3157 26.7468 26.4938C26.9343 28.1719 27.6749 29.7938 28.9687 31.0875C30.2624 32.3813 31.8843 33.1219 33.5624 33.3094Z" fill="#9D2888"/>
<path d="M33.5626 33.3094C31.8844 33.1219 30.2626 32.3813 28.9688 31.0875C27.6751 29.7938 26.9344 28.1719 26.7469 26.4938C25.3688 26.3157 23.9532 26.5219 22.6688 27.0938C21.8063 27.4594 20.9907 28.0125 20.2876 28.7157C20.0307 28.9725 19.7972 29.2425 19.5835 29.5228C23.791 29.4975 26.986 31.4991 29.6513 34.5572C30.8269 35.9063 30.4051 37.9678 28.8469 38.8482C27.3629 39.6853 25.981 40.756 24.9507 42.0057C27.2288 42.2607 29.5913 41.5172 31.3407 39.7688C32.0532 39.0563 32.5969 38.25 32.9626 37.3875C33.5438 36.1032 33.7407 34.6875 33.5626 33.3094Z" fill="#620774"/>
<path d="M29.7095 19.3969C29.4563 19.5844 29.2126 19.7906 28.9688 20.0344C27.2063 21.7969 26.4563 24.1969 26.747 26.4938C25.3688 26.3156 23.9532 26.5219 22.6688 27.0938C22.3032 26.25 21.7688 25.4625 21.0751 24.7688C19.472 23.1656 17.3438 22.3969 15.2345 22.5C14.3345 19.7813 14.9626 16.6688 17.1282 14.5031C19.2845 12.3469 22.3782 11.7188 25.0782 12.6C25.3782 13.4719 25.622 14.3719 25.8095 15.2906C26.2688 17.5781 27.7876 18.8063 29.7095 19.3969Z" fill="#9D2888"/>
<path d="M29.7093 19.3969C27.7874 18.8063 26.2687 17.5782 25.8093 15.2907C25.6218 14.3719 25.3781 13.4719 25.0781 12.6001C24.374 12.3704 23.6427 12.2485 22.9087 12.2241C24.1574 17.2782 26.7252 23.9738 22.3752 26.4976C22.4821 26.6926 22.5806 26.8913 22.6677 27.0929C23.9521 26.521 25.3677 26.3147 26.7459 26.4929C26.4552 24.196 27.2052 21.796 28.9677 20.0335C29.2124 19.7907 29.4562 19.5844 29.7093 19.3969Z" fill="#813990"/>
<path d="M24.2344 50.0344C24.9 50.7 25.6594 51.225 26.4657 51.5906C25.2094 54.3375 22.4344 56.25 19.2188 56.25C17.925 56.25 16.7063 55.9406 15.6282 55.3875C16.35 54.2625 16.8 52.9406 16.8657 51.5156C18.6938 51.4031 20.475 50.6344 21.8625 49.2469C22.2188 48.8906 22.5375 48.5062 22.8094 48.0938C23.175 48.7875 23.6532 49.4531 24.2344 50.0344Z" fill="#813990"/>
<path d="M23.9156 41.8218C24.45 43.9406 24.0843 46.2281 22.8093 48.0937C22.5375 48.5062 22.2187 48.8906 21.8625 49.2468C20.475 50.6343 18.6937 51.4031 16.8656 51.5156C14.7 51.6656 12.4781 50.9156 10.8093 49.2468C9.13122 47.5687 8.37185 45.3187 8.5406 43.1343C8.67185 41.3343 9.43122 39.5718 10.8093 38.1937C11.1656 37.8374 11.55 37.5187 11.9625 37.2468C13.8281 35.9718 16.1156 35.6062 18.2343 36.1406C18.5625 37.4718 19.2468 38.7281 20.2875 39.7687C21.3281 40.8093 22.5843 41.4937 23.9156 41.8218Z" fill="#9D2888"/>
<path d="M23.9157 41.8218C22.5844 41.4937 21.3282 40.8093 20.2875 39.7687C19.2469 38.7281 18.5625 37.4718 18.2344 36.1406C16.1157 35.6062 13.8282 35.9718 11.9625 37.2468C11.5772 37.5009 11.2182 37.7999 10.8816 38.1281C14.2707 38.3137 17.4347 39.5559 18.75 42.1874C22.1344 48.2802 17.2107 48.9965 12.7997 50.6877C14.0719 51.3337 15.48 51.6112 16.8657 51.5156C18.6938 51.4031 20.475 50.6343 21.8625 49.2468C22.2188 48.8906 22.5375 48.5062 22.8094 48.0937C24.0844 46.2281 24.45 43.9406 23.9157 41.8218Z" fill="#620774"/>
<path d="M10.8094 49.2468C12.4781 50.9155 14.7 51.6655 16.8656 51.5155C16.8 52.9405 16.35 54.2624 15.6281 55.3874H15.6187C14.2031 57.5999 11.7188 59.0624 8.90625 59.0624C4.50937 59.0624 0.9375 55.4905 0.9375 51.0937C0.9375 48.2718 2.4 45.7968 4.6125 44.3812C5.75625 43.6499 7.10625 43.1999 8.54062 43.1343C8.37187 45.3187 9.13125 47.5687 10.8094 49.2468Z" fill="#9D2888"/>
<path d="M10.8094 49.2468C9.13131 47.5687 8.37193 45.3187 8.54068 43.1343C7.10631 43.1999 5.75631 43.6499 4.61256 44.3812C3.70787 44.9596 2.93818 45.7227 2.3335 46.6068C6.84943 46.753 11.026 51.0299 10.3126 55.3124C9.79975 57.3655 7.03787 57.1715 4.18225 57.4977C5.506 58.4765 7.13631 59.0624 8.90631 59.0624C11.7188 59.0624 14.2032 57.5999 15.6188 55.3874H15.6282C16.3501 54.2624 16.8001 52.9405 16.8657 51.5155C14.7001 51.6655 12.4782 50.9155 10.8094 49.2468Z" fill="#620774"/>
<path d="M11.9625 37.2468C11.55 37.5187 11.1656 37.8374 10.8094 38.1937C9.43125 39.5718 8.67188 41.3343 8.54063 43.1343C7.10625 43.1999 5.75625 43.6499 4.6125 44.3812C4.05938 43.303 3.75 42.0749 3.75 40.7812C3.75 37.5562 5.67188 34.7718 8.4375 33.5249C8.80313 34.3593 9.3375 35.1374 10.0219 35.8218C10.6031 36.4124 11.2688 36.8812 11.9625 37.2468Z" fill="#9D2888"/>
<path d="M17.8986 18.9291C18.073 18.0057 18.6027 16.456 20.2039 15.5373C20.9839 15.0901 22.0077 15.4323 22.3686 16.2554C22.6883 16.9866 22.9199 18.0057 22.6311 19.2263C22.5514 19.5629 22.3367 19.8507 22.0611 20.0598C21.2905 20.6457 19.6461 21.5879 18.2895 20.2698C17.937 19.9276 17.8067 19.4129 17.8986 18.9291Z" fill="#C47EB8"/>
<path d="M5.69908 39.2091C5.79752 38.6888 6.09564 37.8169 6.99752 37.2994C7.43627 37.0472 8.01377 37.2404 8.21627 37.7044C8.39627 38.116 8.52658 38.6897 8.36439 39.3769C8.31939 39.5663 8.19846 39.7285 8.04377 39.8466C7.60971 40.1766 6.68346 40.7072 5.92033 39.9647C5.72064 39.7707 5.64752 39.481 5.69908 39.2091Z" fill="#C47EB8"/>
<path d="M21.6599 36.5898C21.3336 36.1116 20.8893 35.2051 21.1865 34.1073C21.3318 33.5729 21.9271 33.2757 22.4427 33.4773C22.9011 33.6563 23.4458 33.9994 23.8518 34.6576C23.9643 34.8385 23.9952 35.0579 23.9671 35.2688C23.8865 35.8604 23.5808 36.9873 22.4155 37.0041C22.1118 37.0079 21.8315 36.8401 21.6599 36.5898Z" fill="#C47EB8"/>
<path d="M30.6553 28.1578C30.27 27.5934 29.745 26.5237 30.0966 25.2281C30.2672 24.5972 30.9703 24.2466 31.5787 24.4847C32.1197 24.6966 32.7619 25.1016 33.2419 25.8769C33.374 26.0906 33.4116 26.3494 33.3778 26.5987C33.2831 27.2962 32.9212 28.6266 31.5469 28.6462C31.1887 28.6509 30.8569 28.4541 30.6553 28.1578Z" fill="#C47EB8"/>
<path d="M39.0928 40.3453C38.7075 39.7809 38.1825 38.7112 38.5341 37.4156C38.7047 36.7847 39.4078 36.4341 40.0162 36.6722C40.5572 36.8841 41.1994 37.2891 41.6794 38.0644C41.8115 38.2781 41.8491 38.5369 41.8153 38.7862C41.7206 39.4837 41.3587 40.8141 39.9844 40.8337C39.6262 40.8384 39.2944 40.6416 39.0928 40.3453Z" fill="#C47EB8"/>
<path d="M29.7178 46.9078C29.3325 46.3434 28.8075 45.2737 29.1591 43.9781C29.3297 43.3472 30.0328 42.9966 30.6412 43.2347C31.1822 43.4466 31.8244 43.8516 32.3044 44.6269C32.4366 44.8406 32.4741 45.0994 32.4403 45.3487C32.3456 46.0462 31.9837 47.3766 30.6094 47.3962C30.2512 47.4009 29.9194 47.2041 29.7178 46.9078Z" fill="#C47EB8"/>
<path d="M11.5593 44.6916C11.2462 44.2322 10.8187 43.3622 11.1046 42.3075C11.2434 41.7938 11.8153 41.5088 12.3112 41.7028C12.7509 41.8753 13.274 42.2044 13.664 42.8363C13.7718 43.0106 13.8018 43.2206 13.7746 43.4231C13.6978 43.9913 13.4034 45.0731 12.285 45.0891C11.9925 45.0928 11.7234 44.9325 11.5593 44.6916Z" fill="#C47EB8"/>
<path d="M4.05934 52.1916C3.74621 51.7322 3.31871 50.8622 3.60465 49.8075C3.7434 49.2938 4.31527 49.0088 4.81121 49.2028C5.2509 49.3753 5.77402 49.7044 6.16402 50.3363C6.27184 50.5106 6.30184 50.7206 6.27465 50.9231C6.19777 51.4913 5.9034 52.5731 4.78496 52.5891C4.49246 52.5928 4.2234 52.4325 4.05934 52.1916Z" fill="#C47EB8"/>
<path d="M27.6338 5.22745C26.8538 4.80651 26.0925 4.44651 25.3707 4.15776C24.8888 3.96464 24.3441 4.20089 24.1529 4.68089C23.9607 5.16276 24.195 5.70745 24.676 5.89964C25.3304 6.1612 26.026 6.49026 26.7422 6.87745C26.8838 6.95432 27.0366 6.98995 27.1875 6.98995C27.5204 6.98995 27.8438 6.81276 28.0135 6.4987C28.2582 6.04214 28.0885 5.47401 27.6338 5.22745Z" fill="#36103D"/>
<path d="M43.3847 17.9991L44.5425 16.8413C44.5622 16.8301 44.5837 16.8198 44.6044 16.8076C46.3575 18.9751 49.3387 20.1469 51.2766 19.3426C52.5497 18.8148 53.115 17.5266 52.7897 15.8991C52.5853 14.8754 52.0191 14.1216 51.1519 13.7223C49.7822 13.0876 47.8584 13.4823 46.2806 14.0344C47.7563 10.9594 49.8244 9.86444 49.9209 9.81476C50.1909 9.67976 50.3784 9.42382 50.4272 9.12663C50.475 8.82944 50.3775 8.52663 50.1647 8.31382L47.7956 5.94569C47.4291 5.57913 46.8366 5.57913 46.47 5.94569C42.4538 9.96194 42.8288 13.3032 43.635 15.2016C43.5853 15.2279 43.5469 15.2494 43.5187 15.2644C43.4428 15.3066 43.3725 15.3601 43.3116 15.421L42.33 16.4026C41.8425 12.7069 40.3237 4.79069 35.9512 0.418193C35.775 0.241943 35.5369 0.143506 35.2884 0.143506C35.04 0.143506 34.8009 0.241943 34.6256 0.418193L32.0128 3.03101C30.4172 2.06726 26.0681 0.0394434 17.9034 0.143506C17.5275 0.149131 17.19 0.378818 17.0484 0.727568C16.9069 1.07632 16.9875 1.47663 17.2537 1.74382C17.3147 1.80476 23.3906 7.96413 24.8934 15.4782C25.2581 17.2998 26.2331 18.6835 27.7912 19.5873C27.8616 19.6285 27.9375 19.6613 28.0097 19.6998C26.5238 21.3451 25.7663 23.4169 25.7513 25.4991C24.8484 25.5019 23.9644 25.6454 23.1216 25.9173C22.7456 25.2619 22.2853 24.6535 21.7388 24.1069C20.1366 22.5048 18.0628 21.6648 15.96 21.5663C15.4303 19.2648 16.0941 16.8638 17.7909 15.1669C18.645 14.3129 19.71 13.6969 20.8687 13.3857C21.3694 13.2516 21.6656 12.7379 21.5316 12.2373C21.3975 11.7366 20.8838 11.4376 20.3831 11.5744C18.9056 11.971 17.5509 12.7548 16.4644 13.8413C14.3803 15.9244 13.5094 18.8457 14.0578 21.6798C12.3356 21.9751 10.6847 22.7794 9.35719 24.106C6.92906 26.5341 6.23719 30.0432 7.26375 33.0966C4.54031 34.6744 2.8125 37.591 2.8125 40.7813C2.8125 41.9073 3.03656 43.0219 3.44812 44.0569C1.34719 45.6863 0 48.2307 0 51.0938C0 56.0044 3.99563 60.0001 8.90625 60.0001C11.7628 60.0001 14.3091 58.6519 15.9412 56.551C16.9762 56.9626 18.0919 57.1876 19.2188 57.1876C22.3969 57.1876 25.3041 55.4729 26.8856 52.7673C27.8156 53.0888 28.7859 53.2604 29.76 53.2604C32.0016 53.2604 34.2441 52.4073 35.9503 50.701C37.2478 49.4044 38.0803 47.7713 38.3831 46.0013C38.9344 46.1073 39.4884 46.1663 40.0397 46.1663C42.3197 46.1663 44.5387 45.271 46.2159 43.5948C48.1266 41.6851 49.0022 39.0666 48.7106 36.4594C54.2259 38.7769 58.2638 42.7576 58.3134 42.8063C58.4925 42.9854 58.7325 43.081 58.9762 43.081C59.0963 43.081 59.2162 43.0585 59.3316 43.0107C59.6812 42.8682 59.9109 42.5288 59.9137 42.1519C59.9756 34.711 58.3238 30.4566 57.3084 28.5516L59.2706 28.1026C59.6034 28.0266 59.8687 27.7763 59.9625 27.4482C60.0572 27.1201 59.9653 26.7666 59.7244 26.5266C55.2225 22.0219 46.8384 19.0744 43.3847 17.9991ZM50.3653 15.4248C50.5791 15.5232 50.8387 15.7088 50.9512 16.2676C51.1688 17.3579 50.7253 17.5416 50.5584 17.6119C49.6894 17.9719 47.7478 17.4207 46.3828 15.9948C47.8575 15.421 49.5 15.0226 50.3653 15.4248ZM47.1525 7.95382L48.0319 8.83319C47.1984 9.48382 46.0106 10.6323 44.9906 12.451C45.0666 11.0241 45.7941 9.49694 47.1525 7.95382ZM26.7319 15.1098C25.5788 9.34319 22.0547 4.45976 20.0344 2.04007C28.1597 2.33069 31.5019 4.93788 31.5328 4.96226C31.905 5.26976 32.4497 5.24444 32.7919 4.90226L35.2603 2.43382C38.3906 6.11913 39.7528 12.0873 40.3125 15.6244C38.3334 13.5263 35.0897 10.3229 31.4681 7.68101C31.05 7.37538 30.4631 7.46726 30.1584 7.88632C29.8537 8.3035 29.9447 8.89038 30.3638 9.19507C34.5066 12.2176 38.2228 16.0998 39.9178 17.9626C37.3462 18.6357 31.8188 19.7579 28.7306 17.9644C27.6431 17.3326 26.9897 16.3988 26.7319 15.1098ZM29.6334 20.6944C29.7337 20.5941 29.8397 20.5154 29.9428 20.4254C31.0069 20.6888 32.1506 20.7976 33.2981 20.7976C35.2434 20.7976 37.1859 20.4985 38.7356 20.1723C38.9513 20.341 39.1725 20.506 39.3628 20.6954C39.5541 20.8866 39.7181 21.1079 39.8869 21.3235C39.3675 23.7882 38.9259 27.2457 39.6347 30.1135C39.5438 30.2176 39.4641 30.3235 39.3638 30.4248C36.6816 33.1069 32.3175 33.1069 29.6344 30.4248C26.9522 27.7416 26.9522 23.3776 29.6334 20.6944ZM30.6769 39.1098C29.3756 40.411 27.6488 41.1263 25.8122 41.1263C23.9766 41.1263 22.2487 40.4101 20.9484 39.1098C18.2662 36.4276 18.2662 32.0626 20.9484 29.3804C22.29 28.0379 24.0788 27.3348 25.9434 27.3769C26.2809 28.9801 27.0656 30.5073 28.3078 31.7494C29.5509 32.9926 31.0781 33.7773 32.6822 34.1148C32.7272 35.9766 32.0194 37.7673 30.6769 39.1098ZM21.2016 48.5851C18.5194 51.2673 14.1544 51.2673 11.4722 48.5851C8.79 45.9029 8.79 41.5379 11.4722 38.8557C13.0763 37.2535 15.2963 36.5719 17.4984 36.9563C17.9109 38.2285 18.6141 39.4266 19.6228 40.4344C20.6156 41.4273 21.8062 42.1463 23.1028 42.5682C23.4853 44.7676 22.8028 46.9838 21.2016 48.5851ZM10.6828 25.4326C13.365 22.7504 17.73 22.7504 20.4122 25.4326C20.7966 25.8169 21.1069 26.2482 21.3834 26.7001C20.7516 27.0732 20.1572 27.5204 19.6228 28.0548C17.7206 29.9569 16.8816 32.5238 17.0991 35.0148C15.3094 34.8591 13.5094 35.2529 11.9597 36.1435C11.4966 35.8576 11.0606 35.5388 10.6828 35.1619C8.00063 32.4798 8.00063 28.1148 10.6828 25.4326ZM4.6875 40.7813C4.6875 38.3213 5.98594 36.0629 8.05031 34.7991C8.41125 35.4001 8.83969 35.971 9.35719 36.4876C9.6675 36.7979 10.0031 37.0829 10.3584 37.3444C10.29 37.4091 10.2141 37.4635 10.1466 37.5301C8.80969 38.8669 8.00344 40.5338 7.71469 42.271C6.77813 42.3948 5.89031 42.6619 5.07187 43.051C4.82344 42.3263 4.6875 41.5576 4.6875 40.7813ZM8.90625 58.1251C5.02875 58.1251 1.875 54.9713 1.875 51.0938C1.875 47.656 4.32656 44.7957 7.60875 44.1891C7.71938 46.2723 8.55937 48.3235 10.1466 49.9107C11.7169 51.481 13.7419 52.3201 15.8025 52.4448C15.1725 55.6979 12.3178 58.1251 8.90625 58.1251ZM19.2188 55.3126C18.4434 55.3126 17.6747 55.1766 16.95 54.9282C17.3306 54.1294 17.595 53.2641 17.7225 52.3519C19.4822 52.0716 21.1734 51.2644 22.5272 49.9107C22.5938 49.8441 22.6481 49.7682 22.7128 49.6988C22.9744 50.0541 23.2603 50.3898 23.5706 50.6991C24.0684 51.1969 24.6169 51.6141 25.1925 51.9666C23.9259 54.0216 21.6722 55.3126 19.2188 55.3126ZM34.6256 49.3744C31.9434 52.0566 27.5784 52.0566 24.8962 49.3744C24.5184 48.9966 24.1997 48.5598 23.9137 48.0976C24.8034 46.5498 25.1962 44.7516 25.0425 42.9638C25.2975 42.9863 25.5534 43.0013 25.8122 43.0013C28.1494 43.0013 30.3478 42.0901 32.0025 40.4354C32.5369 39.901 32.9841 39.3057 33.3572 38.6738C33.8091 38.9504 34.2403 39.2616 34.6247 39.646C35.9259 40.9473 36.6422 42.6732 36.6422 44.5098C36.6422 46.3463 35.9259 48.0732 34.6256 49.3744ZM44.8903 42.2682C43.1944 43.9623 40.7972 44.6279 38.4975 44.1001C38.3972 41.9176 37.5084 39.8766 35.9512 38.3204C35.4047 37.7738 34.7962 37.3126 34.1419 36.9366C34.4137 36.0929 34.5581 35.2088 34.56 34.3069C36.6441 34.2929 38.7178 33.5335 40.3631 32.0448C40.4016 32.1169 40.4297 32.1966 40.4709 32.2669C41.3756 33.8251 42.7575 34.8001 44.58 35.1648C45.2953 35.3082 45.9928 35.5023 46.6791 35.7198C47.2772 38.0644 46.6237 40.5357 44.8903 42.2682ZM58.0069 40.0144C55.5834 37.9932 50.7066 34.4785 44.9475 33.3263C43.6584 33.0685 42.7237 32.4141 42.0928 31.3276C40.3012 28.2432 41.4216 22.7157 42.0947 20.1404C44.7919 22.5948 51.7209 29.2904 54.1575 35.3823C54.3047 35.7498 54.6562 35.9719 55.0284 35.9719C55.1447 35.9719 55.2619 35.9513 55.3763 35.9054C55.8572 35.7132 56.0906 35.1676 55.8984 34.6866C53.7928 29.4216 48.7369 23.9213 45.3909 20.6607C48.8175 21.8907 53.7019 23.9513 57.0844 26.6776L55.6078 27.0141C55.2937 27.0854 55.0397 27.316 54.9328 27.6207C54.8269 27.9254 54.8869 28.2657 55.0884 28.5179C55.1184 28.5535 57.6806 31.8516 58.0069 40.0144Z" fill="#36103D"/>
<path d="M12.1875 30.4689C12.1875 29.8164 12.3787 29.1864 12.7397 28.6473C13.0275 28.217 12.9122 27.6348 12.4819 27.3461C12.0506 27.0573 11.4694 27.1717 11.1816 27.603C10.6125 28.4533 10.3125 29.4433 10.3125 30.4689C10.3125 30.9873 10.7325 31.4064 11.25 31.4064C11.7675 31.4064 12.1875 30.9873 12.1875 30.4689Z" fill="#36103D"/>
<path d="M14.9991 27.2128C15.0329 27.2128 15.0666 27.2109 15.1004 27.2072C15.2213 27.195 15.3441 27.1875 15.4688 27.1875C15.9863 27.1875 16.4063 26.7684 16.4063 26.25C16.4063 25.7316 15.9863 25.3125 15.4688 25.3125C15.2766 25.3125 15.0863 25.3238 14.9007 25.3434C14.386 25.3988 14.0129 25.8609 14.0682 26.3756C14.1197 26.8556 14.5257 27.2128 14.9991 27.2128Z" fill="#36103D"/>
</g>
<defs>
<clipPath id="clip0_116_11466">
<rect width="60" height="60" fill="white"/>
</clipPath>
</defs>
</svg>
