<svg width="60" height="60" viewBox="0 0 60 60" fill="none" xmlns="http://www.w3.org/2000/svg">
<g clip-path="url(#clip0_113_9485)">
<path d="M2.09469 33.2686C2.09469 33.2686 30.7208 74.5556 59.034 29.2564V29.6938C30.7208 -15.6054 1.05957 30.4237 1.05957 30.4237L2.09469 33.2686Z" fill="#FFD578"/>
<path d="M53.1367 32.2969L53.1174 32.318C52.8829 32.5756 50.5368 35.0882 46.6374 37.5157C42.7357 39.9459 37.2997 42.2832 30.8512 42.2821C24.1954 42.276 16.4071 39.8209 7.91547 32.2206C7.62683 31.9619 7.21377 31.9005 6.8621 32.0647L5.02354 32.9223C4.71555 33.0661 4.38434 33.1363 4.05422 33.1363C3.38129 33.1363 2.73544 32.8438 2.33732 32.3451C2.05974 31.9978 1.93367 31.6107 1.93256 31.2231C1.93422 30.7448 2.12554 30.2687 2.53693 29.8855C4.67187 27.9032 8.59836 24.611 13.7004 21.8296C18.8041 19.0455 25.0718 16.7801 31.9051 16.7818C40.1137 16.7917 49.1892 20.0032 58.3284 29.7362C58.6933 30.1255 59.3049 30.1454 59.6947 29.7799C60.084 29.415 60.1039 28.8034 59.7389 28.4141C50.3255 18.356 40.6373 14.8387 31.9057 14.8487C24.6399 14.8503 18.0715 17.2457 12.7753 20.1326C7.47808 23.0223 3.44045 26.4108 1.22202 28.4689C0.425222 29.206 -0.00165404 30.2112 4.81647e-06 31.2237C-0.00110108 32.0443 0.279797 32.8715 0.830534 33.5555C1.63065 34.5486 2.83442 35.0683 4.05367 35.0689C4.65639 35.0689 5.26795 34.9417 5.8408 34.6741L7.67936 33.8159L7.27073 32.9406L6.62544 33.66C15.388 41.5218 23.7038 44.2207 30.8512 44.2147C37.9986 44.213 43.9229 41.55 48.0512 38.9086C52.1823 36.2633 54.5373 33.6285 54.5783 33.5842C54.9332 33.1861 54.899 32.5751 54.5008 32.2195C54.1027 31.864 53.4917 31.8988 53.1367 32.2969Z" fill="#54596E"/>
<path d="M7.78784 30.0603C7.78784 30.0603 30.5638 53.935 52.3041 30.0603V30.2909C30.5644 6.41623 7.78784 30.2909 7.78784 30.2909" fill="white"/>
<path d="M8.46279 30.2493L8.48491 30.2283C8.74922 29.975 11.3243 27.5592 15.3769 25.2246C19.4305 22.8873 24.949 20.6434 31.1005 20.6462C37.4506 20.6562 44.5117 22.9885 51.6132 30.2338C51.9865 30.6153 52.598 30.622 52.9796 30.2493C53.3611 29.8755 53.3678 29.2639 52.9945 28.8824C45.6021 21.3103 37.9399 18.7037 31.1005 18.7137C24.26 18.7164 18.2793 21.2639 14.0061 23.787C9.73181 26.3139 7.1512 28.8304 7.11249 28.8663C6.73096 29.239 6.72321 29.8506 7.0959 30.2327C7.46859 30.6148 8.0807 30.6225 8.46279 30.2493Z" fill="#54596E"/>
<path d="M20.3645 22.0413C19.4522 23.6979 18.9302 25.6001 18.9302 27.625C18.9302 34.0298 24.1224 39.2214 30.5261 39.2214C36.9303 39.2214 42.1225 34.0298 42.1225 27.625C42.1225 25.4834 41.532 23.484 40.519 21.7626C33.0121 18.357 25.9012 19.6271 20.3645 22.0413Z" fill="#55A6FF"/>
<path d="M20.3645 22.0413L19.4372 21.5304C18.4419 23.3374 17.8713 25.4176 17.8718 27.625C17.8724 34.6148 23.5373 40.2792 30.5266 40.2798C37.5153 40.2792 43.1803 34.6148 43.1814 27.625C43.1819 25.2877 42.535 23.1002 41.4319 21.2263C41.3218 21.0399 41.1537 20.8884 40.9569 20.7988C37.5441 19.25 34.1871 18.6224 31.0237 18.6235C26.9297 18.6241 23.1647 19.6658 19.9415 21.0709C19.7253 21.1654 19.5511 21.3241 19.4378 21.5304L20.3645 22.0413L20.7875 23.0117C23.8099 21.693 27.2919 20.7397 31.0237 20.7402C33.9096 20.7413 36.948 21.3064 40.0816 22.727L40.5189 21.7632L39.6066 22.3001C40.5289 23.8683 41.0636 25.6792 41.0642 27.6255C41.0636 30.5385 39.8858 33.1661 37.9776 35.0765C36.0672 36.9853 33.4395 38.1625 30.5266 38.1631C27.6131 38.1625 24.9855 36.9853 23.0756 35.0765C21.1668 33.1666 19.9896 30.5385 19.9891 27.6255C19.9891 25.7826 20.4624 24.059 21.2918 22.5522L20.3645 22.0413Z" fill="#54596E"/>
<path d="M37.7741 27.6252C37.7741 31.628 34.5294 34.8727 30.5266 34.8727C26.5238 34.8727 23.2786 31.628 23.2786 27.6252C23.2786 23.6224 26.5238 20.3777 30.5266 20.3777C34.5294 20.3777 37.7741 23.6224 37.7741 27.6252Z" fill="#54596E"/>
<path d="M27.1442 25.6924C27.1442 27.0267 26.0626 28.1083 24.7283 28.1083C23.3941 28.1083 22.3125 27.0267 22.3125 25.6924C22.3125 24.3582 23.3941 23.2766 24.7283 23.2766C26.0626 23.2766 27.1442 24.3582 27.1442 25.6924Z" fill="white"/>
</g>
<defs>
<clipPath id="clip0_113_9485">
<rect width="60" height="60" fill="white"/>
</clipPath>
</defs>
</svg>
