<svg width="80" height="80" viewBox="0 0 80 80" fill="none" xmlns="http://www.w3.org/2000/svg">
<mask id="mask0_95_1763" style="mask-type:luminance" maskUnits="userSpaceOnUse" x="0" y="0" width="80" height="80">
<path d="M0 0.333496H79.6665V80H0V0.333496Z" fill="white"/>
</mask>
<g mask="url(#mask0_95_1763)">
<path d="M67.5199 13.1755L74.6715 25.1924L75.5661 25.3718C73.7386 20.9522 71.0571 16.803 67.5199 13.1755Z" fill="#78AD63"/>
<path d="M71.7021 18.6164C71.7572 18.7067 71.811 18.798 71.8639 18.8904C73.0367 20.8841 73.9709 22.9976 74.6717 25.1926L65.3493 23.3167L56.6837 14.6511L54.6284 4.43421C59.1912 6.32116 63.4656 9.11695 67.1745 12.8258C67.2912 12.9425 67.4057 13.059 67.5201 13.1757C69.1419 14.8525 70.5348 16.6767 71.7021 18.6164Z" fill="#9AC470"/>
<path d="M75.5658 25.3722C75.2587 24.7542 74.7886 24.2053 74.1636 23.7299L68.1649 59.2241L68.8136 65.761C78.8211 54.451 81.072 38.6867 75.5658 25.3722Z" fill="#FAC75A"/>
<path d="M74.1636 23.7299C72.6563 22.5836 70.2425 21.8685 66.9993 21.6663L65.376 31.1224L68.1648 59.2241C76.2053 48.3405 78.3121 34.8424 74.1636 23.7299Z" fill="#FCE06F"/>
<path d="M68.8136 65.761C71.906 61.8932 73.1816 56.8334 72.8083 51.2673L26.7357 76.5538C40.385 81.4564 56.2392 78.4426 67.1744 67.5076C67.7431 66.9389 68.2877 66.3554 68.8136 65.761Z" fill="#FC7C49"/>
<path d="M63.8736 64.2074C67.7628 60.3182 70.7458 55.9041 72.8083 51.2676C72.3811 44.9007 69.796 37.8712 65.3 31.2035L55.9348 32.958L27.3195 75.6826C39.4281 78.5159 53.5117 74.5693 63.8736 64.2074Z" fill="#FC954C"/>
<path d="M54.6274 4.43385C56.736 5.48149 58.0474 8.4125 58.3332 13.0003L48.8774 14.6235L14.2388 11.186C25.5488 1.17872 41.3131 -1.07232 54.6274 4.43385Z" fill="#67E9E7"/>
<path d="M14.2386 11.1865C22.5309 4.55674 36.2998 6.27361 48.7964 14.6999L47.0419 24.0651L3.44581 53.2644C-1.4568 39.6151 1.55699 23.7607 12.492 12.8257C13.0607 12.257 13.6442 11.7122 14.2386 11.1865Z" fill="#60B5D6"/>
<path d="M12.6808 67.691C16.8046 71.7599 21.6145 74.7143 26.7357 76.5536C27.8333 76.8623 29.0806 76.7705 30.4536 76.2581L12.6808 67.691Z" fill="#DB4F84"/>
<path d="M55.9352 32.9578L47.0422 24.0648C31.9745 27.7682 16.0166 35.5148 8.02416 43.5071C4.16314 47.3681 2.73023 50.718 3.44598 53.2639C5.31348 58.4631 8.32711 63.3425 12.4922 67.5077C12.5544 67.57 12.6184 67.6294 12.6809 67.6912C17.5944 72.5205 23.8096 75.358 30.4536 76.2583C32.2653 75.5821 34.2962 74.1723 36.4928 71.9758C44.4853 63.9834 52.2316 48.0254 55.9352 32.9578Z" fill="#F25E91"/>
<path d="M63.6498 16.3496L50.4468 29.5526C55.0043 34.11 61.6544 34.8489 65.3002 31.2029C68.9461 27.5571 68.2073 20.9071 63.6498 16.3496Z" fill="#FBF0A8"/>
<path d="M61.9992 27.9026C65.6452 24.2568 66.3842 19.0845 63.6495 16.35C59.0922 11.7925 52.4422 11.0538 48.7962 14.6996C45.1504 18.3456 45.8893 24.9956 50.4467 29.553C53.181 32.2874 58.3532 31.5486 61.9992 27.9026Z" fill="#FFFBDB"/>
<path d="M65.3002 31.2035C61.6542 34.8495 55.0043 34.1105 50.4469 29.5532C45.8896 24.9957 45.1507 18.3456 48.7967 14.6998M65.3002 31.2035C68.9462 27.5575 68.2073 20.9075 63.65 16.3502C59.0925 11.7927 52.4423 11.0538 48.7967 14.6998M65.3002 31.2035C73.7264 43.7001 75.4434 57.469 68.8137 65.7613M48.7967 14.6998C36.3001 6.27348 22.5311 4.5566 14.2387 11.1864M75.5658 25.3726C74.5183 23.2639 71.5873 21.9525 66.9995 21.6668M54.6274 4.43414C56.7361 5.48179 58.0475 8.4128 58.3332 13.0006M26.7359 76.5541C29.2819 77.27 32.6318 75.8371 36.4928 71.9759C44.4851 63.9835 52.2316 48.0255 55.9352 32.9579M47.042 24.0649C39.1855 25.996 31.0891 29.0277 24.0039 32.6189M19.8736 34.8404C15.1184 37.5626 11.0138 40.5176 8.02417 43.5072C4.16299 47.3683 2.73008 50.7181 3.44599 53.2642M39.8333 78.833C18.4784 78.833 1.16699 61.5216 1.16699 40.1668C1.16699 18.8119 18.4784 1.50049 39.8333 1.50049C61.1881 1.50049 78.4995 18.8119 78.4995 40.1668C78.4995 61.5216 61.1881 78.833 39.8333 78.833Z" stroke="black" stroke-width="2" stroke-miterlimit="10" stroke-linecap="round" stroke-linejoin="round"/>
</g>
</svg>
