<svg width="60" height="60" viewBox="0 0 60 60" fill="none" xmlns="http://www.w3.org/2000/svg">
<g clip-path="url(#clip0_98_1838)">
<path d="M17.7262 9.64136H14.2275C12.7807 9.64136 11.4164 10.4105 10.6666 11.6487C10.6588 11.6618 10.651 11.6753 10.6439 11.6887L8.71429 15.289C8.48496 15.7168 8.64597 16.2494 9.07371 16.4788C9.20589 16.5496 9.34804 16.5832 9.48808 16.5832C9.80167 16.5832 10.1051 16.415 10.2635 16.1194L12.1813 12.541C12.6169 11.8362 13.3989 11.3992 14.2275 11.3992H17.7262C18.2118 11.3992 18.6052 11.0058 18.6052 10.5203C18.6052 10.0348 18.2116 9.64136 17.7262 9.64136Z" fill="#D77F4A"/>
<path d="M12.4609 14.8557H16.0068C16.2691 14.8557 16.4552 15.1115 16.3745 15.3613L15.4832 18.1247C15.3441 18.5559 14.943 18.8482 14.4903 18.8482H12.4608L12.4609 14.8557Z" fill="#FE646F"/>
<path d="M15.9325 26.5581H23.7044V30.2415H15.9325V26.5581Z" fill="#FE646F"/>
<path d="M20.0826 26.5581H23.7043V30.2414H20.0826V26.5581Z" fill="#FD4755"/>
<path d="M23.7044 26.558H15.9325V24.2332C15.9325 23.9263 16.1813 23.6775 16.4882 23.6775H23.1487C23.4556 23.6775 23.7044 23.9263 23.7044 24.2332V26.558Z" fill="#ECBBA3"/>
<path d="M23.1487 23.6775H19.527C19.8339 23.6775 20.0827 23.9263 20.0827 24.2332V26.558H23.7044V24.2333C23.7044 23.9263 23.4556 23.6775 23.1487 23.6775Z" fill="#E8AD8C"/>
<path d="M59.9909 17.416L58.5639 22.6867C58.3683 23.4116 57.7104 23.9155 56.9595 23.9155H54.2625C54.1129 23.9155 54.0187 24.0761 54.0899 24.2067L56.5562 28.7197C59.1482 33.4623 55.7185 39.2524 50.3173 39.2524H9.47558C4.07441 39.2524 0.645969 33.4623 3.23781 28.7197L5.86234 23.9155H1.56226C0.781204 23.9155 0.134094 23.3101 0.0797194 22.5308L3.1919e-05 16.9425C-0.00242902 16.7684 0.137727 16.6259 0.311516 16.6259H3.32839C4.00726 16.6259 4.66948 16.4151 5.22331 16.0224L6.01925 15.4582C6.57226 15.0662 7.23331 14.8557 7.91101 14.8557H12.65C12.9044 14.8557 13.1106 15.062 13.1106 15.3164V18.8757C13.1106 20.6447 12.8039 22.4004 12.2039 24.0654L11.8321 25.0949C11.051 27.2577 12.6518 29.539 14.9492 29.539H44.845C47.1412 29.539 48.7419 27.2577 47.9621 25.0949L47.5902 24.0654C47.0168 22.4741 46.7102 20.7993 46.6848 19.1089C46.6824 18.976 46.7827 18.8625 46.9142 18.8443L59.7181 17.1056C59.8943 17.0825 60.0368 17.2443 59.9909 17.416Z" fill="#22B37F"/>
<path d="M59.9915 17.4167L58.5641 22.6867C58.3684 23.4121 57.711 23.916 56.9598 23.916H54.2622C54.1133 23.916 54.0184 24.0765 54.0899 24.2066L56.5567 28.7195C59.1489 33.4621 55.7188 39.2522 50.3176 39.2522H9.47581C4.07464 39.2522 0.645849 33.4619 3.23792 28.7195L5.86292 23.916H1.56214C0.78167 23.916 0.133623 23.3101 0.0797166 22.5308L0.066826 21.6414L0.0422166 19.8835L2.91152e-05 16.9421C-0.00231463 16.7687 0.137139 16.6257 0.311748 16.6257H3.32815C4.00784 16.6257 4.66995 16.4148 5.22308 16.0222L6.01878 15.4585C6.5719 15.066 7.23284 14.8562 7.91136 14.8562H12.6504C12.9047 14.8562 13.111 15.0625 13.111 15.3167V18.8757C13.111 20.6453 12.8039 22.4007 12.2039 24.066L11.8325 25.0949C11.0508 27.2582 12.6516 29.5386 14.9496 29.5386H44.8451C47.1408 29.5386 48.7416 27.2582 47.9623 25.0949L47.5908 24.066C47.0166 22.4746 46.7107 20.8 46.6849 19.1089C46.6826 18.9765 46.7822 18.8628 46.9146 18.8441L59.7184 17.1062C59.8942 17.0828 60.0372 17.2444 59.9915 17.4167Z" fill="#22B37F"/>
<path d="M8.58222 24.0654L8.21039 25.0949C7.42933 27.2577 9.03011 29.539 11.3275 29.539H14.9491C12.6518 29.539 11.051 27.2577 11.8321 25.0949L12.2039 24.0654C12.8039 22.4004 13.1106 20.6447 13.1106 18.8757V15.3164C13.1106 15.062 12.9043 14.8557 12.6499 14.8557H9.4889V18.8757C9.4889 20.6447 9.18222 22.4004 8.58222 24.0654Z" fill="#09A76D"/>
<path d="M59.718 17.1057L56.3286 17.566L54.9422 22.6869C54.7466 23.4118 54.0887 23.9157 53.3377 23.9157H50.6408C50.4911 23.9157 50.3969 24.0764 50.4682 24.2069L52.9345 28.7199C55.5265 33.4625 52.0967 39.2526 46.6956 39.2526H50.3172C55.7184 39.2526 59.1481 33.4625 56.5562 28.7199L54.0899 24.2069C54.0186 24.0764 54.1128 23.9157 54.2625 23.9157H56.9594C57.7102 23.9157 58.3683 23.4118 58.5638 22.6869L59.9908 17.4162C60.0368 17.2446 59.8943 17.0827 59.718 17.1057Z" fill="#09A76D"/>
<path d="M5.96349 17.9282C6.96362 17.9282 7.77438 17.1174 7.77438 16.1173C7.77438 15.1172 6.96362 14.3064 5.96349 14.3064C4.96335 14.3064 4.15259 15.1172 4.15259 16.1173C4.15259 17.1174 4.96335 17.9282 5.96349 17.9282Z" fill="#F3F0F3"/>
<path d="M8.05435 21.9435C7.91606 22.2856 7.58677 22.4942 7.23872 22.4942C7.12974 22.4942 7.01841 22.4731 6.9106 22.4298L4.95122 21.6411H0.0668457L0.0422363 19.8833H5.12114C5.23364 19.8833 5.34497 19.9044 5.44927 19.9466L7.56685 20.7997C8.01802 20.9813 8.23599 21.4923 8.05435 21.9435Z" fill="#09A76D"/>
<path d="M19.3004 34.1753C18.2336 34.1753 17.3688 33.3105 17.3688 32.2437V29.5388H21.232V32.2437C21.232 33.3105 20.3671 34.1753 19.3004 34.1753Z" fill="#FFD15B"/>
<path d="M26.6552 34.1753C25.5885 34.1753 24.7236 33.3105 24.7236 32.2437V29.5388H28.5868V32.2437C28.5868 33.3105 27.722 34.1753 26.6552 34.1753Z" fill="#FFD15B"/>
<path d="M34.0101 34.1753C32.9433 34.1753 32.0785 33.3105 32.0785 32.2437V29.5388H35.9417V32.2437C35.9416 33.3105 35.0769 34.1753 34.0101 34.1753Z" fill="#FFD15B"/>
<path d="M41.365 34.1753C40.2982 34.1753 39.4333 33.3105 39.4333 32.2437V29.5388H43.2966V32.2437C43.2966 33.3105 42.4317 34.1753 41.365 34.1753Z" fill="#FFD15B"/>
<path d="M59.9997 37.2239C57.4993 37.2239 57.4993 39.3173 54.9989 39.3173C52.4986 39.3173 52.4986 37.2239 49.9982 37.2239C47.4982 37.2239 47.4982 39.3173 44.9981 39.3173C42.4981 39.3173 42.4981 37.2239 39.998 37.2239C37.498 37.2239 37.498 39.3173 34.9981 39.3173C32.4981 39.3173 32.4981 37.2239 29.9981 37.2239C27.4985 37.2239 27.4985 39.3173 24.9989 39.3173C22.4989 39.3173 22.4989 37.2239 19.9991 37.2239C17.4991 37.2239 17.4991 39.3173 14.9992 39.3173C12.4992 39.3173 12.4992 37.2239 9.99926 37.2239C7.49942 37.2239 7.49942 39.3173 4.99969 39.3173C2.49997 39.3173 2.49997 37.2239 0.00012207 37.2239V42.4292C0.00012207 44.3503 1.55754 45.9077 3.4786 45.9077H56.5212C58.4422 45.9077 59.9997 44.3503 59.9997 42.4292V37.2239Z" fill="#99E6FC"/>
<path d="M41.3765 39.3171C42.1857 39.3171 42.7324 39.0972 43.1873 38.8006C42.2368 38.1807 41.6888 37.2236 39.998 37.2236C39.1889 37.2236 38.6422 37.4435 38.1873 37.7401C39.1378 38.36 39.6857 39.3171 41.3765 39.3171Z" fill="#62DBFB"/>
<path d="M31.3764 39.3172C32.1857 39.3172 32.7324 39.0973 33.1873 38.8006C32.2368 38.1807 31.6889 37.2236 29.9983 37.2236C29.1891 37.2236 28.6424 37.4435 28.1875 37.7402C29.1378 38.3602 29.6857 39.3172 31.3764 39.3172Z" fill="#62DBFB"/>
<path d="M51.3772 39.3171C52.1864 39.3171 52.7331 39.0973 53.1881 38.8007C52.2374 38.1808 51.6894 37.2236 49.9983 37.2236C49.1891 37.2236 48.6424 37.4434 48.1875 37.7401C49.1381 38.36 49.6861 39.3171 51.3772 39.3171Z" fill="#62DBFB"/>
<path d="M1.3779 39.3171C2.18719 39.3171 2.73387 39.0972 3.18879 38.8005C2.23852 38.1806 1.69067 37.2236 0.00012207 37.2236V39.0398C0.369263 39.2077 0.808247 39.3171 1.3779 39.3171Z" fill="#62DBFB"/>
<path d="M56.3779 39.0395V42.429C56.3779 44.35 54.8205 45.9075 52.8994 45.9075H56.5211C58.4421 45.9075 59.9996 44.35 59.9996 42.429V37.2236C58.0695 37.2236 57.6285 38.4705 56.3779 39.0395Z" fill="#62DBFB"/>
<path d="M21.3771 39.3172C22.1863 39.3172 22.733 39.0973 23.1879 38.8005C22.2375 38.1806 21.6897 37.2236 19.999 37.2236C19.1897 37.2236 18.643 37.4435 18.1881 37.7402C19.1386 38.3602 19.6865 39.3172 21.3771 39.3172Z" fill="#62DBFB"/>
<path d="M11.3774 39.3172C12.1867 39.3172 12.7334 39.0973 13.1883 38.8006C12.2378 38.1807 11.6899 37.2236 9.99926 37.2236C9.19008 37.2236 8.6434 37.4435 8.18848 37.7402C9.13875 38.3602 9.68672 39.3172 11.3774 39.3172Z" fill="#62DBFB"/>
<path d="M31.7885 41.3403L25.9562 19.4687C25.8312 18.9997 25.3495 18.7212 24.8804 18.8459C24.4115 18.971 24.1325 19.4526 24.2577 19.9217L30.09 41.7933C30.1949 42.1864 30.5503 42.446 30.9387 42.446C31.0137 42.446 31.0899 42.4362 31.1657 42.4161C31.6347 42.2909 31.9136 41.8094 31.7885 41.3403Z" fill="#685E68"/>
<path d="M43.5902 41.3403L37.758 19.4687C37.6329 18.9997 37.1513 18.7212 36.6822 18.8459C36.2132 18.971 35.9343 19.4526 36.0595 19.9217L41.8917 41.7933C41.9965 42.1864 42.352 42.446 42.7403 42.446C42.8153 42.446 42.8915 42.4362 42.9674 42.4161C43.4364 42.2909 43.7153 41.8094 43.5902 41.3403Z" fill="#685E68"/>
<path d="M35.4762 49.0734L30.7421 50.3358C30.3788 50.4327 30.0058 50.2167 29.9089 49.8534L28.1816 43.3762C27.9761 42.6055 28.0915 41.7845 28.5014 41.1002L30.1022 38.4287L32.8206 39.9485C33.5168 40.3378 34.0257 40.9923 34.2312 41.763L35.9584 48.2402C36.0555 48.6035 35.8395 48.9765 35.4762 49.0734Z" fill="#FFD15B"/>
<path d="M35.9586 48.2402L34.2314 41.763C34.0258 40.9923 33.517 40.3378 32.8208 39.9485L30.1024 38.4287L29.1936 39.9455L29.1991 39.9485C29.8953 40.3378 30.4042 40.9923 30.6097 41.763L32.3369 48.2402C32.4338 48.6035 32.2179 48.9765 31.8546 49.0734L29.844 49.6096L29.909 49.8534C30.0059 50.2167 30.379 50.4327 30.7422 50.3358L35.4764 49.0734C35.8395 48.9765 36.0554 48.6035 35.9586 48.2402Z" fill="#FFC344"/>
<path d="M47.278 49.0734L42.5438 50.3358C42.1805 50.4327 41.8075 50.2167 41.7106 49.8534L39.9834 43.3762C39.7779 42.6055 39.8933 41.7845 40.3032 41.1002L41.904 38.4287L44.6224 39.9485C45.3186 40.3378 45.8274 40.9923 46.033 41.763L47.7602 48.2402C47.8572 48.6035 47.6412 48.9765 47.278 49.0734Z" fill="#FFD15B"/>
<path d="M47.7602 48.2402L46.033 41.763C45.8275 40.9923 45.3186 40.3378 44.6224 39.9485L41.904 38.4287L40.9952 39.9455L41.0007 39.9485C41.697 40.3378 42.2058 40.9923 42.4113 41.763L44.1386 48.2402C44.2355 48.6035 44.0195 48.9765 43.6562 49.0734L41.6456 49.6096L41.7107 49.8534C41.8076 50.2167 42.1806 50.4327 42.5439 50.3358L47.278 49.0734C47.6412 48.9765 47.8572 48.6035 47.7602 48.2402Z" fill="#FFC344"/>
</g>
<defs>
<clipPath id="clip0_98_1838">
<rect width="60" height="60" fill="white"/>
</clipPath>
</defs>
</svg>
