<svg width="58" height="57" viewBox="0 0 58 57" fill="none" xmlns="http://www.w3.org/2000/svg">
<path d="M53.4156 59.9601H6.58362C5.35681 59.9601 4.36255 58.9659 4.36255 57.739V21.9277H55.6371V57.739C55.6371 58.9659 54.6424 59.9601 53.4156 59.9601Z" fill="#FFC73B"/>
<path d="M4.36255 21.9277H55.6371V29.3797H4.36255V21.9277Z" fill="#EFB025"/>
<path d="M60 14.1591V23.3913C60 24.3773 59.1998 25.1761 58.2138 25.1761H1.78482C0.798797 25.1761 0 24.3773 0 23.3913V14.1591C0 13.1731 0.798797 12.3743 1.78482 12.3743H58.2138C59.1998 12.3743 60 13.1731 60 14.1591Z" fill="#FFC73B"/>
<path d="M27.9602 16.6185C27.5706 17.0722 27.1884 17.5322 26.8153 17.9973C25.4251 19.7272 24.1525 21.5399 23.0021 23.4214C22.6483 24 22.3068 24.5845 21.9754 25.176H9.80664C10.5175 23.5628 11.2971 21.9794 12.1417 20.4317C13.6734 17.6238 15.4211 14.9294 17.3739 12.3741C17.8404 11.7639 18.3178 11.1611 18.8072 10.5674C19.1002 10.2094 19.3982 9.85645 19.7003 9.50488C20.8108 10.4616 21.9204 11.4174 23.0314 12.3741C23.2036 12.5215 23.3757 12.6708 23.5473 12.8186C24.8584 13.9475 26.1694 15.0759 27.48 16.2061C27.6407 16.3425 27.8 16.4812 27.9602 16.6185Z" fill="#EFB025"/>
<path d="M46.1165 25.176H33.9468C33.6168 24.5845 33.2739 24 32.9201 23.4214C31.7697 21.5399 30.4958 19.7272 29.1069 17.9973C28.7325 17.5322 28.3502 17.0722 27.9602 16.6185C28.1209 16.4812 28.2802 16.3434 28.4409 16.2061C29.7528 15.0759 31.0638 13.9461 32.3744 12.8186C32.5465 12.6708 32.7187 12.5215 32.8908 12.3741C34.0013 11.4174 35.1123 10.4616 36.2219 9.50488C36.524 9.85553 36.8221 10.2094 37.115 10.5664C37.6053 11.1611 38.0832 11.7639 38.5483 12.3741C40.5011 14.9294 42.2488 17.6238 43.7814 20.4317C44.626 21.9794 45.4056 23.5628 46.1165 25.176Z" fill="#EFB025"/>
<path d="M29.9991 16.6195C29.6091 17.0727 29.2268 17.5327 28.8538 17.9978C27.464 19.7277 26.191 21.5404 25.0406 23.4223C21.3886 29.392 18.9629 36.0607 17.9398 43.0407C16.4021 41.0013 14.9831 38.7949 13.7064 36.4356C11.4606 37.9005 9.26559 39.5759 7.1521 41.4609C8.23746 34.0571 10.6288 26.9407 14.1806 20.4322C16.0776 16.9541 18.3069 13.6495 20.8456 10.5678C21.1386 10.2099 21.4366 9.85739 21.7387 9.50537C23.0214 10.61 24.3031 11.7145 25.5862 12.8191C26.8968 13.948 28.2079 15.0764 29.5189 16.2066C29.6791 16.343 29.8384 16.4817 29.9991 16.6195Z" fill="#FF4440"/>
<path d="M52.8469 41.4609C50.7334 39.5759 48.5385 37.9005 46.2927 36.4356C45.016 38.7949 43.5969 41.0013 42.0593 43.0407C41.0362 36.0607 38.6109 29.392 34.9584 23.4223C33.8081 21.5404 32.5341 19.7277 31.1453 17.9978C30.7708 17.5327 30.3886 17.0727 29.999 16.6195C30.1592 16.4817 30.3185 16.3439 30.4792 16.2066C31.7912 15.0764 33.1022 13.9466 34.4132 12.8191C35.6959 11.7132 36.979 10.61 38.2603 9.50537C38.5624 9.85602 38.8604 10.2099 39.1534 10.5669C41.6926 13.6486 43.9219 16.9532 45.8198 20.4322C49.3707 26.9407 51.7616 34.0571 52.8469 41.4609Z" fill="#FF4440"/>
<path d="M25.2227 16.6194H34.7766V25.1759H25.2227V16.6194Z" fill="#FF4440"/>
<path d="M45.8198 20.4322L34.9584 23.4223C33.8081 21.5404 32.5341 19.7277 31.1453 17.9978L30.4792 16.2065L29.999 14.9147L34.4132 12.8191L39.1534 10.5669C41.6926 13.6486 43.9219 16.9532 45.8198 20.4322Z" fill="#EA2F2F"/>
<path d="M29.9991 14.9148L29.519 16.2066L28.8538 17.9978C27.4641 19.7277 26.191 21.5405 25.0406 23.4223L14.1807 20.4322C16.0776 16.9541 18.3069 13.6495 20.8457 10.5679L25.5863 12.8192L29.9991 14.9148Z" fill="#EA2F2F"/>
<path d="M47.3336 0.415099L29.9995 8.64706L33.3293 17.6023L51.8312 12.5097C54.2509 11.8436 55.5803 9.24673 54.7055 6.89429L53.1784 2.78815C52.304 0.435698 49.601 -0.661562 47.3336 0.415099Z" fill="#FF4440"/>
<path d="M12.6654 0.415099L29.9995 8.64706L26.6697 17.6023L8.16829 12.5097C5.74855 11.8436 4.41921 9.24673 5.29399 6.89429L6.82064 2.78815C7.69542 0.435698 10.3981 -0.661562 12.6654 0.415099Z" fill="#FF4440"/>
<path d="M34.1385 12.2462C33.8236 12.2462 33.5146 12.0906 33.3329 11.8054C33.0486 11.3609 33.1781 10.7704 33.6226 10.4861C33.754 10.4023 36.876 8.41564 40.4602 6.96591C45.6275 4.87576 49.0781 4.98791 50.7151 7.29916C51.0204 7.72991 50.9183 8.32638 50.4876 8.63125C50.0568 8.93612 49.4608 8.8345 49.1559 8.40374C46.9367 5.27081 37.7095 10.1423 34.6521 12.0961C34.4928 12.1977 34.3148 12.2462 34.1385 12.2462Z" fill="#EA2F2F"/>
<path d="M25.7662 12.2462C25.59 12.2462 25.4119 12.1977 25.2526 12.0961C22.1952 10.1423 12.9681 5.27081 10.7488 8.40374C10.4435 8.8345 9.84751 8.93612 9.41675 8.63125C8.98646 8.32592 8.88437 7.72991 9.1897 7.29916C10.8267 4.98791 14.2768 4.87576 19.4445 6.96591C23.0288 8.41519 26.1508 10.4023 26.2821 10.4861C26.7266 10.7704 26.8562 11.3609 26.5724 11.8054C26.3897 12.0906 26.0812 12.2462 25.7662 12.2462Z" fill="#EA2F2F"/>
<path d="M32.7177 5.56909H27.2813C25.7936 5.56909 24.5874 6.7753 24.5874 8.26349V16.1613C24.5874 17.6495 25.7936 18.8557 27.2813 18.8557H32.7177C34.2055 18.8557 35.4117 17.6495 35.4117 16.1613V8.26349C35.4117 6.7753 34.2055 5.56909 32.7177 5.56909Z" fill="#EA2F2F"/>
<path d="M25.2227 25.176H34.7766V59.9601H25.2227V25.176Z" fill="#FF4440"/>
<path d="M25.2227 25.176H34.7766V29.3797H25.2227V25.176Z" fill="#EA2F2F"/>
</svg>
