<svg width="60" height="60" viewBox="0 0 60 60" fill="none" xmlns="http://www.w3.org/2000/svg">
<g clip-path="url(#clip0_113_9442)">
<path d="M22.299 28.0956C22.299 28.0956 17.8413 16.9263 22.6685 8.95505C27.3272 1.26214 36.4254 -1.00239 46.0828 2.44668C55.7403 5.89575 59.5558 17.8413 56.6513 24.8196C52.6094 34.5308 41.9079 40.0132 40.5499 47.4027C38.8871 56.4507 30.1135 60.7342 24.809 58.5606C19.8986 56.5486 15.3929 51.1501 20.301 41.2491C24.3097 33.1624 22.299 28.0956 22.299 28.0956Z" fill="#FFC89F"/>
<path d="M52.563 6.78271C55.3935 11.6104 56.0383 17.5055 54.3136 21.649C50.2717 31.3603 39.5702 36.8427 38.2122 44.2322C36.5495 53.2802 27.7758 57.5637 22.4713 55.3901C21.259 54.8933 20.0716 54.1897 19.0442 53.2632C20.2265 55.8765 22.4716 57.6025 24.8091 58.5604C30.1139 60.7338 38.8872 56.4504 40.5501 47.4024C41.9081 40.0129 52.6095 34.5305 56.6515 24.8193C58.7786 19.7084 57.3006 11.9331 52.563 6.78271Z" fill="#F7B081"/>
<path d="M28.1408 19.7352C28.1408 19.7352 31.6505 12.2858 39.5692 12.2858C47.488 12.2858 50.4581 18.6575 50.4581 18.6575C50.8667 10.0347 40.2195 5.03362 32.8039 9.4107C28.7711 11.791 28.0024 16.2043 28.1406 19.7353" fill="#F7B081"/>
<path d="M44.8276 25.8425C44.3777 18.7498 37.0803 13.5045 28.1408 19.735L29.01 25.0383C29.01 25.0383 33.4712 24.7735 33.676 28.5233C33.8706 32.0871 29.01 32.3939 29.01 32.3939L28.7856 32.2564C28.4852 34.0402 27.9473 35.8637 27.0118 37.3497C27.0118 37.3497 24.2796 45.3946 29.2888 45.6982C34.2979 46.0019 32.6662 39.4934 35.5502 37.3683C38.4341 35.243 45.1673 31.1983 44.8276 25.8425Z" fill="#F7B081"/>
<path d="M44.6677 27.6893C44.8078 27.0927 44.8679 26.4769 44.8277 25.8425C44.3778 18.7498 37.0804 13.5045 28.1409 19.735L28.6032 22.5555C36.7842 17.1791 43.4953 21.3988 44.6677 27.6893Z" fill="#E09C77"/>
<path d="M38.6356 52.548C38.2376 52.2715 37.6908 52.3699 37.4143 52.7681C35.8986 54.95 33.7525 56.6483 31.3715 57.5502C29.1544 58.39 26.8837 58.462 25.1417 57.7484C23.6004 57.1168 20.836 55.5831 19.6369 52.4055C18.522 49.4513 19.0101 45.8287 21.0872 41.6384C25.222 33.2976 23.2027 27.9935 23.1142 27.7706C23.0983 27.7306 21.5211 23.7155 21.3214 18.9125C21.3012 18.4282 20.89 18.05 20.4082 18.0722C19.924 18.0924 19.5478 18.5012 19.568 18.9853C19.7807 24.0999 21.4146 28.2467 21.4836 28.4192C21.5023 28.4662 23.3063 33.2112 19.5149 40.8591C17.2125 45.5035 16.7011 49.5968 17.995 53.0253C19.0575 55.8411 21.3593 58.0953 24.4763 59.3725C25.5146 59.7979 26.6422 60.0001 27.8061 60.0001C31.7735 60.0001 36.1606 57.6489 38.8557 53.7694C39.1321 53.3714 39.0336 52.8246 38.6356 52.548Z" fill="black"/>
<path d="M56.7234 11.5905C54.596 6.78386 50.9219 3.24315 46.3779 1.62045C41.4208 -0.150259 36.5429 -0.476861 32.2725 0.675446C27.881 1.86045 24.3003 4.5662 21.9179 8.50042C20.6806 10.5435 19.9186 12.9539 19.6527 15.6652C19.6055 16.1474 19.9581 16.5768 20.4403 16.6241C20.9235 16.6715 21.3519 16.3187 21.3992 15.8365C21.6392 13.3887 22.3187 11.2264 23.419 9.40968C27.7571 2.24588 36.3285 -0.105376 45.7878 3.27303C49.8741 4.73249 53.1879 7.93851 55.1186 12.3007C56.9601 16.4612 57.237 21.1289 55.8412 24.4822C53.9261 29.0835 50.4937 32.6765 47.1742 36.1509C43.7048 39.7825 40.4277 43.2125 39.687 47.244C39.4937 48.2956 39.1909 49.3141 38.787 50.2713C38.5987 50.7178 38.8078 51.2326 39.2543 51.4209C39.3656 51.4679 39.4814 51.4902 39.5951 51.4902C39.9373 51.4902 40.2626 51.2887 40.404 50.9536C40.8574 49.8792 41.1968 48.7378 41.4132 47.5611C42.0592 44.0457 45.0177 40.9489 48.4434 37.3632C51.7141 33.9398 55.4208 30.0597 57.4617 25.1565C59.0358 21.3742 58.753 16.1759 56.7234 11.5905Z" fill="black"/>
<path d="M50.4166 19.534C50.4308 19.5346 50.4448 19.535 50.4588 19.535C50.9244 19.535 51.3123 19.169 51.3347 18.6991C51.5257 14.6672 49.5215 11.0806 45.836 8.85892C41.6812 6.3545 36.3909 6.27458 32.3579 8.6549C31.9406 8.90122 31.8019 9.43923 32.0481 9.85654C32.2946 10.2737 32.8325 10.4126 33.2499 10.1661C36.7353 8.1088 41.3198 8.18568 44.9298 10.3617C48.0455 12.2399 49.741 15.2483 49.5815 18.6157C49.5588 19.1001 49.9324 19.511 50.4166 19.534Z" fill="black"/>
<path d="M31.0762 10.667C30.7052 10.3551 30.1517 10.4032 29.8399 10.7741C28.0153 12.9448 27.1304 16.0327 27.2648 19.7212C27.2643 19.7496 27.2658 19.7777 27.2682 19.8063C27.2727 19.9194 27.2751 20.0313 27.2817 20.1454C27.445 23.0136 28.1447 25.2148 28.1745 25.3071C28.1758 25.311 28.1779 25.3144 28.1792 25.3182C28.1935 25.3607 28.2104 25.4018 28.2304 25.4407C28.2316 25.4429 28.233 25.4451 28.2342 25.4474C28.2558 25.4883 28.2803 25.5272 28.3078 25.5637C28.3081 25.5642 28.3085 25.5647 28.3088 25.5651C28.3368 25.6022 28.3678 25.6365 28.401 25.6685C28.4028 25.6701 28.4044 25.6718 28.4062 25.6734C28.5085 25.7705 28.6329 25.8421 28.7697 25.8812C28.7704 25.8814 28.7711 25.8816 28.7718 25.8818C28.8167 25.8946 28.8628 25.9038 28.9099 25.9093C28.9123 25.9096 28.9148 25.9097 28.9172 25.91C28.9633 25.915 29.0101 25.9168 29.0574 25.9142C29.0581 25.9142 29.0588 25.9144 29.0595 25.9144C29.0595 25.9144 29.0617 25.9142 29.0622 25.9142C29.0626 25.9142 29.0628 25.9142 29.0631 25.9142C29.1058 25.9121 30.0704 25.8724 31.015 26.2167C32.1522 26.6312 32.7362 27.4015 32.8 28.5712C32.9446 31.2189 29.1161 31.5073 28.9531 31.5183C28.4704 31.5498 28.104 31.9662 28.1344 32.4492C28.1638 32.9141 28.5499 33.2715 29.0094 33.2715C29.028 33.2715 29.0466 33.2709 29.0655 33.2698C31.047 33.1447 34.7438 31.9818 34.5523 28.4755C34.4848 27.2385 34.0253 26.2319 33.1867 25.4837C32.1052 24.5188 30.6505 24.2502 29.7588 24.1802L29.0977 20.1471C34.0319 16.906 37.6176 17.7779 39.3421 18.6095C41.9813 19.8822 43.7476 22.6752 43.9521 25.8982C44.0804 27.9216 43.0577 29.9664 40.8255 32.1495C40.4791 32.4882 40.4729 33.0439 40.8117 33.3904C40.9836 33.5661 41.2112 33.6543 41.439 33.6543C41.6604 33.6543 41.8818 33.5711 42.0526 33.4041C44.672 30.8423 45.8661 28.3508 45.7034 25.787C45.4589 21.9323 43.3135 18.5764 40.1045 17.0286C38.1522 16.087 34.2377 15.0786 29.0296 18.1242C29.1383 15.9709 29.6888 13.6816 31.1837 11.9032C31.4951 11.5324 31.4472 10.9788 31.0762 10.667Z" fill="black"/>
<path d="M26.1808 37.0672C25.9999 37.6002 24.4634 42.3484 26.217 44.9595C26.8727 45.9357 27.9164 46.4939 29.2354 46.5738C29.3716 46.582 29.5033 46.5861 29.6318 46.5861C32.9996 46.5858 33.7644 43.8082 34.3827 41.5603C34.7805 40.1141 35.1562 38.7482 36.0705 38.0744C36.3873 37.841 36.7616 37.5769 37.158 37.2971C37.9418 36.744 38.8301 36.1169 39.7471 35.4001C40.1289 35.1016 40.1965 34.5503 39.898 34.1683C39.5996 33.7867 39.0483 33.719 38.6662 34.0174C37.783 34.7078 36.9133 35.3216 36.1461 35.8631C35.7422 36.1482 35.3606 36.4175 35.0294 36.6615C33.6254 37.696 33.1501 39.4239 32.6905 41.0947C32.0113 43.5637 31.5214 44.9549 29.3414 44.822C28.5577 44.7745 28.0279 44.5076 27.6745 43.9821C26.5943 42.3762 27.4291 38.8541 27.8423 37.6316C27.9982 37.1727 27.7524 36.6743 27.2938 36.5184C26.8352 36.3629 26.3367 36.6084 26.1808 37.0672Z" fill="black"/>
<path d="M1.76995 24.5351C1.43643 24.8866 1.45096 25.442 1.80276 25.7756C2.94417 26.8583 3.62561 28.6902 3.62561 30.6756C3.62561 32.661 2.94417 34.4927 1.80276 35.5756C1.4512 35.9091 1.43655 36.4645 1.77006 36.8161C1.94268 36.998 2.17436 37.0896 2.40674 37.0896C2.62354 37.0896 2.84081 37.0097 3.0105 36.8487C4.49444 35.4408 5.3805 33.133 5.3805 30.6755C5.3805 28.2178 4.49444 25.91 3.0105 24.5021C2.6587 24.1689 2.10334 24.1835 1.76995 24.5351Z" fill="black"/>
<path d="M7.29703 20.6494C6.94558 20.3158 6.39011 20.3304 6.05648 20.682C5.72308 21.0336 5.73761 21.589 6.08929 21.9225C8.1443 23.872 9.37113 27.144 9.37113 30.6755C9.37113 34.2068 8.1443 37.4789 6.08929 39.4283C5.73773 39.7619 5.72308 40.3173 6.05648 40.6689C6.2291 40.8508 6.46089 40.9424 6.69316 40.9424C6.91007 40.9424 7.12722 40.8625 7.29703 40.7015C9.69457 38.427 11.1259 34.679 11.1259 30.6755C11.126 26.6719 9.69469 22.9239 7.29703 20.6494Z" fill="black"/>
<path d="M11.8182 17.1495C11.4666 16.816 10.9112 16.8307 10.5776 17.1824C10.244 17.534 10.2586 18.0893 10.6104 18.4229C13.4952 21.1595 15.2174 25.74 15.2174 30.6756C15.2174 35.6112 13.4952 40.1917 10.6104 42.9284C10.2589 43.2619 10.2442 43.8174 10.5776 44.1689C10.7502 44.3508 10.982 44.4424 11.2144 44.4424C11.4312 44.4424 11.6485 44.3625 11.8182 44.2015C15.0455 41.1399 16.9724 36.0834 16.9724 30.6756C16.9724 25.2677 15.0455 20.2111 11.8182 17.1495Z" fill="black"/>
</g>
<defs>
<clipPath id="clip0_113_9442">
<rect width="60" height="60" fill="white"/>
</clipPath>
</defs>
</svg>
