<svg width="89" height="89" viewBox="0 0 89 89" fill="none" xmlns="http://www.w3.org/2000/svg">
<path d="M84.8281 34.7656L83.7052 35.5148C81.5128 36.9771 79.7463 38.9935 78.5853 41.3593C77.4242 43.725 76.9099 46.3559 77.0945 48.9848L62.5781 31.9844L84.8281 34.7656Z" fill="#E6E6E6"/>
<path d="M65.3594 50.0625L64.186 61.4117L62.7763 75.0364L43.8621 75.0816H43.829C40.6883 75.0811 37.6763 73.833 35.4557 71.612C34.3553 70.5114 33.0488 69.6384 31.6109 69.0427C30.173 68.4471 28.6318 68.1406 27.0755 68.1406H25.0312L13.9062 84.8281C14.7829 78.6915 14.376 72.4397 12.7111 66.4685C11.0463 60.4973 8.15979 54.9368 4.23445 50.139L4.17188 50.0625L22.25 59.7969L65.3594 50.0625Z" fill="#2B7CD4"/>
<path d="M27.8125 68.1406L31.9844 79.2656L44.5 75.0938L36.1562 68.1406H27.8125Z" fill="#CCCCCC"/>
<path d="M79.2655 57.1634V58.5471C79.2659 61.434 78.5082 64.2705 77.0683 66.7727C75.6283 69.2749 73.5566 71.3552 71.0603 72.8054C68.564 74.2555 65.7307 75.0248 62.8437 75.0363C59.9568 75.0477 57.1175 74.3009 54.6097 72.8705L41.524 65.4081C32.6169 60.3325 25.0873 53.1544 19.5921 44.5C19.0115 43.5874 18.4553 42.6603 17.9233 41.7188C12.8082 32.6725 10.0166 22.4988 9.7986 12.1089C9.78644 11.6361 9.78296 11.1615 9.78296 10.687L9.7847 9.272L9.79165 4.22925L15.1143 4.2362C27.5622 4.2515 39.7254 7.96186 50.0624 14.8971C50.9924 15.5211 51.9062 16.1701 52.8037 16.844C59.6618 21.9934 65.3929 28.4924 69.6442 35.9407L77.0944 48.9848C78.5175 51.4756 79.2659 54.2947 79.2655 57.1634Z" fill="#3EA7FF"/>
<path d="M64.186 61.4119L62.7763 75.0365L43.8621 75.0817H43.829C40.6883 75.0812 37.6763 73.8331 35.4557 71.6121C34.3553 70.5115 33.0488 69.6385 31.6109 69.0429C30.173 68.4473 28.6318 68.1407 27.0755 68.1408H25.0312V65.0692L64.186 61.4119Z" fill="#E6E6E6"/>
<path d="M62.7764 75.0365H62.5556C57.9102 75.0374 53.3105 74.1193 49.0213 72.3353L47.5108 71.706C43.2323 69.9279 39.3475 67.3215 36.0798 64.0367L61.4048 61.6709L62.7764 75.0365Z" fill="#E6E6E6"/>
<path d="M74.4366 70.2075C71.8807 72.7634 68.5556 74.4085 64.9732 74.8897C61.3908 75.3708 57.7495 74.6614 54.6097 72.8705L41.524 65.4081C32.6169 60.3326 25.0873 53.1544 19.5921 44.5C19.0115 43.5874 18.4553 42.6603 17.9233 41.7188C12.8082 32.6725 10.0166 22.4988 9.7986 12.1089C9.78644 11.6361 9.78296 11.1615 9.78296 10.687L9.7847 9.272L9.79165 4.22925L28.6607 17.9808C31.6957 20.1919 34.6439 22.5061 37.5051 24.9235C38.2247 25.5284 38.9386 26.1415 39.6466 26.7626C41.3432 28.2454 43.0067 29.764 44.6372 31.3186C45.3117 31.9636 45.9809 32.6131 46.645 33.2673C57.667 44.154 67.0307 56.6002 74.4366 70.2075Z" fill="#E6E6E6"/>
<path d="M27.1172 15.2969C28.2692 15.2969 29.2031 14.363 29.2031 13.2109C29.2031 12.0589 28.2692 11.125 27.1172 11.125C25.9652 11.125 25.0312 12.0589 25.0312 13.2109C25.0312 14.363 25.9652 15.2969 27.1172 15.2969Z" fill="#808080"/>
<path d="M55.625 57.0158L48.8944 57.6885C46.9008 57.8881 44.9019 57.3635 43.2633 56.2106C41.6246 55.0578 40.4556 53.3536 39.97 51.4098L39.1409 48.0966C40.6139 47.6028 41.9662 46.8037 43.1094 45.7517L55.625 57.0158Z" fill="#B3B3B3"/>
<path d="M45.1182 67.4453L55.625 79.2656V69.5312L45.1182 67.4453Z" fill="#B3B3B3"/>
<path d="M20.9654 69.6999L13.9062 84.8281C14.4763 80.8418 14.5055 76.7968 13.9932 72.8027C13.8471 71.6711 13.6588 70.5476 13.4282 69.4322C13.0565 67.6285 12.5729 65.8497 11.9802 64.1061C11.6413 63.1031 11.2658 62.1123 10.8538 61.1336C9.18719 57.1697 6.95781 53.4667 4.23445 50.139L4.17188 50.0625L18.4936 60.2923C19.9388 61.3254 20.9771 62.8315 21.4286 64.5496C21.88 66.2678 21.7162 68.0898 20.9654 69.6999Z" fill="#E6E6E6"/>
<path d="M27.1172 16.6875C27.8048 16.6875 28.4769 16.4836 29.0487 16.1016C29.6204 15.7196 30.066 15.1766 30.3291 14.5414C30.5922 13.9061 30.6611 13.2071 30.5269 12.5327C30.3928 11.8583 30.0617 11.2388 29.5755 10.7526C29.0893 10.2664 28.4698 9.93532 27.7954 9.80118C27.121 9.66703 26.422 9.73588 25.7868 9.99901C25.1515 10.2621 24.6085 10.7077 24.2265 11.2795C23.8445 11.8512 23.6406 12.5233 23.6406 13.2109C23.6417 14.1327 24.0083 15.0163 24.6601 15.6681C25.3118 16.3198 26.1955 16.6864 27.1172 16.6875ZM27.1172 12.5156C27.2547 12.5156 27.3891 12.5564 27.5035 12.6328C27.6178 12.7092 27.7069 12.8178 27.7596 12.9449C27.8122 13.0719 27.826 13.2117 27.7991 13.3466C27.7723 13.4815 27.7061 13.6054 27.6088 13.7026C27.5116 13.7998 27.3877 13.8661 27.2528 13.8929C27.118 13.9197 26.9782 13.906 26.8511 13.8533C26.7241 13.8007 26.6155 13.7116 26.5391 13.5972C26.4627 13.4829 26.4219 13.3485 26.4219 13.2109C26.4221 13.0266 26.4954 12.8499 26.6258 12.7195C26.7561 12.5892 26.9328 12.5158 27.1172 12.5156Z" fill="black"/>
<path d="M27.8125 33.375C31.4994 33.3708 35.0341 31.9044 37.6411 29.2974C40.2481 26.6903 41.7146 23.1556 41.7188 19.4688H38.9375C38.9342 22.4183 37.761 25.246 35.6754 27.3316C33.5898 29.4172 30.762 30.5904 27.8125 30.5938V33.375Z" fill="black"/>
<path d="M45.1106 45.6819C45.9821 44.652 46.6815 43.4882 47.1818 42.2353L44.5995 41.2024C43.887 43.0005 42.6492 44.5423 41.0476 45.6267C39.446 46.711 37.5548 47.2876 35.6207 47.2814H34.7656V50.0626H35.6207C36.4655 50.0624 37.3081 49.9772 38.1358 49.8084L38.6206 51.7474C39.1575 53.8502 40.3774 55.7151 42.0889 57.0496C43.8004 58.384 45.9065 59.1123 48.0767 59.1203C48.3933 59.1203 48.7127 59.1046 49.0329 59.0726L55.7634 58.3995C56.0315 58.3727 56.2861 58.2686 56.4961 58.0998C56.7062 57.931 56.8627 57.7048 56.9465 57.4487C57.0304 57.1926 57.0381 56.9177 56.9687 56.6573C56.8992 56.3969 56.7556 56.1624 56.5553 55.9821L45.1106 45.6819ZM48.7562 56.3051C47.0962 56.4633 45.4343 56.0229 44.0705 55.0634C42.7067 54.104 41.7308 52.6886 41.3188 51.0728L40.7879 48.9494C41.5982 48.5818 42.3663 48.1278 43.0789 47.5951L52.3566 55.945L48.7562 56.3051Z" fill="black"/>
<path d="M86.1814 34.4455C86.1161 34.1693 85.9678 33.9198 85.7565 33.7303C85.5452 33.5408 85.2809 33.4206 84.9993 33.3857L68.4183 31.3291C62.5494 22.5756 54.6183 15.3995 45.3232 10.4326C36.0282 5.46574 25.6545 2.86057 15.1156 2.8465L9.79283 2.83911H9.79088C9.42238 2.83909 9.06894 2.98534 8.80819 3.24573C8.54745 3.50613 8.40072 3.85937 8.40025 4.22787L8.39176 10.6851C8.37929 19.3415 10.1159 27.9112 13.4974 35.8797C16.879 43.8483 21.8356 51.0515 28.0699 57.0571L22.4512 58.3258L4.83118 48.8381C4.54775 48.6855 4.22016 48.636 3.90428 48.6979C3.5884 48.7599 3.30379 48.9295 3.09899 49.1778C2.8942 49.4262 2.7819 49.7379 2.78125 50.0598C2.7806 50.3817 2.89165 50.6938 3.09544 50.943L3.15766 51.0191C6.95537 55.6714 9.74866 61.0596 11.3616 66.8444C12.9746 72.6293 13.3722 78.6854 12.5296 84.6315C12.4849 84.9437 12.5477 85.2618 12.7077 85.5337C12.8676 85.8055 13.1152 86.0148 13.4098 86.1274C13.7044 86.24 14.0286 86.249 14.329 86.1531C14.6295 86.0572 14.8884 85.862 15.0633 85.5995L25.7754 69.5313H26.8387L30.5548 79.7413C30.6781 80.0813 30.9292 80.3597 31.2546 80.5175C31.58 80.6753 31.9542 80.6999 32.2975 80.5862L44.7664 76.4703L51.2655 76.4545L54.5856 80.1896C54.7729 80.4003 55.0199 80.5492 55.2938 80.6163C55.5677 80.6834 55.8555 80.6657 56.1191 80.5655C56.3827 80.4653 56.6096 80.2873 56.7697 80.0552C56.9298 79.823 57.0156 79.5477 57.0156 79.2657V76.4406L62.7805 76.4266C67.5201 76.4204 72.0637 74.5345 75.4148 71.1828C78.7659 67.8311 80.6508 63.2871 80.6562 58.5475V57.1629C80.6541 54.1683 79.9012 51.2221 78.4663 48.5938C78.3549 46.2569 78.8498 43.9309 79.903 41.8417C80.9562 39.7526 82.5318 37.9714 84.4768 36.6712L85.5995 35.9227C85.8356 35.7653 86.0179 35.5394 86.1219 35.2753C86.226 35.0113 86.2467 34.7217 86.1814 34.4455ZM11.1986 12.4913C13.366 13.2208 15.2881 14.5378 16.7508 16.2956C18.2135 18.0534 19.1593 20.1829 19.4827 22.4467L22.236 22.0534C21.817 19.1191 20.5453 16.3726 18.5788 14.1549C16.6123 11.9372 14.0376 10.346 11.1745 9.57911L11.1796 5.62232L15.1117 5.62775C25.9424 5.64627 36.5767 8.52084 45.9418 13.9615C47.3415 14.7753 48.7047 15.6423 50.0315 16.5625C49.3687 30.5461 37.7853 41.7188 23.6406 41.7188H19.5276C19.5104 41.6894 19.4927 41.6603 19.4756 41.6309C14.3334 32.7584 11.4883 22.7422 11.1986 12.4913ZM15.2151 71.5797L20.2888 66.506C20.2861 67.4068 20.0872 68.2961 19.7058 69.1121L15.7331 77.6251C15.6929 75.6008 15.5199 73.5813 15.2151 71.5797ZM14.5884 68.2731C14.2855 66.941 13.9243 65.6243 13.5048 64.3229L17.9094 64.9521L14.5884 68.2731ZM12.4381 61.3611C11.67 59.4356 10.7733 57.564 9.75408 55.7588L17.6856 61.4242C18.0231 61.6656 18.3356 61.9403 18.6183 62.2439L12.4381 61.3611ZM29.9436 69.9301C31.1023 70.2586 32.1948 70.7869 33.1716 71.4913L30.6923 71.9872L29.9436 69.9301ZM31.6546 74.6311L35.8536 73.7913C36.7771 74.4858 37.7868 75.0574 38.8575 75.4919L32.7068 77.5222L31.6546 74.6311ZM43.8591 73.6912H43.8344C41.0619 73.6837 38.4042 72.583 36.4383 70.628C35.2117 69.3947 33.7527 68.4169 32.1457 67.7513C30.5386 67.0856 28.8156 66.7453 27.0762 66.7501H25.0312C24.8023 66.7501 24.5769 66.8066 24.3751 66.9146C24.1732 67.0226 24.0012 67.1788 23.8742 67.3693L22.6464 69.211C23.1074 67.7594 23.1926 66.2145 22.8942 64.721C22.5957 63.2274 21.9233 61.834 20.9399 60.6709L21.5906 61.0214C21.8861 61.1804 22.229 61.2273 22.5563 61.1534L30.5708 59.3437C33.7459 62.098 37.1836 64.534 40.8345 66.6168L44.2543 68.5669L48.7986 73.6793L43.8591 73.6912ZM54.2343 75.6081L48.5304 69.1911L54.2343 70.6171V75.6081ZM77.875 58.5475C77.8752 61.029 77.2637 63.4722 76.0947 65.661C74.9257 67.8498 73.2351 69.7167 71.1726 71.0965C69.1102 72.4763 66.7394 73.3263 64.2701 73.5715C61.8008 73.8167 59.3091 73.4494 57.0156 72.5021V69.5313C57.0156 69.2212 56.9119 68.92 56.7211 68.6755C56.5302 68.4311 56.2631 68.2574 55.9623 68.1822L44.8373 65.4009C44.6555 65.3568 44.4666 65.35 44.2821 65.381L42.2123 64.2007C33.7673 59.3808 26.5837 52.6298 21.2493 44.5001H23.6406C38.6634 44.5001 51.0712 33.0973 52.6681 18.4926C59.0647 23.4444 64.423 29.6078 68.4372 36.6308L75.8873 49.6751C77.1888 51.9561 77.8738 54.5367 77.875 57.1629V58.5475ZM78.792 38.3412L75.8651 36.3899L74.3224 38.704L77.3539 40.725C76.7809 41.8865 76.3478 43.1119 76.0634 44.3755L70.8523 35.2514C70.6836 34.956 70.5126 34.6622 70.3391 34.3699L81.1733 35.7137C80.2863 36.5003 79.4878 37.3813 78.792 38.3412Z" fill="black"/>
</svg>
