<svg width="79" height="79" viewBox="0 0 79 79" fill="none" xmlns="http://www.w3.org/2000/svg">
<g clip-path="url(#clip0_99_5632)">
<path d="M66.9126 36.6976C66.2188 35.7388 66.1597 34.4695 66.7236 33.4289C68.4772 30.1938 69.4659 26.4834 69.4471 22.5408C69.3876 10.0091 59.0285 -0.159952 46.4978 0.00190574C34.1258 0.161757 24.1457 10.2409 24.1457 22.6508C24.1457 27.6737 25.7805 32.3144 28.5472 36.0703C29.7434 37.6945 29.6601 39.9432 28.3091 41.4411C26.2574 43.7156 21.8387 45.1914 12.479 38.9296C11.4526 38.243 10.2476 37.8705 9.01273 37.8705C5.93497 37.8705 3.32951 40.1276 2.87541 43.1717C1.21734 54.2842 1.00611 79.0001 31.9343 79.0001H42.9022C71.9102 79.0001 79.6369 54.2818 66.9126 36.6976Z" fill="#FFDE76"/>
<path d="M28.3088 41.4413C27.7024 42.1136 26.889 42.716 25.8024 43.0695C29.5779 43.9771 31.7922 42.866 33.0774 41.4413C34.4285 39.9434 34.5117 37.6949 33.3154 36.0706C30.5489 32.3147 28.914 27.6737 28.914 22.6509C28.914 10.9501 37.7865 1.32307 49.1702 0.126652C48.2924 0.0339192 47.4009 -0.00974684 46.4973 0.00182542C34.1253 0.161677 24.1453 10.2408 24.1453 22.6508C24.1453 27.6736 25.78 32.3144 28.5467 36.0704C29.7432 37.6947 29.6598 39.9433 28.3088 41.4413Z" fill="#FFB641"/>
<path d="M7.64372 43.1717C7.97346 40.9626 9.43634 39.1689 11.3904 38.3507C10.6396 38.0387 9.83335 37.8708 9.01234 37.8708C5.93458 37.8708 3.32912 40.1279 2.87502 43.172C1.21726 54.2842 1.00603 79.0001 31.9342 79.0001H36.7028C5.77457 79.0001 5.9858 54.2842 7.64372 43.1717Z" fill="#FFB641"/>
<path d="M12.4236 53.1299C11.0711 54.4655 10.8379 56.5658 11.8685 58.1629C14.8779 62.8268 22.4148 71.4761 36.922 71.4761C45.7564 71.4761 55.0968 65.9509 56.8361 56.8029C58.2726 49.2476 53.8665 40.0122 45.213 40.4094C38.8718 40.7005 35.1628 46.1824 29.8041 48.7168C26.0396 50.4974 21.959 51.5946 17.8172 52.0045C15.8459 52.1995 14.0109 51.5625 12.4236 53.1299Z" fill="#FFB641"/>
<path d="M59.928 17.1011C59.3876 17.1011 58.8982 16.7315 58.7687 16.1829L58.1955 13.7558C58.0442 13.115 58.441 12.4729 59.0817 12.3216C59.7223 12.1706 60.3646 12.5671 60.5158 13.2078L61.0891 15.6349C61.2404 16.2757 60.8436 16.9178 60.2029 17.0691C60.111 17.0907 60.0187 17.1011 59.928 17.1011Z" fill="#38484A"/>
<path d="M65.98 10.6455C65.98 10.6455 66.4735 17.7172 63.1976 20.9203C59.9217 24.1233 65.3815 29.1465 71.8606 24.4145C72.7913 23.7348 73.7342 23.3029 74.6663 23.0616C75.8663 22.7512 76.7097 21.678 76.7097 20.4387C76.7097 19.2469 75.9334 18.1865 74.7905 17.8487C74.0306 17.624 73.0655 17.49 71.9336 17.6443C71.9336 17.6443 75.8516 14.2284 74.8836 10.2761C74.5708 8.99854 73.0542 8.46683 71.9772 9.22196C70.5847 10.198 68.4235 11.2272 65.98 10.6455Z" fill="#FFB641"/>
</g>
<defs>
<clipPath id="clip0_99_5632">
<rect width="79" height="79" fill="white"/>
</clipPath>
</defs>
</svg>
