<svg width="60" height="60" viewBox="0 0 60 60" fill="none" xmlns="http://www.w3.org/2000/svg">
<path d="M45 54.3835H37.5V41.2585C37.5 39.1875 39.1789 37.5085 41.25 37.5085H45V54.3835Z" fill="#23AAE6"/>
<path d="M45.9375 58.1335H38.4375C37.9198 58.1335 37.5 57.7138 37.5 57.196V54.3835H45C46.0356 54.3835 46.875 55.223 46.875 56.2585V57.196C46.875 57.7138 46.4552 58.1335 45.9375 58.1335Z" fill="#F0915A"/>
<path d="M30 37.5085C24.8223 37.5085 20.625 41.7058 20.625 46.8835V50.6335H16.875V56.2585C16.875 57.2941 17.7144 58.1335 18.75 58.1335H24.375C28.5171 58.1335 31.875 54.7757 31.875 50.6335V37.5085H30Z" fill="#23AAE6"/>
<path d="M8.4375 57.821H9.375C10.4106 57.821 11.25 56.9816 11.25 55.946V49.696H8.4375C7.91977 49.696 7.5 50.1158 7.5 50.6335V56.8835C7.5 57.4014 7.91977 57.821 8.4375 57.821Z" fill="#FAB991"/>
<path d="M24.375 37.5085C19.1973 37.5085 15 41.7058 15 46.8835V49.696H11.25V56.2585C11.25 57.2941 12.0894 58.1335 13.125 58.1335H18.75C22.8921 58.1335 26.25 54.7757 26.25 50.6335H31.875V54.3835H39.375V49.8512C42.6855 48.4043 45 45.1025 45 41.2585V37.5085H24.375Z" fill="#5AD7FF"/>
<path d="M40.3125 58.1335H32.8125C32.2948 58.1335 31.875 57.7138 31.875 57.196V54.3835H39.375C40.4106 54.3835 41.25 55.223 41.25 56.2585V57.196C41.25 57.7138 40.8302 58.1335 40.3125 58.1335Z" fill="#FAB991"/>
<path d="M41.25 41.2585C43.3211 41.2585 45 39.5796 45 37.5085C45 35.4375 43.3211 33.7585 41.25 33.7585C39.1789 33.7585 37.5 35.4375 37.5 37.5085C37.5 39.5796 39.1789 41.2585 41.25 41.2585Z" fill="#FFD205"/>
<path d="M37.5 7.50854C29.2157 7.50854 22.5 14.2243 22.5 22.5085C22.5 30.7928 29.2157 37.5085 37.5 37.5085H43.125C48.3027 37.5085 52.5 33.3112 52.5 28.1335V22.5085C52.5 14.2243 45.7843 7.50854 37.5 7.50854Z" fill="#FAB991"/>
<path d="M33.75 22.5085V31.8835C31.1612 31.8835 29.0625 29.7848 29.0625 27.196C29.0625 24.6073 31.1612 22.5085 33.75 22.5085Z" fill="#F0915A"/>
<path d="M40.7812 25.321C41.5579 25.321 42.1875 24.6914 42.1875 23.9148C42.1875 23.1381 41.5579 22.5085 40.7812 22.5085C40.0046 22.5085 39.375 23.1381 39.375 23.9148C39.375 24.6914 40.0046 25.321 40.7812 25.321Z" fill="#463C4B"/>
<path d="M48.2812 25.321C49.0579 25.321 49.6875 24.6914 49.6875 23.9148C49.6875 23.1381 49.0579 22.5085 48.2812 22.5085C47.5046 22.5085 46.875 23.1381 46.875 23.9148C46.875 24.6914 47.5046 25.321 48.2812 25.321Z" fill="#463C4B"/>
<path d="M45.6249 30.946C44.9346 30.946 44.3749 30.3864 44.3749 29.696V26.2585C45.7556 26.2585 46.8748 27.3778 46.8748 28.7585V29.696C46.875 30.3864 46.3153 30.946 45.6249 30.946Z" fill="#F0915A"/>
<path d="M40.3125 29.071H38.4375C37.9198 29.071 37.5 28.6513 37.5 28.1335C37.5 27.6158 37.9198 27.196 38.4375 27.196H40.3125C40.8302 27.196 41.25 27.6158 41.25 28.1335C41.25 28.6513 40.8302 29.071 40.3125 29.071Z" fill="#F0915A"/>
<path d="M50.625 28.1335C50.625 28.6513 51.0448 29.071 51.5625 29.071H52.4532C52.4838 28.7627 52.5 28.4502 52.5 28.1338V27.196H51.5625C51.0448 27.196 50.625 27.6158 50.625 28.1335Z" fill="#F0915A"/>
<path d="M42.3264 12.9773H41.25C40.9911 12.9773 40.7812 12.7675 40.7812 12.5086C40.7812 12.2497 40.9911 12.0398 41.25 12.0398H42.3264C45.61 12.0398 48.2812 9.36856 48.2812 6.08496C48.2812 4.2757 46.8093 2.80371 45 2.80371C43.7077 2.80371 42.6562 3.85512 42.6562 5.14746C42.6562 5.92289 43.2871 6.55371 44.0625 6.55371C44.3214 6.55371 44.5312 6.76359 44.5312 7.02246C44.5312 7.28133 44.3214 7.49121 44.0625 7.49121C42.7702 7.49121 41.7188 6.43981 41.7188 5.14746C41.7188 3.3382 43.1907 1.86621 45 1.86621C47.3263 1.86621 49.2188 3.75867 49.2188 6.08496C49.2188 9.88547 46.1269 12.9773 42.3264 12.9773Z" fill="#463C4B"/>
</svg>
