<svg width="51" height="51" viewBox="0 0 51 51" fill="none" xmlns="http://www.w3.org/2000/svg">
<g clip-path="url(#clip0_53_14015)">
<path d="M26.7593 46.4228C27.5651 46.4228 28.2184 45.7695 28.2184 44.9641C28.2184 38.914 22.7737 36.3233 22.5418 36.2159C21.8107 35.877 20.9434 36.1953 20.6049 36.9264C20.2671 37.656 20.5827 38.5202 21.3099 38.861C21.478 38.9408 25.3006 40.8062 25.3006 44.9641C25.3006 45.7695 25.9539 46.4228 26.7593 46.4228Z" fill="#E8273F"/>
<path d="M11.7544 46.4228C12.5602 46.4228 13.2135 45.7695 13.2135 44.9641C13.2135 38.914 7.7684 36.3233 7.53688 36.2159C6.80576 35.877 5.93845 36.1953 5.59993 36.9264C5.26219 37.656 5.57776 38.5202 6.30499 38.861C6.47308 38.9408 10.2956 40.8062 10.2956 44.9641C10.2956 45.7695 10.9485 46.4228 11.7544 46.4228Z" fill="#E8273F"/>
<path d="M9.59406 26.759C6.53883 26.759 3.7264 28.5999 1.49062 31.689C0.500359 33.0574 0.500359 34.906 1.49062 36.2745C3.7264 39.3636 6.53883 41.2041 9.59406 41.2041C13.3438 41.2041 16.7275 38.4317 19.1286 33.9815C16.7275 29.5314 13.3438 26.759 9.59406 26.759Z" fill="#F8485E"/>
<path d="M13.8687 28.0156C12.5345 29.6413 11.7322 31.7199 11.7322 33.9821C11.7322 36.2444 12.5345 38.3229 13.8687 39.9482C15.8874 38.7233 17.6858 36.656 19.1286 33.9821C17.6858 31.3074 15.8878 29.2405 13.8687 28.0156Z" fill="#E8273F"/>
<path d="M27.5792 33.982C27.5792 37.5326 24.7006 40.4111 21.15 40.4111C17.5991 40.4111 14.7205 37.5326 14.7205 33.982C14.7205 30.4311 17.5991 27.5525 21.15 27.5525C24.7006 27.5525 27.5792 30.4311 27.5792 33.982Z" fill="#F8485E"/>
<path d="M31.8453 19.514C31.1776 19.514 30.5756 19.0529 30.4231 18.3743C29.171 12.7961 31.1888 9.38525 33.1021 7.50628C35.153 5.49229 37.5121 4.81214 37.6118 4.78412C38.3872 4.56584 39.1931 5.01836 39.411 5.79384C39.6292 6.56932 39.1771 7.37515 38.4016 7.59344C38.3903 7.59655 36.5837 8.13624 35.0701 9.66424C33.1165 11.637 32.5106 14.3525 33.2702 17.7354C33.4468 18.5214 32.9523 19.3019 32.1663 19.4782C32.0585 19.5023 31.9511 19.514 31.8453 19.514Z" fill="#F8485E"/>
<path d="M40.4721 19.7377C39.8141 19.6249 39.2982 19.0689 39.2624 18.3743C38.9694 12.6646 41.5339 9.64325 43.7366 8.11407C46.0981 6.47518 48.5382 6.20281 48.6409 6.19191C49.4424 6.10787 50.1599 6.68957 50.2444 7.49073C50.3284 8.29189 49.7471 9.00979 48.9456 9.09422C48.9339 9.09539 47.0623 9.32224 45.3125 10.5732C43.0538 12.188 41.9985 14.7623 42.1763 18.2249C42.2176 19.0296 41.5989 19.7151 40.7943 19.7568C40.6841 19.7622 40.5764 19.7556 40.4721 19.7377Z" fill="#F8485E"/>
<path d="M39.8655 13.3242C39.4075 14.7137 39.16 16.3794 39.2624 18.3744C39.2981 19.0689 39.8141 19.6249 40.4721 19.7378C40.5763 19.7557 40.6841 19.7623 40.7942 19.7565C41.5993 19.7152 42.218 19.0296 42.1767 18.225C42.1055 16.8363 42.2328 15.5911 42.5561 14.4931C41.7075 14.0176 40.8071 13.6242 39.8655 13.3242Z" fill="#E8273F"/>
<path d="M30.1192 13.6401C29.9574 15.0082 30.02 16.5782 30.4231 18.3743C30.5757 19.0529 31.1776 19.514 31.8453 19.514C31.9511 19.514 32.0585 19.5023 32.1663 19.4782C32.9523 19.3019 33.4464 18.5214 33.2702 17.735C32.8554 15.8876 32.8488 14.2393 33.2457 12.802C32.1601 12.9662 31.1134 13.2502 30.1192 13.6401Z" fill="#E8273F"/>
<path d="M47.558 27.2478C47.558 33.9415 42.1316 39.3676 35.4379 39.3676C28.7445 39.3676 23.3181 33.9415 23.3181 27.2478C23.3181 20.5541 28.7445 15.1277 35.4379 15.1277C42.1316 15.1277 47.558 20.5541 47.558 27.2478Z" fill="#FF6F7F"/>
<path d="M2.5708 46.4228C1.76497 46.4228 1.11206 45.7695 1.11206 44.9641C1.11206 38.914 6.55676 36.3233 6.78828 36.2159C7.51979 35.877 8.38671 36.1953 8.72523 36.9264C9.06297 37.656 8.74741 38.5202 8.02057 38.861C7.85208 38.9408 4.02994 40.8062 4.02994 44.9641C4.02994 45.7695 3.37663 46.4228 2.5708 46.4228Z" fill="#FF6F7F"/>
<path d="M17.68 46.4228C16.8746 46.4228 16.2213 45.7695 16.2213 44.9641C16.2213 38.914 21.666 36.3233 21.8979 36.2159C22.629 35.877 23.4959 36.1953 23.8348 36.9264C24.1722 37.656 23.8566 38.5202 23.1298 38.861C22.9613 38.9408 19.1391 40.8062 19.1391 44.9641C19.1391 45.7695 18.4858 46.4228 17.68 46.4228Z" fill="#FF6F7F"/>
<path d="M29.3184 25.844C28.9056 25.844 28.5714 26.1786 28.5714 26.5911V27.6988C28.5714 28.1113 28.9056 28.4459 29.3184 28.4459C29.7309 28.4459 30.0655 28.1113 30.0655 27.6988V26.5911C30.0655 26.1786 29.7309 25.844 29.3184 25.844Z" fill="black"/>
<path d="M41.5596 28.4459C41.972 28.4459 42.3067 28.1113 42.3067 27.6988V26.5911C42.3067 26.1786 41.972 25.844 41.5596 25.844C41.1471 25.844 40.8125 26.1786 40.8125 26.5911V27.6988C40.8125 28.1113 41.1471 28.4459 41.5596 28.4459Z" fill="black"/>
<path d="M34.4908 27.1299C34.2192 26.8194 33.7472 26.7875 33.4367 27.0591C33.1258 27.3307 33.0943 27.8027 33.3659 28.1132C33.8791 28.7003 34.6347 29.0369 35.439 29.0369C36.2433 29.0369 36.9989 28.7003 37.5121 28.1132C37.7833 27.8027 37.7518 27.3307 37.4413 27.0591C37.1304 26.7875 36.6584 26.8194 36.3868 27.1299C36.1577 27.3925 35.8121 27.5427 35.439 27.5427C35.0655 27.5427 34.7199 27.3925 34.4908 27.1299Z" fill="black"/>
<path d="M50.1704 5.94176C49.7268 5.58223 49.1513 5.38535 48.5638 5.44722C48.4533 5.45889 45.8276 5.75227 43.3117 7.49856C41.5689 8.70828 39.4226 10.939 38.7257 14.8051C37.6759 14.5273 36.5744 14.3791 35.439 14.3791C34.8569 14.3791 34.2837 14.4184 33.7219 14.4938C33.8359 12.7818 34.4651 11.3355 35.6016 10.188C36.9293 8.84797 38.5324 8.33319 38.6133 8.30789C39.7572 7.94992 40.4615 6.76471 40.1312 5.58963C39.807 4.43827 38.56 3.73945 37.4102 4.06318C37.3032 4.09353 34.7643 4.82582 32.5795 6.97133C30.92 8.60089 29.0429 11.462 29.3173 15.9308C25.3854 18.0662 22.6846 22.1922 22.5757 26.9467C22.1087 26.8525 21.6325 26.8035 21.1508 26.8035C19.2158 26.8035 17.459 27.5743 16.1668 28.8237C14.1606 26.9805 11.9026 26.0101 9.59484 26.0101C8.13804 26.0101 6.70342 26.3918 5.33145 27.1443C4.96959 27.3428 4.83729 27.7965 5.03573 28.1583C5.23417 28.5202 5.68787 28.6529 6.04973 28.4544C7.19914 27.8241 8.39174 27.5046 9.59484 27.5046C11.5365 27.5046 13.4637 28.3529 15.2018 29.9657C15.0738 30.1552 14.9563 30.3513 14.8473 30.5521C13.6489 32.7594 13.7073 35.5201 14.9983 37.6738C15.015 37.7018 15.2057 37.9909 15.2018 37.9944C13.5785 39.501 11.473 40.5703 9.21196 40.443C8.6108 40.4092 8.01236 40.2967 7.42248 40.1045C7.9326 39.7302 8.31625 39.5458 8.33804 39.5353C9.41508 39.0244 9.90729 37.6975 9.40418 36.6104C9.4034 36.6088 9.40224 36.6069 9.40146 36.6049C8.90341 35.5279 7.52676 35.0404 6.45829 35.5439C6.23339 35.6497 4.92523 36.2952 3.57543 37.594C3.06065 37.0711 2.56532 36.4816 2.09685 35.8345C1.29413 34.7252 1.29413 33.2345 2.09685 32.1252C2.67038 31.3326 3.28633 30.6244 3.92796 30.021C4.22835 29.7381 4.24274 29.2653 3.95987 28.9649C3.67699 28.6645 3.20423 28.6501 2.90384 28.933C2.19412 29.6011 1.51514 30.3805 0.886739 31.249C-0.295742 32.8824 -0.295742 35.0769 0.886739 36.7104C1.41631 37.4427 1.98089 38.1092 2.56999 38.7006C1.37312 40.1967 0.365731 42.2582 0.365731 44.9617C0.365731 46.1784 1.35561 47.1679 2.57194 47.1679C3.78827 47.1679 4.77776 46.178 4.77776 44.9617C4.77776 43.3403 5.43651 42.11 6.18786 41.2337C6.98591 41.5757 7.80264 41.7963 8.62909 41.8928C9.2392 42.822 9.54932 43.8527 9.54932 44.9617C9.54932 46.1784 10.5392 47.1679 11.7551 47.1679C12.9715 47.1679 13.9613 46.1784 13.9613 44.9617C13.9613 43.6177 13.7084 42.3352 13.21 41.1376C14.2364 40.6679 15.2286 39.9979 16.1656 39.1372C16.4018 39.366 16.6547 39.5792 16.9228 39.7757C16.0866 41.1388 15.4749 42.8555 15.4749 44.9617C15.4749 46.1784 16.4644 47.1679 17.6808 47.1679C18.8971 47.1679 19.887 46.178 19.887 44.9617C19.887 43.2885 20.5889 42.0329 21.3698 41.152C21.8831 41.136 22.3862 41.0656 22.8726 40.9446C23.9881 42.0952 24.5543 43.4446 24.5543 44.9617C24.5543 46.1784 25.5437 47.1679 26.7601 47.1679C27.9764 47.1679 28.9659 46.1784 28.9659 44.9617C28.9659 42.6065 28.1698 40.4127 26.6609 38.5746C26.9741 38.1999 27.2507 37.7905 27.4842 37.3524C29.6748 39.0804 32.4382 40.1123 35.4386 40.1123C42.5335 40.1123 48.3054 34.3404 48.3054 27.2455C48.3054 22.9416 46.1809 19.1249 42.9261 16.7876C43.0354 14.9289 43.5911 13.4012 44.5809 12.2437C44.849 11.93 44.8125 11.4585 44.4988 11.1904C44.1852 10.9223 43.7136 10.9592 43.4455 11.2725C42.3887 12.5082 41.7393 14.0604 41.5074 15.8977C41.0705 15.6635 40.6207 15.4549 40.1604 15.2732C40.7308 11.7787 42.6288 9.79115 44.1634 8.72579C46.3677 7.19584 48.6237 6.94331 48.7198 6.93281C49.1058 6.89234 49.4614 7.18183 49.5019 7.56665C49.5428 7.95692 49.2587 8.30789 48.8603 8.34992C48.8046 8.35653 47.4833 8.51684 45.9665 9.30049C45.6 9.4896 45.4564 9.94057 45.6455 10.3067C45.835 10.6732 46.2856 10.8172 46.6521 10.6277C47.8727 9.99737 48.9661 9.8429 49.033 9.83395C50.2385 9.70244 51.1144 8.61723 50.9879 7.41062C50.9264 6.82308 50.6144 6.30129 50.1704 5.94176ZM33.6266 8.03786C35.5409 6.15733 37.723 5.52776 37.8148 5.50169C38.188 5.39663 38.5876 5.62076 38.6927 5.99429C38.7997 6.37483 38.5693 6.76861 38.1931 6.87444C38.1121 6.89818 36.1872 7.47405 34.5406 9.13668C33.0515 10.6398 32.2694 12.5386 32.211 14.788C31.7277 14.9129 31.2515 15.0666 30.7857 15.2471C30.7359 11.6763 32.2655 9.37403 33.6266 8.03786ZM3.28361 44.9621C3.28361 45.3547 2.96415 45.6741 2.57155 45.6741C2.17934 45.6741 1.85988 45.3547 1.85988 44.9621C1.85988 42.3971 2.9233 40.5061 4.09294 39.2014C4.92289 38.2761 5.96102 37.4361 7.08941 36.8983C7.40303 36.7489 7.79836 36.8516 7.9933 37.1419C8.24933 37.5232 8.02442 38.0178 7.64544 38.2115C6.82171 38.6322 6.08358 39.1995 5.4369 39.8574C4.35091 40.9629 3.28361 42.6395 3.28361 44.9621ZM11.8061 41.6516C12.245 42.6843 12.4672 43.7952 12.4672 44.9621C12.4672 45.3547 12.1477 45.6737 11.7555 45.6737C11.3629 45.6737 11.0435 45.3547 11.0435 44.9621C11.0435 43.8819 10.8131 42.8617 10.3571 41.9142C10.7902 41.8742 11.217 41.7991 11.6392 41.6932C11.6501 41.6905 11.8049 41.6485 11.8061 41.6516ZM21.1508 28.2976C21.6547 28.2976 22.1512 28.3634 22.6325 28.4929C22.6329 28.498 22.7107 29.184 22.7729 29.5178C22.7729 29.519 22.7733 29.5206 22.7737 29.5217C23.2313 32.0949 24.4593 34.4583 26.3258 36.3283C26.0173 37.0081 25.5811 37.6077 25.0539 38.1053C24.8601 38.2882 24.6539 38.4578 24.4367 38.6123C24.4387 38.6084 24.4406 38.6041 24.4426 38.6003C24.7749 37.9929 24.8048 37.2396 24.5134 36.6108C24.0142 35.533 22.6403 35.0314 21.5663 35.5446C21.2683 35.6847 19.3905 36.6162 17.7889 38.559C16.7096 37.7649 15.9489 36.6147 15.6325 35.3283C15.2975 33.9661 15.494 32.4882 16.1644 31.2575C17.1306 29.4953 19.0033 28.2976 21.1508 28.2976ZM18.3928 44.9621C18.3928 45.3547 18.0738 45.6741 17.6812 45.6741C17.2886 45.6741 16.9691 45.3547 16.9691 44.9621C16.9691 43.1889 17.5279 41.4356 18.5656 39.9971C20.0792 37.8952 22.1255 36.9322 22.2126 36.8917C22.5609 36.7306 22.9967 36.8905 23.1578 37.2384C23.3177 37.5847 23.1543 38.0228 22.8103 38.1839C21.9193 38.6022 21.1473 39.2294 20.4702 39.9364C19.4111 41.0423 18.3928 42.694 18.3928 44.9621ZM26.7605 45.6741C26.3679 45.6741 26.0484 45.3547 26.0484 44.9621C26.0484 42.9652 25.255 41.4516 24.3788 40.389C24.5278 40.3135 24.6733 40.2314 24.8169 40.1454C24.8823 40.1069 25.5986 39.6314 25.5881 39.6185C26.8391 41.1765 27.4721 42.9707 27.4721 44.9621C27.4721 45.3547 27.1527 45.6741 26.7605 45.6741ZM46.8117 27.2459C46.8117 33.517 41.7098 38.6185 35.439 38.6185C29.576 38.6185 24.4609 33.8268 24.0889 27.9723C23.706 21.9424 28.4896 16.3969 34.5118 15.9106C34.8203 15.8857 35.1297 15.8732 35.439 15.8732C41.7098 15.8732 46.8117 20.9747 46.8117 27.2459Z" fill="black"/>
</g>
<defs>
<clipPath id="clip0_53_14015">
<rect width="51" height="51" fill="white"/>
</clipPath>
</defs>
</svg>
