<svg width="80" height="80" viewBox="0 0 80 80" fill="none" xmlns="http://www.w3.org/2000/svg">
<g clip-path="url(#clip0_99_7571)">
<path d="M65.9108 71.4126C65.2468 71.6751 64.9608 72.4423 65.2483 73.0955C65.4968 73.6595 65.6327 74.2392 65.6327 74.8017C65.6327 77.5189 62.4843 78.8283 58.6014 78.8283C57.7499 78.8283 56.9327 78.7658 56.178 78.6376C53.0877 67.3292 67.1374 53.2361 67.1374 53.2361C73.1186 58.6892 74.4046 68.0455 65.9108 71.4126Z" fill="#97A4B2"/>
<path d="M57.5284 73.3051C57.0005 73.6498 56.7161 74.2726 56.8333 74.8921C56.9063 75.2774 56.9438 75.657 56.9438 76.0251C56.9438 77.0095 56.6781 77.8954 56.1781 78.6376C53.4891 78.186 51.5703 76.9235 51.5703 74.8017C51.5703 73.522 52.2688 72.1563 53.4125 71.072L51.6797 71.272L59.4922 49.397C62.4594 49.9442 65.0767 51.3581 67.1373 53.2357C67.1373 53.2357 67.4714 66.8129 57.5284 73.3051Z" fill="#8697A6"/>
<path d="M14.0883 71.4126C14.7524 71.6751 15.0383 72.4423 14.7508 73.0955C14.5024 73.6595 14.3664 74.2392 14.3664 74.8017C14.3664 77.5189 17.5149 78.8283 21.3977 78.8283C22.2492 78.8283 23.0664 78.7658 23.8211 78.6376C26.9114 67.3292 12.8617 53.2361 12.8617 53.2361C6.88049 58.6892 5.59455 68.0455 14.0883 71.4126Z" fill="#8697A6"/>
<path d="M22.4708 73.3051C22.9988 73.6498 23.2832 74.2726 23.166 74.8921C23.093 75.2774 23.0555 75.657 23.0555 76.0251C23.0555 77.0095 23.3211 77.8954 23.8211 78.6376C26.5102 78.186 28.429 76.9235 28.429 74.8017C28.429 73.522 27.7305 72.1563 26.5868 71.072L28.3196 71.272L20.5071 49.397C17.5399 49.9442 14.9225 51.3581 12.8619 53.2357C12.8619 53.2357 12.5279 66.8129 22.4708 73.3051Z" fill="#77899B"/>
<path d="M43.3453 77.7718C42.2407 77.9655 41.125 78.0655 40 78.0655C38.8766 78.0655 37.7594 77.9655 36.6563 77.7718C35.7311 76.8466 3.87675 23.7046 40 23.7046C76.4086 23.7046 44.1161 77.001 43.3453 77.7718Z" fill="#77899B"/>
<path d="M68.1255 45.9421C68.1255 30.9312 54.6692 23.7046 40.0005 23.7046C47.796 23.7046 49.4442 57.6932 45.9711 70.3793C45.8803 70.711 45.6842 71.0063 45.4063 71.209C43.7135 72.4429 42.5875 74.4644 42.5875 76.0243C42.5875 78.4357 45.2766 78.828 48.5936 78.828C51.9108 78.828 54.5997 78.4357 54.5997 76.0243C54.5997 75.4643 54.4541 74.8447 54.1894 74.2235C53.9189 73.5886 54.1206 72.849 54.6605 72.4193C62.548 66.1405 68.1255 55.6069 68.1255 45.9421Z" fill="#97A4B2"/>
<path d="M68.0109 43.6015C66.2953 47.4921 61.3781 50.3015 55.5781 50.3015C52.5781 50.3015 49.8125 49.5499 47.6062 48.2843C47.4062 43.1702 46.8719 38.114 45.9922 33.9312C44.7266 27.9171 42.7437 23.7046 40 23.7046C49.4422 23.7046 58.3828 26.6983 63.5531 32.8374C65.9875 35.7249 67.5859 39.3077 68.0109 43.6015Z" fill="#8697A6"/>
<path d="M11.8755 45.9421C11.8755 30.9312 25.3317 23.7046 40.0005 23.7046C32.205 23.7046 30.5567 57.6932 34.0299 70.3793C34.1206 70.711 34.3167 71.0063 34.5947 71.209C36.2875 72.4429 37.4135 74.4644 37.4135 76.0243C37.4135 78.4357 34.7244 78.828 31.4074 78.828C28.0902 78.828 25.4013 78.4357 25.4013 76.0243C25.4013 75.4643 25.5469 74.8447 25.8116 74.2235C26.0821 73.5886 25.8803 72.849 25.3405 72.4193C17.453 66.1405 11.8755 55.6069 11.8755 45.9421Z" fill="#8697A6"/>
<path d="M11.9897 43.6015C13.7054 47.4921 18.6226 50.3015 24.4226 50.3015C27.4226 50.3015 30.1882 49.5499 32.3944 48.2843C32.5944 43.1702 33.1288 38.114 34.0085 33.9312C35.2741 27.9171 37.2569 23.7046 40.0007 23.7046C30.5585 23.7046 21.6179 26.6983 16.4476 32.8374C14.0132 35.7249 12.4147 39.3077 11.9897 43.6015Z" fill="#77899B"/>
<path d="M71.7453 37.1809L72.0622 32.4907C72.2917 29.0946 73.6239 25.8663 75.8561 23.2968L77.6762 21.2017C79.5587 19.0348 79.0776 15.6867 76.6434 14.1657C67.7351 8.59978 59.3133 7.04603 51.4158 9.44446V37.882L59.7248 43.2254C64.7262 46.4415 71.3444 43.1137 71.7453 37.1809Z" fill="#97A4B2"/>
<path d="M8.25468 37.1809L7.9378 32.4907C7.70827 29.0946 6.37608 25.8663 4.1439 23.2968L2.32374 21.2017C0.44124 19.0348 0.922334 15.6867 3.35655 14.1657C12.2648 8.59978 20.6867 7.04603 28.5842 9.44446V37.882L20.2751 43.2254C15.2737 46.4415 8.65562 43.1137 8.25468 37.1809Z" fill="#8697A6"/>
<path d="M64.2187 23.8281C64.2187 36.3406 53.3765 46.4844 39.9999 46.4844C39.1187 46.4844 38.2484 46.4406 37.3905 46.3531C29.3818 40.6717 26.9529 33.7405 26.9529 27.178C26.9529 17.0952 35.7573 5.28484 42.556 1.29688C54.7312 2.49063 64.2187 12.1234 64.2187 23.8281Z" fill="#A5B0BD"/>
<path d="M33.3047 28.0016C33.3047 34.5641 34.7703 40.7844 37.3906 46.3531C25.2422 45.1375 15.7812 35.5156 15.7812 23.8281C15.7812 11.3156 26.625 1.17188 40 1.17188C40.8625 1.17188 41.7156 1.21406 42.5562 1.29688C36.7625 8.64375 33.3047 17.9188 33.3047 28.0016Z" fill="#97A4B2"/>
<path d="M58.4636 41.9125C58.9141 43.8061 53.9127 45.5046 50.4927 45.0375C46.003 44.4242 44.2427 41.3762 44.2427 38.7875C44.2427 34.9862 48.9031 33.6323 50.3753 36.7568C52.5394 41.35 57.8645 39.3939 58.4636 41.9125Z" fill="#FFF8E6"/>
<path d="M21.5367 41.9125C21.0863 43.8061 26.0877 45.5046 29.5077 45.0375C33.9974 44.4242 35.7577 41.3762 35.7577 38.7875C35.7577 34.9862 31.0972 33.6323 29.625 36.7568C27.461 41.35 22.1358 39.3939 21.5367 41.9125Z" fill="#FFF8E6"/>
<path d="M27.5694 32.9076C30.1026 32.9076 32.1561 31.2723 32.1561 29.255C32.1561 27.2376 30.1026 25.6023 27.5694 25.6023C25.0362 25.6023 22.9827 27.2376 22.9827 29.255C22.9827 31.2723 25.0362 32.9076 27.5694 32.9076Z" fill="#FFA1AC"/>
<path d="M52.431 32.9076C54.9641 32.9076 57.0177 31.2723 57.0177 29.255C57.0177 27.2376 54.9641 25.6023 52.431 25.6023C49.8978 25.6023 47.8442 27.2376 47.8442 29.255C47.8442 31.2723 49.8978 32.9076 52.431 32.9076Z" fill="#FFA1AC"/>
<path d="M53.9283 56.9046C54.5799 57.8828 53.9299 59.2015 52.7565 59.2796L48.408 59.5687C47.958 59.5984 47.5111 59.6109 47.069 59.6031C37.5749 53.8403 32.2961 45.2503 33.8096 34.6218H50.8033L48.708 43.7828C48.1315 46.3062 49.7533 48.8078 52.2924 49.3093L53.1471 49.4781C54.2174 49.6906 54.7283 50.9218 54.1236 51.8281L52.9002 53.664C52.558 54.1781 52.558 54.8484 52.9002 55.3625L53.9283 56.9046Z" fill="#A5B0BD"/>
<path d="M47.0688 59.6031C38.6907 59.5031 31.5673 53.1984 30.572 44.7421L29.3813 34.6218H33.8095C35.3188 44.4281 40.1298 53.1453 47.0688 59.6031Z" fill="#97A4B2"/>
<path d="M67.1405 53.239C73.1187 58.6921 74.403 68.0468 65.9108 71.4125C65.2468 71.675 64.9608 72.4421 65.2483 73.0953C65.4968 73.6593 65.6327 74.239 65.6327 74.8015C65.6327 77.5187 62.4843 78.8281 58.6015 78.8281C56.7015 78.8281 54.978 78.514 53.7124 77.8749" stroke="black" stroke-miterlimit="10" stroke-linecap="round" stroke-linejoin="round"/>
<path d="M12.8593 53.239C6.87966 58.6906 5.59528 68.0468 14.089 71.4125C14.7515 71.675 15.039 72.4421 14.7515 73.0953C14.5015 73.6593 14.3672 74.239 14.3672 74.8015C14.3672 77.5187 17.5156 78.8281 21.3984 78.8281C23.2984 78.8281 25.0218 78.514 26.2875 77.8749" stroke="black" stroke-miterlimit="10" stroke-linecap="round" stroke-linejoin="round"/>
<path d="M36.6562 77.772C37.7594 77.9657 38.8766 78.0657 40 78.0657C41.125 78.0657 42.2406 77.9657 43.3453 77.772" stroke="black" stroke-miterlimit="10" stroke-linecap="round" stroke-linejoin="round"/>
<path d="M67.9843 43.3452C68.0765 44.1827 68.1249 45.0483 68.1249 45.9421C68.1249 55.6077 62.5483 66.1405 54.6608 72.4187C54.1202 72.8483 53.9187 73.589 54.189 74.2233C54.4546 74.8452 54.5999 75.464 54.5999 76.0249C54.5999 78.4358 51.9108 78.828 48.5937 78.828C45.2765 78.828 42.5874 78.4358 42.5874 76.0249C42.5874 74.464 43.714 72.4421 45.4062 71.2093C45.6843 71.0062 45.8796 70.7108 45.9702 70.3796C46.728 67.6108 47.2421 63.8265 47.5015 59.603" stroke="black" stroke-miterlimit="10" stroke-linecap="round" stroke-linejoin="round"/>
<path d="M57.7104 8.37653C63.7448 8.13122 70.0605 10.0531 76.6433 14.1656C79.0776 15.6859 79.5589 19.0343 77.6761 21.2015L75.8558 23.2968C73.6229 25.8656 72.2917 29.0937 72.062 32.4906L71.7448 37.1812C71.3433 43.114 64.7261 46.4422 59.7245 43.225L58.4589 42.4109" stroke="black" stroke-miterlimit="10" stroke-linecap="round" stroke-linejoin="round"/>
<path d="M21.5411 42.4109L20.2755 43.225C15.2739 46.4422 8.65673 43.114 8.25517 37.1812L7.93798 32.4906C7.7083 29.0937 6.37705 25.8656 4.14423 23.2968L2.32392 21.2015C0.441108 19.0343 0.922358 15.6859 3.35673 14.1656C9.93955 10.0531 16.2552 8.13122 22.2895 8.37653" stroke="black" stroke-miterlimit="10" stroke-linecap="round" stroke-linejoin="round"/>
<path d="M64.1142 21.7046C64.1829 22.403 64.2188 23.1124 64.2188 23.828C64.2188 30.3952 61.2313 36.3093 56.4595 40.4452" stroke="black" stroke-miterlimit="10" stroke-linecap="round" stroke-linejoin="round"/>
<path d="M62.8781 16.3766C61.7594 13.3703 59.9844 10.6547 57.7109 8.37656C53.2922 3.94375 46.9922 1.17188 40 1.17188C33.0094 1.17188 26.7094 3.94375 22.2891 8.37656C18.2516 12.4234 15.7812 17.8562 15.7812 23.8281C15.7812 30.3953 18.7672 36.3094 23.5391 40.4453" stroke="black" stroke-miterlimit="10" stroke-linecap="round" stroke-linejoin="round"/>
<path d="M50.3344 36.6733C50.3485 36.6999 50.361 36.728 50.375 36.7562C52.5391 41.3499 57.8641 39.3936 58.4641 41.9124C58.9141 43.8061 53.9125 45.5046 50.4922 45.0374C49.7969 44.9421 49.1657 44.789 48.5969 44.5874" stroke="black" stroke-miterlimit="10" stroke-linecap="round" stroke-linejoin="round"/>
<path d="M30.5828 44.8312C30.2438 44.9171 29.8859 44.9858 29.5078 45.0374C26.0875 45.5046 21.0859 43.8062 21.5359 41.9124C22.1359 39.3937 27.4609 41.3499 29.625 36.7562C29.6266 36.7515 29.6297 36.7483 29.6313 36.7437" stroke="black" stroke-miterlimit="10" stroke-linecap="round" stroke-linejoin="round"/>
<path d="M30.2424 23.8638V25.7388" stroke="black" stroke-miterlimit="10" stroke-linecap="round" stroke-linejoin="round"/>
<path d="M49.7578 23.8638V25.7388" stroke="black" stroke-miterlimit="10" stroke-linecap="round" stroke-linejoin="round"/>
<path d="M29.3813 34.6218L29.6313 36.7437L30.572 44.7421C30.5751 44.7718 30.5798 44.8015 30.5829 44.8312C31.1845 49.7203 33.836 53.8828 37.5892 56.5312" stroke="black" stroke-miterlimit="10" stroke-linecap="round" stroke-linejoin="round"/>
<path d="M42.511 58.9171C44.3735 59.4687 46.361 59.7046 48.4079 59.5687L52.7563 59.2796C53.9297 59.2015 54.5797 57.8828 53.9282 56.9046L52.9 55.3625C52.5579 54.8484 52.5579 54.1781 52.9 53.664L54.1235 51.8281C54.7282 50.9218 54.2172 49.6906 53.1469 49.4781L52.2922 49.3093C50.0235 48.8609 48.4875 46.8171 48.5969 44.5874C48.6094 44.3218 48.6469 44.0531 48.7079 43.7828L50.3344 36.6734L50.8032 34.6218" stroke="black" stroke-miterlimit="10" stroke-linecap="round" stroke-linejoin="round"/>
<path d="M19.8032 66.8593C21.4626 68.9343 23.3267 70.8155 25.3407 72.4187C25.8798 72.8483 26.0813 73.589 25.811 74.2233C25.547 74.8452 25.4017 75.464 25.4017 76.0249C25.4017 78.4358 28.0907 78.828 31.4079 78.828C34.7251 78.828 37.4142 78.4358 37.4142 76.0249C37.4142 74.464 36.2876 72.4421 34.5938 71.2093C34.3173 71.0062 34.1204 70.7108 34.0298 70.3796C32.7532 65.7155 32.1673 58.1702 32.3282 50.4937" stroke="black" stroke-miterlimit="10" stroke-linecap="round" stroke-linejoin="round"/>
<path d="M12.0156 43.3452C11.9234 44.1827 11.875 45.0483 11.875 45.9421C11.875 51.4468 13.6844 57.2343 16.7016 62.3546" stroke="black" stroke-miterlimit="10" stroke-linecap="round" stroke-linejoin="round"/>
</g>
<defs>
<clipPath id="clip0_99_7571">
<rect width="80" height="80" fill="white"/>
</clipPath>
</defs>
</svg>
