<svg width="57" height="57" viewBox="0 0 57 57" fill="none" xmlns="http://www.w3.org/2000/svg">
<g clip-path="url(#clip0_98_3831)">
<mask id="mask0_98_3831" style="mask-type:luminance" maskUnits="userSpaceOnUse" x="0" y="0" width="57" height="57">
<path d="M0 3.8147e-06H57V57H0V3.8147e-06Z" fill="white"/>
</mask>
<g mask="url(#mask0_98_3831)">
<path d="M44.6357 39.4192H12.3643V27.4975C12.3643 24.8955 14.4736 22.7863 17.0754 22.7863H39.9245C42.5264 22.7863 44.6357 24.8955 44.6357 27.4975V39.4192Z" fill="#FFF3A7"/>
<path d="M39.9246 22.7863H35.4714C38.0734 22.7863 40.1826 24.8955 40.1826 27.4975V39.4192H44.6357V27.4975C44.6357 24.8955 42.5265 22.7863 39.9246 22.7863Z" fill="#FCE65B"/>
<path d="M50.143 52.384H6.85706V42.395C6.85706 39.793 8.96639 37.6838 11.5683 37.6838H45.4317C48.0336 37.6838 50.143 39.793 50.143 42.395V52.384Z" fill="#FFF3A7"/>
<path d="M45.4316 37.6838H40.9785C43.5805 37.6838 45.6898 39.793 45.6898 42.395V52.384H50.1429V42.395C50.1429 39.793 48.0336 37.6838 45.4316 37.6838Z" fill="#FCE65B"/>
<path d="M45.4317 37.6839H11.5683C8.96639 37.6839 6.85706 39.7931 6.85706 42.3951V42.4257C10.4641 42.4257 10.4641 48.2908 14.0712 48.2908C17.6781 48.2908 17.6781 42.4257 21.2851 42.4257C24.8921 42.4257 24.8921 48.2908 28.4991 48.2908C32.1064 48.2908 32.1064 42.4257 35.7135 42.4257C39.3209 42.4257 39.3209 48.2908 42.9284 48.2908C46.5356 48.2908 46.5356 42.4257 50.143 42.4257V42.3951C50.143 39.7931 48.0336 37.6839 45.4317 37.6839Z" fill="#F54C5A"/>
<path d="M45.4316 37.684H40.9785C43.5805 37.684 45.6898 39.7932 45.6898 42.3952V42.4258V46.6511C46.9733 44.916 47.7924 42.4258 50.1429 42.4258V42.3952C50.1429 39.7932 48.0336 37.684 45.4316 37.684Z" fill="#EB3443"/>
<path d="M17.7598 32.0396C20.4446 32.0396 20.4446 27.6738 23.1295 27.6738C25.8145 27.6738 25.8145 32.0396 28.4994 32.0396C31.1844 32.0396 31.1844 27.6738 33.8694 27.6738C36.5545 27.6738 36.5545 32.0396 39.2398 32.0396C41.9249 32.0396 41.9249 27.6738 44.6101 27.6738H44.6357V27.4976C44.6357 24.8956 42.5265 22.7864 39.9245 22.7864H17.0756C14.4735 22.7864 12.3643 24.8956 12.3643 27.4976V27.6738H12.39C15.0749 27.6738 15.0749 32.0396 17.7598 32.0396Z" fill="#F54C5A"/>
<path d="M39.9246 22.7863H35.4714C38.0734 22.7863 40.1826 24.8955 40.1826 27.4975V31.8269C41.9723 30.9528 42.2828 27.6737 44.6101 27.6737H44.6357V27.4975C44.6357 24.8955 42.5265 22.7863 39.9246 22.7863Z" fill="#EB3443"/>
<path d="M30.7703 5.79597C30.7703 7.04774 29.7538 8.0625 28.4999 8.0625C27.2462 8.0625 26.2297 7.04774 26.2297 5.79597C26.2297 4.54409 28.4999 0.834968 28.4999 0.834968C28.4999 0.834968 30.7703 4.54409 30.7703 5.79597Z" fill="#FFDB63"/>
<path d="M31.5497 22.7864H25.4506V12.5909H31.5497V22.7864Z" fill="#8FE0FF"/>
<path d="M31.5011 19.356H25.4988V16.0216H31.5011V19.356Z" fill="#BDEDFF"/>
<path d="M52.3841 56.165H4.61589C2.52771 56.165 0.834961 54.4723 0.834961 52.3841H56.165C56.165 54.4723 54.4723 56.165 52.3841 56.165Z" fill="#BDEDFF"/>
<path d="M14.0587 45.2087C15.1333 45.2087 15.135 43.5388 14.0587 43.5388C12.9843 43.5388 12.9824 45.2087 14.0587 45.2087Z" fill="#060606"/>
<path d="M28.5003 45.2087C29.5748 45.2087 29.5766 43.5388 28.5003 43.5388C27.4258 43.5388 27.4239 45.2087 28.5003 45.2087Z" fill="#060606"/>
<path d="M42.9418 45.2087C44.0163 45.2087 44.018 43.5388 42.9418 43.5388C41.8673 43.5388 41.8655 45.2087 42.9418 45.2087Z" fill="#060606"/>
<path d="M17.7606 29.4634C18.835 29.4634 18.8369 27.7935 17.7606 27.7935C16.686 27.7935 16.6842 29.4634 17.7606 29.4634Z" fill="#060606"/>
<path d="M28.5003 29.4634C29.5748 29.4634 29.5766 27.7935 28.5003 27.7935C27.4258 27.7935 27.4239 29.4634 28.5003 29.4634Z" fill="#060606"/>
<path d="M39.24 29.4634C40.3144 29.4634 40.3163 27.7935 39.24 27.7935C38.1656 27.7935 38.1637 29.4634 39.24 29.4634Z" fill="#060606"/>
<path d="M39.3723 9.23438C39.795 9.23438 40.2092 8.80877 40.2073 8.39574L40.2014 7.07617C40.1968 6.02779 38.5266 5.98315 38.5315 7.08363L38.5374 8.40309C38.5395 8.86298 38.9128 9.23438 39.3723 9.23438Z" fill="#060606"/>
<path d="M35.8735 10.2434C36.6401 11.0017 37.8159 9.81633 37.0481 9.0564L36.1094 8.12748C35.342 7.36822 34.1675 8.55509 34.9348 9.31446L35.8735 10.2434Z" fill="#060606"/>
<path d="M33.9662 13.4307H33.97L35.2916 13.4248C36.3462 13.4201 36.3157 11.7548 35.2842 11.7548L33.9627 11.7607C32.8851 11.7655 32.8892 13.4307 33.9662 13.4307Z" fill="#060606"/>
<path d="M35.9481 14.9084L35.0178 15.8455C34.2573 16.6112 35.4416 17.7889 36.2028 17.022L37.1332 16.0849C37.8939 15.3189 36.7086 14.142 35.9481 14.9084Z" fill="#060606"/>
<path d="M41.803 14.8295C41.4787 15.1572 41.4814 15.6858 41.8092 16.0102L42.7478 16.9391C43.5144 17.6976 44.6904 16.5121 43.9224 15.7522C43.5168 15.2131 42.499 14.1263 41.803 14.8295Z" fill="#060606"/>
<path d="M42.7345 12.4807C42.7364 12.8946 43.1514 13.312 43.5731 13.312L44.8947 13.3061C45.9493 13.3014 45.9188 11.6362 44.8874 11.6362L43.5658 11.6421C43.1046 11.6441 42.7324 12.0196 42.7345 12.4807Z" fill="#060606"/>
<path d="M42.3167 10.4053C42.5315 10.4053 42.746 10.323 42.9092 10.1586L43.8396 9.22141C44.6002 8.45525 43.4149 7.27862 42.6545 8.04489L41.7242 8.98205C41.2312 9.47869 41.6175 10.4053 42.3167 10.4053Z" fill="#060606"/>
<path d="M17.5148 3.3501C17.9375 3.3501 18.3518 2.92449 18.3499 2.51146L18.344 1.19189C18.3393 0.143514 16.6692 0.0988712 16.6741 1.19935L16.68 2.51881C16.6821 2.97871 17.0554 3.3501 17.5148 3.3501Z" fill="#060606"/>
<path d="M14.0163 4.35935C14.7829 5.11772 15.9588 3.93229 15.1909 3.17237L14.2522 2.24345C13.4849 1.48408 12.3103 2.67106 13.0776 3.43043L14.0163 4.35935Z" fill="#060606"/>
<path d="M12.1089 7.54639H12.1127L13.4343 7.54049C14.4889 7.53581 14.4584 5.87056 13.4269 5.87056L12.1054 5.87646C11.0278 5.88125 11.0319 7.54639 12.1089 7.54639Z" fill="#060606"/>
<path d="M14.0908 9.02407L13.1605 9.96123C12.4002 10.7271 13.5843 11.9046 14.3455 11.1377L15.2759 10.2006C16.0364 9.43454 14.8511 8.2578 14.0908 9.02407Z" fill="#060606"/>
<path d="M19.9457 8.94547C19.6213 9.27322 19.6241 9.80192 19.952 10.1262L20.8906 11.055C21.6569 11.8137 22.8332 10.6279 22.0652 9.86805L21.1265 8.93924C20.7987 8.61471 20.2701 8.61772 19.9457 8.94547Z" fill="#060606"/>
<path d="M20.8771 6.59669C20.8792 7.05659 21.2525 7.42798 21.7119 7.42798H21.7157L23.0373 7.42208C24.0919 7.4174 24.0614 5.75216 23.0299 5.75216L21.7084 5.75806C21.2471 5.76006 20.875 6.13557 20.8771 6.59669Z" fill="#060606"/>
<path d="M20.4593 4.521C20.674 4.521 20.8886 4.43872 21.0518 4.27429L21.9823 3.33713C22.743 2.57108 21.5575 1.39412 20.7972 2.16062L19.8668 3.09778C19.3737 3.59441 19.7602 4.521 20.4593 4.521Z" fill="#060606"/>
<path d="M52.3842 55.3301H4.61601C3.28152 55.3301 2.15132 54.4381 1.7905 53.2191H40.8011C41.8806 53.2191 41.8806 51.5492 40.8011 51.5492H7.69211V43.4093C8.21725 43.6472 8.80618 44.2562 9.75291 45.7956C10.7129 47.3566 11.801 49.1259 14.0712 49.1259C16.3414 49.1259 17.4294 47.3566 18.3894 45.7956C19.3593 44.2183 20.0383 43.2607 21.2851 43.2607C22.1169 43.2607 22.7269 43.4312 24.1809 45.7956C25.1409 47.3566 26.229 49.1259 28.4992 49.1259C30.7695 49.1259 31.8577 47.3566 32.8176 45.7956C33.7878 44.2183 34.4667 43.2607 35.7136 43.2607C36.5455 43.2607 37.1555 43.4312 38.6097 45.7957C39.5699 47.3566 40.658 49.1259 42.9284 49.1259C45.1988 49.1259 46.2868 47.3566 47.2469 45.7957C47.9768 44.6091 48.542 43.7734 49.3081 43.4321V51.5492H45.0298C43.9502 51.5492 43.9502 53.2191 45.0298 53.2191H55.2097C54.8489 54.4381 53.7187 55.3301 52.3842 55.3301ZM11.5684 38.5189H12.3643H44.6358H45.4318C47.3296 38.5189 48.9121 39.8901 49.2433 41.6936C47.5664 42.0912 46.6479 43.5821 45.8244 44.9209C44.8543 46.4982 44.1753 47.456 42.9284 47.456C42.0965 47.456 41.4864 47.2853 40.0323 44.9208C39.0722 43.36 37.9839 41.5907 35.7136 41.5907C33.4433 41.5907 32.3552 43.36 31.3952 44.9209C30.4251 46.4982 29.7461 47.456 28.4992 47.456C27.6674 47.456 27.0575 47.2853 25.6034 44.9209C24.6434 43.36 23.5554 41.5907 21.2851 41.5907C19.0149 41.5907 17.9268 43.36 16.9669 44.9209C15.9969 46.4982 15.318 47.456 14.0712 47.456C13.2395 47.456 12.6295 47.2853 11.1755 44.9209C10.3521 43.5822 9.43373 42.0912 7.75691 41.6936C8.08811 39.8901 9.67064 38.5189 11.5684 38.5189ZM17.0756 23.6214H39.9246C41.8782 23.6214 43.4979 25.0743 43.7623 26.9561C42.5062 27.3196 41.8004 28.4657 41.2138 29.4193C40.533 30.5262 40.0735 31.2046 39.2399 31.2046C38.4062 31.2046 37.9466 30.5262 37.2659 29.4192C36.5588 28.2697 35.6788 26.8389 33.8695 26.8389C32.0603 26.8389 31.1803 28.2697 30.4733 29.4193C29.7924 30.5262 29.333 31.2046 28.4995 31.2046C27.666 31.2046 27.2065 30.5262 26.5258 29.4193C25.8188 28.2697 24.9388 26.8389 23.1297 26.8389C22.3713 26.8389 21.6874 27.1031 21.0968 27.6242C20.2872 28.3385 21.392 29.5907 22.2016 28.8764C22.4897 28.6222 22.776 28.5088 23.1297 28.5088C23.9631 28.5088 24.4226 29.1872 25.1033 30.2941C25.8103 31.4437 26.6903 32.8745 28.4995 32.8745C30.3086 32.8745 31.1886 31.4437 31.8957 30.2941C32.5765 29.1872 33.036 28.5088 33.8695 28.5088C34.7031 28.5088 35.1627 29.1872 35.8434 30.2941C36.5505 31.4437 37.4306 32.8745 39.2399 32.8745C41.0492 32.8745 41.9292 31.4437 42.6362 30.2941C43.0625 29.6011 43.4019 29.0762 43.8008 28.7806V36.8489H13.1993V28.7806C13.5981 29.0762 13.9376 29.6011 14.3637 30.2941C15.0707 31.4437 15.9507 32.8745 17.7599 32.8745C18.6457 32.8745 19.3998 32.5311 20.0652 31.8244C20.8056 31.0386 19.5896 29.8936 18.8495 30.6795C18.503 31.0476 18.177 31.2046 17.7599 31.2046C16.9264 31.2046 16.4669 30.5262 15.7862 29.4193C15.1997 28.4657 14.4938 27.3196 13.2379 26.9561C13.5022 25.0743 15.122 23.6214 17.0756 23.6214ZM26.2855 20.1908H30.7147V21.9513H26.2855V20.1908ZM30.7147 15.1865H26.2855V13.426H30.7147V15.1865ZM26.2855 16.8564H30.7147V18.5209H26.2855V16.8564ZM27.0648 5.79597C27.0648 4.72599 28.0106 3.37781 28.5016 2.49231C28.9752 3.34374 30.1193 4.98483 29.8799 6.04735C29.5241 7.62776 27.0648 7.61863 27.0648 5.79597ZM56.1652 51.5492H50.978V42.3951C50.978 39.35 48.5111 36.8711 45.4708 36.8499V27.4976C45.4708 24.5534 43.1645 22.1387 40.2637 21.9627V12.0289C40.2637 11.5677 39.89 11.1939 39.4288 11.1939C38.9675 11.1939 38.5938 11.5677 38.5938 12.0289V21.9515H32.3846V12.591C32.3846 12.1298 32.0109 11.756 31.5496 11.756H29.3216V8.78646C32.6458 7.87424 31.4661 4.5423 30.3749 2.45858C29.801 1.36266 29.236 0.437969 29.2122 0.399113C28.7375 -0.133034 28.2628 -0.133034 27.788 0.399113C27.7642 0.437969 27.1991 1.36266 26.6254 2.45858C25.5365 4.53774 24.3411 7.83784 27.6517 8.77878V11.756H25.4505C24.9894 11.756 24.6155 12.1298 24.6155 12.591V21.9515H18.4064V6.14465C18.4064 5.0651 16.7365 5.0651 16.7365 6.14465V21.9627C13.8358 22.1387 11.5294 24.5534 11.5294 27.4976V36.8499C8.48911 36.8711 6.02219 39.35 6.02219 42.3951V51.5492H0.835083C0.373851 51.5492 0.00012207 51.923 0.00012207 52.3841C0.00012207 54.9293 2.07083 57 4.61601 57H52.3842C54.9294 57 57.0001 54.9293 57.0001 52.3841C57.0001 51.923 56.6263 51.5492 56.1652 51.5492Z" fill="#060606"/>
</g>
</g>
<defs>
<clipPath id="clip0_98_3831">
<rect width="57" height="57" fill="white"/>
</clipPath>
</defs>
</svg>
