<svg width="72" height="86" viewBox="0 0 72 86" fill="none" xmlns="http://www.w3.org/2000/svg">
<path d="M36.1594 19.6761C35.6675 -5.38842 16.6182 2.55452 9.70466 0.0308756C9.27601 -0.125701 8.89628 0.345053 9.14756 0.727284C19.5173 16.5154 29.2785 10.2519 36.1589 19.6756L36.1594 19.6761Z" fill="#72AE3D"/>
<path d="M54.1247 18.7649C49.8957 17.7062 45.676 17.9978 41.8318 19.3799C38.0254 20.7487 33.8882 20.7487 30.0818 19.3799C26.2377 17.9978 22.0184 17.7062 17.789 18.7649C5.25812 21.902 -1.3562 35.4434 0.233027 49.5491C2.79883 72.3192 17.7344 88.0501 30.2658 84.9129C31.38 84.634 32.4529 84.2109 33.4805 83.6567C35.0269 82.8227 36.8873 82.8227 38.4337 83.6567C39.4612 84.2109 40.5341 84.634 41.6483 84.9129C54.1797 88.0501 70.1051 70.9505 71.6811 49.5491C72.7245 35.3809 66.656 21.902 54.1247 18.7654V18.7649Z" fill="#EF2A37"/>
<path d="M54.1247 18.7649C49.8957 17.7062 45.676 17.9978 41.8318 19.3799C38.0254 20.7487 33.8882 20.7487 30.0818 19.3799C26.2377 17.9978 22.0184 17.7062 17.789 18.7649C5.25812 21.902 -1.3562 35.4434 0.233027 49.5491C2.79883 72.3192 17.7344 88.0501 30.2658 84.9129C31.38 84.634 32.4529 84.2109 33.4805 83.6567C35.0269 82.8227 36.8873 82.8227 38.4337 83.6567C39.4612 84.2109 40.5341 84.634 41.6483 84.9129C54.1797 88.0501 70.1051 70.9505 71.6811 49.5491C72.7245 35.3809 66.656 21.902 54.1247 18.7654V18.7649Z" fill="#EF2A37"/>
<path d="M54.1246 18.7648C49.8957 17.7061 45.6759 17.9972 41.8318 19.3798C38.0254 20.7486 33.8882 20.7486 30.0818 19.3798C26.3126 18.0244 22.1825 17.7214 18.0361 18.708C23.1387 18.4675 29.2887 25.6659 37.6885 24.5847C40.1156 24.2721 42.2319 23.9584 44.1244 23.7046C52.5573 22.5748 60.6324 27.6574 63.2242 35.7928C64.7574 40.6036 65.2467 45.9365 64.1651 51.7186C60.5697 70.9488 32.0844 84.5582 10.3586 75.5663C16.1757 82.8712 23.5638 86.5907 30.2647 84.9128C31.3789 84.634 32.4518 84.2108 33.4794 83.6566C35.0258 82.8226 36.8862 82.8226 38.4326 83.6566C39.4602 84.2108 40.5331 84.634 41.6473 84.9128C54.1786 88.05 70.1041 70.9504 71.6801 49.549C72.7234 35.3808 66.655 21.9019 54.1236 18.7653L54.1246 18.7648Z" fill="#DC2A37"/>
<path d="M49.9034 6.76059C47.5053 6.40241 44.9619 6.14554 42.8864 7.61204C41.1417 8.8447 39.8267 10.651 38.6738 12.4255C37.0489 14.9256 35.8715 17.7118 35.0121 20.5634C34.9535 20.7589 34.5243 21.7321 34.2358 22.6803H37.1737C38.7793 14.986 43.9517 10.9421 45.6953 9.77393C46.2239 9.41984 46.834 9.20647 47.4731 9.13739C47.9354 9.08724 48.3728 8.92043 48.7999 8.73571C49.2703 8.53206 49.9222 8.58732 50.1776 8.048C50.2887 7.81314 50.2331 6.81023 49.9034 6.76111V6.76059Z" fill="#7A5241"/>
<path d="M13.9211 34.1046C16.4345 30.3454 16.8776 26.2236 14.9108 24.8982C12.944 23.5729 9.31204 25.546 6.79865 29.3052C4.28525 33.0644 3.84217 37.1862 5.80899 38.5115C7.77581 39.8368 11.4077 37.8638 13.9211 34.1046Z" fill="#F3616A"/>
<path d="M8.04099 47.8201C9.18253 46.6741 9.18253 44.8161 8.04099 43.6701C6.89945 42.5241 5.04864 42.5241 3.9071 43.6701C2.76555 44.8161 2.76555 46.6741 3.90709 47.8201C5.04864 48.9662 6.89944 48.9662 8.04099 47.8201Z" fill="#F3616A"/>
<path d="M29.9294 20.4566C32.9203 22.3535 38.8827 23.0356 41.87 20.8675C42.1463 20.6593 42.5209 21.0113 42.3318 21.3009C39.9016 24.8224 33.9295 24.4406 30.7459 22.201C30.4238 21.9503 28.9701 20.8256 29.5644 20.4398C29.6817 20.3666 29.8254 20.3789 29.9289 20.4572L29.9294 20.4566Z" fill="#C02E3B"/>
</svg>
