<svg width="60" height="60" viewBox="0 0 60 60" fill="none" xmlns="http://www.w3.org/2000/svg">
<path d="M42.2852 27.8093C42.1488 27.6355 42.002 27.4671 41.8418 27.3071C40.5717 26.037 38.8394 25.5115 37.1866 25.7296C36.9685 27.3825 37.4941 29.1148 38.7641 30.3848C39.7452 31.3659 41.0021 31.9006 42.2852 31.9934V27.8093Z" fill="#A2E62E"/>
<path d="M42.168 31.5142C41.5753 31.2464 41.019 30.8721 40.5319 30.3849C39.2747 29.1277 38.7482 27.4177 38.9491 25.7799C38.3676 25.6704 37.7723 25.6524 37.1866 25.7296C36.9685 27.3825 37.4941 29.1148 38.7641 30.3847C39.7153 31.3359 40.9257 31.8688 42.168 31.985V31.5142Z" fill="#97D729"/>
<path d="M10.7928 24.0593C10.6564 23.8855 10.5096 23.7173 10.3494 23.5571C9.0794 22.287 7.34713 21.7615 5.6942 21.9796C5.47612 23.6325 6.0017 25.3648 7.27166 26.6348C8.25276 27.6159 9.50971 28.1506 10.7928 28.2434V24.0593Z" fill="#A2E62E"/>
<path d="M10.6756 27.7468C10.0968 27.4804 9.55354 27.1117 9.07659 26.6347C7.82104 25.3792 7.2944 23.672 7.49315 22.0363C6.90018 21.9205 6.29209 21.9007 5.6942 21.9796C5.47612 23.6325 6.0017 25.3648 7.27166 26.6347C8.22288 27.5859 9.43331 28.1188 10.6756 28.235V27.7468Z" fill="#97D729"/>
<path d="M12.7596 27.3071C12.5994 27.4673 12.4526 27.6355 12.3162 27.8093V31.9934C13.5992 31.9006 14.8562 31.3657 15.8373 30.3848C17.1073 29.1147 17.6328 27.3824 17.4148 25.7296C15.7619 25.5115 14.0297 26.0371 12.7596 27.3071Z" fill="#A2E62E"/>
<path d="M12.7596 27.3071C12.6443 27.4224 12.5364 27.5421 12.4333 27.6647V31.9841C12.7452 31.9545 13.055 31.8992 13.3592 31.8174V29.1103C13.6301 28.4546 14.0314 27.84 14.5644 27.3071C15.375 26.4965 16.3742 25.9906 17.4206 25.7863C17.4183 25.7675 17.4172 25.7485 17.4148 25.7296C15.7619 25.5115 14.0297 26.0371 12.7596 27.3071Z" fill="#97D729"/>
<path d="M9.46469 53.8371C9.38582 46.994 8.24969 40.9819 6.54461 37.3085C6.46117 37.1286 6.20371 37.1286 6.12027 37.3085C4.41508 40.9819 3.27906 46.9942 3.2002 53.8371H9.46469Z" fill="#A2E62E"/>
<path d="M4.98246 53.7199C5.06027 47.878 5.90871 42.6505 7.22285 38.9779C7.00863 38.3792 6.78246 37.8205 6.5448 37.3085C6.46137 37.1286 6.20391 37.1286 6.12047 37.3085C4.42512 40.9609 3.2925 46.9256 3.20215 53.7199H4.98246Z" fill="#97D729"/>
<path d="M11.4486 37.3578C11.4775 37.2955 11.5369 37.2907 11.5544 37.2907C11.572 37.2907 11.6314 37.2955 11.6603 37.3578C11.9352 37.9499 12.193 38.5999 12.4333 39.299V20.5232C12.1639 20.6336 11.8664 20.6931 11.5537 20.6931C11.2416 20.6931 10.9446 20.6338 10.6755 20.5238V39.2991C10.9159 38.6 11.1738 37.9499 11.4486 37.3578Z" fill="#8BC727"/>
<path d="M18.0035 14.832C17.584 14.1052 16.7489 13.6179 15.5965 13.4098C17.5566 13.0608 18.2911 11.953 18.2911 10.9047C18.2911 9.48707 17.1123 8.53481 16.0113 8.53481C15.1705 8.53481 14.3293 9.01621 13.5716 9.91375C13.97 8.80879 13.9664 7.83965 13.5459 7.11145C13.1466 6.41969 12.4018 6.00684 11.554 6.00684C10.706 6.00684 9.96129 6.4198 9.56191 7.11145C9.14145 7.83965 9.13781 8.80879 9.53625 9.91375C8.77852 9.01609 7.93734 8.53469 7.09652 8.53469C5.99543 8.53469 4.81641 9.48695 4.81641 10.9047C4.81641 11.9513 5.54859 13.0574 7.50199 13.408C6.79219 13.5352 6.20801 13.7693 5.7566 14.1087C5.15051 14.5643 4.81664 15.2049 4.81664 15.9123C4.81664 17.33 5.99543 18.2822 7.09641 18.2822C7.93723 18.2822 8.7784 17.8008 9.53613 16.9033C9.1377 18.0082 9.14133 18.9774 9.5618 19.7056C9.96117 20.3973 10.7059 20.8103 11.5539 20.8103C12.4018 20.8103 13.1466 20.3973 13.5458 19.7056C13.9663 18.9774 13.9699 18.0082 13.5715 16.9033C14.3292 17.8008 15.1703 18.2821 16.0112 18.2822C16.8098 18.2822 17.5399 17.8438 17.9639 17.1095C18.3881 16.3751 18.4029 15.5238 18.0035 14.832Z" fill="#FE73C5"/>
<path d="M11.5546 16.3453C13.1767 16.3453 14.4916 15.0304 14.4916 13.4084C14.4916 11.7864 13.1767 10.4714 11.5546 10.4714C9.93259 10.4714 8.61768 11.7864 8.61768 13.4084C8.61768 15.0304 9.93259 16.3453 11.5546 16.3453Z" fill="#FED402"/>
<path d="M10.7666 13.4084C10.7666 12.1657 11.5388 11.1042 12.629 10.6752C12.2961 10.5442 11.9338 10.4714 11.5544 10.4714C9.93239 10.4714 8.61743 11.7864 8.61743 13.4084C8.61743 15.0304 9.93239 16.3453 11.5544 16.3453C11.9338 16.3453 12.2961 16.2726 12.629 16.1416C11.5388 15.7125 10.7666 14.6509 10.7666 13.4084Z" fill="#FAC600"/>
<path d="M14.6869 53.8371C14.608 46.994 13.4719 40.9819 11.7668 37.3085C11.6833 37.1286 11.4259 37.1286 11.3424 37.3085C9.63725 40.9819 8.50123 46.9942 8.42236 53.8371H14.6869Z" fill="#A2E62E"/>
<path d="M10.2018 53.72C10.2796 47.8763 11.1286 42.6475 12.4435 38.9747C12.2296 38.3773 12.0037 37.8202 11.7667 37.3088C11.6833 37.1289 11.4258 37.1288 11.3423 37.3087C9.64692 40.9611 8.51442 46.9257 8.42407 53.72H10.2018Z" fill="#97D729"/>
<path d="M19.9865 53.8372C19.8756 49.1169 18.742 44.9807 17.0548 42.4473C16.9617 42.3076 16.7564 42.3076 16.6634 42.4473C14.9761 44.9807 13.8425 49.1168 13.7317 53.8372H19.9865Z" fill="#A2E62E"/>
<path d="M15.5351 53.72C15.6431 49.7393 16.4793 46.1829 17.7595 43.6632C17.5373 43.226 17.3023 42.8188 17.0549 42.4473C16.9618 42.3076 16.7565 42.3076 16.6635 42.4473C14.9902 44.9597 13.8609 49.0483 13.7344 53.72H15.5351Z" fill="#97D729"/>
<path d="M25.2896 53.8371C25.2108 46.994 24.0746 40.9819 22.3696 37.3085C22.2861 37.1286 22.0287 37.1286 21.9452 37.3085C20.24 40.9819 19.104 46.9942 19.0251 53.8371H25.2896Z" fill="#A2E62E"/>
<path d="M20.8027 53.7199C20.8805 47.8746 21.7299 42.6445 23.0453 38.9715C22.8318 38.3753 22.6063 37.8186 22.3695 37.3085C22.2861 37.1286 22.0286 37.1286 21.9452 37.3085C20.2498 40.9609 19.1172 46.9256 19.0269 53.7199H20.8027Z" fill="#97D729"/>
<path d="M27.3397 42.512C27.3618 42.4786 27.3977 42.4595 27.4377 42.4595C27.4778 42.4595 27.5137 42.4787 27.5359 42.512C27.8137 42.929 28.0742 43.3873 28.3167 43.8808V29.5432C28.0471 29.6536 27.7497 29.7133 27.437 29.7133C27.1249 29.7133 26.828 29.654 26.5588 29.5439V43.8809C26.8014 43.3873 27.0619 42.929 27.3397 42.512Z" fill="#8BC727"/>
<path d="M33.8866 23.852C33.467 23.1252 32.632 22.6379 31.4795 22.4298C33.4396 22.0808 34.1741 20.9731 34.1741 19.9247C34.1741 18.5071 32.9954 17.5548 31.8944 17.5548C31.0536 17.5548 30.2124 18.0362 29.4547 18.9338C29.8531 17.8288 29.8495 16.8597 29.429 16.1315C29.0296 15.4397 28.2849 15.0269 27.437 15.0269C26.5891 15.0269 25.8443 15.4398 25.445 16.1315C25.0245 16.8597 25.0209 17.8288 25.4193 18.9338C24.6616 18.0362 23.8204 17.5548 22.9796 17.5548C21.8785 17.5548 20.6995 18.5071 20.6995 19.9248C20.6995 20.9714 21.4317 22.0776 23.385 22.4282C22.6752 22.5553 22.0911 22.7895 21.6397 23.1288C21.0336 23.5845 20.6997 24.225 20.6997 24.9325C20.6997 26.3501 21.8785 27.3024 22.9795 27.3024C23.8203 27.3024 24.6615 26.821 25.4192 25.9234C25.0208 27.0284 25.0244 27.9975 25.4449 28.7257C25.8442 29.4175 26.589 29.8304 27.4369 29.8304C28.2849 29.8304 29.0296 29.4175 29.4289 28.7257C29.8493 27.9975 29.853 27.0284 29.4545 25.9234C30.2123 26.821 31.0533 27.3022 31.8943 27.3024H31.8944C32.693 27.3024 33.423 26.864 33.847 26.1297C34.2713 25.3953 34.2859 24.5438 33.8866 23.852Z" fill="#925CB4"/>
<path d="M27.4377 25.3656C29.0597 25.3656 30.3746 24.0507 30.3746 22.4287C30.3746 20.8066 29.0597 19.4917 27.4377 19.4917C25.8157 19.4917 24.5007 20.8066 24.5007 22.4287C24.5007 24.0507 25.8157 25.3656 27.4377 25.3656Z" fill="white"/>
<path d="M26.7043 22.4287C26.7043 21.1963 27.4636 20.142 28.5396 19.7062C28.1993 19.5683 27.8276 19.4917 27.4379 19.4917C25.8159 19.4917 24.501 20.8067 24.501 22.4287C24.501 24.0506 25.8159 25.3656 27.4379 25.3656C27.8277 25.3656 28.1994 25.289 28.5396 25.1512C27.4636 24.7153 26.7043 23.661 26.7043 22.4287Z" fill="#DFF6FD"/>
<path d="M30.5651 53.8372C30.4542 49.1169 29.3207 44.9807 27.6334 42.4473C27.5403 42.3076 27.335 42.3076 27.242 42.4473C25.5547 44.9807 24.4212 49.1168 24.3103 53.8372H30.5651Z" fill="#A2E62E"/>
<path d="M26.0819 53.7199C26.1903 49.7227 27.033 46.1532 28.3223 43.6319C28.1047 43.2064 27.8748 42.8102 27.6333 42.4471C27.5403 42.3074 27.335 42.3078 27.2421 42.4474C25.5688 44.9597 24.4397 49.0483 24.313 53.72L26.0819 53.7199Z" fill="#97D729"/>
<path d="M35.8861 53.8371C35.8072 46.994 34.6711 40.9819 32.966 37.3085C32.8826 37.1286 32.6251 37.1286 32.5417 37.3085C30.8365 40.9819 29.7004 46.9942 29.6216 53.8371H35.8861Z" fill="#A2E62E"/>
<path d="M31.4127 53.7199C31.4904 47.8849 32.337 42.6629 33.6486 38.991C33.4329 38.3873 33.2052 37.8241 32.9659 37.3085C32.8825 37.1286 32.625 37.1286 32.5416 37.3085C30.8463 40.9609 29.7136 46.9256 29.6233 53.7199H31.4127Z" fill="#97D729"/>
<path d="M41.1793 53.8372C41.0685 49.1169 39.9349 44.9807 38.2476 42.4473C38.1546 42.3076 37.9493 42.3076 37.8562 42.4473C36.169 44.9807 35.0354 49.1168 34.9246 53.8372H41.1793Z" fill="#A2E62E"/>
<path d="M36.692 53.72C36.8005 49.7208 37.644 46.1496 38.9343 43.628C38.7174 43.2041 38.4883 42.8088 38.2475 42.4473C38.1545 42.3076 37.9491 42.3076 37.8561 42.4473C36.1828 44.9597 35.0536 49.0483 34.927 53.72H36.692Z" fill="#97D729"/>
<path d="M42.9411 37.3576C42.9699 37.2954 43.0293 37.2906 43.0469 37.2906C43.0643 37.2906 43.1239 37.2954 43.1527 37.3576C43.4276 37.9498 43.6854 38.5998 43.9258 39.2988V20.5229C43.6562 20.6333 43.3588 20.693 43.0462 20.693C42.734 20.693 42.437 20.6337 42.168 20.5237V39.2988C42.4083 38.5997 42.6661 37.9498 42.9411 37.3576Z" fill="#8BC727"/>
<path d="M49.4957 14.832C49.0762 14.1052 48.2411 13.6179 47.0887 13.4098C49.0487 13.0608 49.7833 11.953 49.7833 10.9047C49.7833 9.48707 48.6045 8.53481 47.5035 8.53481C46.6627 8.53481 45.8215 9.01621 45.0638 9.91375C45.4622 8.80879 45.4586 7.83965 45.0381 7.11145C44.6388 6.41969 43.894 6.00684 43.0462 6.00684C42.1982 6.00684 41.4535 6.4198 41.0541 7.11145C40.6336 7.83965 40.63 8.80879 41.0284 9.91375C40.2707 9.01621 39.4295 8.53481 38.5887 8.53481C37.4876 8.53481 36.3086 9.48707 36.3086 10.9048C36.3086 11.9514 37.0408 13.0575 38.9942 13.4082C38.2844 13.5353 37.7002 13.7695 37.2488 14.1088C36.6427 14.5645 36.3088 15.205 36.3088 15.9125C36.3088 17.3301 37.4876 18.2823 38.5886 18.2823C39.4294 18.2823 40.2706 17.8009 41.0283 16.9034C40.6299 18.0084 40.6335 18.9775 41.054 19.7057C41.4534 20.3975 42.1981 20.8104 43.0461 20.8104C43.894 20.8104 44.6388 20.3975 45.038 19.7057C45.4585 18.9775 45.4621 18.0084 45.0637 16.9034C45.8214 17.8009 46.6625 18.2822 47.5034 18.2823H47.5035C48.3021 18.2823 49.0321 17.8439 49.4561 17.1096C49.8804 16.3751 49.8951 15.5238 49.4957 14.832Z" fill="#FAC600"/>
<path d="M43.0468 16.3453C44.6689 16.3453 45.9838 15.0304 45.9838 13.4084C45.9838 11.7864 44.6689 10.4714 43.0468 10.4714C41.4248 10.4714 40.1099 11.7864 40.1099 13.4084C40.1099 15.0304 41.4248 16.3453 43.0468 16.3453Z" fill="#FE93D3"/>
<path d="M42.1875 13.4084C42.1875 12.1523 42.9764 11.0807 44.0857 10.661C43.7626 10.5388 43.4127 10.4714 43.0468 10.4714C41.4248 10.4714 40.1099 11.7864 40.1099 13.4084C40.1099 15.0304 41.4248 16.3453 43.0468 16.3453C43.4127 16.3453 43.7626 16.278 44.0857 16.1557C42.9764 15.736 42.1875 14.6645 42.1875 13.4084Z" fill="#FE73C5"/>
<path d="M46.179 53.8371C46.1002 46.994 44.964 40.9819 43.259 37.3085C43.1755 37.1286 42.9181 37.1286 42.8346 37.3085C41.1294 40.9819 39.9933 46.9942 39.9146 53.8371H46.179Z" fill="#A2E62E"/>
<path d="M41.7252 53.7199C41.8026 47.8994 42.6453 42.6892 43.9513 39.0186C43.7328 38.4047 43.5017 37.8327 43.2589 37.3088C43.1755 37.1288 42.918 37.1288 42.8345 37.3087C41.1391 40.9611 40.0066 46.9257 39.9163 53.7199H41.7252Z" fill="#97D729"/>
<path d="M51.4967 53.8372C51.3858 49.1169 50.2523 44.9807 48.565 42.4473C48.472 42.3076 48.2667 42.3076 48.1736 42.4473C46.4864 44.9807 45.3528 49.1168 45.2419 53.8372H51.4967Z" fill="#A2E62E"/>
<path d="M47.0043 53.7199C47.1128 49.7181 47.9574 46.1448 49.2492 43.6229C49.0329 43.2009 48.8048 42.8074 48.5649 42.4473C48.4718 42.3076 48.2665 42.3076 48.1735 42.4473C46.5002 44.9597 45.3709 49.0483 45.2444 53.72L47.0043 53.7199Z" fill="#97D729"/>
<path d="M56.7999 53.8371C56.721 46.994 55.5849 40.9819 53.8798 37.3085C53.7964 37.1286 53.5389 37.1286 53.4555 37.3085C51.7503 40.9819 50.6143 46.9942 50.5354 53.8371H56.7999Z" fill="#A2E62E"/>
<path d="M52.3261 53.7199C52.4038 47.8844 53.2505 42.6621 54.5621 38.9901C54.3466 38.3869 54.1191 37.8239 53.8798 37.3085C53.7963 37.1286 53.5389 37.1286 53.4554 37.3085C51.7601 40.9609 50.6275 46.9256 50.5371 53.7199H52.3261Z" fill="#97D729"/>
<path d="M59.1211 55.4778H0.878906C0.393516 55.4778 0 55.0843 0 54.5989C0 54.1135 0.393516 53.72 0.878906 53.72H59.1211C59.6066 53.72 60 54.1135 60 54.5989C60 55.0843 59.6066 55.4778 59.1211 55.4778Z" fill="#8BC727"/>
<path d="M53.4998 26.6104C53.4151 26.5258 53.4151 26.3884 53.4998 26.3038C54.4211 25.3826 54.4452 24.3175 53.8031 23.6754C53.1611 23.0334 52.0959 23.0575 51.1748 23.9787C51.0902 24.0634 50.953 24.0634 50.8683 23.9787C49.9471 23.0575 48.882 23.0334 48.2399 23.6754C47.5978 24.3175 47.622 25.3826 48.5432 26.3038C48.6279 26.3884 48.6279 26.5258 48.5432 26.6104C47.622 27.5316 47.5978 28.5967 48.2399 29.2388C48.882 29.8809 49.9471 29.8567 50.8683 28.9355C50.9529 28.8508 51.0902 28.8508 51.1748 28.9355C52.0961 29.8567 53.1612 29.8809 53.8032 29.2388C54.4452 28.5966 54.4211 27.5316 53.4998 26.6104Z" fill="#FE93D3"/>
<path d="M50.3631 29.2387C49.721 28.5966 49.7452 27.5315 50.6664 26.6104C50.7511 26.5258 50.7511 26.3886 50.6664 26.3039C49.7452 25.3826 49.721 24.3175 50.3631 23.6755C50.3844 23.6541 50.4075 23.6354 50.4298 23.6156C49.6256 23.0688 48.7821 23.1333 48.2399 23.6755C47.5978 24.3175 47.622 25.3826 48.5432 26.3039C48.6279 26.3885 48.6279 26.5258 48.5432 26.6104C47.622 27.5316 47.5978 28.5967 48.2399 29.2387C48.782 29.7808 49.6256 29.8455 50.4298 29.2987C50.4075 29.2788 50.3844 29.2601 50.3631 29.2387Z" fill="#FE73C5"/>
<path d="M30.1795 7.89799C30.0948 7.81338 30.0948 7.67603 30.1795 7.59142C31.1007 6.67021 31.1249 5.6051 30.4828 4.96303C29.8407 4.32095 28.7756 4.3451 27.8545 5.26631C27.7699 5.35103 27.6326 5.35103 27.548 5.26631C26.6268 4.3451 25.5616 4.32095 24.9196 4.96303C24.2775 5.6051 24.3016 6.67021 25.2228 7.59142C25.3076 7.67603 25.3076 7.81338 25.2228 7.89799C24.3016 8.8192 24.2775 9.88431 24.9196 10.5264C25.5616 11.1685 26.6268 11.1443 27.548 10.2231C27.6326 10.1384 27.7699 10.1384 27.8545 10.2231C28.7757 11.1443 29.8409 11.1685 30.4829 10.5264C31.1249 9.88431 31.1007 8.8192 30.1795 7.89799Z" fill="#FE93D3"/>
<path d="M27.1598 10.5264C26.5178 9.88429 26.5419 8.81917 27.4631 7.89808C27.5478 7.81347 27.5478 7.67612 27.4631 7.59151C26.5419 6.6703 26.5178 5.60519 27.1598 4.96323C27.165 4.95796 27.1709 4.95374 27.1761 4.94858C26.3523 4.35163 25.4767 4.40601 24.9196 4.96323C24.2775 5.6053 24.3016 6.67042 25.2228 7.59151C25.3076 7.67612 25.3076 7.81347 25.2228 7.89808C24.3016 8.81929 24.2775 9.8844 24.9196 10.5264C25.4767 11.0835 26.3523 11.138 27.1761 10.541C27.1707 10.5359 27.165 10.5315 27.1598 10.5264Z" fill="#FE73C5"/>
<path d="M23.279 36.2177C23.1943 36.1331 23.1943 35.9957 23.279 35.9111C24.2002 34.9899 24.2244 33.9248 23.5823 33.2829C22.9402 32.6408 21.8751 32.6649 20.9539 33.5861C20.8693 33.6709 20.7319 33.6709 20.6473 33.5861C19.7261 32.6649 18.661 32.6408 18.0189 33.2829C17.3769 33.9249 17.401 34.99 18.3222 35.9111C18.4069 35.9957 18.4069 36.1331 18.3222 36.2177C17.401 37.1389 17.3769 38.204 18.0189 38.846C18.661 39.4879 19.7261 39.4639 20.6473 38.5427C20.7319 38.458 20.8693 38.458 20.9539 38.5427C21.8751 39.4639 22.9402 39.488 23.5823 38.846C24.2244 38.204 24.2002 37.1389 23.279 36.2177Z" fill="#FED402"/>
<path d="M20.2457 38.846C19.6037 38.2039 19.6278 37.1388 20.549 36.2177C20.6337 36.1331 20.6337 35.9957 20.549 35.9111C19.6278 34.9899 19.6037 33.9248 20.2457 33.2828C20.2529 33.2757 20.2607 33.2698 20.2679 33.2629C19.4464 32.6719 18.5745 32.7275 18.0192 33.2828C17.3771 33.9249 17.4012 34.99 18.3225 35.9111C18.4072 35.9957 18.4072 36.1331 18.3225 36.2177C17.4012 37.1389 17.3771 38.204 18.0192 38.846C18.5745 39.4013 19.4464 39.457 20.2679 38.8659C20.2606 38.859 20.2528 38.8531 20.2457 38.846Z" fill="#FAC600"/>
</svg>
