<svg width="60" height="60" viewBox="0 0 60 60" fill="none" xmlns="http://www.w3.org/2000/svg">
<path d="M40.3124 38.9789C40.078 35.0977 41.4257 32.302 41.7187 25.2853C41.9268 20.3034 40.8341 13.4152 39.3224 10.6641C36.404 5.35219 31.1249 1.35938 25.3269 1.35938C25.3269 1.35938 22.1483 1.95 21.6796 2.22844C20.346 3.01828 17.5541 4.16672 14.9999 8.12906C10.4296 15.2189 9.06226 51.7289 9.06226 51.7289H44.6287C43.9841 44.453 40.6321 44.2762 40.3124 38.9789Z" fill="#9E5969"/>
<path d="M40.3124 38.9789C40.078 35.0977 41.4257 32.302 41.7187 25.2853C41.9268 20.3034 40.8341 13.4152 39.3224 10.6641C36.404 5.35219 31.1249 1.35938 25.3269 1.35938C25.3269 1.35938 22.1483 1.95 21.6796 2.22844C20.346 3.01828 17.5541 4.16672 14.9999 8.12906C10.4296 15.2189 9.06226 51.7289 9.06226 51.7289H44.6287C43.9841 44.453 40.6321 44.2762 40.3124 38.9789Z" fill="#9E5969"/>
<path d="M17.612 49.5314C21.2117 49.5314 24.1299 43.5366 24.1299 36.1416C24.1299 28.7465 21.2117 22.7517 17.612 22.7517C14.0122 22.7517 11.094 28.7465 11.094 36.1416C11.094 43.5366 14.0122 49.5314 17.612 49.5314Z" fill="#894255"/>
<path d="M42.8306 58.0969H7.79433C5.61464 58.0969 6.62574 50.2688 8.25933 48.7547C10.3125 46.8563 15.5062 45.9094 18.164 44.5641C18.9461 44.1807 19.6202 43.6082 20.1252 42.8986C20.6302 42.1889 20.9502 41.3645 21.0562 40.5C21.2015 39.6703 21.2109 38.4141 21.2578 37.8047H29.3671C29.414 38.4141 29.4234 39.6703 29.5687 40.5C29.6747 41.3645 29.9947 42.1889 30.4997 42.8986C31.0048 43.6082 31.6788 44.1807 32.4609 44.5641C35.1187 45.9094 40.3125 46.8563 42.3656 48.7547C43.9992 50.2688 45.0103 58.0969 42.8306 58.0969Z" fill="#FFA39C"/>
<path d="M29.5687 40.5C28.4334 41.1441 27.2069 41.612 25.9312 41.8875C25.524 41.9812 25.1008 41.9812 24.6937 41.8875C23.4179 41.612 22.1914 41.1441 21.0562 40.5C21.2015 39.6703 21.2108 38.4141 21.2577 37.8047H29.3671C29.414 38.4141 29.4233 39.6703 29.5687 40.5Z" fill="#FF6C73"/>
<path d="M45.7885 59.0343H4.83663C4.6956 59.0339 4.55647 59.0018 4.42953 58.9403C4.30259 58.8789 4.1911 58.7897 4.10329 58.6793C4.01548 58.5689 3.9536 58.4403 3.92224 58.3028C3.89088 58.1653 3.89083 58.0225 3.9221 57.8849C4.92804 53.4787 6.06757 50.7867 8.25944 48.7546C12.8907 53.0859 22.3032 53.3156 25.3126 53.2828C28.3219 53.3156 37.7344 53.0859 42.3657 48.7546C44.5576 50.7867 45.6971 53.4806 46.703 57.8849C46.7343 58.0225 46.7343 58.1653 46.7029 58.3028C46.6715 58.4403 46.6097 58.5689 46.5218 58.6793C46.434 58.7897 46.3225 58.8789 46.1956 58.9403C46.0687 59.0018 45.9295 59.0339 45.7885 59.0343Z" fill="#F7CEBA"/>
<path d="M58.7874 8.13139V8.09999C58.785 7.51196 58.608 6.9379 58.2789 6.45061C57.9497 5.96333 57.4833 5.58477 56.9387 5.36295C56.7758 5.29688 56.6394 5.17858 56.551 5.02664C56.4626 4.87469 56.4272 4.69769 56.4503 4.52342C56.5259 3.94077 56.427 3.34877 56.1661 2.82234C55.9052 2.29591 55.494 1.85872 54.9845 1.56608C54.474 1.27325 53.8879 1.1387 53.3008 1.17951C52.7137 1.22032 52.1519 1.43465 51.6868 1.7953C51.5482 1.9033 51.3777 1.96222 51.202 1.96281C51.0263 1.96341 50.8554 1.90564 50.716 1.79858C50.2487 1.44073 49.6856 1.22984 49.0982 1.1927C48.5108 1.15556 47.9256 1.29384 47.417 1.58999C46.9092 1.88569 46.5006 2.32538 46.2429 2.85339C45.9851 3.38141 45.8898 3.97403 45.969 4.55624C45.9934 4.73056 45.9592 4.90805 45.8717 5.06079C45.7842 5.21354 45.6485 5.33286 45.4857 5.39999C44.9429 5.62515 44.4791 6.00639 44.1532 6.4954C43.8272 6.98441 43.6538 7.55917 43.6548 8.14686C43.656 8.73481 43.8318 9.30916 44.1599 9.7971C44.4879 10.285 44.9534 10.6646 45.4974 10.8876C45.6604 10.9538 45.7967 11.0723 45.8849 11.2245C45.9731 11.3766 46.0081 11.5538 45.9845 11.7281C45.9076 12.3107 46.0053 12.903 46.2653 13.43C46.5252 13.957 46.9356 14.3951 47.4446 14.6887C47.9544 14.9827 48.5401 15.1186 49.1272 15.079C49.7144 15.0395 50.2765 14.8263 50.7423 14.4665C50.8813 14.3589 51.0521 14.3005 51.2279 14.3005C51.4037 14.3005 51.5745 14.3589 51.7135 14.4665C52.1801 14.8252 52.7427 15.0371 53.3299 15.0754C53.9171 15.1137 54.5025 14.9767 55.0117 14.6817C55.52 14.387 55.9294 13.9481 56.188 13.4205C56.4467 12.893 56.543 12.3006 56.4648 11.7183C56.4408 11.5434 56.4759 11.3655 56.5643 11.2128C56.6528 11.0601 56.7896 10.9412 56.9532 10.875C57.4961 10.6504 57.9601 10.2698 58.2866 9.78146C58.6131 9.29309 58.7874 8.71885 58.7874 8.13139Z" fill="#FFB05A"/>
<path d="M37.094 22.5604L36.0107 30.2184C37.9373 30.5329 40.1437 28.3148 40.4639 26.3891C40.8553 24.0234 39.5072 22.3593 37.094 22.5604Z" fill="#FFA39C"/>
<path d="M36.2573 27.0999C36.1391 27.0999 36.0227 27.0701 35.919 27.0132C35.8153 26.9563 35.7277 26.8741 35.6642 26.7744C35.6007 26.6746 35.5633 26.5604 35.5557 26.4424C35.548 26.3243 35.5702 26.2063 35.6203 26.0991C35.875 25.646 36.2477 25.2704 36.6989 25.0123C37.1501 24.7542 37.6628 24.6232 38.1825 24.6334C38.2748 24.6418 38.3645 24.6683 38.4465 24.7115C38.5285 24.7547 38.6011 24.8137 38.6602 24.8851C38.7193 24.9565 38.7637 25.0388 38.7909 25.1274C38.8181 25.216 38.8275 25.3091 38.8185 25.4013C38.8096 25.4936 38.7825 25.5831 38.7389 25.6649C38.6952 25.7466 38.6358 25.8189 38.5641 25.8776C38.4924 25.9363 38.4098 25.9803 38.3211 26.0069C38.2324 26.0336 38.1392 26.0425 38.047 26.033C37.8167 26.0454 37.5924 26.1117 37.3923 26.2264C37.1922 26.3412 37.0218 26.5014 36.8948 26.694C36.8383 26.8153 36.7482 26.918 36.6353 26.9899C36.5223 27.0618 36.3912 27.1 36.2573 27.0999Z" fill="#FF6C73"/>
<path d="M31.7926 11.2679C31.3991 11.1213 31.0499 10.8759 30.7787 10.5554C29.3635 8.81585 27.5148 8.30538 25.6285 8.24444C17.0973 7.98147 14.0701 13.5994 13.531 22.5605C13.5249 28.3576 15.0516 32.9963 17.6795 35.5421C19.3018 37.1138 21.3657 38.8126 24.6915 39.5462C25.1006 39.6366 25.5246 39.6366 25.9337 39.5462C29.2595 38.8126 31.3243 37.1138 32.9457 35.5421C35.5735 32.9963 37.1002 28.3576 37.0942 22.5605C32.4793 18.2148 35.6016 12.766 31.7926 11.2679Z" fill="#FFB3A9"/>
<path d="M31.4452 22.4785H31.4447C30.8156 22.4785 30.3057 22.9885 30.3057 23.6176V24.2227C30.3057 24.8518 30.8156 25.3618 31.4447 25.3618H31.4452C32.0743 25.3618 32.5843 24.8518 32.5843 24.2227V23.6176C32.5843 22.9885 32.0743 22.4785 31.4452 22.4785Z" fill="#9E5969"/>
<path d="M37.094 31.6546C37.6599 31.6546 38.1187 31.1958 38.1187 30.6299C38.1187 30.064 37.6599 29.6052 37.094 29.6052C36.5281 29.6052 36.0693 30.064 36.0693 30.6299C36.0693 31.1958 36.5281 31.6546 37.094 31.6546Z" fill="#F7F0E8"/>
<path d="M53.1803 9.54797H52.1251C51.6537 9.54722 51.2018 9.35962 50.8684 9.02626C50.535 8.69289 50.3474 8.24097 50.3467 7.76953V5.57813C50.3467 5.39164 50.4208 5.2128 50.5526 5.08094C50.6845 4.94908 50.8633 4.875 51.0498 4.875C51.2363 4.875 51.4151 4.94908 51.547 5.08094C51.6789 5.2128 51.7529 5.39164 51.7529 5.57813V7.76906C51.7537 7.86755 51.7931 7.96179 51.8628 8.03143C51.9324 8.10107 52.0266 8.14051 52.1251 8.14125H53.1803C53.3668 8.14125 53.5456 8.21533 53.6775 8.34719C53.8093 8.47905 53.8834 8.6579 53.8834 8.84438C53.8834 9.03086 53.8093 9.2097 53.6775 9.34156C53.5456 9.47342 53.3668 9.54797 53.1803 9.54797Z" fill="#F7F0E8"/>
<path d="M6.20995 7.08143L6.60088 7.79628C6.66887 7.92051 6.77102 8.02267 6.89526 8.09065L7.6101 8.48159C7.72668 8.54531 7.82395 8.63924 7.89171 8.75351C7.95948 8.86778 7.99524 8.99819 7.99524 9.13104C7.99524 9.26389 7.95948 9.3943 7.89171 9.50857C7.82395 9.62284 7.72668 9.71677 7.6101 9.78049L6.89526 10.1719C6.77102 10.2399 6.66887 10.342 6.60088 10.4663L6.20995 11.1807C6.14622 11.2972 6.0523 11.3945 5.93802 11.4623C5.82375 11.53 5.69335 11.5658 5.56049 11.5658C5.42764 11.5658 5.29724 11.53 5.18296 11.4623C5.06869 11.3945 4.97477 11.2972 4.91104 11.1807L4.5201 10.4663C4.45212 10.342 4.34996 10.2399 4.22573 10.1719L3.51135 9.78096C3.39478 9.71724 3.29751 9.62331 3.22974 9.50904C3.16198 9.39477 3.12622 9.26436 3.12622 9.13151C3.12622 8.99866 3.16198 8.86825 3.22974 8.75398C3.29751 8.63971 3.39478 8.54578 3.51135 8.48206L4.22573 8.09112C4.34996 8.02314 4.45212 7.92098 4.5201 7.79674L4.91104 7.0819C4.97472 6.9653 5.06861 6.868 5.18286 6.80019C5.29711 6.73239 5.4275 6.69658 5.56035 6.69653C5.69321 6.69649 5.82363 6.7322 5.93792 6.79992C6.05222 6.86764 6.14618 6.96488 6.20995 7.08143Z" fill="#FFB273"/>
<path d="M47.3307 25.2187L47.6405 25.7812C47.6942 25.8805 47.7757 25.9619 47.8749 26.0156L48.4407 26.3255C48.533 26.3759 48.6101 26.4502 48.6637 26.5407C48.7174 26.6312 48.7457 26.7345 48.7457 26.8397C48.7457 26.9449 48.7174 27.0481 48.6637 27.1386C48.6101 27.2291 48.533 27.3035 48.4407 27.3539L47.8749 27.6637C47.7758 27.7176 47.6944 27.799 47.6405 27.8981L47.3307 28.4639C47.2803 28.5562 47.2059 28.6333 47.1154 28.6869C47.0249 28.7406 46.9217 28.7689 46.8165 28.7689C46.7113 28.7689 46.608 28.7406 46.5175 28.6869C46.427 28.6333 46.3527 28.5562 46.3023 28.4639L45.9924 27.8981C45.9386 27.799 45.8572 27.7176 45.758 27.6637L45.1923 27.3539C45.0999 27.3035 45.0229 27.2291 44.9692 27.1386C44.9155 27.0481 44.8872 26.9449 44.8872 26.8397C44.8872 26.7345 44.9155 26.6312 44.9692 26.5407C45.0229 26.4502 45.0999 26.3759 45.1923 26.3255L45.7594 26.0156C45.8587 25.9619 45.9401 25.8805 45.9938 25.7812L46.3037 25.2155C46.3545 25.1236 46.4291 25.0472 46.5196 24.994C46.6101 24.9409 46.7132 24.913 46.8181 24.9133C46.9231 24.9137 47.026 24.9422 47.1162 24.9959C47.2064 25.0496 47.2804 25.1266 47.3307 25.2187Z" fill="#FFCBA4"/>
<path d="M25.8179 53.9869C25.6365 53.9869 25.4659 53.9869 25.3023 53.9841C21.6071 54.0244 12.4665 53.6532 7.77992 49.269C7.70991 49.2066 7.65307 49.1309 7.61275 49.0462C7.57244 48.9616 7.54946 48.8697 7.54517 48.7761C7.54088 48.6824 7.55537 48.5888 7.58778 48.5008C7.62019 48.4129 7.66987 48.3323 7.73389 48.2638C7.79792 48.1953 7.875 48.1403 7.96059 48.102C8.04619 48.0637 8.13857 48.043 8.23231 48.0409C8.32605 48.0389 8.41925 48.0556 8.50642 48.0902C8.5936 48.1247 8.67299 48.1763 8.73992 48.2419C13.1757 52.3913 22.5348 52.6069 25.3023 52.5779C28.0787 52.6041 37.4452 52.3904 41.8815 48.2419C41.9484 48.1763 42.0278 48.1247 42.115 48.0902C42.2022 48.0556 42.2954 48.0389 42.3891 48.0409C42.4828 48.043 42.5752 48.0637 42.6608 48.102C42.7464 48.1403 42.8235 48.1953 42.8875 48.2638C42.9515 48.3323 43.0012 48.4129 43.0336 48.5008C43.066 48.5888 43.0805 48.6824 43.0762 48.7761C43.0719 48.8697 43.049 48.9616 43.0087 49.0462C42.9683 49.1309 42.9115 49.2066 42.8415 49.269C38.3607 53.4633 29.8023 53.9869 25.8179 53.9869Z" fill="#F7F0E8"/>
<path d="M33.1749 57.3046C33.0076 57.3043 32.846 57.2444 32.7189 57.1357C32.5918 57.0269 32.5077 56.8764 32.4816 56.7112C32.2862 55.4653 32.0187 54.2319 31.6805 53.017C31.6494 52.9284 31.6364 52.8344 31.6422 52.7407C31.648 52.647 31.6725 52.5554 31.7143 52.4713C31.7561 52.3872 31.8143 52.3124 31.8855 52.2511C31.9567 52.1899 32.0394 52.1435 32.1288 52.1148C32.2182 52.0861 32.3124 52.0755 32.4059 52.0838C32.4995 52.0921 32.5904 52.119 32.6733 52.163C32.7563 52.2069 32.8296 52.2671 32.8889 52.3399C32.9483 52.4126 32.9924 52.4965 33.0188 52.5867C33.3807 53.8701 33.6651 55.1742 33.8705 56.4918C33.8995 56.6759 33.8543 56.864 33.7447 57.0148C33.6351 57.1655 33.4701 57.2666 33.286 57.2957C33.2493 57.3017 33.2121 57.3047 33.1749 57.3046Z" fill="#F7F0E8"/>
<path d="M17.4503 57.3046C17.4131 57.3047 17.3759 57.3017 17.3392 57.2957C17.1551 57.2666 16.9901 57.1655 16.8805 57.0148C16.7709 56.864 16.7257 56.6759 16.7547 56.4918C16.9601 55.1742 17.2445 53.8701 17.6064 52.5867C17.6328 52.4965 17.6769 52.4126 17.7363 52.3399C17.7956 52.2671 17.8689 52.2069 17.9519 52.163C18.0348 52.119 18.1257 52.0921 18.2193 52.0838C18.3128 52.0755 18.407 52.0861 18.4964 52.1148C18.5858 52.1435 18.6685 52.1899 18.7397 52.2511C18.8109 52.3124 18.8691 52.3872 18.9109 52.4713C18.9527 52.5554 18.9772 52.647 18.983 52.7407C18.9888 52.8344 18.9758 52.9284 18.9447 53.017C18.6064 54.2318 18.3389 55.4653 18.1436 56.7112C18.1175 56.8764 18.0334 57.0269 17.9063 57.1357C17.7792 57.2444 17.6175 57.3043 17.4503 57.3046Z" fill="#F7F0E8"/>
<path d="M25.3286 57.6952C25.1421 57.6952 24.9633 57.6211 24.8314 57.4893C24.6996 57.3574 24.6255 57.1786 24.6255 56.9921V53.281C24.6255 53.0945 24.6996 52.9157 24.8314 52.7838C24.9633 52.652 25.1421 52.5779 25.3286 52.5779C25.5151 52.5779 25.6939 52.652 25.8258 52.7838C25.9577 52.9157 26.0317 53.0945 26.0317 53.281V56.9921C26.0317 57.1786 25.9577 57.3574 25.8258 57.4893C25.6939 57.6211 25.5151 57.6952 25.3286 57.6952Z" fill="#F7F0E8"/>
<path d="M25.3269 28.9642C25.9331 28.9445 26.5113 28.7043 26.953 28.2887C27.0262 28.2353 27.0875 28.1673 27.1332 28.0891C27.1788 28.0108 27.2077 27.9239 27.2181 27.8339C27.2285 27.7439 27.2202 27.6527 27.1936 27.5661C27.1671 27.4795 27.1228 27.3993 27.0638 27.3306C27.0047 27.2619 26.932 27.2062 26.8504 27.167C26.7687 27.1278 26.6798 27.1059 26.5892 27.1027C26.4987 27.0995 26.4085 27.1151 26.3242 27.1485C26.24 27.182 26.1636 27.2324 26.0999 27.2968C26.0051 27.4089 25.8871 27.499 25.754 27.5608C25.6208 27.6227 25.4758 27.6547 25.329 27.6547C25.1822 27.6547 25.0372 27.6227 24.9041 27.5608C24.771 27.499 24.6529 27.4089 24.5582 27.2968C24.4249 27.199 24.2597 27.155 24.0955 27.1737C23.9312 27.1924 23.7801 27.2724 23.6723 27.3977C23.5644 27.523 23.5079 27.6843 23.5139 27.8495C23.5198 28.0147 23.588 28.1716 23.7046 28.2887C24.1454 28.7034 24.722 28.9435 25.3269 28.9642Z" fill="#FF6C73"/>
<path d="M29.0246 31.5525C29.0126 31.4873 28.9879 31.4251 28.9519 31.3694C28.9159 31.3137 28.8693 31.2657 28.8147 31.228C28.7601 31.1904 28.6986 31.1638 28.6338 31.1499C28.5689 31.1361 28.502 31.1351 28.4368 31.1471H28.4269C27.9475 31.2384 27.4561 31.247 26.9738 31.1724C26.8533 31.1546 26.7361 31.1307 26.5941 31.1025C26.3861 31.0534 26.1708 31.0426 25.9589 31.0707C25.7364 31.1093 25.5247 31.1953 25.3383 31.3228C25.33 31.3263 25.3211 31.3281 25.3121 31.3281C25.3031 31.3281 25.2941 31.3263 25.2858 31.3228C25.0995 31.1952 24.8878 31.1092 24.6652 31.0707C24.4533 31.0426 24.2381 31.0534 24.03 31.1025C23.8894 31.1307 23.7708 31.1546 23.6504 31.1724C23.1681 31.247 22.6766 31.2384 22.1972 31.1471H22.1869C22.0654 31.1254 21.9401 31.1489 21.8348 31.2132C21.7294 31.2776 21.6512 31.3782 21.615 31.4962C21.5788 31.6142 21.587 31.7414 21.6382 31.8538C21.6893 31.9662 21.7798 32.0559 21.8925 32.1061C22.4784 32.365 23.1142 32.4911 23.7544 32.4755C23.9133 32.4722 24.0736 32.4591 24.2091 32.4497C24.3347 32.4389 24.3497 32.4525 24.5452 32.5664C24.7607 32.6972 25.0071 32.7682 25.2591 32.7722H25.3641C25.6161 32.7683 25.8625 32.6972 26.078 32.5664C26.2721 32.4525 26.2885 32.4389 26.4146 32.4497C26.5496 32.4591 26.7104 32.4722 26.8688 32.4755C27.5091 32.4912 28.1449 32.365 28.7307 32.1061C28.8348 32.0603 28.9204 31.9808 28.9737 31.8803C29.027 31.7799 29.045 31.6644 29.0246 31.5525Z" fill="#FF6C73"/>
<path d="M25.703 33.4121C25.5875 33.4736 25.4588 33.5058 25.328 33.5058C25.1972 33.5058 25.0684 33.4736 24.953 33.4121C24.8693 33.3668 24.7773 33.339 24.6826 33.3303C24.5879 33.3216 24.4923 33.3323 24.4018 33.3616C24.3113 33.3909 24.2277 33.4382 24.1561 33.5008C24.0844 33.5633 24.0262 33.6398 23.9849 33.7255C23.9436 33.8112 23.9202 33.9044 23.916 33.9994C23.9118 34.0945 23.9269 34.1894 23.9604 34.2784C23.994 34.3674 24.0452 34.4487 24.1111 34.5173C24.1769 34.586 24.256 34.6405 24.3436 34.6777C24.6491 34.831 24.9862 34.9108 25.328 34.9108C25.6698 34.9108 26.0068 34.831 26.3123 34.6777C26.4713 34.5917 26.5911 34.4478 26.6467 34.2758C26.7024 34.1039 26.6897 33.9171 26.6113 33.7542C26.5329 33.5914 26.3948 33.465 26.2256 33.4013C26.0565 33.3376 25.8693 33.3414 25.703 33.4121Z" fill="#FF6C73"/>
<path d="M35.1515 45.9923C38.7009 52.0358 39.4382 59.0343 39.4382 59.0343H44.2382C44.2382 59.0343 43.4765 51.4748 39.8676 46.4465C39.7711 46.2943 39.6263 46.1788 39.4565 46.1183L36.0295 45.0693C35.4665 44.8968 34.8534 45.4846 35.1515 45.9923Z" fill="#FFE2D2"/>
<path d="M29.2345 22.4222C29.5626 21.9595 30.025 21.6088 30.5592 21.4177C31.1025 21.2401 31.6828 21.2078 32.2424 21.324C32.4993 21.3746 32.752 21.4443 32.9985 21.5326C33.1181 21.5794 33.2376 21.6263 33.351 21.6769C33.4533 21.7185 33.5532 21.7655 33.6506 21.8175C33.7774 21.8826 33.9126 21.93 34.0523 21.9582C34.1968 21.9892 34.3472 21.9764 34.4845 21.9216L34.5567 21.8954C34.6102 21.8754 34.6683 21.8707 34.7244 21.8818C34.7805 21.8929 34.8324 21.9193 34.8743 21.9582C34.9163 21.9971 34.9465 22.0469 34.9618 22.1021C34.977 22.1572 34.9767 22.2154 34.9607 22.2704C34.9058 22.4359 34.8114 22.5857 34.6859 22.7067C34.5603 22.8278 34.4072 22.9166 34.2398 22.9655C33.9202 23.0534 33.5825 23.0517 33.2638 22.9604C33.1031 22.9177 33.0117 22.8877 32.9085 22.8549C32.8054 22.8221 32.7028 22.794 32.6006 22.7677C32.4039 22.7106 32.2044 22.6636 32.0029 22.6271C31.6448 22.5501 31.2748 22.5456 30.9149 22.614C30.5478 22.7015 30.2016 22.8608 29.8964 23.0827L29.8795 23.0935C29.7874 23.1553 29.6765 23.1828 29.5662 23.171C29.456 23.1592 29.3534 23.109 29.2764 23.0291C29.1995 22.9493 29.1531 22.8449 29.1454 22.7343C29.1377 22.6236 29.1693 22.5138 29.2345 22.4241V22.4222Z" fill="#894255"/>
<path d="M28.6786 18.5531C29.2532 18.2909 29.8683 18.1285 30.4974 18.0731C31.1013 18.0063 31.7112 18.0151 32.3129 18.0994C32.9083 18.1832 33.498 18.3034 34.0786 18.4594C34.6736 18.6059 35.2473 18.8286 35.7854 19.1217C35.8527 19.1599 35.9035 19.2216 35.9281 19.295C35.9527 19.3684 35.9494 19.4483 35.9187 19.5193C35.888 19.5904 35.8322 19.6476 35.7619 19.68C35.6916 19.7125 35.6118 19.7178 35.5379 19.695L35.5168 19.6875C34.9913 19.5387 34.4522 19.4434 33.9075 19.4029C33.3533 19.3571 32.7969 19.3443 32.2411 19.3645L30.6005 19.4114C30.0744 19.4332 29.5501 19.4859 29.0302 19.5694L29.0026 19.574C28.8739 19.5961 28.7416 19.5709 28.6301 19.5031C28.5185 19.4353 28.4353 19.3295 28.3956 19.2051C28.356 19.0808 28.3627 18.9463 28.4145 18.8264C28.4662 18.7066 28.5595 18.6095 28.6772 18.5531H28.6786Z" fill="#894255"/>
<path d="M31.4452 22.4785H31.4447C30.8156 22.4785 30.3057 22.9885 30.3057 23.6176V24.2227C30.3057 24.8518 30.8156 25.3618 31.4447 25.3618H31.4452C32.0743 25.3618 32.5843 24.8518 32.5843 24.2227V23.6176C32.5843 22.9885 32.0743 22.4785 31.4452 22.4785Z" fill="#9E5969"/>
<path d="M29.2345 22.4222C29.5626 21.9595 30.025 21.6088 30.5592 21.4177C31.1025 21.2401 31.6828 21.2078 32.2424 21.324C32.4993 21.3746 32.752 21.4443 32.9985 21.5326C33.1181 21.5794 33.2376 21.6263 33.351 21.6769C33.4533 21.7185 33.5532 21.7655 33.6506 21.8175C33.7774 21.8826 33.9126 21.93 34.0523 21.9582C34.1968 21.9892 34.3472 21.9764 34.4845 21.9216L34.5567 21.8954C34.6102 21.8754 34.6683 21.8707 34.7244 21.8818C34.7805 21.8929 34.8324 21.9193 34.8743 21.9582C34.9163 21.9971 34.9465 22.0469 34.9618 22.1021C34.977 22.1572 34.9767 22.2154 34.9607 22.2704C34.9058 22.4359 34.8114 22.5857 34.6859 22.7067C34.5603 22.8278 34.4072 22.9166 34.2398 22.9655C33.9202 23.0534 33.5825 23.0517 33.2638 22.9604C33.1031 22.9177 33.0117 22.8877 32.9085 22.8549C32.8054 22.8221 32.7028 22.794 32.6006 22.7677C32.4039 22.7106 32.2044 22.6636 32.0029 22.6271C31.6448 22.5501 31.2748 22.5456 30.9149 22.614C30.5478 22.7015 30.2016 22.8608 29.8964 23.0827L29.8795 23.0935C29.7874 23.1553 29.6765 23.1828 29.5662 23.171C29.456 23.1592 29.3534 23.109 29.2764 23.0291C29.1995 22.9493 29.1531 22.8449 29.1454 22.7343C29.1377 22.6236 29.1693 22.5138 29.2345 22.4241V22.4222Z" fill="#894255"/>
<path d="M28.6786 18.5531C29.2532 18.2909 29.8683 18.1285 30.4974 18.0731C31.1013 18.0063 31.7112 18.0151 32.3129 18.0994C32.9083 18.1832 33.498 18.3034 34.0786 18.4594C34.6736 18.6059 35.2473 18.8286 35.7854 19.1217C35.8527 19.1599 35.9035 19.2216 35.9281 19.295C35.9527 19.3684 35.9494 19.4483 35.9187 19.5193C35.888 19.5904 35.8322 19.6476 35.7619 19.68C35.6916 19.7125 35.6118 19.7178 35.5379 19.695L35.5168 19.6875C34.9913 19.5387 34.4522 19.4434 33.9075 19.4029C33.3533 19.3571 32.7969 19.3443 32.2411 19.3645L30.6005 19.4114C30.0744 19.4332 29.5501 19.4859 29.0302 19.5694L29.0026 19.574C28.8739 19.5961 28.7416 19.5709 28.6301 19.5031C28.5185 19.4353 28.4353 19.3295 28.3956 19.2051C28.356 19.0808 28.3627 18.9463 28.4145 18.8264C28.4662 18.7066 28.5595 18.6095 28.6772 18.5531H28.6786Z" fill="#894255"/>
<path d="M19.184 25.3618H19.1844C19.8135 25.3618 20.3235 24.8518 20.3235 24.2228V23.6176C20.3235 22.9885 19.8135 22.4785 19.1844 22.4785H19.184C18.5549 22.4785 18.0449 22.9885 18.0449 23.6176V24.2228C18.0449 24.8518 18.5549 25.3618 19.184 25.3618Z" fill="#9E5969"/>
<path d="M21.3943 22.4223C21.0662 21.9595 20.6037 21.6088 20.0696 21.4177C19.5263 21.2401 18.946 21.2078 18.3863 21.324C18.1294 21.3747 17.8767 21.4444 17.6302 21.5326C17.5107 21.5794 17.3916 21.6263 17.2782 21.6769C17.1759 21.7185 17.0759 21.7654 16.9786 21.8176C16.8518 21.8826 16.7166 21.9299 16.5769 21.9582C16.4323 21.9892 16.2817 21.9764 16.1443 21.9216L16.0721 21.8954C16.0185 21.8756 15.9605 21.871 15.9045 21.8822C15.8485 21.8933 15.7966 21.9198 15.7548 21.9587C15.7129 21.9975 15.6826 22.0472 15.6673 22.1023C15.652 22.1573 15.6522 22.2155 15.668 22.2704C15.723 22.436 15.8174 22.5858 15.9431 22.7068C16.0687 22.8279 16.2219 22.9167 16.3894 22.9655C16.7089 23.0534 17.0464 23.0517 17.3649 22.9604C17.5257 22.9177 17.6175 22.8877 17.7202 22.8549C17.8229 22.8221 17.926 22.794 18.0282 22.7677C18.225 22.7106 18.4246 22.6637 18.6263 22.6271C18.9844 22.5501 19.3544 22.5456 19.7143 22.614C20.0814 22.7015 20.4275 22.8608 20.7329 23.0827L20.7493 23.0935C20.8413 23.1553 20.9522 23.1828 21.0625 23.171C21.1728 23.1592 21.2754 23.109 21.3523 23.0292C21.4293 22.9493 21.4756 22.8449 21.4833 22.7343C21.491 22.6236 21.4595 22.5138 21.3943 22.4241V22.4223Z" fill="#894255"/>
<path d="M21.9507 18.5531C21.376 18.2909 20.7608 18.1285 20.1315 18.0731C19.5278 18.0063 18.918 18.0151 18.3165 18.0994C17.7209 18.1832 17.1311 18.3034 16.5502 18.4594C15.9553 18.6061 15.3817 18.8287 14.8435 19.1217C14.777 19.1604 14.727 19.2222 14.703 19.2953C14.679 19.3684 14.6826 19.4478 14.7131 19.5184C14.7437 19.589 14.799 19.646 14.8688 19.6785C14.9385 19.7111 15.0177 19.7169 15.0915 19.695L15.1126 19.6875C15.638 19.5387 16.1772 19.4433 16.7218 19.403C17.2759 19.3571 17.8322 19.3443 18.3877 19.3645L20.0284 19.4114C20.5544 19.4332 21.0788 19.486 21.5987 19.5694L21.6263 19.574C21.755 19.5961 21.8873 19.5709 21.9988 19.5031C22.1103 19.4353 22.1936 19.3295 22.2332 19.2051C22.2729 19.0808 22.2662 18.9463 22.2144 18.8264C22.1627 18.7066 22.0694 18.6095 21.9516 18.5531H21.9507Z" fill="#894255"/>
<path d="M25.3271 1.35938C19.5198 1.35938 13.7842 5.45906 11.4845 11.0761C9.26167 16.5033 8.65464 20.6948 8.96496 24.8438C9.43371 31.1133 8.22714 35.6578 6.10558 38.9789C4.44746 41.7161 3.23707 44.7006 2.52011 47.8195C1.77011 51.0155 1.83996 53.4839 3.36011 55.4686C5.73386 58.568 8.3598 58.9842 11.9715 58.9842C14.6781 58.9842 16.7584 56.6602 15.842 54.0942C13.1284 46.4972 16.8043 46.1283 16.3679 40.1156C16.1181 36.6783 13.801 31.8872 15.9118 27.5334C18.0854 23.0503 16.1139 18.2227 19.7664 11.9142C21.4614 8.98594 23.3387 8.17125 25.629 8.24437L25.3271 1.35938Z" fill="#9E5969"/>
</svg>
