<svg width="66" height="66" viewBox="0 0 66 66" fill="none" xmlns="http://www.w3.org/2000/svg">
<path d="M57.5721 35.0173C57.5721 35.0173 56.8064 34.0337 54.0762 32.9419C51.3459 31.8501 43.5922 35.6721 43.5922 35.6721C43.5922 35.6721 50.6911 31.4182 52.7652 28.0267C54.8393 24.6352 52.9354 20.4006 50.1445 23.9881C47.0882 27.9197 39.8166 29.7309 39.8166 29.7309C39.1218 25.6587 39.3009 19.3075 35.5111 13.5583C31.0883 6.84226 16.3466 1.72339 16.3466 1.72339C17.7207 3.88644 18.3704 5.96054 18.0224 7.91089C16.2422 6.29698 13.4733 5.74784 10.2442 5.69499C12.803 7.19288 14.8848 9.01948 16.3466 11.265C12.7617 10.529 8.87906 11.4468 4.83785 13.2773C8.72566 12.683 12.1546 12.9601 14.9132 14.507C10.4311 15.6169 8.03473 16.4213 4.06055 18.9143C8.76949 18.2698 11.2909 19.069 14.2983 19.9946C11.5023 20.7293 9.31219 22.3445 7.66477 24.7448C10.6438 23.8798 13.5648 23.4686 16.3466 24.1711C13.7891 26.0055 12.0089 28.0383 11.0614 30.2735C13.7027 29.6844 16.1262 29.5504 18.1513 30.2735C16.3273 30.9619 15.0214 32.2703 14.1384 34.0814C16.1404 33.8236 18.1113 33.9164 20.0359 34.4914C18.306 35.1849 17.4178 36.4469 17.0466 38.0543C19.0884 37.5735 21.022 37.4188 22.779 37.7669C21.8046 38.5539 21.0792 39.6066 20.6907 40.7975C22.342 39.9699 23.9134 39.6373 25.3597 40.1014C24.2898 40.7266 23.8992 41.6637 24.1313 42.8857C25.9991 43.217 28.5308 43.1371 31.3384 42.8857C31.3384 42.8857 26.8267 46.285 23.6388 47.3085C20.451 48.332 11.104 49.023 9.75305 49.7577C8.40211 50.4925 6.31641 56.3113 6.23133 59.7931C6.14625 63.2748 14.257 57.4998 17.1239 55.9439C19.9908 54.388 27.1992 52.9533 27.1992 52.9533L21.2618 60.0793C21.2618 60.0793 23.76 59.7106 27.5266 58.2746C31.2933 56.8385 36.4598 52.0664 40.5088 48.6917C44.6041 45.2795 47.5393 44.2715 47.5393 44.2715C47.552 44.609 47.5838 44.9456 47.6347 45.2795C47.6347 45.2795 54.2682 42.1858 55.5792 40.2238C56.8051 38.3843 61.9395 40.256 61.9395 40.256C61.6829 36.7846 60.1644 35.6721 57.5721 35.0173Z" fill="#3B2521"/>
<path d="M60.3449 36.3026C59.6372 35.6787 58.7065 35.3036 57.5721 35.0136C57.5721 35.0136 56.8064 34.03 54.0762 32.9382C53.197 32.5863 51.7958 32.7448 50.3005 33.1212C47.1552 33.9127 43.5974 35.6684 43.5974 35.6684C43.5974 35.6684 41.5723 35.3449 40.2626 31.5821C40.2626 31.5821 44.8491 30.5173 48.1259 27.4055C51.4027 24.2937 50.887 23.2006 50.887 23.2006C50.6137 23.4391 50.3654 23.7047 50.1458 23.9934C47.0895 27.925 39.8179 29.7361 39.8179 29.7361C39.123 25.664 39.3022 19.3128 35.5137 13.5636C32.4354 8.88685 24.3633 4.98614 19.7355 3.04481C19.1065 2.787 18.5393 2.55368 18.0598 2.36548C18.2922 3.33891 18.6524 4.27732 19.131 5.1563C19.8954 6.52142 19.8928 7.03833 21.7516 7.17626C23.5718 7.30517 27.158 9.75438 31.6774 13.6216C34.6526 16.1649 36.0602 21.316 36.3335 25.0336C36.8246 31.5859 38.6977 34.3149 39.7895 36.496C40.8813 38.6771 38.9 38.2478 36.3877 40.4315C33.8753 42.6152 34.5314 40.9239 35.0767 40.2136C35.622 39.5034 35.0225 38.9581 34.5855 38.302C34.1486 37.6458 35.952 36.8286 35.6168 36.1505C35.2816 35.4725 34.3174 36.719 33.7709 36.1505C33.2243 35.582 34.9723 34.8086 34.699 34.2066C34.4257 33.6046 32.7873 34.5933 32.4599 34.097C32.1325 33.6008 34.3716 33.1148 34.1537 32.7564C33.9359 32.3981 31.9688 33.0606 31.6813 32.7564C31.3938 32.4522 33.553 31.4764 33.4989 31.0948C33.4447 30.7133 31.3139 31.149 31.1489 30.5495C30.9839 29.9501 33.4434 29.838 33.4989 29.1316C33.5543 28.4252 30.4941 27.7677 30.6629 27.3965C30.8318 27.0252 33.37 27.8322 33.4989 27.8734C33.3429 27.7755 28.9214 25.0285 29.1895 24.5992C29.4577 24.17 32.9278 25.3018 33.1121 25.3611C32.9162 25.245 28.8157 22.8384 29.1354 22.2518C29.4551 21.6653 31.8424 23.1271 31.9713 23.2032C31.7883 23.0562 26.4696 18.8023 26.8447 18.2106C27.2198 17.619 32.2098 22.1062 32.3555 22.2364C32.1969 22.0636 26.9968 16.3338 27.3204 15.7421C27.6439 15.1504 31.1953 19.336 31.3049 19.452C31.2185 19.3411 28.4419 15.7202 26.8305 14.377C26.8305 14.377 20.6057 9.90005 19.9985 10.8836C19.3914 11.8672 24.9691 13.94 23.9856 15.3064C23.5989 15.8388 19.345 10.7431 17.8793 13.231C17.0027 14.7237 23.1645 17.1626 22.8396 17.8716C22.5148 18.5806 16.6147 14.4878 16.1777 17.1626C15.8503 19.1671 22.5663 20.1649 22.5663 20.7114C22.5663 21.258 18.043 19.4559 17.8793 20.9293C17.7156 22.4027 22.9479 22.8409 22.9479 23.6054C22.9479 24.3698 18.2737 23.403 18.4168 24.5335C18.6347 26.2673 23.7123 25.1342 23.5525 25.7903C23.3926 26.4465 18.7443 26.177 18.9118 27.3849C19.0794 28.5927 24.371 27.6994 24.4819 28.2473C24.5927 28.7951 19.6144 28.7255 20.0024 30.2131C20.6044 32.5063 24.973 30.0494 25.1909 30.7042C25.4087 31.3591 21.2592 32.0152 21.8599 33.1251C22.4606 34.235 26.8293 32.1789 26.993 32.7474C27.1567 33.3159 23.1709 34.088 23.5563 35.1811C23.9418 36.2743 28.4664 33.9797 28.8505 35.1811C29.2346 36.3825 24.4252 35.9456 25.1367 37.584C25.8483 39.2224 30.5959 36.7654 30.9233 37.584C31.2507 38.4025 27.8657 38.6216 28.5205 40.1492C29.1754 41.6767 32.1802 41.7876 32.3439 42.2787C32.5076 42.7699 31.3332 42.8794 31.3332 42.8794C31.3332 42.8794 29.7864 44.0499 27.8528 45.2242C26.4941 46.0492 24.9498 46.8807 23.6298 47.3035C20.442 48.327 11.104 49.0231 9.75305 49.7579C8.40211 50.4926 6.31641 56.3127 6.23133 59.7932C6.17074 62.3713 10.6012 59.8731 14.0675 57.772H14.074C15.2883 57.0372 16.3827 56.354 17.1239 55.9479C19.9908 54.3882 27.1992 52.9547 27.1992 52.9547L23.5589 57.3247C23.5589 57.3247 28.7964 57.1313 34.8575 50.9889C40.9187 44.8465 47.6631 42.8459 47.6631 42.8459C47.5556 43.314 47.5123 43.7945 47.5342 44.2742C47.5475 44.6121 47.5794 44.9491 47.6296 45.2835C49.3632 44.4645 51.0533 43.5562 52.693 42.5623C53.9692 41.7682 55.1074 40.9252 55.5741 40.2265C55.9608 39.6452 56.7342 39.4338 57.6224 39.4183C59.5315 39.3822 61.9356 40.2588 61.9356 40.2588C61.7951 38.3071 61.2524 37.1006 60.3449 36.3026Z" fill="#4F332E"/>
<path d="M60.3449 36.3066C59.6372 35.6826 58.7065 35.3075 57.5721 35.0175C57.5721 35.0175 56.8064 34.0339 54.0762 32.9421C53.197 32.5889 51.7958 32.7487 50.3005 33.1251C47.1552 33.9166 43.5974 35.6723 43.5974 35.6723C43.1327 35.9178 42.6825 36.1898 42.249 36.487C41.8894 36.7276 41.5547 37.0036 41.25 37.3107C43.4517 36.848 45.5155 36.857 47.3937 37.5157C45.2908 38.4438 44.0619 39.8085 43.707 41.6098C45.4704 40.7667 47.1952 40.4573 48.8632 40.8737C48.2596 41.3831 47.8387 42.0756 47.6644 42.846C47.5568 43.314 47.5134 43.7945 47.5355 44.2742C47.5487 44.6118 47.5806 44.9483 47.6309 45.2823C49.3644 44.4634 51.0544 43.5556 52.6943 42.5624C53.9705 41.767 55.1087 40.9253 55.5754 40.2266C55.9621 39.6452 56.7355 39.4338 57.6237 39.4184C59.5328 39.3823 61.9369 40.2588 61.9369 40.2588C61.7951 38.3098 61.2524 37.1045 60.3449 36.3066Z" fill="#C2AA97"/>
<path d="M50.8858 23.1953C50.6125 23.4338 50.3642 23.6994 50.1446 23.9881C47.0882 27.9197 39.8166 29.7309 39.8166 29.7309C39.1218 25.6587 39.301 19.3075 35.5124 13.5583C32.4354 8.88671 24.3633 4.98601 19.7356 3.04468C19.7356 3.04468 24.1803 6.41558 30.2711 10.7791C35.3281 14.3962 36.8221 18.6952 37.8598 27.3899C38.8176 35.4169 42.2426 36.492 42.2426 36.492C42.6764 36.1953 43.1266 35.9233 43.591 35.6773C43.591 35.6773 41.5723 35.3447 40.2626 31.5819C40.2626 31.5819 44.8491 30.5172 48.1259 27.4054C51.4027 24.2936 50.8858 23.1953 50.8858 23.1953Z" fill="#815537"/>
<path d="M27.8592 45.2241L27.8953 45.2834C27.8953 45.2834 24.2086 48.8554 18.4955 49.7578C15.0575 50.2992 9.18586 50.2979 9.95801 51.8873C10.3447 52.6826 12.9061 52.7058 12.9061 52.7058C12.9061 52.7058 8.1559 54.4254 9.05695 55.0816C9.95801 55.7377 12.3325 55.5727 12.3325 55.5727C12.3325 55.5727 7.41855 57.2111 7.90969 58.5698C8.3918 59.904 13.86 57.8466 14.0675 57.7693C10.6012 59.8705 6.17074 62.3687 6.23133 59.7905C6.31254 56.3101 8.40211 50.4938 9.75305 49.7578C11.104 49.0217 20.442 48.3269 23.6362 47.3085C24.9562 46.8806 26.5005 46.0491 27.8592 45.2241Z" fill="#C2AA97"/>
<path d="M60.3449 36.3052C59.6372 35.6813 58.7065 35.3062 57.5721 35.0161C57.5721 35.0161 56.8064 34.0339 54.0762 32.9407C53.197 32.5888 51.7958 32.7474 50.3005 33.1251C48.461 34.4257 47.6502 35.4183 50.0427 35.4544C48.4636 36.3954 48.4662 37.0309 50.3005 37.3094C48.6247 38.445 49.0926 38.7828 50.9141 38.6203C48.8722 40.3425 49.4433 40.6467 51.5934 40.095C49.5515 42.164 50.236 42.8214 52.6969 42.5597C53.973 41.7657 55.1113 40.9239 55.5779 40.2239C55.9646 39.6426 56.7381 39.4312 57.6262 39.417C59.5353 39.3809 61.9394 40.2574 61.9394 40.2574C61.7951 38.3084 61.2524 37.1031 60.3449 36.3052Z" fill="#F7DECA"/>
<path d="M60.345 36.3025C61.2473 37.1004 61.7952 38.3057 61.9395 40.2586C61.9395 40.2586 59.5354 39.382 57.6263 39.4181C57.6263 39.4181 56.7008 38.7233 54.869 39.1397C52.6969 39.6334 52.3334 39.4542 54.3766 37.0914C57.353 33.6522 60.2302 36.2818 60.345 36.3025Z" fill="#FAC924"/>
<path d="M53.6431 38.6177C53.6431 38.6177 56.5602 37.4395 59.186 37.9732C60.1425 38.1691 61.0294 38.5468 61.7178 39.3796C61.933 39.6374 61.7371 40.1143 61.487 39.8849C60.9056 39.3512 59.7545 38.4953 58.5583 38.3689C56.9985 38.2078 53.6431 38.6177 53.6431 38.6177Z" fill="#603913"/>
<path d="M54.5581 36.6093C54.349 36.6059 54.1439 36.5516 53.9604 36.4512C53.7769 36.3509 53.6206 36.2073 53.505 36.0331C53.4493 35.9579 53.4138 35.8698 53.4019 35.777C53.3899 35.6843 53.4019 35.5901 53.4367 35.5033C53.2122 35.5047 52.9884 35.5258 52.7676 35.5664C52.6966 35.5794 52.6237 35.5783 52.5531 35.563C52.4825 35.5477 52.4156 35.5186 52.3563 35.4774C52.297 35.4362 52.2464 35.3836 52.2075 35.3228C52.1686 35.262 52.142 35.194 52.1295 35.1229C52.1169 35.0518 52.1185 34.9789 52.1342 34.9084C52.1499 34.8379 52.1794 34.7712 52.221 34.7121C52.2626 34.6531 52.3154 34.6028 52.3765 34.5643C52.4376 34.5257 52.5057 34.4996 52.5769 34.4875C53.8337 34.2645 54.8353 34.5068 55.5533 35.2081C55.6395 35.293 55.6952 35.404 55.7119 35.5239C55.7673 35.9106 55.4785 36.3321 55.0274 36.5177C54.8783 36.5781 54.719 36.6092 54.5581 36.6093Z" fill="#292424"/>
<path d="M47.8655 45.83C48.5577 45.5078 54.6769 42.6164 56.033 40.581C56.778 39.4646 60.2082 40.2626 61.7525 40.8246C61.8384 40.8558 61.9307 40.865 62.0211 40.8514C62.1114 40.8378 62.197 40.8018 62.2699 40.7468C62.3428 40.6917 62.4007 40.6192 62.4385 40.536C62.4762 40.4528 62.4926 40.3615 62.486 40.2703C62.2101 36.5204 60.4454 35.261 57.8673 34.5791C57.5308 34.2349 56.546 33.3906 54.2798 32.4844C52.8967 31.9314 50.5016 32.4547 48.2986 33.1908C50.2167 31.7419 52.247 29.9681 53.2331 28.3658C54.6743 26.0146 54.3533 23.2921 53.1042 22.4271C52.635 22.1023 51.3665 21.5763 49.7127 23.702C47.2983 26.8061 42.0157 28.5721 40.2626 29.089C40.1594 28.3761 40.0731 27.5975 39.9815 26.7687C39.5458 22.8254 39.0044 17.918 35.9648 13.3083C34.0815 10.4414 30.2272 7.53973 24.5154 4.68317C21.919 3.3892 19.2506 2.24521 16.5232 1.25684C16.4157 1.21888 16.299 1.21541 16.1895 1.2469C16.0799 1.2784 15.9829 1.34329 15.9119 1.43253C15.841 1.52177 15.7997 1.63092 15.7937 1.74477C15.7877 1.85862 15.8174 1.97149 15.8787 2.06766C17.0156 3.8543 17.5751 5.45145 17.5699 6.91582C15.8851 5.80078 13.5248 5.25164 10.2532 5.19879H10.2442C10.1238 5.19888 10.0069 5.23859 9.91136 5.31178C9.81585 5.38497 9.74709 5.48757 9.7157 5.60374C9.68431 5.7199 9.69204 5.84317 9.7377 5.9545C9.78335 6.06584 9.86439 6.15904 9.9683 6.21973C12.143 7.49203 13.8484 8.92676 15.1465 10.5806C12.0798 10.2764 8.61736 11.015 4.61354 12.8236C4.49343 12.8784 4.39717 12.9748 4.34245 13.0949C4.28773 13.2151 4.27825 13.351 4.31574 13.4775C4.35323 13.6041 4.43518 13.7129 4.5465 13.7839C4.65782 13.8549 4.79103 13.8833 4.92162 13.8639C8.27318 13.3482 11.0266 13.5261 13.3005 14.3963C9.80975 15.3128 7.43143 16.2009 3.77436 18.4955C3.66842 18.5621 3.58847 18.6629 3.5478 18.7813C3.50714 18.8996 3.50821 19.0283 3.55084 19.1459C3.59347 19.2636 3.67509 19.3631 3.78212 19.4279C3.88915 19.4927 4.01515 19.519 4.13916 19.5022C7.87744 18.993 10.1513 19.3965 12.5103 20.0707C10.386 20.9653 8.61092 22.4426 7.21873 24.4793C7.1551 24.5724 7.12177 24.683 7.12331 24.7958C7.12484 24.9086 7.16116 25.0181 7.2273 25.1095C7.29344 25.2009 7.38618 25.2697 7.49286 25.3064C7.59953 25.3431 7.71493 25.3459 7.8233 25.3146C10.6592 24.4935 12.9796 24.2331 15.0421 24.5193C12.9112 26.2298 11.4069 28.1041 10.5613 30.1048C10.5222 30.1974 10.5094 30.2991 10.5242 30.3985C10.539 30.498 10.581 30.5915 10.6454 30.6687C10.7099 30.7459 10.7943 30.8039 10.8895 30.8363C10.9847 30.8687 11.087 30.8743 11.1852 30.8524C13.3134 30.378 15.0949 30.2569 16.5838 30.4876C15.3501 31.2688 14.3653 32.407 13.6447 33.8869C13.6017 33.9757 13.5834 34.0745 13.5919 34.1728C13.6003 34.2711 13.6352 34.3653 13.6927 34.4455C13.7503 34.5256 13.8285 34.5887 13.9189 34.6281C14.0094 34.6675 14.1088 34.6818 14.2067 34.6693C15.646 34.4699 17.1075 34.4942 18.5393 34.7415C17.508 35.4995 16.8338 36.5823 16.5116 37.9745C16.4905 38.0652 16.4929 38.1599 16.5185 38.2494C16.5442 38.339 16.5923 38.4205 16.6582 38.4863C16.7241 38.5521 16.8058 38.6 16.8954 38.6255C16.985 38.651 17.0796 38.6532 17.1703 38.6319C18.8254 38.2452 20.2795 38.1008 21.5802 38.2014C20.9524 38.9207 20.4739 39.7576 20.1725 40.6635C20.1369 40.7664 20.1327 40.8776 20.1606 40.9829C20.1885 41.0882 20.2472 41.1828 20.3291 41.2546C20.411 41.3265 20.5124 41.3722 20.6205 41.3861C20.7285 41.4 20.8383 41.3813 20.9356 41.3325C22.1267 40.7344 23.1786 40.4534 24.1235 40.4856C23.5847 41.1636 23.4016 42.026 23.5911 43.0328C23.6119 43.142 23.6655 43.2423 23.7447 43.3204C23.8239 43.3984 23.925 43.4505 24.0346 43.4698C25.3739 43.7082 27.109 43.7585 29.4074 43.6245C27.8308 44.6931 25.3868 46.218 23.4712 46.8316C21.8947 47.337 18.6527 47.7778 15.7936 48.1658C12.3544 48.6325 10.2106 48.9393 9.49264 49.326C8.44334 49.8983 7.4817 52.2573 7.00217 53.6121C6.21713 55.828 5.726 58.1522 5.68604 59.828C5.66541 60.6813 6.05213 61.0861 6.37826 61.2743C6.64859 61.4222 6.95322 61.496 7.26127 61.4883C8.96928 61.4883 11.8194 59.8434 15.2638 57.7384C16.1133 57.2228 16.8454 56.7716 17.3856 56.479C19.3488 55.4129 23.5009 54.3868 25.7645 53.8777L21.4513 59.0532C21.3778 58.9699 21.2952 58.8951 21.2051 58.8302C20.3478 58.227 18.944 58.7013 18.7868 58.7568C18.6543 58.8088 18.5473 58.9104 18.4884 59.04C18.4296 59.1696 18.4234 59.317 18.4713 59.4511C18.5193 59.5851 18.6175 59.6952 18.7451 59.7581C18.8728 59.821 19.02 59.8317 19.1554 59.788C19.5048 59.6591 20.2782 59.5173 20.5734 59.7248C20.6134 59.7532 20.7165 59.8254 20.7165 60.1322C20.7165 60.8218 20.5038 61.3246 20.072 61.67C18.9737 62.5402 16.6637 62.2437 15.8658 62.0568C15.7242 62.0226 15.5749 62.046 15.4506 62.1219C15.3264 62.1978 15.2374 62.32 15.2032 62.4615C15.169 62.6031 15.1924 62.7524 15.2683 62.8766C15.3443 63.0009 15.4664 63.0899 15.6079 63.1241C16.3106 63.2768 17.0274 63.355 17.7465 63.3574C18.7584 63.3574 19.9212 63.1821 20.7449 62.5311C20.8177 62.4739 20.8874 62.4128 20.9537 62.3481C20.6211 62.8096 20.0088 63.2762 19.1232 63.7441C18.9947 63.8125 18.8986 63.9292 18.856 64.0684C18.8135 64.2077 18.828 64.3581 18.8963 64.4866C18.9647 64.6152 19.0814 64.7113 19.2206 64.7539C19.3599 64.7964 19.5103 64.7819 19.6388 64.7135C21.2063 63.8859 22.0752 63.0068 22.2969 62.0258C22.407 61.5224 22.3495 60.9969 22.1332 60.5292C24.0387 60.1121 25.9091 59.5484 27.7277 58.8431C30.9323 57.6237 35.0496 54.1136 38.6847 51.0159C39.4479 50.3714 40.1685 49.7514 40.8658 49.17C43.7018 46.8046 45.9873 45.6122 47.0598 45.1236C47.0611 45.7527 47.1655 46.1484 47.8655 45.83ZM50.5725 24.3749C51.3214 23.412 52.033 23.0214 52.4764 23.3282C52.8335 23.5744 53.0668 24.206 53.0887 24.9756C53.0977 25.9711 52.8218 26.9484 52.2934 27.7922C50.5029 30.7145 44.6608 34.4167 43.5058 35.1321C42.842 34.8833 41.6238 33.8895 40.7743 31.448C40.6355 31.0329 40.5239 30.6092 40.4404 30.1795C42.1755 29.6858 47.877 27.8438 50.5776 24.3749H50.5725ZM14.4542 19.5151C12.005 18.7597 9.74658 18.0649 6.42725 18.1964C9.32377 16.6096 11.5835 15.9393 15.0395 15.0833C15.1459 15.0566 15.242 14.9986 15.3151 14.9168C15.3883 14.8349 15.4353 14.7331 15.45 14.6243C15.4647 14.5155 15.4465 14.4048 15.3976 14.3065C15.3488 14.2082 15.2717 14.1267 15.1761 14.0727C13.3147 13.0273 11.1259 12.5039 8.55033 12.4833C11.4262 11.5913 13.9644 11.3863 16.2357 11.8529C16.3418 11.875 16.452 11.8651 16.5524 11.8245C16.6529 11.7839 16.739 11.7145 16.8 11.6249C16.861 11.5354 16.8941 11.4298 16.895 11.3215C16.896 11.2131 16.8649 11.1069 16.8055 11.0163C15.6892 9.30316 14.1694 7.75758 12.2744 6.40664C14.7237 6.65027 16.4639 7.28707 17.6588 8.36473C17.7315 8.42916 17.8199 8.47313 17.9152 8.49213C18.0104 8.51114 18.1089 8.5045 18.2007 8.47289C18.2925 8.44128 18.3743 8.38584 18.4376 8.31225C18.501 8.23866 18.5436 8.14955 18.5612 8.05406C18.8499 6.42856 18.5251 4.7025 17.5699 2.81789C21.3365 4.2784 31.582 8.62899 35.0547 13.9103C37.9448 18.2995 38.4695 23.0626 38.8923 26.8886C39.1063 28.8299 39.2919 30.5057 39.7444 31.8076C40.5436 34.1047 41.6212 35.2249 42.4192 35.7676C41.8484 36.1065 41.3215 36.5143 40.8504 36.9819C40.7696 37.0663 40.718 37.1744 40.703 37.2902C40.688 37.4061 40.7104 37.5237 40.767 37.6259C40.8235 37.7281 40.9113 37.8096 41.0174 37.8584C41.1236 37.9072 41.2426 37.9208 41.357 37.8971C43.0405 37.5439 44.5384 37.4898 45.8996 37.7386C44.3927 38.6989 43.4749 39.979 43.1642 41.5555C43.1448 41.6551 43.1534 41.7581 43.1891 41.8531C43.2248 41.9481 43.2862 42.0313 43.3664 42.0934C43.4466 42.1556 43.5424 42.1942 43.6433 42.2051C43.7442 42.2159 43.8461 42.1986 43.9377 42.1549C45.317 41.4949 46.5841 41.2126 47.7804 41.3029C47.1913 42.1433 47.0069 43.083 46.9837 43.9532C46.0543 44.3399 43.4865 45.549 40.1517 48.3257C39.4492 48.9109 38.726 49.5271 37.9603 50.1806C34.3947 53.2202 30.3548 56.6646 27.3268 57.817C25.8118 58.3989 24.2619 58.8854 22.6862 59.2737L27.6181 53.3556C27.6906 53.2686 27.7344 53.1613 27.7434 53.0484C27.7524 52.9355 27.7262 52.8226 27.6684 52.7252C27.6106 52.6278 27.524 52.5507 27.4206 52.5046C27.3172 52.4584 27.202 52.4454 27.0909 52.4674C26.7931 52.5267 19.7678 53.9357 16.8622 55.5135C16.2963 55.8203 15.5525 56.274 14.6914 56.8025C13.2735 57.6727 11.4984 58.7542 9.9683 59.498C7.70729 60.5975 7.06533 60.4132 6.92225 60.332C6.82041 60.2727 6.77143 60.1141 6.77787 59.8589C6.81397 58.294 7.28318 56.0974 8.03084 53.9834C8.81717 51.7636 9.60994 50.5145 10.0147 50.2941C10.5909 49.9795 13.4307 49.5941 15.9367 49.2538C18.984 48.84 22.1332 48.412 23.7999 47.8784C27.0458 46.8381 31.475 43.5123 31.6632 43.3666C31.7589 43.2953 31.8286 43.1947 31.8617 43.08C31.8948 42.9654 31.8895 42.843 31.8465 42.7317C31.8035 42.6203 31.7253 42.5261 31.6238 42.4634C31.5223 42.4007 31.403 42.3729 31.2842 42.3844C28.3194 42.6486 26.186 42.6718 24.6159 42.4527C24.5618 41.6393 24.8905 41.0502 25.6304 40.6184C25.722 40.5651 25.7961 40.4864 25.8438 40.3918C25.8916 40.2973 25.9109 40.1909 25.8994 40.0856C25.888 39.9803 25.8462 39.8806 25.7793 39.7985C25.7123 39.7165 25.623 39.6556 25.5221 39.6232C24.3865 39.2584 23.149 39.31 21.7684 39.7856C22.1221 39.193 22.5797 38.669 23.1193 38.2388C23.2002 38.1732 23.2607 38.086 23.2937 37.9873C23.3268 37.8886 23.3311 37.7825 23.3061 37.6815C23.281 37.5805 23.2278 37.4887 23.1525 37.4168C23.0771 37.345 22.9829 37.2961 22.8808 37.2758C21.3946 36.9819 19.7394 37.0116 17.8445 37.3699C18.2969 36.2716 19.0858 35.5072 20.2344 35.0496C20.3385 35.0064 20.4269 34.9322 20.4873 34.837C20.5478 34.7418 20.5776 34.6304 20.5725 34.5177C20.5674 34.4051 20.5278 34.2967 20.459 34.2074C20.3902 34.118 20.2956 34.0521 20.188 34.0184C18.5452 33.535 16.8281 33.3546 15.1207 33.486C15.8702 32.2692 17.0043 31.3374 18.3433 30.8382C18.4492 30.7992 18.5405 30.7284 18.6046 30.6355C18.6687 30.5427 18.7026 30.4323 18.7016 30.3194C18.7006 30.2066 18.6648 30.0968 18.5991 30.0051C18.5333 29.9134 18.4409 29.8442 18.3343 29.807C16.6405 29.2011 14.5741 29.1225 12.0411 29.5685C13.0092 27.8231 14.5599 26.177 16.6676 24.6701C16.7523 24.6091 16.8178 24.5253 16.8564 24.4284C16.8951 24.3314 16.9053 24.2255 16.8858 24.123C16.8663 24.0205 16.8179 23.9257 16.7464 23.8497C16.6748 23.7738 16.5831 23.7198 16.4819 23.6943C14.324 23.149 11.947 23.198 9.09561 23.858C10.5068 22.2515 12.3677 21.1055 14.4375 20.5683C14.5525 20.5379 14.6546 20.4709 14.7282 20.3774C14.8018 20.2839 14.843 20.1689 14.8454 20.05C14.8479 19.931 14.8116 19.8144 14.7419 19.7179C14.6723 19.6214 14.5731 19.5502 14.4594 19.5151H14.4542ZM55.1216 39.9738C54.227 41.3157 50.2347 43.4543 48.0962 44.5049C48.0085 43.0689 48.3669 42.075 49.2203 41.3389C49.2962 41.2733 49.3527 41.1881 49.3835 41.0926C49.4143 40.9971 49.4183 40.8949 49.395 40.7973C49.3718 40.6997 49.3221 40.6103 49.2515 40.539C49.1809 40.4676 49.0921 40.4171 48.9947 40.3928C48.4605 40.2598 47.9119 40.1931 47.3614 40.1943C46.4157 40.204 45.4785 40.3744 44.5899 40.6983C45.1185 39.5936 46.1149 38.7273 47.6089 38.0673C47.7095 38.023 47.7944 37.9494 47.8526 37.8562C47.9108 37.7629 47.9397 37.6544 47.9353 37.5445C47.931 37.4347 47.8938 37.3287 47.8284 37.2403C47.7631 37.152 47.6727 37.0853 47.569 37.0489C46.196 36.581 44.7415 36.4002 43.2957 36.5179C43.4685 36.4173 43.6515 36.3142 43.8436 36.2111C43.9841 36.1414 45.8468 35.2365 47.9956 34.4644C50.811 33.4538 52.8941 33.1122 53.8738 33.5014C56.381 34.5056 57.1364 35.4015 57.139 35.4041C57.2135 35.5007 57.3184 35.5693 57.4367 35.5988C59.6024 36.1466 60.903 36.969 61.3039 39.5239C59.6746 39.038 56.2572 38.2697 55.1216 39.9738Z" fill="#292424"/>
<path d="M36.0151 27.7715C35.8566 26.1834 35.6593 24.2085 35.1759 21.6433C34.5623 18.3833 32.2214 15.1529 28.215 12.0437C26.4067 10.6383 24.4697 9.40688 22.4297 8.36596C22.2989 8.30254 22.1483 8.29367 22.011 8.34129C21.8737 8.38891 21.7609 8.48914 21.6975 8.6199C21.6341 8.75067 21.6252 8.90128 21.6728 9.03859C21.7205 9.1759 21.8207 9.28867 21.9514 9.35209C22.0584 9.40366 32.7486 14.6656 34.1009 21.847C34.5752 24.3645 34.7622 26.2298 34.9259 27.8798C35.243 31.0535 35.4531 33.1495 37.504 36.3966C37.9758 37.143 37.8263 37.3093 37.504 37.5568L37.4821 37.5735L35.4802 39.2622C35.369 39.3559 35.2997 39.4899 35.2874 39.6347C35.275 39.7795 35.3207 39.9232 35.4144 40.0344C35.5081 40.1455 35.6421 40.2148 35.7869 40.2271C35.9317 40.2395 36.0755 40.1938 36.1866 40.1001L38.1795 38.4243C39.4621 37.4369 38.7157 36.2574 38.4373 35.8127C36.5153 32.7821 36.3271 30.8962 36.0151 27.7715Z" fill="#292424"/>
</svg>
