<svg width="57" height="57" viewBox="0 0 57 57" fill="none" xmlns="http://www.w3.org/2000/svg">
<g clip-path="url(#clip0_53_13908)">
<path d="M34.4522 27.0912L23.0848 14.1836L19.1399 14.2546L24.882 27.0912" fill="#ED1C24"/>
<path d="M55.3557 32.4043L51.3725 30.0805L51.5781 30.4912C51.8145 30.9641 51.6229 31.5394 51.1496 31.7753L49.2355 32.7324C49.1028 32.7987 48.9561 32.8333 48.8075 32.8333H44.9794V30.9193H48.5818L49.4374 30.4912L48.4248 28.4632C46.4411 27.5613 44.2878 27.0935 42.1084 27.0912H9.56971L4.78462 17.521H0.956542L2.87058 29.0052L2.02197 29.4291C1.26309 29.8052 0.839251 30.6333 0.977103 31.4688C1.11449 32.3043 1.78178 32.9525 2.62105 33.0655L20.0969 35.4735L28.7101 36.6614L37.2892 37.4413C40.1789 37.6497 43.0813 37.6006 45.9626 37.2946L48.4921 36.9787C50.1771 36.7679 51.8243 36.3217 53.3851 35.6525L55.2034 34.8735C55.6842 34.6674 56.008 34.2081 56.0403 33.6856C56.0725 33.1637 55.8076 32.6679 55.3557 32.4043Z" fill="#F2F2F2"/>
<path d="M48.5818 30.9192H44.9794V32.8333H48.8075C48.9556 32.8347 49.1024 32.802 49.2355 32.7375L51.1496 31.7804C51.623 31.544 51.8145 30.9692 51.5781 30.4959L51.3725 30.0856L49.822 29.1809C49.3687 28.9192 48.9019 28.6813 48.4239 28.4683L49.4374 30.4959L48.5818 30.9192Z" fill="#00BBD6"/>
<path d="M12.4408 29.0051H14.3548V30.9192H12.4408V29.0051Z" fill="#00BBD6"/>
<path d="M16.2689 29.0051H18.1829V30.9192H16.2689V29.0051Z" fill="#00BBD6"/>
<path d="M20.0969 29.0051H22.011V30.9192H20.0969V29.0051Z" fill="#00BBD6"/>
<path d="M23.925 29.0051H25.8391V30.9192H23.925V29.0051Z" fill="#00BBD6"/>
<path d="M27.7531 29.0051H29.6672V30.9192H27.7531V29.0051Z" fill="#00BBD6"/>
<path d="M31.5812 29.0051H33.4952V30.9192H31.5812V29.0051Z" fill="#00BBD6"/>
<path d="M35.4092 29.0051H37.3233V30.9192H35.4092V29.0051Z" fill="#00BBD6"/>
<path d="M55.5066 12.2573C55.5066 10.9358 54.4356 9.8648 53.1141 9.8648C52.5715 9.86667 52.0454 10.055 51.6253 10.3984C51.9155 8.86572 50.9262 7.38253 49.4 7.06103C47.8734 6.73907 46.3701 7.69702 46.0168 9.21666C45.5607 8.91853 44.9981 8.83114 44.4724 8.97601C43.9467 9.12133 43.5088 9.48536 43.2705 9.97555C42.5471 9.74517 41.7579 9.87695 41.1485 10.3288C40.5387 10.7807 40.184 11.4985 40.1943 12.2573C40.1943 13.3943 40.9943 14.3742 42.1083 14.6018V14.6499H53.5926V14.6018C54.7071 14.3742 55.5071 13.3943 55.5066 12.2573Z" fill="#E6E6E6"/>
<path d="M36.3662 53.4092C36.3662 52.0877 35.2952 51.0167 33.9737 51.0167C33.4312 51.0185 32.905 51.2068 32.4849 51.5503C32.7751 50.0176 31.7858 48.5344 30.2596 48.2129C28.733 47.8909 27.2297 48.8489 26.8764 50.3685C26.4203 50.0704 25.8577 49.983 25.332 50.1279C24.8063 50.2732 24.3684 50.6372 24.1301 51.1274C23.4068 50.897 22.6175 51.0288 22.0081 51.4807C21.3983 51.9326 21.0436 52.6503 21.0539 53.4092C21.0539 54.5461 21.8539 55.526 22.968 55.7536V55.8018H34.4522V55.7536C35.5667 55.526 36.3667 54.5461 36.3662 53.4092Z" fill="#E6E6E6"/>
<path d="M17.2259 6.51516C17.2259 5.19365 16.1548 4.12261 14.8333 4.12261C14.2908 4.12448 13.7646 4.3128 13.3445 4.65626C13.6347 3.12354 12.6454 1.64034 11.1192 1.31885C9.5926 0.99688 8.08931 1.95483 7.73604 3.47447C7.27996 3.17634 6.71733 3.08896 6.19163 3.23382C5.66592 3.37915 5.22807 3.74317 4.98975 4.23336C4.26638 4.00298 3.47711 4.13476 2.86776 4.58664C2.25794 5.03851 1.90327 5.75627 1.91355 6.51516C1.91355 7.65209 2.71356 8.632 3.82759 8.85958V8.90771H15.3118V8.85958C16.4263 8.632 17.2263 7.65209 17.2259 6.51516Z" fill="#E6E6E6"/>
<path d="M22.011 32.8333L32.5382 33.7903L15.3118 49.1026L11.4838 48.1456L22.011 32.8333Z" fill="#ED1C24"/>
<path d="M9.56971 27.0912H2.55189L0.956543 17.521H4.78462L9.56971 27.0912Z" fill="#ED1C24"/>
<path d="M2.4879 34.0104L18.518 36.2217L10.6955 47.6035C10.5179 47.862 10.4782 48.1909 10.5894 48.4839C10.7001 48.7774 10.9473 48.9975 11.2515 49.0737L15.0796 50.0307C15.3866 50.1078 15.7119 50.0283 15.9483 49.8181L29.5793 37.7016L37.2018 38.3941C38.1789 38.4834 39.4032 38.5254 40.6673 38.5254C42.4757 38.5352 44.2836 38.4413 46.0813 38.2441L48.6108 37.9282C50.3846 37.7067 52.1188 37.2366 53.7622 36.5319L55.5805 35.753C56.3936 35.4044 56.9412 34.6277 56.9955 33.7445C57.0501 32.8613 56.602 32.023 55.838 31.5777L50.3043 28.3496C47.8164 26.8996 44.9883 26.1351 42.1084 26.1342H34.885L23.8035 13.5509C23.6138 13.3457 23.3475 13.228 23.0675 13.2266L19.1231 13.2976C18.8002 13.3027 18.5021 13.4696 18.3296 13.7425C18.1567 14.0149 18.1329 14.356 18.2666 14.6499L23.4054 26.1342H10.1613L5.64634 17.093C5.48325 16.7668 5.14914 16.5616 4.78465 16.564H0.956574C0.675263 16.564 0.408437 16.6878 0.22666 16.9023C0.0448824 17.1173 -0.0331558 17.4014 0.0131064 17.6785L1.81032 28.465L1.59396 28.5734C0.464045 29.1389 -0.166802 30.3739 0.0383402 31.6211C0.243482 32.8684 1.23602 33.8366 2.4879 34.0104ZM15.0534 48.0498L13.0534 47.5493L22.482 33.8352L30.2513 34.5413L28.9274 35.7174L28.7966 35.7044L28.784 35.8427L15.0534 48.0498ZM20.6044 15.1836L22.6601 15.1462L32.3345 26.1342H25.5026L20.6044 15.1836ZM3.81455 28.8473L2.08696 18.478H4.19259L8.71226 27.5188C8.87488 27.8435 9.20666 28.0487 9.56974 28.0482H42.1084C44.572 28.0505 46.993 28.6865 49.1398 29.895L49.4374 30.4912L48.5818 30.9193H44.9794V32.8333H48.8075C48.9557 32.8347 49.1024 32.802 49.2356 32.7375L51.1496 31.7805C51.3426 31.6791 51.4945 31.5146 51.58 31.3141L54.8735 33.2361C55.0146 33.317 55.0978 33.4707 55.0875 33.6333C55.0777 33.7959 54.9763 33.9385 54.8263 34.0015L53.008 34.7805C51.5295 35.4142 49.9692 35.8371 48.3734 36.0371L45.8439 36.353C43.0308 36.653 40.1967 36.7006 37.3752 36.4955L31.5373 35.9656L33.1709 34.5137C33.4644 34.2618 33.5779 33.8585 33.4583 33.4913C33.3387 33.1235 33.0097 32.8641 32.6246 32.8333L22.0974 31.8763C21.7526 31.845 21.4185 32.0025 21.2227 32.2875L19.7334 34.46L2.75098 32.1141C2.33042 32.0557 1.9963 31.73 1.92761 31.3104C1.85845 30.8912 2.0706 30.4758 2.45051 30.2856L3.29865 29.8613C3.67483 29.6735 3.88417 29.2618 3.81455 28.8473Z" fill="black"/>
<path d="M12.4408 29.0051H14.3548V30.9192H12.4408V29.0051Z" fill="black"/>
<path d="M16.2689 29.0051H18.1829V30.9192H16.2689V29.0051Z" fill="black"/>
<path d="M20.0969 29.0051H22.011V30.9192H20.0969V29.0051Z" fill="black"/>
<path d="M23.925 29.0051H25.839V30.9192H23.925V29.0051Z" fill="black"/>
<path d="M27.7531 29.0051H29.6672V30.9192H27.7531V29.0051Z" fill="black"/>
<path d="M31.5812 29.0051H33.4952V30.9192H31.5812V29.0051Z" fill="black"/>
<path d="M35.4092 29.0051H37.3233V30.9192H35.4092V29.0051Z" fill="black"/>
<path d="M52.5276 8.96018C52.1552 7.4326 50.8865 6.28773 49.3285 6.07417C47.7706 5.86062 46.2407 6.62138 45.4706 7.99288C44.492 7.82886 43.4976 8.1784 42.8369 8.91813C41.1392 8.79196 39.6168 9.95973 39.2985 11.6326C38.9803 13.3051 39.9672 14.95 41.593 15.4565C41.7467 15.5546 41.9257 15.607 42.1084 15.607H53.5926C53.7622 15.607 53.9281 15.5588 54.0711 15.4682C55.6665 14.9939 56.6721 13.4205 56.4319 11.7738C56.1912 10.127 54.7786 8.90598 53.1141 8.90785C52.9174 8.90785 52.7211 8.92514 52.5276 8.96018ZM54.5496 12.2574C54.5501 12.9397 54.0697 13.5275 53.4015 13.664C53.365 13.6714 53.3295 13.6813 53.294 13.6929H42.4079C42.3724 13.6813 42.3359 13.6714 42.299 13.664C41.5761 13.5172 41.0822 12.8462 41.1565 12.1126C41.2308 11.3784 41.8495 10.8205 42.5869 10.8219C42.7261 10.8247 42.864 10.849 42.9958 10.8924C43.4425 11.0266 43.9205 10.8191 44.128 10.4013C44.2505 10.1611 44.4682 9.98309 44.7285 9.91019C44.9883 9.83776 45.2668 9.87702 45.4963 10.0186C45.7584 10.1882 46.0865 10.2195 46.3757 10.1027C46.665 9.9859 46.879 9.73496 46.9491 9.43122C47.2042 8.44195 48.193 7.82886 49.1926 8.04008C50.1921 8.2513 50.8482 9.21159 50.6814 10.2195C50.6071 10.6135 50.786 11.0116 51.1295 11.2177C51.4734 11.4242 51.9089 11.3943 52.2216 11.1434C52.6487 10.791 53.2417 10.7186 53.7412 10.9574C54.2407 11.1962 54.5562 11.7037 54.5496 12.2574Z" fill="black"/>
<path d="M33.9737 50.0595C33.777 50.0595 33.5807 50.0767 33.3873 50.1118C33.0148 48.5842 31.7461 47.4393 30.1882 47.2258C28.6302 47.0122 27.1003 47.773 26.3302 49.1445C25.3517 48.9805 24.3573 49.33 23.6965 50.0697C21.9988 49.9436 20.4764 51.1113 20.1582 52.7843C19.8399 54.4567 20.8269 56.1016 22.4526 56.6081C22.6063 56.7063 22.7853 56.7586 22.968 56.7586H34.4522C34.6219 56.7586 34.7877 56.7105 34.9307 56.6198C36.5261 56.1455 37.5317 54.5721 37.2915 52.9254C37.0508 51.2786 35.6382 50.0576 33.9737 50.0595ZM34.2611 54.8156C34.2247 54.8231 34.1891 54.8329 34.1536 54.8446H23.2675C23.232 54.8329 23.1956 54.8231 23.1587 54.8156C22.4357 54.6689 21.9418 53.9978 22.0161 53.2642C22.0904 52.53 22.7091 51.9721 23.4465 51.9735C23.5858 51.9763 23.7236 52.0006 23.8554 52.0441C24.3021 52.1782 24.7802 51.9707 24.9876 51.5529C25.1101 51.3127 25.3278 51.1342 25.5876 51.0613C25.8479 50.9889 26.1264 51.0282 26.3559 51.1702C26.618 51.3398 26.9461 51.3712 27.2353 51.2543C27.5246 51.1375 27.7386 50.8866 27.8087 50.5828C28.0638 49.5936 29.0526 48.9805 30.0522 49.1917C31.0517 49.4029 31.7078 50.3632 31.541 51.3712C31.4667 51.7651 31.6457 52.1632 31.9891 52.3693C32.333 52.5758 32.7686 52.5459 33.0812 52.295C33.5443 51.916 34.1943 51.8642 34.7116 52.1651C35.2293 52.466 35.5055 53.0562 35.405 53.6464C35.305 54.2366 34.849 54.7025 34.2611 54.8156Z" fill="black"/>
<path d="M14.2469 3.218C13.8744 1.69041 12.6057 0.54554 11.0478 0.331986C9.48982 0.118433 7.9599 0.879188 7.1898 2.2507C6.21129 2.08621 5.21688 2.43575 4.55613 3.17594C2.85845 3.04977 1.336 4.21754 1.01777 5.89045C0.699547 7.5629 1.68647 9.20778 3.31219 9.71432C3.46593 9.81246 3.6449 9.86479 3.82762 9.86479H15.3118C15.4815 9.86479 15.6474 9.81666 15.7904 9.72601C17.3857 9.2517 18.3913 7.67832 18.1511 6.03158C17.9105 4.38483 16.4978 3.16379 14.8333 3.16566C14.6366 3.16566 14.4403 3.18295 14.2469 3.218ZM16.2689 6.51523C16.2693 7.19748 15.789 7.78533 15.1207 7.92178C15.0843 7.92926 15.0488 7.93907 15.0132 7.95076H4.12715C4.09164 7.93907 4.05566 7.92926 4.01921 7.92178C3.2963 7.77505 2.80237 7.10449 2.87667 6.37083C2.9505 5.63718 3.56873 5.07876 4.30613 5.0797C4.44538 5.0825 4.58323 5.1068 4.71501 5.15026C5.16174 5.28437 5.63978 5.07689 5.84726 4.65913C5.96969 4.41894 6.18745 4.24044 6.44727 4.16754C6.70755 4.09511 6.98606 4.13436 7.2155 4.27642C7.47765 4.44605 7.80569 4.47736 8.09495 4.36053C8.3842 4.24371 8.59822 3.99277 8.66832 3.68903C8.92346 2.69977 9.91226 2.08668 10.9118 2.29789C11.9113 2.50911 12.5674 3.4694 12.4006 4.47736C12.3263 4.87128 12.5053 5.26942 12.8487 5.4755C13.1927 5.68204 13.6282 5.65213 13.9408 5.4012C14.3679 5.04886 14.9609 4.97643 15.4604 5.21521C15.96 5.454 16.2754 5.96148 16.2689 6.51523Z" fill="black"/>
</g>
<defs>
<clipPath id="clip0_53_13908">
<rect width="57" height="57" fill="white"/>
</clipPath>
</defs>
</svg>
