<svg width="60" height="60" viewBox="0 0 60 60" fill="none" xmlns="http://www.w3.org/2000/svg">
<path d="M42.7674 0C40.2248 0 38.0358 1.81195 37.5625 4.30839C37.4958 4.66089 37.6494 5.01878 37.9511 5.21296C39.8499 6.43511 41.4694 8.13174 42.6344 10.1197C42.7939 10.3917 43.0845 10.5549 43.3939 10.5549C43.435 10.5549 43.4764 10.5521 43.518 10.5462C46.1117 10.1778 48.0675 7.92256 48.0675 5.30026C48.0675 2.37761 45.6899 0 42.7674 0Z" fill="#8C6348"/>
<path d="M22.4375 4.30839C21.9642 1.81195 19.7753 0 17.2326 0C14.3101 0 11.9325 2.37761 11.9325 5.30015C11.9325 7.92245 13.8884 10.1777 16.4821 10.546C16.5237 10.5519 16.5649 10.5548 16.6062 10.5548C16.9155 10.5548 17.2062 10.3916 17.3656 10.1196C18.5306 8.13162 20.1501 6.43499 22.0489 5.21284C22.3507 5.01878 22.5043 4.66089 22.4375 4.30839Z" fill="#8C6348"/>
<path d="M20.3488 4.69732C20.0694 3.22369 18.7765 2.10889 17.2217 2.10889C15.4627 2.10889 14.0369 3.5347 14.0369 5.29369C14.0369 6.89915 15.2253 8.22641 16.77 8.44579C17.6598 6.92763 18.88 5.64279 20.3488 4.69732Z" fill="#5E4132"/>
<path d="M39.6514 4.69732C39.9307 3.22369 41.2237 2.10889 42.7785 2.10889C44.5375 2.10889 45.9633 3.5347 45.9633 5.29369C45.9633 6.89915 44.7749 8.22641 43.2301 8.44579C42.3403 6.92763 41.1201 5.64279 39.6514 4.69732Z" fill="#5E4132"/>
<path d="M23.7205 57.0087C21.1395 56.2873 18.973 55.1447 17.2813 53.6127C17.1607 53.4951 17.0056 53.4113 16.8303 53.378C16.4134 53.2993 16.0013 53.5277 15.8468 53.9215C14.4487 57.4845 12.9909 58.2323 12.014 58.2323C11.5336 58.2323 11.142 58.6171 11.1336 59.0973C11.1252 59.5776 11.5032 59.9759 11.983 59.9929C12.0189 59.994 12.2048 60 12.5269 60C13.9609 60 18.091 59.883 23.6637 58.7187C24.0611 58.6357 24.3502 58.2918 24.3638 57.886C24.3772 57.4804 24.1116 57.118 23.7205 57.0087Z" fill="#77533E"/>
<path d="M47.9859 58.2322C47.0091 58.2322 45.5513 57.4843 44.153 53.9214C43.9984 53.5274 43.586 53.2987 43.1696 53.3779C42.9942 53.4112 42.8393 53.495 42.7186 53.6126C41.0268 55.1446 38.8606 56.2872 36.2793 57.0086C35.8884 57.1179 35.6226 57.4803 35.6361 57.886C35.6496 58.2917 35.9388 58.6356 36.3362 58.7187C41.9095 59.8831 46.0394 60 47.473 60C47.795 60 47.981 59.9942 48.0168 59.9929C48.4968 59.976 48.8748 59.5775 48.8663 59.0973C48.858 58.6169 48.4662 58.2322 47.9859 58.2322Z" fill="#77533E"/>
<path d="M20.1087 27.3745C20.1073 27.3737 20.106 27.373 20.1047 27.3722C19.044 26.7513 18.1453 25.9979 17.4335 25.1333C17.1497 24.7884 16.6529 24.7107 16.2772 24.9523C15.8658 25.2168 6.19176 31.5074 5.23258 38.1303C4.93223 40.2047 5.49976 42.0915 6.91984 43.7383C7.06539 43.9085 7.2707 44.0171 7.49406 44.0413C7.52582 44.0447 7.55734 44.0463 7.58898 44.0463C7.7896 44.0463 7.98542 43.9777 8.14292 43.8504C9.03577 43.128 10.3381 42.7618 12.0143 42.7618C12.2099 42.7618 12.4126 42.7686 12.6516 42.7831C13.116 42.8121 13.5232 42.4726 13.5791 42.0099C14.1911 36.9576 16.5587 32.1108 19.9348 28.9712C20.1328 28.907 20.309 28.7727 20.4225 28.5791C20.6681 28.1598 20.5279 27.6207 20.1087 27.3745Z" fill="#8C6348"/>
<path d="M54.7676 38.1303C53.8084 31.5073 44.1343 25.2169 43.7229 24.9523C43.3475 24.7107 42.8505 24.7884 42.5667 25.1333C41.855 25.9979 40.9563 26.7513 39.8955 27.3722C39.8941 27.373 39.8929 27.3737 39.8915 27.3745C39.4724 27.6207 39.3321 28.1598 39.5778 28.5792C39.6915 28.7729 39.8676 28.9072 40.0655 28.9713C43.4416 32.111 45.8091 36.9576 46.4212 42.01C46.4772 42.4725 46.882 42.8103 47.3487 42.7832C47.5878 42.7687 47.7904 42.7619 47.9861 42.7619C49.6622 42.7619 50.9647 43.1281 51.8575 43.8505C52.0151 43.9779 52.2108 44.0464 52.4114 44.0464C52.4431 44.0464 52.4746 44.0447 52.5064 44.0414C52.7297 44.0172 52.9349 43.9086 53.0806 43.7384C54.5002 42.0915 55.0678 40.2047 54.7676 38.1303Z" fill="#8C6348"/>
<path d="M48.1693 41.7984C47.4828 36.1295 44.8682 30.8949 40.9958 27.4367C40.7094 27.1809 40.2902 27.1402 39.9597 27.3363C37.468 28.8155 34.1171 29.5657 29.9999 29.5657C25.8828 29.5657 22.5318 28.8157 20.0402 27.3363C19.7096 27.1402 19.2905 27.1808 19.004 27.4367C15.1317 30.8949 12.517 36.1295 11.8305 41.7984C11.8013 42.0393 11.8728 42.2816 12.0282 42.4681C12.1836 42.6545 12.409 42.7686 12.6513 42.7833C14.4132 42.8904 15.6967 43.4489 16.4663 44.4438C17.5489 45.8431 17.4453 47.8274 17.1679 49.2456C16.9347 50.4375 16.5162 52.2162 15.8467 53.922C15.7133 54.2621 15.8036 54.6492 16.074 54.8951C19.4049 57.9258 24.3507 59.5948 30 59.5948C35.6494 59.5948 40.5952 57.9258 43.9261 54.8951C44.1963 54.6492 44.2867 54.2622 44.1533 53.922C43.4838 52.2162 43.0654 50.4375 42.8322 49.2456C42.5547 47.8274 42.4512 45.8431 43.5338 44.4438C44.3034 43.4489 45.5869 42.8903 47.3488 42.7833C47.591 42.7686 47.8165 42.6545 47.9719 42.4681C48.1271 42.2815 48.1986 42.0393 48.1693 41.7984Z" fill="#B27C57"/>
<path d="M43.2027 50.9036C39.8988 53.5434 35.2541 54.9878 30.0002 54.9878C24.7464 54.9878 20.1015 53.5433 16.7978 50.9036C16.5622 51.8401 16.2505 52.8939 15.8469 53.922C15.7134 54.262 15.8038 54.6492 16.0741 54.8951C19.4051 57.9258 24.3509 59.5948 30.0002 59.5948C35.6496 59.5948 40.5954 57.9258 43.9263 54.8951C44.1965 54.6492 44.2869 54.2622 44.1535 53.922C43.7499 52.8939 43.4381 51.8402 43.2027 50.9036Z" fill="#8C6348"/>
<path d="M43.7228 24.9523C43.3474 24.7107 42.8504 24.7884 42.5665 25.1333C41.8549 25.9979 40.9561 26.7513 39.8954 27.3722C39.894 27.373 39.8928 27.3737 39.8914 27.3745C39.4723 27.6207 39.3319 28.1598 39.5777 28.5792C39.6913 28.7729 39.8675 28.9072 40.0654 28.9713C40.8043 29.6584 41.4949 30.4274 42.1293 31.2623C42.6088 31.0017 43.0676 30.722 43.5043 30.4222C44.8295 29.5123 45.9296 28.4407 46.8026 27.2125C45.1534 25.8811 43.8673 25.0451 43.7228 24.9523Z" fill="#77533E"/>
<path d="M20.1086 27.3745C20.1072 27.3737 20.1059 27.373 20.1046 27.3722C19.044 26.7513 18.1453 25.9979 17.4335 25.1333C17.1496 24.7884 16.6529 24.7107 16.2772 24.9523C16.1328 25.0452 14.8467 25.8811 13.1974 27.2125C14.0703 28.4407 15.1705 29.5123 16.4957 30.4222C16.9324 30.722 17.3912 31.0017 17.8707 31.2623C18.505 30.4274 19.1957 29.6585 19.9346 28.9713C20.1326 28.9071 20.3088 28.7728 20.4223 28.5792C20.6681 28.1598 20.5278 27.6207 20.1086 27.3745Z" fill="#77533E"/>
<path d="M41.8481 6.16409C38.7691 2.93593 34.5614 1.1582 30.0001 1.1582C25.4387 1.1582 21.2311 2.93605 18.1521 6.16409C15.1241 9.3387 13.4567 13.6126 13.4567 18.1986C13.4567 22.7002 15.1287 26.1307 18.4263 28.3951C21.2593 30.3403 25.1534 31.3265 30.0001 31.3265C34.8469 31.3265 38.741 30.3403 41.5739 28.3951C44.8715 26.1308 46.5436 22.7003 46.5436 18.1986C46.5437 13.6128 44.8761 9.33881 41.8481 6.16409Z" fill="#C6946A"/>
<path d="M40.996 27.4365C40.7096 27.1807 40.2904 27.14 39.9598 27.336C37.4682 28.8153 34.1172 29.5654 30.0001 29.5654C25.8829 29.5654 22.532 28.8154 20.0403 27.336C19.7098 27.14 19.2907 27.1805 19.0042 27.4365C18.0412 28.2964 17.1564 29.2664 16.3593 30.3254C16.405 30.3576 16.4495 30.3904 16.4958 30.4222C19.8012 32.6917 24.3447 33.8425 30 33.8425C35.6552 33.8425 40.1988 32.6917 43.5042 30.4222C43.5504 30.3903 43.595 30.3575 43.6407 30.3254C42.8439 29.2662 41.9588 28.2964 40.996 27.4365Z" fill="#8C6348"/>
<path d="M41.574 24.1884C38.741 26.1336 34.847 27.1199 30.0002 27.1199C25.1535 27.1199 21.2593 26.1336 18.4265 24.1884C15.6492 22.2816 14.0254 19.5473 13.5818 16.043C13.4992 16.7517 13.4568 17.4712 13.4568 18.1987C13.4568 22.7003 15.1288 26.1308 18.4265 28.3952C21.2595 30.3404 25.1535 31.3267 30.0002 31.3267C34.847 31.3267 38.7411 30.3404 41.574 28.3952C44.8717 26.1309 46.5437 22.7004 46.5437 18.1987C46.5437 17.4712 46.5014 16.7516 46.4186 16.043C45.975 19.5473 44.351 22.2817 41.574 24.1884Z" fill="#B27C57"/>
<path d="M29.9999 24.4989C29.5135 24.4989 29.1194 24.1046 29.1194 23.6183V19.5517C29.1194 19.0654 29.5135 18.6711 29.9999 18.6711C30.4864 18.6711 30.8805 19.0655 30.8805 19.5517V23.6183C30.8806 24.1046 30.4864 24.4989 29.9999 24.4989Z" fill="#494949"/>
<path d="M29.9999 14.6045C28.0866 14.6045 26.042 15.1487 26.042 16.6761C26.042 18.7473 27.8175 20.4323 29.9999 20.4323C32.1823 20.4323 33.9578 18.7473 33.9578 16.6761C33.9579 15.1487 31.9133 14.6045 29.9999 14.6045Z" fill="#494949"/>
<path d="M21.6502 16.4861C20.8885 16.4861 20.2687 15.8664 20.2687 15.1045C20.2687 14.3427 20.8884 13.7229 21.6502 13.7229C22.412 13.7229 23.0318 14.3426 23.0318 15.1045C23.0318 15.8664 22.412 16.4861 21.6502 16.4861Z" fill="#494949"/>
<path d="M38.3498 16.4861C37.5881 16.4861 36.9683 15.8664 36.9683 15.1045C36.9683 14.3427 37.5879 13.7229 38.3498 13.7229C39.1116 13.7229 39.7314 14.3426 39.7314 15.1045C39.7312 15.8664 39.1115 16.4861 38.3498 16.4861Z" fill="#494949"/>
<path d="M53.7307 43.2365C52.5093 41.753 50.5765 41.0007 47.9861 41.0007C45.3955 41.0007 43.4629 41.753 42.2412 43.2367C40.9834 44.7642 40.5903 46.959 41.1037 49.5836C41.716 52.7135 43.6123 59.9933 47.9858 59.9933C52.3594 59.9933 54.2557 52.7135 54.868 49.5836C55.3818 46.9589 54.9884 44.7641 53.7307 43.2365Z" fill="#C6946A"/>
<path d="M47.9859 44.9241C44.8964 44.9241 44.1055 47.0856 44.5503 49.5107C45.0063 51.9967 46.0884 55.4153 47.9859 55.4153C49.8833 55.4153 50.9653 51.9967 51.4214 49.5107C51.8662 47.0857 51.0753 44.9241 47.9859 44.9241Z" fill="#8C6348"/>
<path d="M17.7589 43.2367C16.5374 41.7531 14.6046 41.0007 12.014 41.0007C9.42347 41.0007 7.49094 41.753 6.26938 43.2365C5.01161 44.7641 4.61821 46.9589 5.13184 49.5836C5.74415 52.7135 7.64047 59.9933 12.014 59.9933C16.3876 59.9933 18.2839 52.7135 18.8962 49.5836C19.4098 46.959 19.0165 44.7642 17.7589 43.2367Z" fill="#C6946A"/>
<path d="M12.0141 44.9241C15.1036 44.9241 15.8945 47.0856 15.4497 49.5107C14.9936 51.9967 13.9116 55.4153 12.0141 55.4153C10.1166 55.4153 9.03473 51.9967 8.57852 49.5107C8.13367 47.0857 8.92457 44.9241 12.0141 44.9241Z" fill="#8C6348"/>
</svg>
