<svg width="60" height="60" viewBox="0 0 60 60" fill="none" xmlns="http://www.w3.org/2000/svg">
<g clip-path="url(#clip0_99_5785)">
<path d="M1.16437 39.4018L34.397 51.7887L56.2596 39.3961C57.0151 36.8249 57.4223 34.1046 57.4223 31.2888C57.4223 15.4321 44.5679 2.57764 28.7112 2.57764C12.8544 2.57764 0 15.4322 0 31.2889C0 34.1067 0.407813 36.829 1.16437 39.4018Z" fill="#FEF156"/>
<path d="M25.9226 19.6798C25.393 19.2593 24.8467 18.6926 24.3376 17.925C22.5078 15.1666 19.8285 12.0625 15.1821 12.0008C14.6128 11.9933 14.1303 12.4253 14.08 12.9924C14.0669 13.14 14.219 13.7987 14.2108 13.9723L18.365 17.2219L21.6181 23.5574C22.4208 23.8584 23.1208 24.0566 23.6838 24.187L26.4079 22.8906L25.9226 19.6798Z" fill="#8C3D2F"/>
<path d="M42.5226 56.4315C40.2313 57.6955 37.749 58.6558 35.1294 59.2579L35.1291 59.2575L23.918 46.9082L5.16978 40.6392C5.16967 40.6303 5.16896 40.6215 5.16896 40.6126C5.16099 37.6679 7.86111 35.6623 10.5134 36.1648C11.0248 36.2618 11.5021 35.8535 11.4726 35.3339C11.3314 32.8464 13.3019 30.5817 15.9665 30.5744C17.3838 30.5706 18.6501 31.2208 19.4797 32.2409C19.81 32.6472 20.4298 32.6571 20.7535 32.2455C22.5035 30.0208 25.9858 29.982 27.7755 32.1927C28.0509 32.533 28.544 32.5768 28.8782 32.3286L41.9364 37.1872C41.9367 37.1874 47.2492 50.2068 42.5226 56.4315Z" fill="#3ECD8D"/>
<path d="M52.4581 47.4293C49.9048 51.1786 46.4871 54.2915 42.4912 56.4819C42.4197 55.8171 42.4878 55.1287 42.726 54.4556C43.0372 53.5764 42.6849 52.6127 41.8946 52.1177C40.2468 51.0855 39.3641 49.1292 39.6556 47.2248C39.8143 46.1887 39.179 45.1951 38.1625 44.9391C35.9951 44.3935 34.4056 42.3553 34.4503 40.1C34.4698 39.1071 33.8071 38.223 32.8299 38.0465C32.1433 37.9224 31.4725 37.6486 30.8669 37.2164C29.1179 35.9684 28.5716 34.0652 28.9126 32.3422C28.966 32.3028 29.0162 32.2576 29.06 32.2032C30.8429 29.9901 34.3255 30.0159 36.0819 32.2368C36.4066 32.6476 37.0264 32.6359 37.3557 32.2288C38.1826 31.2064 39.447 30.5527 40.8643 30.5527C42.9494 30.5527 44.7032 31.9679 45.2194 33.8901C45.3419 34.3462 45.8448 34.5923 46.2851 34.4221C46.3577 34.3941 46.4305 34.3695 46.5035 34.3457L51.4482 39.961L52.4581 47.4293Z" fill="#95DB76"/>
<path d="M53.4157 39.216C52.9184 39.3504 52.417 38.9734 52.4009 38.4585C52.3083 35.498 49.2734 33.4394 46.5033 34.3457C44.8856 35.9194 44.5517 38.6313 46.2354 40.5601C47.1343 41.5897 48.3975 42.112 49.6647 42.1036C50.1742 42.1002 50.5571 42.5519 50.4779 43.0554C50.1906 44.8794 51.087 46.5081 52.4581 47.4293C54.1166 44.9938 55.4093 42.2898 56.2597 39.3961C55.3781 39.0404 54.3835 38.9544 53.4157 39.216Z" fill="#BAEE63"/>
<path d="M34.397 51.7886L29.0001 52.5062C29.0001 52.5062 28.0776 58.9381 28.425 59.9964C28.5204 59.9973 28.6156 60 28.7112 60C30.9038 60 33.0385 59.7532 35.0902 59.2876C34.7632 56.9419 34.5435 54.3389 34.397 51.7886Z" fill="#8C3D2F"/>
<path d="M17.8653 40.403C12.9694 40.0398 6.61974 37.8209 1.16443 39.4018C3.41302 47.0486 8.759 53.3678 15.7503 56.9112L19.1017 47.1093L17.8653 40.403Z" fill="#8C3D2F"/>
<path d="M37.4151 37.7637L30.8232 35.5664L26.6882 36.2992C25.6393 38.0483 23.4132 40.4536 19.1015 40.4536C18.7017 40.4536 18.2881 40.4345 17.8651 40.4031C15.043 42.8689 9.94132 48.9145 15.7501 56.9112C19.5639 58.8441 23.8668 59.9517 28.4248 59.9964C28.9137 58.24 29.9133 56.6638 31.3075 55.477C33.9029 53.2675 37.7907 48.1918 37.4151 37.7637Z" fill="#A15240"/>
<path d="M20.3862 53.8609C22.1083 53.8609 23.5044 52.9021 23.5044 51.7194C23.5044 50.5367 22.1083 49.5779 20.3862 49.5779C18.664 49.5779 17.2679 50.5367 17.2679 51.7194C17.2679 52.9021 18.664 53.8609 20.3862 53.8609Z" fill="#CE7867"/>
<path d="M28.9309 45.9594C29.1108 46.9111 28.1332 47.8949 26.7474 48.1569C25.3617 48.4188 24.0925 47.8597 23.9126 46.908C23.7327 45.9563 24.7103 44.9725 26.096 44.7105C27.4817 44.4486 28.751 45.0077 28.9309 45.9594Z" fill="#CE7867"/>
<path d="M23.8802 6.06507C23.5724 5.57054 23.7239 4.92015 24.2185 4.61241L27.4832 2.5812C27.978 2.27347 28.6282 2.42499 28.936 2.91952C29.2437 3.41405 29.0922 4.06445 28.5977 4.37218L25.3329 6.40339C24.8371 6.71159 24.1873 6.55878 23.8802 6.06507Z" fill="#45304C"/>
<path d="M15.2993 8.21944C13.4105 5.5021 13.3174 1.59108 13.3144 1.42585C13.3036 0.843425 13.7671 0.362604 14.3495 0.35194C14.9332 0.3428 15.4119 0.804049 15.4233 1.38577C15.424 1.41987 15.5122 4.83014 17.0312 7.01534C17.3637 7.4937 17.2456 8.15089 16.7672 8.48335C16.2879 8.81651 15.631 8.69663 15.2993 8.21944Z" fill="#543E5B"/>
<path d="M24.156 11.9374C23.5823 11.836 23.1996 11.2889 23.301 10.7153C23.4762 9.72338 23.7343 7.7756 23.4947 5.87424C23.1859 3.42268 21.1567 1.92643 21.1362 1.91166C20.6659 1.57088 20.5577 0.912754 20.8963 0.441074C21.235 -0.030723 21.8896 -0.141231 22.3625 0.195449C22.4767 0.276543 25.1606 2.22139 25.5876 5.61045C25.862 7.78721 25.5742 9.97299 25.3781 11.0822C25.2766 11.6572 24.7283 12.0387 24.156 11.9374Z" fill="#543E5B"/>
<path d="M39.891 6.40344L36.6263 4.37223C36.1318 4.0645 35.9803 3.41411 36.288 2.91958C36.5956 2.42504 37.2459 2.2734 37.7408 2.58126L41.0055 4.61247C41.5 4.9202 41.6515 5.57059 41.3438 6.06512C41.0361 6.55965 40.3858 6.71118 39.891 6.40344Z" fill="#6C5475"/>
<path d="M48.4567 8.48323C47.9784 8.15077 47.8602 7.49347 48.1927 7.01523C49.7202 4.81761 49.7999 1.42105 49.8006 1.38695C49.8113 0.804641 50.2966 0.338821 50.8744 0.351828C51.4568 0.362493 51.9203 0.843313 51.9095 1.42573C51.9066 1.59085 51.8136 5.50198 49.9246 8.21933C49.5927 8.69675 48.9355 8.81628 48.4567 8.48323Z" fill="#876D93"/>
<path d="M39.8458 11.0822C39.6497 9.973 39.3619 7.78722 39.6362 5.61046C40.0632 2.22152 42.7472 0.276555 42.8612 0.195461C43.3356 -0.14239 43.9943 -0.0311794 44.3321 0.44343C44.669 0.917102 44.5592 1.57359 44.0871 1.91202C44.0459 1.94226 42.0363 3.43546 41.7291 5.87425C41.4895 7.77562 41.7476 9.72339 41.9228 10.7153C42.0242 11.2889 41.6414 11.836 41.0678 11.9374C40.4874 12.0394 39.946 11.6496 39.8458 11.0822Z" fill="#876D93"/>
<path d="M26.9281 12.4144C24.1568 7.30233 19.0704 7.41624 12.4897 5.75159C7.62646 4.52147 6.87083 1.98554 6.80767 0.745693C6.78692 0.339286 6.46032 0.016552 6.0538 0.000614472C5.62606 -0.0161433 5.26396 0.311864 5.23829 0.739247C5.13095 2.53222 5.47689 6.94011 11.2218 8.1844C18.4901 9.75858 22.6781 10.6259 24.311 13.8563C25.9439 17.0866 28.0602 21.4499 28.0602 21.4499L31.1627 20.0857C31.1629 20.0856 29.6993 17.5265 26.9281 12.4144Z" fill="#543E5B"/>
<path d="M38.2958 12.4144C41.0671 7.30233 46.1535 7.41624 52.7342 5.75159C57.5974 4.52147 58.3531 1.98554 58.4162 0.745693C58.437 0.339286 58.7636 0.016552 59.1701 0.000614472C59.5978 -0.0161433 59.9599 0.311864 59.9856 0.739247C60.093 2.53222 59.747 6.94011 54.0021 8.1844C46.7338 9.75858 42.5458 10.6259 40.9129 13.8563C39.28 17.0866 37.1637 21.4499 37.1637 21.4499L34.0612 20.0857C34.0612 20.0857 35.5246 17.5265 38.2958 12.4144Z" fill="#6C5475"/>
<path d="M32.6129 17.2219C30.3739 17.2219 26.0826 17.9309 25.0378 21.2894C23.993 24.6479 23.2093 23.7896 22.5936 27.26C22.1618 29.6938 23.5063 32.0584 25.1272 34.515L34.7784 31.5821C35.4377 25.1371 32.6129 17.2219 32.6129 17.2219Z" fill="#A15240"/>
<path d="M46.4681 15.2346L43.1693 15.0737C42.2691 15.9717 41.5205 16.9689 40.8864 17.9249C40.3777 18.6919 39.8318 19.2583 39.3026 19.6787L38.2941 23.239L41.5419 24.1866C42.1047 24.0563 42.8039 23.8581 43.6058 23.5574L47.0203 16.9833L46.4681 15.2346Z" fill="#8C3D2F"/>
<path d="M46.585 16.9922C46.7336 16.9711 46.8784 16.97 47.0202 16.9833L51.0129 13.9723C51.0089 13.8884 51.0512 13.6016 51.0957 13.311C50.7367 12.8645 50.3659 12.4279 49.9813 12.0039C47.0258 12.0879 44.8368 13.4104 43.1692 15.0739C43.4605 16.0714 44.2811 17.3188 46.585 16.9922Z" fill="#B66651"/>
<path d="M26.4073 25.9036C26.2831 25.5876 25.9843 25.3834 25.6463 25.3834C25.3082 25.3834 25.0095 25.5876 24.8853 25.9036C24.6684 26.4546 24.0457 26.7258 23.4951 26.5089C22.944 26.2921 22.6731 25.6697 22.8897 25.1187C23.3389 23.9769 24.4209 23.239 25.6463 23.239C26.8719 23.239 27.9538 23.9768 28.4029 25.1187C28.6195 25.6697 28.3486 26.2921 27.7975 26.5089C27.2465 26.7256 26.6241 26.4546 26.4073 25.9036Z" fill="#45304C"/>
<path d="M42.6323 27.26C42.0166 23.7896 41.2329 24.6479 40.1881 21.2894C39.1433 17.9309 34.852 17.2219 32.613 17.2219C32.613 17.2219 29.3267 20.9009 32.6128 24.1871V30.2554L36.1483 34.13L40.0967 34.504C41.6558 32.16 43.072 29.7386 42.6323 27.26Z" fill="#B66651"/>
<path d="M40.3271 25.8761C40.1968 25.5756 39.9056 25.3832 39.5774 25.3832C39.2393 25.3832 38.9406 25.5873 38.8163 25.9034C38.5994 26.4544 37.9767 26.7256 37.4261 26.5087C36.875 26.2919 36.6041 25.6695 36.8208 25.1185C37.2699 23.9767 38.3518 23.2388 39.5774 23.2388C40.8029 23.2388 41.8848 23.9766 42.334 25.1185C42.5796 25.7435 42.198 26.4604 41.4917 26.5729C40.9925 26.6526 40.5285 26.34 40.3271 25.8761Z" fill="#45304C"/>
<path d="M32.6139 31.582L28.7139 39.1888C31.0119 40.8647 34.2015 40.8811 36.514 39.1897L32.6139 31.582Z" fill="#F4DABD"/>
<path d="M35.6875 30.2382C35.1372 26.6581 33.9672 24.187 32.6127 24.187C31.2583 24.187 30.0883 26.6581 29.5381 30.2382L32.6139 32.207L35.6875 30.2382Z" fill="#CE7867"/>
<path d="M32.6128 30.2554C28.8474 30.2554 25.7232 30.6414 25.1272 34.515C25.7454 35.4518 26.4035 36.4019 27.019 37.3744C27.4856 38.1119 28.0647 38.7155 28.714 39.1888L30.2979 38.5028C31.7032 37.8941 32.6128 36.5088 32.6128 34.9773L34.7784 33.1935L32.6128 30.2554Z" fill="#F7EBD2"/>
<path d="M38.2664 37.2792C38.8262 36.3675 39.4728 35.442 40.0967 34.504C39.4965 30.6407 36.3748 30.2554 32.613 30.2554V34.9772C32.613 36.5087 33.5226 37.894 34.928 38.5027L36.514 39.1896C37.1869 38.6974 37.7859 38.0617 38.2664 37.2792Z" fill="#FAFCE6"/>
<path d="M36.1484 31.4485C36.1484 33.142 34.5654 34.515 32.6128 34.515C30.6601 34.515 29.0773 33.1421 29.0773 31.4485C29.0773 29.7549 30.6602 29.6006 32.6128 29.6006C34.5654 29.6006 36.1484 29.755 36.1484 31.4485Z" fill="#543E5B"/>
<path d="M48.4013 16.9631L45.2008 16.9855C44.5876 18.0259 44.0111 18.7649 43.5276 19.2824C42.5475 20.3313 42.4027 21.9253 43.2314 23.0975C43.3452 23.2586 43.4697 23.4135 43.6058 23.5574C44.8115 23.1052 46.2477 22.422 47.8004 21.3868C48.4404 20.9602 48.9569 20.4661 49.374 19.9343L48.4013 16.9631Z" fill="#EEB88B"/>
<path d="M45.2008 16.9854C45.2008 16.9854 45.925 20.439 49.3739 19.9341C50.9074 17.9788 51.0861 15.5094 51.0128 13.9722C49.8103 13.8651 46.9014 13.8995 45.4966 16.4649C45.3972 16.6466 45.2985 16.8195 45.2008 16.9854Z" fill="#F7EBD2"/>
<path d="M19.7271 16.4651C20.4503 17.7858 21.1356 18.6824 21.6962 19.2825C22.6763 20.3314 22.8211 21.9254 21.9925 23.0976C21.8787 23.2586 21.7541 23.4136 21.618 23.5575C20.4124 23.1052 18.9762 22.422 17.4234 21.3869C14.4308 19.3918 14.1177 15.928 14.2107 13.9724C15.4134 13.8654 18.3223 13.8998 19.7271 16.4651Z" fill="#EEB88B"/>
</g>
<defs>
<clipPath id="clip0_99_5785">
<rect width="60" height="60" fill="white"/>
</clipPath>
</defs>
</svg>
