<svg width="80" height="80" viewBox="0 0 80 80" fill="none" xmlns="http://www.w3.org/2000/svg">
<g clip-path="url(#clip0_114_11316)">
<mask id="mask0_114_11316" style="mask-type:luminance" maskUnits="userSpaceOnUse" x="0" y="0" width="80" height="80">
<path d="M0 7.62939e-06H80V80H0V7.62939e-06Z" fill="white"/>
</mask>
<g mask="url(#mask0_114_11316)">
<path d="M78.8286 5.56308V49.574C78.8286 51.9631 76.8927 53.8992 74.5036 53.8992H5.49736C3.1083 53.8992 1.17236 51.9631 1.17236 49.574V5.56308C1.17236 3.17402 3.1083 1.23668 5.49736 1.23668H74.5036C76.8927 1.23668 78.8286 3.17402 78.8286 5.56308Z" fill="#555760"/>
<path d="M78.8287 5.56308V49.574C78.8287 51.9631 76.8928 53.8992 74.5037 53.8992H69.8193C72.2084 53.8992 74.1443 51.9631 74.1443 49.574V5.56308C74.1443 3.17402 72.2084 1.23668 69.8193 1.23668H74.5037C76.8928 1.23668 78.8287 3.17402 78.8287 5.56308Z" fill="#36383F"/>
<path d="M5.8562 49.2117H74.145V5.92496H5.8562V49.2117Z" fill="#52DEFF"/>
<path d="M69.2502 49.2117H74.1448V5.92496H69.2502V49.2117Z" fill="#55BAFF"/>
<path d="M66.247 76.2593C65.3251 77.2935 64.2095 78.0607 62.9173 78.4779C61.5048 78.9357 60.0173 78.9326 58.5361 78.5374C55.1626 77.6359 51.8189 74.6921 49.4533 70.4857C48.5876 70.967 47.5892 71.2388 46.5314 71.2388C44.8376 71.2388 43.3064 70.542 42.208 69.4187C41.9158 69.1185 41.572 68.881 41.1986 68.717C40.8236 68.5531 40.4189 68.4638 40.0001 68.4638C39.1642 68.4638 38.3767 68.8202 37.7923 69.4187C36.6955 70.542 35.1642 71.2388 33.4705 71.2388C32.4111 71.2388 31.4142 70.967 30.5486 70.4857C27.1439 76.5404 21.7095 79.9763 17.083 78.4779C15.7923 78.0607 14.6751 77.2935 13.7533 76.2593C11.7783 74.0421 10.6892 70.5843 10.6892 66.6374C10.6892 64.2749 11.0798 61.7359 11.9033 59.1826C14.3876 51.4842 19.9923 46.2031 25.172 46.2234H54.8595C55.1861 46.2234 55.5142 46.2435 55.8439 46.2859C60.7251 46.8999 65.7736 51.9843 68.097 59.1826C70.297 65.9999 69.4064 72.714 66.247 76.2593Z" fill="#EEF6FF"/>
<path d="M68.0969 59.1826C70.2969 65.9999 69.4062 72.714 66.2469 76.2593C65.325 77.2935 64.2094 78.0607 62.9172 78.4779C61.5047 78.9357 60.0172 78.9326 58.5359 78.5374C59.8234 78.1201 60.9359 77.3531 61.8563 76.3217C65.0156 72.7763 65.9062 66.0623 63.7063 59.2467C61.2266 51.5609 55.6406 46.2859 50.4688 46.2859H55.8438C60.725 46.8999 65.7734 51.9843 68.0969 59.1826Z" fill="#DAE6EF"/>
<path d="M35.0999 65.7796C34.1828 66.764 32.7328 66.956 31.6124 66.3202C31.4203 66.2124 31.239 66.0796 31.0703 65.9233C29.9171 64.8499 29.8531 63.0437 30.9249 61.889C31.1312 61.6671 31.3624 61.4858 31.6124 61.3452C32.6656 60.7515 34.0234 60.8748 34.9546 61.7437C36.1078 62.8171 36.1734 64.6248 35.0999 65.7796Z" fill="#555760"/>
<path d="M35.1 65.7796C34.1829 66.764 32.7329 66.956 31.6125 66.3202C31.8625 66.1812 32.0938 65.9999 32.2985 65.7796C33.3719 64.6248 33.3063 62.8171 32.1547 61.7437C31.986 61.5874 31.8047 61.4546 31.6125 61.3452C32.6657 60.7515 34.0235 60.8748 34.9547 61.7437C36.1079 62.8171 36.1735 64.6248 35.1 65.7796Z" fill="#36383F"/>
<path d="M49.0438 65.7796C48.1266 66.764 46.6766 66.956 45.5563 66.3202C45.3641 66.2124 45.1829 66.0796 45.0141 65.9233C43.861 64.8499 43.7969 63.0437 44.8688 61.889C45.075 61.6671 45.3063 61.4858 45.5563 61.3452C46.6094 60.7515 47.9672 60.8748 48.8985 61.7437C50.0516 62.8171 50.1172 64.6248 49.0438 65.7796Z" fill="#555760"/>
<path d="M49.0437 65.7796C48.1265 66.764 46.6765 66.956 45.5562 66.3202C45.8062 66.1812 46.0374 65.9999 46.2421 65.7796C47.3155 64.6248 47.2499 62.8171 46.0983 61.7437C45.9296 61.5874 45.7483 61.4546 45.5562 61.3452C46.6093 60.7515 47.9671 60.8748 48.8983 61.7437C50.0515 62.8171 50.1171 64.6248 49.0437 65.7796Z" fill="#36383F"/>
<path d="M49.8834 46.2236L46.7584 55.0764H33.2112L30.0862 46.2236H49.8834Z" fill="#A8B3BA"/>
<path d="M45.8333 46.2236L42.7083 55.0764H46.7583L49.8833 46.2236H45.8333Z" fill="#879299"/>
<path d="M32.4985 32.5313C30.5079 35.2188 27.3251 36.9672 23.7329 36.9906C23.7062 36.9922 23.6813 36.9922 23.6563 36.9922C17.5798 36.9922 12.6548 32.0592 12.6548 25.975C12.6548 19.8891 17.5798 14.9578 23.6563 14.9578C23.6782 14.9578 23.7017 14.9578 23.7235 14.9594C27.1517 14.9781 30.2079 16.5672 32.211 19.0469L25.622 25.6453L32.4985 32.5313Z" fill="#FFF148"/>
<path d="M32.4984 32.5311C30.5078 35.2186 27.325 36.967 23.7328 36.9905C25.3531 36.8999 28.0703 33.9827 28.0703 32.5186L23.4109 27.853C22.1921 26.6327 22.1921 24.6561 23.4109 23.4374L27.664 19.1764C27.664 18.0905 25.1687 15.0544 23.7234 14.9592C27.1515 14.978 30.2078 16.567 32.2109 19.0467L25.6218 25.6452L32.4984 32.5311Z" fill="#FFCF4A"/>
<path d="M62.975 33.1155C62.975 35.2217 61.2672 36.9922 59.0969 36.9922C58.761 36.9922 58.4344 36.95 58.125 36.8687C56.2641 36.3906 54.9719 34.5655 55.2563 32.5608L56.1907 25.975H62.0032L62.936 32.5608C62.9625 32.7483 62.975 32.9327 62.975 33.1155Z" fill="#EEF6FF"/>
<path d="M62.975 33.1155C62.975 35.2217 61.2672 36.9922 59.0969 36.9922C58.7609 36.9922 58.4344 36.95 58.125 36.8687C59.1422 36.4312 59.8766 34.8937 59.8766 33.1172C59.8766 32.9344 59.8688 32.7483 59.8531 32.5608L59.2891 25.975H62.0031L62.9359 32.5608C62.9625 32.7483 62.975 32.9327 62.975 33.1155Z" fill="#DAE6EF"/>
<path d="M66.6907 25.9749H51.5032L52.2172 20.9358C52.6579 17.8295 55.1032 15.4467 58.1313 15.0249C58.4469 14.9811 58.7704 14.9577 59.0969 14.9577C62.5563 14.9577 65.4891 17.5061 65.975 20.9358L66.6907 25.9749Z" fill="#FF455C"/>
<path d="M66.6907 25.9749H62.222L61.7798 20.9358C61.5079 17.8295 59.9985 15.4467 58.1313 15.0249C58.447 14.9811 58.7704 14.9577 59.097 14.9577C62.5563 14.9577 65.4892 17.5061 65.9751 20.9358L66.6907 25.9749Z" fill="#E51C5F"/>
<path d="M14.297 53.906H5.49799C3.10893 53.906 1.17236 51.9666 1.17236 49.574V5.50383C1.17236 3.11133 3.10893 1.17179 5.49799 1.17179H74.4714C76.8605 1.17179 78.797 3.11133 78.797 5.50383V15.1773" stroke="black" stroke-miterlimit="10" stroke-linecap="round" stroke-linejoin="round"/>
<path d="M78.8285 20.5933V49.5741C78.8285 51.9666 76.8918 53.906 74.5029 53.906H65.7039" stroke="black" stroke-miterlimit="10" stroke-linecap="round" stroke-linejoin="round"/>
<path d="M21.0142 5.86636H74.1448V49.2117H61.8234" stroke="black" stroke-miterlimit="10" stroke-linecap="round" stroke-linejoin="round"/>
<path d="M18.1776 49.2117H5.8562V5.86636H15.4993" stroke="black" stroke-miterlimit="10" stroke-linecap="round" stroke-linejoin="round"/>
<path d="M37.1027 46.2235H25.1716C19.9918 46.2032 14.3877 51.4843 11.9034 59.1833C9.70429 65.9997 10.5946 72.7132 13.7535 76.2591C14.6757 77.2943 15.7919 78.061 17.0832 78.4786C21.7102 79.9761 27.1434 76.5402 30.5484 70.4865C31.4141 70.9663 32.4116 71.239 33.4699 71.239C35.1638 71.239 36.6952 70.5419 37.7926 69.4179C38.3769 68.8196 39.1648 68.4643 40.0005 68.4643C40.8363 68.4643 41.6241 68.8196 42.2084 69.4179C43.3057 70.5419 44.8371 71.239 46.5312 71.239C47.5894 71.239 48.5869 70.9663 49.4526 70.4865C52.8576 76.5402 58.2908 79.9761 62.9177 78.4786C64.209 78.061 65.3252 77.2943 66.2474 76.2591C69.4063 72.7132 70.2966 65.9997 68.0976 59.1833C65.6133 51.4843 60.0093 46.2032 54.8294 46.2235H42.5859" stroke="black" stroke-miterlimit="10" stroke-linecap="round" stroke-linejoin="round"/>
<path d="M34.9554 61.7435C33.8026 60.6691 31.9982 60.7341 30.9254 61.8885C29.8526 63.0427 29.9174 64.8496 31.0703 65.9238C32.2231 66.9981 34.0274 66.9333 35.1003 65.7788C36.1731 64.6244 36.1082 62.8177 34.9554 61.7435Z" stroke="black" stroke-miterlimit="10" stroke-linejoin="round"/>
<path d="M48.8993 61.7435C47.7465 60.6691 45.9421 60.7341 44.8693 61.8885C43.7965 63.0427 43.8613 64.8496 45.0141 65.9238C46.1669 66.9981 47.9713 66.9333 49.0441 65.7788C50.1169 64.6244 50.0521 62.8177 48.8993 61.7435Z" stroke="black" stroke-miterlimit="10" stroke-linejoin="round"/>
<path d="M23.7747 53.1247V60.1572" stroke="black" stroke-miterlimit="10" stroke-linecap="round" stroke-linejoin="round"/>
<path d="M27.2862 56.6409H20.2632" stroke="black" stroke-miterlimit="10" stroke-linecap="round" stroke-linejoin="round"/>
<path d="M49.8834 46.2236L46.7584 55.0764H33.2112L30.0862 46.2236" stroke="black" stroke-miterlimit="10" stroke-linejoin="round"/>
<path d="M25.622 25.6449L32.2115 19.0465C30.1945 16.5519 27.1115 14.9572 23.6565 14.9572C17.5801 14.9572 12.6543 19.8897 12.6543 25.9743C12.6543 32.059 17.5801 36.9915 23.6565 36.9915C27.2799 36.9915 30.4943 35.2375 32.499 32.531L25.622 25.6449Z" stroke="black" stroke-miterlimit="10" stroke-linejoin="round"/>
<path d="M62.0025 25.9743H56.1901L55.2561 32.5611C54.9243 34.9 56.7371 36.9915 59.0964 36.9915C61.4556 36.9915 63.2684 34.9 62.9367 32.5611L62.0025 25.9743Z" stroke="black" stroke-miterlimit="10" stroke-linecap="round" stroke-linejoin="round"/>
<path d="M59.0964 14.9572C55.6364 14.9572 52.7036 17.5062 52.2172 20.9366L51.5027 25.9744H66.69L65.9757 20.9366C65.4891 17.5062 62.5564 14.9572 59.0964 14.9572Z" stroke="black" stroke-miterlimit="10" stroke-linecap="round" stroke-linejoin="round"/>
</g>
</g>
<defs>
<clipPath id="clip0_114_11316">
<rect width="80" height="80" fill="white"/>
</clipPath>
</defs>
</svg>
