<svg width="60" height="60" viewBox="0 0 60 60" fill="none" xmlns="http://www.w3.org/2000/svg">
<path d="M39.5625 28.6407C39.6094 28.8751 39.75 29.0626 39.8906 29.297C40.7343 30.2814 42.4687 30.3751 43.8281 29.5782C44.2031 29.3439 52.5 24.1876 50.625 14.1564C50.3906 12.9376 48.9375 12.2814 47.3906 12.6095C45.8437 12.9845 44.7656 14.2501 45 15.4689C46.3125 22.5001 41.0625 25.9689 40.8281 26.1095C39.75 26.7189 39.2812 27.7501 39.5625 28.6407Z" fill="#FF0013"/>
<path d="M40.8281 26.0626C41.0625 25.922 46.3125 22.5001 45 15.422C44.7656 14.2032 45.8437 12.9376 47.3906 12.5626C48.5625 12.2814 49.6875 12.6095 50.25 13.3126C50.0156 13.3126 49.8281 13.3595 49.5937 13.4064C48.0469 13.7814 46.9687 15.047 47.2031 16.2657C48.5156 23.297 43.2656 26.7657 43.0312 26.9064C41.9531 27.5626 41.4843 28.5939 41.7656 29.4845C41.8125 29.672 41.9531 29.9064 42.0937 30.0939C41.2031 30.1407 40.4062 29.8595 39.8906 29.297C39.7031 29.1095 39.6094 28.8751 39.5625 28.6407C39.2812 27.7501 39.75 26.7189 40.8281 26.0626Z" fill="#FF4D4D"/>
<path d="M51.3282 13.9688C51.1875 13.3125 50.8125 12.7032 50.2032 12.3282C49.4063 11.8125 48.3282 11.625 47.25 11.9063C45.2813 12.375 44.0157 13.9688 44.2969 15.5625C44.7657 18 44.3907 19.9688 43.6875 21.4688L43.3594 22.125C42.1875 24.2813 40.5469 25.3594 40.4063 25.4532C39.0938 26.25 38.4844 27.6094 38.8125 28.8282C38.9063 29.1563 39.0938 29.4375 39.2813 29.7188C40.0313 30.5625 41.25 30.9375 42.5157 30.7032C43.0782 30.6094 43.5938 30.4219 44.1094 30.0938C44.5782 29.9063 53.2969 24.4688 51.3282 13.9688ZM43.4532 28.9219C42.4219 29.5782 41.0157 29.4844 40.4063 28.7813C40.3125 28.6407 40.2188 28.5469 40.1719 28.4063C39.9844 27.7969 40.3594 27.0938 41.1563 26.625C41.2969 26.5313 43.2657 25.2188 44.625 22.6875C44.9532 22.6875 45.4219 22.7344 45.9844 22.9219C46.1719 22.9688 46.3594 23.0625 46.5469 23.2032C47.0157 23.4375 47.4844 23.8125 47.9063 24.375C46.0782 27.3282 43.6407 28.8282 43.4532 28.9219ZM48.7032 23.1563C47.4844 21.8907 46.2188 21.4688 45.2344 21.375C45.8438 19.7344 46.125 17.7188 45.6563 15.2813C45.5157 14.4375 46.3594 13.5 47.5313 13.2188C47.5782 13.2188 47.6719 13.1719 47.7188 13.1719C48.3282 13.0782 48.9375 13.1719 49.3594 13.4532C49.5469 13.5938 49.8282 13.8282 49.875 14.2032C50.625 17.8594 49.9219 20.8594 48.7032 23.1563Z" fill="black"/>
<path d="M42.7969 3.60939C42.375 3.70314 42.0937 4.12501 42.2343 4.54689L44.2968 10.3125C44.4843 10.9219 43.8281 11.4844 43.2656 11.2031L38.25 8.67189C37.8281 8.48439 37.3125 8.76564 37.2187 9.23439C36.9843 10.2188 36.9375 11.2969 37.125 12.375C37.8281 16.5938 43.8281 21 47.3906 18.8906C50.7187 16.9219 52.6875 13.125 50.8593 9.28126C49.3125 6.09376 46.6406 2.95314 42.7969 3.60939Z" fill="#FF4D4D"/>
<path d="M40.5 11.2969L45.5156 13.8281C46.0781 14.0625 46.7344 13.5469 46.5469 12.9375L44.4844 7.17188C44.3906 6.75001 44.625 6.32813 45.0469 6.23438C48.3281 6.00001 49.9219 9.04688 51.4219 12.2344C51.4687 14.6719 50.1094 16.8281 48.0937 18.3281C47.0156 18.9844 45.8906 19.3594 44.8125 19.4531C43.4062 19.3594 43.3594 19.3125 42.0469 18.3281C40.4062 17.625 39 13.875 39.4219 11.8594C39.5625 11.3438 40.0312 11.1094 40.5 11.2969Z" fill="#FF0013"/>
<path d="M42.1875 19.3593C39.2343 17.9999 36.8437 15.1406 36.4218 12.4687C36.2343 11.3437 36.2812 10.1718 36.5156 9.0468C36.6093 8.62493 36.8906 8.24993 37.3125 8.06243C37.6875 7.87493 38.1562 7.82805 38.5781 8.06243L43.5468 10.5468H43.5937V10.4999L41.5312 4.78118V4.7343C41.4375 4.31243 41.4843 3.89055 41.7187 3.56243C41.9531 3.2343 42.2812 2.99993 42.6562 2.90618C46.125 2.34368 49.3593 4.5468 51.4687 8.99993C53.5781 13.4531 51.1406 17.4843 47.7187 19.4999C47.2031 19.7812 46.6875 19.9687 46.0781 20.0624C44.9531 20.2499 43.5937 20.0156 42.1875 19.3593ZM42.8906 4.31243L44.9531 10.0312V10.0781C45.0937 10.6406 44.9531 11.2031 44.4844 11.5781C44.0625 11.9531 43.4531 12.0468 42.8906 11.8124L37.875 9.32805C37.875 9.32805 37.8281 9.32805 37.8281 9.37493C37.6406 10.3124 37.5937 11.2968 37.7343 12.2343C38.1093 14.4374 40.1718 16.9218 42.7031 18.0937C43.6406 18.5156 45.4687 19.1249 46.9687 18.2343C49.8281 16.5468 51.8906 13.1718 50.1562 9.56243C49.1718 7.31243 46.7812 3.65618 42.8906 4.31243Z" fill="black"/>
<path d="M20.4375 28.6407C20.3906 28.8751 20.25 29.0626 20.1093 29.297C19.2656 30.2814 17.5312 30.3751 16.1718 29.5782C15.7968 29.297 7.45308 24.1407 9.37495 14.1095C9.60933 12.8907 11.0625 12.2345 12.6093 12.5626C14.1562 12.9376 15.2343 14.2032 15 15.422C13.6875 22.4532 18.9375 25.922 19.1718 26.0626C20.25 26.7189 20.7187 27.7501 20.4375 28.6407Z" fill="#FF0013"/>
<path d="M19.1719 26.0626C18.9375 25.922 13.6875 22.5001 15 15.422C15.2344 14.2032 14.1562 12.9376 12.6094 12.5626C11.4375 12.2814 10.3125 12.6095 9.75 13.3126C9.98437 13.3126 10.1719 13.3595 10.4063 13.4064C11.9531 13.7814 13.0312 15.047 12.7969 16.2657C11.4844 23.297 16.7344 26.7657 16.9688 26.9064C18.0469 27.5626 18.5156 28.5939 18.2344 29.4845C18.1875 29.672 18.0469 29.9064 17.9062 30.0939C18.7969 30.1407 19.5938 29.8595 20.1094 29.297C20.2969 29.1095 20.3906 28.8751 20.4375 28.6407C20.7187 27.7501 20.25 26.7189 19.1719 26.0626Z" fill="#FF4D4D"/>
<path d="M19.5469 25.4531C19.4063 25.3594 17.7656 24.2813 16.5938 22.125L16.2656 21.4688C15.6094 19.9688 15.2344 18 15.6563 15.5625C15.9375 13.9688 14.6719 12.375 12.7031 11.9063C11.625 11.6719 10.5469 11.8125 9.75001 12.3281C9.14063 12.7031 8.71876 13.3125 8.62501 13.9687C6.65626 24.4688 15.375 29.9063 15.75 30.1406C16.2656 30.4688 16.7813 30.6562 17.3438 30.75C18.6094 30.9375 19.8281 30.6094 20.5781 29.7656C20.8125 29.4844 20.9531 29.2031 21.0469 28.875C21.5156 27.6094 20.8594 26.25 19.5469 25.4531ZM10.0313 14.2031C10.0781 13.8281 10.3594 13.5938 10.5469 13.4531C10.9688 13.1719 11.5781 13.0781 12.1875 13.1719C12.2344 13.1719 12.3281 13.2188 12.375 13.2188C13.5469 13.5 14.3906 14.4375 14.25 15.2812C13.7813 17.7187 14.0625 19.7344 14.6719 21.375C13.7344 21.4687 12.4219 21.8906 11.2031 23.1563C10.0781 20.8594 9.37501 17.8594 10.0313 14.2031ZM19.7813 28.4062C19.7344 28.5469 19.6875 28.6875 19.5469 28.7813C18.9375 29.4844 17.5781 29.5313 16.5 28.9219C16.3125 28.8281 13.875 27.2812 12 24.4219C12.4688 23.8594 12.9375 23.5312 13.3594 23.25C13.5469 23.1562 13.7344 23.0625 13.9219 22.9688C14.4844 22.7812 14.9531 22.7344 15.2813 22.7344C16.6406 25.2656 18.6094 26.5781 18.75 26.6719C19.5469 27.0938 19.9688 27.8438 19.7813 28.4062Z" fill="black"/>
<path d="M17.2031 3.60939C17.625 3.70314 17.9063 4.12501 17.7656 4.54689L15.7031 10.3125C15.5156 10.9219 16.1719 11.4844 16.7344 11.2031L21.75 8.67189C22.1719 8.48439 22.6875 8.76564 22.7813 9.23439C23.0156 10.2188 23.0625 11.2969 22.875 12.375C22.1719 16.5938 16.1719 21 12.6094 18.8906C9.28125 16.875 7.3125 13.125 9.14063 9.28126C10.6875 6.09376 13.3594 2.95314 17.2031 3.60939Z" fill="#FF4D4D"/>
<path d="M19.4063 11.2969L14.3907 13.8281C13.8282 14.0625 13.172 13.5469 13.3595 12.9375L15.422 7.17188C15.5157 6.75001 15.2813 6.32813 14.8595 6.23438C11.5782 6.00001 9.98445 9.04688 8.48445 12.2344C8.43758 14.6719 9.79695 16.8281 11.8126 18.3281C12.8907 18.9844 14.0157 19.3594 15.0938 19.4531C16.5001 19.3594 16.547 19.3125 17.8595 18.3281C19.5001 17.625 20.9063 13.875 20.4845 11.8594C20.3438 11.3438 19.8282 11.1094 19.4063 11.2969Z" fill="#FF0013"/>
<path d="M13.875 20.0624C13.3125 19.9687 12.75 19.7812 12.2344 19.4999C8.8594 17.4843 6.37503 13.4531 8.4844 8.99993C10.6407 4.5468 13.8282 2.34368 17.2969 2.90618C17.6719 2.95305 18.0469 3.18743 18.2344 3.56243C18.4688 3.89055 18.5157 4.3593 18.4219 4.7343V4.78118L16.3594 10.4999V10.5468H16.4063L21.375 8.06243C21.7969 7.87493 22.2657 7.87493 22.6407 8.06243C23.0157 8.24993 23.2969 8.62493 23.4375 9.0468C23.6719 10.1718 23.7188 11.2968 23.5313 12.4687C23.1094 15.1406 20.7188 17.9999 17.7657 19.3593C16.4063 20.0156 15.0469 20.2499 13.875 20.0624ZM17.1094 4.31243C13.2657 3.65618 10.875 7.3593 9.7969 9.6093C8.06253 13.2656 10.125 16.5937 12.9844 18.2812C14.4844 19.1718 16.2657 18.5624 17.25 18.1406C19.7813 16.9687 21.8438 14.5312 22.2188 12.2812C22.3594 11.2968 22.3594 10.3593 22.125 9.4218C22.125 9.37493 22.0782 9.37493 22.0782 9.37493L17.0625 11.8593C16.5 12.0937 15.9375 11.9999 15.4688 11.6249C15.0469 11.2499 14.8594 10.6874 15 10.1249V10.0781L17.1094 4.31243Z" fill="black"/>
<path d="M4.7344 39.2813C4.5469 39.2345 4.3594 39.1876 4.1719 39.0938C3.2344 38.6251 2.8594 37.5001 3.32815 36.6095C3.46877 36.3751 6.32815 30.6095 14.8594 31.0313C15.8906 31.0782 16.6875 31.9688 16.6406 33.0001C16.5938 34.0313 15.7031 34.8282 14.6719 34.7813C8.6719 34.5001 6.75002 38.1563 6.65627 38.297C6.28127 39.0001 5.4844 39.3751 4.7344 39.2813Z" fill="#FF0013"/>
<path d="M15.9375 31.4534V31.6409C15.8906 32.6721 15 33.469 13.9687 33.4221C7.96875 33.1409 6.04688 36.7971 5.95312 36.9377C5.57812 37.6877 4.82813 38.0627 4.03125 37.969C3.84375 37.9221 3.65625 37.8752 3.46875 37.7815C3.32813 37.7346 3.23438 37.6409 3.09375 37.5471C3.14062 38.2034 3.51563 38.8127 4.125 39.1409C4.3125 39.2346 4.5 39.2815 4.6875 39.3284C5.4375 39.4221 6.23438 39.0471 6.60938 38.2971C6.70313 38.1565 8.67188 34.5002 14.625 34.7815C15.6562 34.8284 16.5 34.0315 16.5938 33.0002C16.6406 32.3909 16.3594 31.8284 15.9375 31.4534Z" fill="#C80004"/>
<path d="M4.96875 39.9845C4.875 39.9845 4.73437 39.9845 4.64062 39.9845C4.35937 39.9376 4.07812 39.8439 3.84375 39.7501C3.23437 39.4689 2.76563 38.9064 2.53125 38.2501C2.29688 37.5939 2.34375 36.8908 2.67187 36.2814C2.8125 36.0001 5.90625 29.8595 14.8594 30.3283C15.5625 30.3751 16.1719 30.6564 16.6406 31.172C17.1094 31.6876 17.3438 32.3439 17.2969 33.0001C17.25 33.7033 16.9687 34.3126 16.4531 34.7814C15.9375 35.2501 15.2813 35.4845 14.625 35.4376C9.09375 35.1564 7.3125 38.4376 7.26562 38.5783C6.84375 39.4689 5.95312 39.9845 4.96875 39.9845ZM4.82812 38.5783C5.29688 38.6251 5.8125 38.3908 6 37.9689C6.09375 37.7814 8.25 33.7501 14.6719 34.0783C15.3281 34.1251 15.8438 33.6095 15.8906 33.0001C15.8906 32.672 15.7969 32.3908 15.6094 32.1564C15.4219 31.922 15.1406 31.7814 14.8125 31.7814C6.75 31.4064 4.03125 36.7501 3.9375 36.9845C3.79687 37.2189 3.75 37.5001 3.89062 37.8283C3.98438 38.1095 4.21875 38.3439 4.45312 38.4845C4.54688 38.5314 4.6875 38.5783 4.82812 38.5783Z" fill="black"/>
<path d="M7.59376 49.547C7.40626 49.5939 7.21876 49.6408 6.98439 49.5939C5.95314 49.547 5.15626 48.6564 5.20314 47.6252C5.20314 47.3439 5.57814 40.922 13.5938 37.922C14.5781 37.547 15.6094 38.0627 15.9844 39.0002C16.3594 39.9845 15.8438 41.0158 14.9063 41.3908C9.32814 43.5002 8.95314 47.6252 8.95314 47.8127C8.90626 48.6564 8.34376 49.3127 7.59376 49.547Z" fill="#FF0013"/>
<path d="M15.9844 39.0471C15.75 38.4377 15.2812 38.0159 14.6719 37.8752C14.7656 37.969 14.8125 38.1096 14.8594 38.2502C15.2344 39.2346 14.7187 40.2659 13.7812 40.6409C8.20312 42.7502 7.82813 46.8752 7.82813 47.0627C7.78125 47.8596 7.21875 48.5627 6.46875 48.7502C6.28125 48.7971 6.09375 48.844 5.85937 48.7971C5.71875 48.7971 5.625 48.7502 5.53125 48.7502C5.85938 49.219 6.375 49.5471 6.98437 49.594C7.17187 49.594 7.40625 49.594 7.59375 49.5471C8.34375 49.3127 8.90625 48.6565 8.95312 47.8596C8.95312 47.6721 9.32813 43.5471 14.9062 41.4377C15.8906 41.0627 16.3594 39.9846 15.9844 39.0471Z" fill="#C80004"/>
<path d="M7.07815 50.297C7.03128 50.297 6.9844 50.297 6.9844 50.297C6.28128 50.2502 5.6719 49.9689 5.20315 49.4533C4.7344 48.9377 4.50003 48.2814 4.5469 47.6252C4.5469 47.3439 4.96878 40.4533 13.3594 37.3127C14.0157 37.0783 14.6719 37.0783 15.3282 37.3595C15.9375 37.6408 16.4063 38.1564 16.6875 38.8127C17.2032 40.1252 16.5 41.6252 15.1875 42.0939C9.9844 44.0627 9.70315 47.7658 9.65628 47.9064C9.6094 48.9845 8.8594 49.922 7.82815 50.2033C7.5469 50.297 7.31253 50.297 7.07815 50.297ZM14.25 38.5314C14.1094 38.5314 13.9688 38.5783 13.8282 38.6252C6.28128 41.4845 5.90628 47.4377 5.90628 47.7189C5.90628 48.047 6.00003 48.3283 6.18753 48.5627C6.37503 48.797 6.70315 48.9377 6.9844 48.9377C7.12503 48.9377 7.21878 48.9377 7.3594 48.8908C7.82815 48.7502 8.15628 48.3283 8.20315 47.8595C8.20315 47.6252 8.62503 43.0783 14.625 40.8283C14.9063 40.7345 15.1407 40.5002 15.2813 40.2189C15.4219 39.9377 15.4219 39.6095 15.3282 39.3283C15.2344 39.047 15 38.8127 14.7188 38.672C14.5782 38.5783 14.4375 38.5314 14.25 38.5314Z" fill="black"/>
<path d="M14.4374 55.6876C14.2499 55.7814 14.0624 55.8751 13.8749 55.922C12.8905 56.1564 11.8593 55.5001 11.6718 54.4689C11.6249 54.1876 10.3124 47.9064 17.2499 42.9376C18.0937 42.3282 19.2655 42.5157 19.828 43.3595C20.4374 44.2032 20.2499 45.3751 19.4062 45.9376C14.5312 49.4064 15.2343 53.4845 15.2812 53.672C15.4687 54.5157 15.0937 55.3126 14.4374 55.6876Z" fill="#FF0013"/>
<path d="M19.8281 43.4062C19.5 42.9375 19.0312 42.7031 18.5156 42.6562L18.6094 42.75C19.2187 43.5937 19.0312 44.7656 18.1875 45.3281C13.3125 48.7969 14.0156 52.875 14.0625 53.0625C14.25 53.8594 13.875 54.6563 13.2187 55.0313C13.0312 55.125 12.8437 55.2188 12.6562 55.2656C12.4687 55.3125 12.2344 55.3125 12.0469 55.2656C12.4687 55.7813 13.1719 56.0625 13.875 55.9219C14.0625 55.875 14.25 55.7813 14.4375 55.6875C15.0937 55.3125 15.4687 54.5156 15.2812 53.7187C15.2344 53.5312 14.5313 49.4531 19.4062 45.9844C20.25 45.4219 20.4375 44.25 19.8281 43.4062Z" fill="#C80004"/>
<path d="M13.5 56.6719C13.0312 56.6719 12.5156 56.5313 12.0937 56.2501C11.5312 55.8751 11.1093 55.3126 10.9687 54.6563C10.9218 54.3751 9.51559 47.6251 16.8281 42.4219C17.3906 42.0469 18.0468 41.8594 18.75 42.0001C19.4062 42.0938 20.0156 42.4688 20.4375 43.0313C20.8125 43.5938 21 44.2501 20.8593 44.9532C20.7656 45.6094 20.3906 46.2188 19.8281 46.5938C15.3281 49.8282 15.9843 53.4844 15.9843 53.6251C16.2187 54.7032 15.75 55.7813 14.8125 56.3438C14.5781 56.4844 14.2968 56.5782 14.0625 56.6251C13.8281 56.6719 13.6875 56.6719 13.5 56.6719ZM18.3281 43.3126C18.0937 43.3126 17.8593 43.4063 17.6718 43.5469C11.1093 48.2344 12.2812 54.0938 12.375 54.3751C12.4218 54.6563 12.6093 54.9376 12.8906 55.1251C13.1718 55.3126 13.4531 55.3594 13.7812 55.2657C13.9218 55.2188 14.0156 55.1719 14.1093 55.1251C14.5312 54.8907 14.7656 54.3751 14.625 53.9063C14.5781 53.7188 13.7812 49.1719 19.0312 45.4688C19.2656 45.2813 19.4531 45.0001 19.5 44.7188C19.5468 44.4376 19.5 44.1094 19.3125 43.8751C19.125 43.6407 18.8437 43.4532 18.5625 43.4063C18.4687 43.3126 18.4218 43.3126 18.3281 43.3126Z" fill="black"/>
<path d="M55.2656 39.2813C55.4531 39.2345 55.6406 39.1876 55.8281 39.0938C56.7656 38.6251 57.1406 37.5001 56.6719 36.6095C56.5313 36.3751 53.6719 30.6095 45.1406 31.0313C44.1094 31.0782 43.3125 31.9688 43.3594 33.0001C43.4063 34.0313 44.2969 34.8282 45.3281 34.7813C51.3281 34.5001 53.25 38.1563 53.3438 38.297C53.7188 39.0001 54.5156 39.3751 55.2656 39.2813Z" fill="#FF0013"/>
<path d="M44.1093 31.4531V31.6406C44.1562 32.6719 45.0468 33.4688 46.0781 33.4219C52.0781 33.1406 54 36.7969 54.0937 36.9375C54.4687 37.6875 55.2187 38.0625 56.0156 37.9688C56.2031 37.9219 56.3906 37.875 56.5781 37.7812C56.7187 37.7344 56.8125 37.6406 56.9531 37.5469C56.9062 38.2031 56.5312 38.8125 55.9218 39.1406C55.7343 39.2344 55.5468 39.2813 55.3593 39.3281C54.6093 39.4219 53.8125 39.0469 53.4375 38.2969C53.3437 38.1562 51.375 34.5 45.4218 34.7812C44.3906 34.8281 43.5468 34.0313 43.4531 33C43.4062 32.3906 43.6875 31.8281 44.1093 31.4531Z" fill="#C80004"/>
<path d="M55.0313 39.9844C54.0469 39.9844 53.1563 39.4219 52.7344 38.5313C52.6875 38.3906 50.9063 35.1563 45.375 35.3906C44.7188 35.4375 44.0157 35.2031 43.5469 34.7344C43.0313 34.2656 42.75 33.6563 42.7032 32.9531C42.6563 32.25 42.8907 31.5938 43.3594 31.125C43.8282 30.6094 44.4375 30.3281 45.1407 30.2813C54.0938 29.8594 57.2344 36 57.3282 36.2344C57.6094 36.8438 57.6563 37.5469 57.4688 38.2031C57.2344 38.8594 56.7657 39.375 56.1563 39.7031C55.9219 39.8438 55.6407 39.8906 55.3594 39.9375C55.2657 39.9844 55.125 39.9844 55.0313 39.9844ZM46.0313 34.0313C51.9375 34.0313 53.9532 37.7813 54 37.9219C54.2344 38.3906 54.7032 38.625 55.1719 38.5781C55.3125 38.5781 55.4063 38.5313 55.5469 38.4844C55.8282 38.3438 56.0157 38.1094 56.1094 37.8281C56.2032 37.5469 56.2032 37.2188 56.0625 36.9375C55.9688 36.7031 53.25 31.3594 45.1875 31.7344C44.8594 31.7344 44.5782 31.875 44.3907 32.1094C44.2032 32.3438 44.0625 32.625 44.1094 32.9531C44.1563 33.6094 44.6719 34.0781 45.3282 34.0313H46.0313Z" fill="black"/>
<path d="M52.4063 49.5468C52.5938 49.5937 52.7813 49.6405 53.0157 49.5937C54.0469 49.5468 54.8438 48.6562 54.7969 47.6249C54.7969 47.3437 54.4219 40.9218 46.4063 37.9218C45.4219 37.5468 44.3907 38.0624 44.0157 38.9999C43.6407 39.9843 44.1563 41.0155 45.0938 41.3905C50.6719 43.4999 51.0469 47.6249 51.0469 47.8124C51.0938 48.6562 51.6563 49.3124 52.4063 49.5468Z" fill="#FF0013"/>
<path d="M44.0626 39.0469C44.2969 38.4375 44.7657 38.0156 45.3751 37.875C45.2813 37.9688 45.2344 38.1094 45.1876 38.25C44.8126 39.2344 45.3282 40.2656 46.2657 40.6406C51.8438 42.75 52.2188 46.875 52.2188 47.0625C52.2657 47.8594 52.8282 48.5625 53.5782 48.75C53.7657 48.7969 53.9532 48.8437 54.1876 48.7969C54.3282 48.7969 54.4219 48.75 54.5157 48.75C54.1876 49.2187 53.6719 49.5469 53.0626 49.5938C52.8751 49.5938 52.6407 49.5937 52.4532 49.5469C51.7032 49.3125 51.1407 48.6562 51.0938 47.8594C51.0938 47.6719 50.7188 43.5469 45.1407 41.4375C44.1563 41.0625 43.6876 39.9844 44.0626 39.0469Z" fill="#C80004"/>
<path d="M52.922 50.2968C52.6876 50.2968 52.4532 50.2499 52.2188 50.203C51.1407 49.9218 50.4376 48.9843 50.3438 47.8593C50.3438 47.7187 50.0157 44.0155 44.8126 42.0937C43.5001 41.578 42.797 40.1249 43.3126 38.8124C43.547 38.1562 44.0157 37.6405 44.672 37.3593C45.2813 37.078 45.9845 37.078 46.6407 37.3124C55.0313 40.4999 55.4532 47.3437 55.4532 47.6249C55.5001 48.328 55.2657 48.9843 54.797 49.453C54.3282 49.9687 53.7188 50.2499 53.0157 50.2968C52.9688 50.2968 52.9688 50.2968 52.922 50.2968ZM45.7501 38.5312C45.6095 38.5312 45.422 38.578 45.2813 38.6249C45.0001 38.7655 44.7657 38.9999 44.672 39.2812C44.4376 39.8905 44.7657 40.5468 45.3282 40.7812C51.3282 43.0312 51.7501 47.6249 51.7501 47.8124C51.7501 48.328 52.1251 48.7499 52.5938 48.8905C52.7345 48.9374 52.8282 48.9374 52.9688 48.9374C53.297 48.9374 53.5782 48.7968 53.7657 48.5624C53.9532 48.328 54.0938 48.0468 54.047 47.7187C54.047 47.4843 53.672 41.4843 46.1251 38.6249C46.0313 38.578 45.8907 38.5312 45.7501 38.5312Z" fill="black"/>
<path d="M45.5625 55.6876C45.75 55.7814 45.9375 55.8751 46.125 55.922C47.1094 56.1564 48.1406 55.5001 48.3281 54.4689C48.375 54.1876 49.6875 47.9064 42.75 42.9376C41.9062 42.3282 40.7344 42.5157 40.1719 43.3595C39.5625 44.2032 39.75 45.3751 40.5937 45.9376C45.4687 49.4064 44.7656 53.4845 44.7187 53.672C44.5312 54.5157 44.9062 55.3126 45.5625 55.6876Z" fill="#FF0013"/>
<path d="M40.1719 43.4062C40.5 42.9375 40.9688 42.7031 41.4844 42.6562C41.4375 42.7031 41.4375 42.7031 41.3907 42.75C40.7813 43.5937 40.9688 44.7656 41.8125 45.3281C46.6875 48.7969 45.9844 52.875 45.9375 53.0625C45.75 53.8594 46.125 54.6563 46.7813 55.0313C46.9688 55.125 47.1563 55.2188 47.3438 55.2656C47.5313 55.3125 47.7657 55.3125 47.9532 55.2656C47.5313 55.7813 46.8282 56.0625 46.125 55.9219C45.9375 55.875 45.75 55.7813 45.5625 55.6875C44.9063 55.3125 44.5313 54.5156 44.7188 53.7187C44.7657 53.5312 45.4688 49.4531 40.5938 45.9844C39.7969 45.4219 39.6094 44.25 40.1719 43.4062Z" fill="#C80004"/>
<path d="M46.5 56.6719C46.3125 56.6719 46.125 56.6719 45.9375 56.6251C45.6563 56.5782 45.4219 56.4844 45.1875 56.3438C44.25 55.7813 43.7813 54.7032 44.0157 53.625C44.0625 53.4844 44.6719 49.8282 40.1719 46.5938C39.6094 46.2188 39.2344 45.6094 39.1407 44.9532C39.0469 44.2969 39.1875 43.5938 39.5625 43.0313C39.9844 42.4688 40.5469 42.0938 41.25 42C41.9063 41.9063 42.6094 42.0469 43.1719 42.4219C50.4844 47.625 49.125 54.375 49.0313 54.6563C48.75 55.8282 47.6719 56.6719 46.5 56.6719ZM41.6719 43.3126C41.625 43.3126 41.5313 43.3126 41.4844 43.3126C41.1563 43.3594 40.9219 43.5469 40.7344 43.7813C40.5469 44.0157 40.5 44.3438 40.5469 44.625C40.5938 44.9063 40.7813 45.1876 41.0157 45.3751C46.2657 49.1251 45.4688 53.6251 45.4219 53.8126C45.3282 54.3282 45.5157 54.7969 45.9375 55.0782C46.0313 55.125 46.1719 55.1719 46.3126 55.2188C46.5938 55.2657 46.9219 55.2188 47.2032 55.0782C47.4844 54.8907 47.625 54.6563 47.7188 54.3282C47.7657 54.0938 48.9375 48.1876 42.4219 43.5001C42.1407 43.4063 41.9063 43.3126 41.6719 43.3126Z" fill="black"/>
<path d="M47.1094 33.1406C47.1094 27.0937 39.4688 26.0625 30 26.0625C20.5312 26.0625 12.8906 27.0937 12.8906 33.1406C12.8906 39.1875 13.8281 47.9531 30 47.9531C46.1719 47.9531 47.1094 39.1875 47.1094 33.1406Z" fill="#FF0013"/>
<path d="M42 31.6875C42 27.4687 36.6562 26.7188 30 26.7188C23.3437 26.7188 18 27.4219 18 31.6875C18 35.9531 18.6562 42.0469 30 42.0469C41.3438 42.0469 42 35.9062 42 31.6875Z" fill="#FF4D4D"/>
<path d="M30 45.3281C15.4688 45.3281 13.2188 38.2031 12.9375 32.3906C12.8906 32.625 12.8906 32.8594 12.8906 33.0938C12.8906 39.1406 13.8281 47.9062 30 47.9062C46.1719 47.9062 47.1094 39.1406 47.1094 33.0938C47.1094 32.8594 47.1094 32.625 47.0625 32.3906C46.7812 38.25 44.5312 45.3281 30 45.3281Z" fill="#C80004"/>
<path d="M30 48.6563C12.1875 48.6563 12.1875 37.7812 12.1875 33.1406C12.1875 26.2969 20.7656 25.3594 30 25.3594C39.2344 25.3594 47.8125 26.2969 47.8125 33.1406C47.8125 37.7812 47.8125 48.6563 30 48.6563ZM30 26.7656C18.3281 26.7656 13.5938 28.5937 13.5938 33.1406C13.5938 40.4531 15.5625 47.25 30 47.25C44.4375 47.25 46.4062 40.4531 46.4062 33.1406C46.4062 28.5937 41.6719 26.7656 30 26.7656Z" fill="black"/>
<path d="M35.6719 25.9219C36.4485 25.9219 37.0781 25.2923 37.0781 24.5156C37.0781 23.739 36.4485 23.1094 35.6719 23.1094C34.8952 23.1094 34.2656 23.739 34.2656 24.5156C34.2656 25.2923 34.8952 25.9219 35.6719 25.9219Z" fill="black"/>
<path d="M24.3281 25.9219C25.1048 25.9219 25.7344 25.2923 25.7344 24.5156C25.7344 23.739 25.1048 23.1094 24.3281 23.1094C23.5515 23.1094 22.9219 23.739 22.9219 24.5156C22.9219 25.2923 23.5515 25.9219 24.3281 25.9219Z" fill="black"/>
</svg>
