<svg width="60" height="60" viewBox="0 0 60 60" fill="none" xmlns="http://www.w3.org/2000/svg">
<g clip-path="url(#clip0_114_11392)">
<path d="M21.2109 10.6641V7.14844C21.2109 6.17706 20.4245 5.39062 19.4531 5.39062C18.4818 5.39062 17.6953 6.17706 17.6953 7.14844V8.90625L21.129 11.0719C21.1615 10.9373 21.2109 10.8087 21.2109 10.6641Z" fill="#FFBD86"/>
<path d="M42.3047 8.90625V7.14844C42.3047 6.17706 41.5182 5.39062 40.5469 5.39062C39.5755 5.39062 38.7891 6.17706 38.7891 7.14844V9.81262L42.3047 8.90625Z" fill="#F6A96C"/>
<path d="M42.3047 8.90625V15.9375L36.3281 19.4531H23.9534L17.6953 15.9375V8.90625H42.3047Z" fill="#895D3C"/>
<path d="M21.2109 24.2871V17.6953C21.2109 16.7239 20.4245 15.9375 19.4531 15.9375H5.27344C4.30206 15.9375 3.51562 16.7239 3.51562 17.6953V24.2871H21.2109Z" fill="#714C2F"/>
<path d="M56.4844 24.2871V17.6953C56.4844 16.7239 55.6979 15.9375 54.7266 15.9375H40.5469C39.5755 15.9375 38.7891 16.7239 38.7891 17.6953V24.2871H56.4844Z" fill="#523522"/>
<path d="M3.51562 25.166H21.2109V52.4121H3.51562V25.166Z" fill="#FFBD86"/>
<path d="M19.4531 26.4844H1.75781C0.786438 26.4844 0 25.6979 0 24.7266C0 23.7552 0.786438 22.9688 1.75781 22.9688H19.4531C20.4245 22.9688 21.2109 23.7552 21.2109 24.7266C21.2109 25.6979 20.4245 26.4844 19.4531 26.4844Z" fill="#895D3C"/>
<path d="M38.7891 25.166H56.4844V52.4121H38.7891V25.166Z" fill="#F6A96C"/>
<path d="M58.2422 26.4844H40.5469C39.5755 26.4844 38.7891 25.6979 38.7891 24.7266C38.7891 23.7552 39.5755 22.9688 40.5469 22.9688H58.2422C59.2136 22.9688 60 23.7552 60 24.7266C60 25.6979 59.2136 26.4844 58.2422 26.4844Z" fill="#714C2F"/>
<path d="M42.3047 8.90625V15.9375L36.3281 19.4531H30V8.90625H42.3047Z" fill="#714C2F"/>
<path d="M14.1797 52.4121V31.7578C14.1797 30.7864 13.3932 30 12.4219 30C11.4505 30 10.6641 30.7864 10.6641 31.7578V52.4121H14.1797Z" fill="#714C2F"/>
<path d="M17.6953 15.9375V52.4295H42.3047V15.9375H17.6953Z" fill="#FED2A4"/>
<path d="M30 15.9375H42.3047V52.4295H30V15.9375Z" fill="#FFBD86"/>
<path d="M49.3359 52.4121V31.7578C49.3359 30.7864 48.5495 30 47.5781 30C46.6068 30 45.8203 30.7864 45.8203 31.7578V52.4121H49.3359Z" fill="#523522"/>
<path d="M35.2734 33.1993V52.4295H24.7266V33.1993C24.7266 29.5779 26.2029 26.0623 28.7695 23.4961C29.0858 23.1445 29.5432 22.9688 30 22.9688C30.4568 22.9688 30.9142 23.1445 31.2305 23.4961C33.7971 26.0623 35.2734 29.5779 35.2734 33.1993Z" fill="#895D3C"/>
<path d="M31.2305 23.4961C33.7971 26.0623 35.2734 29.5779 35.2734 33.1993V52.4295H30V22.9688C30.4568 22.9688 30.9142 23.1445 31.2305 23.4961Z" fill="#714C2F"/>
<path d="M60 52.8516C60 53.8358 59.2268 54.6094 58.2422 54.6094H1.75781C0.773163 54.6094 0 53.8358 0 52.8516C0 51.8669 0.773163 51.0938 1.75781 51.0938H58.2422C59.2268 51.0938 60 51.8669 60 52.8516Z" fill="#9CDD05"/>
<path d="M60 52.8516C60 53.8358 59.2268 54.6094 58.2422 54.6094H30V51.0938H58.2422C59.2268 51.0938 60 51.8669 60 52.8516Z" fill="#66BB00"/>
</g>
<defs>
<clipPath id="clip0_114_11392">
<rect width="60" height="60" fill="white"/>
</clipPath>
</defs>
</svg>
