<svg width="60" height="60" viewBox="0 0 60 60" fill="none" xmlns="http://www.w3.org/2000/svg">
<g clip-path="url(#clip0_114_9561)">
<path d="M6.2687 34.4303C5.55691 32.5059 5.10491 30.4366 4.87511 28.3951C4.45909 24.6983 5.84226 21.5685 8.42038 18.908C11.0069 16.239 14.0538 14.3486 17.6624 13.4532C21.5035 12.5001 24.6709 14.4062 25.771 18.1999C26.4806 20.6466 26.1412 22.9237 24.7075 25.0393C23.4533 26.8897 22.1645 28.7189 20.9728 30.6086C18.7784 34.0889 17.9548 37.9006 18.9464 41.8969C19.3426 43.4937 20.3487 44.9725 21.2337 46.4092C22.5951 48.6197 23.0392 50.9566 22.4842 53.4575C21.7335 56.8402 18.425 59.319 15.0616 59.104C11.4276 58.8718 8.71136 56.2692 8.41019 52.5759C8.27507 50.92 8.38734 49.2442 8.38734 47.5775C8.46796 44.302 8.14687 41.1047 7.36218 37.9675L6.2687 34.4303Z" fill="#FED2A4"/>
<path d="M24.7075 25.0394C26.1413 22.9238 26.4807 20.6469 25.7711 18.2C24.6803 14.4386 21.557 12.5346 17.7601 13.4313C19.8945 14.0071 21.528 15.6898 22.256 18.2C22.9655 20.6467 22.6262 22.9238 21.1924 25.0394C19.9382 26.8898 18.6494 28.719 17.4577 30.6087C15.2633 34.089 14.4397 37.9007 15.4313 41.8971C15.8275 43.4939 16.8336 44.9726 17.7186 46.4094C19.0801 48.6199 19.5241 50.9567 18.9691 53.4576C18.3789 56.1172 16.2073 58.2171 13.6714 58.8892C14.1166 59 14.5809 59.0735 15.0617 59.1042C18.425 59.3191 21.7335 56.8403 22.4842 53.4576C23.0392 50.9567 22.5952 48.6199 21.2337 46.4094C20.3488 44.9726 19.3428 43.4939 18.9465 41.8971C17.9548 37.9007 18.7784 34.089 20.9729 30.6087C22.1645 28.719 23.4534 26.8898 24.7075 25.0394Z" fill="#FFBD86"/>
<path d="M25.8583 5.91372C25.7057 7.14841 25.2514 8.23239 24.2423 9.01837C23.1358 9.88028 21.769 9.76368 20.8102 8.74591C19.1121 6.94345 19.2651 3.2988 21.1094 1.61927C22.2228 0.605242 23.6408 0.641102 24.7017 1.70997C25.6857 2.70138 26.1011 4.21063 25.8583 5.91372Z" fill="#FED2A4"/>
<path d="M24.7016 1.70993C23.9036 0.906021 22.9039 0.686881 21.9836 1.05872C22.322 1.19571 22.6471 1.41087 22.944 1.70993C23.928 2.70133 24.3434 4.21059 24.1006 5.91368C23.948 7.14837 23.4936 8.23235 22.4845 9.01833C22.2591 9.19387 22.0227 9.32676 21.7812 9.42169C22.5777 9.74266 23.4726 9.61762 24.2421 9.01833C25.2512 8.23223 25.7055 7.14837 25.8581 5.91368C26.101 4.21047 25.6856 2.70133 24.7016 1.70993Z" fill="#FFBD86"/>
<path d="M19.54 6.17533C19.4315 7.05353 19.1083 7.82439 18.3907 8.38349C17.6037 8.9965 16.6317 8.91353 15.9496 8.18966C14.7419 6.90775 14.8508 4.31556 16.1625 3.12095C16.9544 2.39978 17.9628 2.42521 18.7174 3.18552C19.4172 3.89064 19.7128 4.96396 19.54 6.17533Z" fill="#FED2A4"/>
<path d="M18.7176 3.1853C18.0762 2.53913 17.2519 2.42593 16.5326 2.84862C16.6814 2.93757 16.8249 3.04913 16.96 3.1853C17.6599 3.89042 17.9554 4.96386 17.7827 6.17511C17.6742 7.05331 17.351 7.82417 16.6333 8.38327C16.5542 8.44491 16.4728 8.49753 16.3904 8.54522C17.0136 8.91753 17.7614 8.8737 18.3909 8.38327C19.1085 7.82417 19.4317 7.05331 19.5403 6.17511C19.713 4.96386 19.4175 3.89054 18.7176 3.1853Z" fill="#FFBD86"/>
<path d="M15.2522 8.26834C15.1437 9.14655 14.8205 9.91741 14.1029 10.4765C13.3159 11.0895 12.3439 11.0065 11.6618 10.2827C10.4541 9.00077 10.5629 6.40858 11.8747 5.21397C12.6666 4.4928 13.675 4.51823 14.4296 5.27854C15.1294 5.98366 15.4248 7.05698 15.2522 8.26834Z" fill="#FED2A4"/>
<path d="M14.4295 5.27856C13.7882 4.63239 12.9639 4.51919 12.2446 4.94188C12.3933 5.03083 12.5368 5.14239 12.6719 5.27856C13.3718 5.98368 13.6673 7.05712 13.4946 8.26837C13.3861 9.14657 13.0629 9.91743 12.3452 10.4765C12.2661 10.5382 12.1847 10.5908 12.1023 10.6385C12.7255 11.0108 13.4733 10.967 14.1028 10.4765C14.8205 9.91743 15.1437 9.14657 15.2522 8.26837C15.4248 7.057 15.1294 5.98368 14.4295 5.27856Z" fill="#FFBD86"/>
<path d="M10.9893 10.4334C10.8808 11.3116 10.5576 12.0824 9.83992 12.6415C9.053 13.2546 8.08093 13.1716 7.3989 12.4477C6.19117 11.1658 6.29992 8.57362 7.61172 7.37901C8.40367 6.65784 9.41207 6.68327 10.1666 7.44358C10.8666 8.1487 11.162 9.22213 10.9893 10.4334Z" fill="#FED2A4"/>
<path d="M10.1666 7.4436C9.52521 6.79743 8.70092 6.68423 7.98162 7.10692C8.13033 7.19587 8.27389 7.30743 8.409 7.4436C9.10885 8.14872 9.40439 9.22216 9.23166 10.4334C9.12314 11.3116 8.79994 12.0825 8.08228 12.6416C8.00318 12.7032 7.92174 12.7558 7.83936 12.8035C8.46256 13.1758 9.21033 13.132 9.83986 12.6416C10.5575 12.0825 10.8807 11.3116 10.9892 10.4334C11.162 9.22216 10.8665 8.14872 10.1666 7.4436Z" fill="#FFBD86"/>
<path d="M7.18168 13.9222C7.07316 14.8004 6.74996 15.5712 6.0323 16.1303C5.24539 16.7433 4.27332 16.6604 3.59129 15.9365C2.38355 14.6546 2.4923 12.0624 3.8041 10.8678C4.59605 10.1466 5.60445 10.172 6.35902 10.9323C7.05886 11.6375 7.35441 12.7109 7.18168 13.9222Z" fill="#FED2A4"/>
<path d="M6.35896 10.9324C5.7176 10.2862 4.8933 10.173 4.174 10.5957C4.32271 10.6846 4.46627 10.7962 4.60139 10.9324C5.30123 11.6375 5.59678 12.7109 5.42404 13.9222C5.31553 14.8004 4.99232 15.5712 4.27467 16.1303C4.19557 16.192 4.11412 16.2446 4.03174 16.2923C4.65494 16.6646 5.40272 16.6208 6.03225 16.1303C6.7499 15.5712 7.07311 14.8004 7.18162 13.9222C7.35436 12.7109 7.05881 11.6375 6.35896 10.9324Z" fill="#FFBD86"/>
<path d="M51.6126 47.5775C51.5014 43.0622 52.1536 38.6958 53.7312 34.4303C54.443 32.5059 54.895 30.4366 55.1248 28.3951C55.5409 24.6983 54.1577 21.5685 51.5795 18.908C48.993 16.239 45.9461 14.3486 42.3375 13.4532C38.4964 12.5001 35.329 14.4062 34.2289 18.1999C33.5193 20.6466 33.8587 22.9237 35.2925 25.0393C36.5466 26.8897 37.8354 28.7189 39.0271 30.6086C41.2216 34.0889 42.0452 37.9006 41.0535 41.8969C40.6573 43.4937 39.6512 44.9725 38.7662 46.4092C37.4048 48.6197 36.9607 50.9566 37.5157 53.4575C38.2664 56.8402 41.5749 59.319 44.9383 59.104C48.5723 58.8718 51.2886 56.2692 51.5897 52.5759C51.63 52.0824 51.6483 51.5871 51.6541 51.0908L51.6126 47.5775Z" fill="#FED2A4"/>
<path d="M51.5795 18.908C48.9929 16.2389 45.9461 14.3486 42.3375 13.4531C41.0379 13.1306 39.816 13.1366 38.7246 13.431C38.7573 13.4387 38.7895 13.4449 38.8223 13.4531C42.4309 14.3484 45.4779 16.2389 48.0643 18.908C50.6425 21.5684 52.0256 24.6982 51.6096 28.395C51.3798 30.4365 50.9278 32.5058 50.216 34.4303C48.6384 38.6959 47.9862 43.0622 48.0974 47.5774L48.1389 51.0907C48.133 51.587 48.1147 52.0824 48.0745 52.5758C47.8132 55.7803 45.733 58.1627 42.8134 58.8891C43.5029 59.0719 44.2192 59.1499 44.9382 59.104C48.5722 58.8717 51.2885 56.2691 51.5897 52.5758C51.63 52.0824 51.6483 51.587 51.654 51.0907L51.6125 47.5774C51.5013 43.0622 52.1536 38.6958 53.7312 34.4303C54.443 32.5058 54.895 30.4365 55.1248 28.395C55.5408 24.6982 54.1576 21.5685 51.5795 18.908Z" fill="#FFBD86"/>
<path d="M34.1417 5.91372C34.2943 7.14841 34.7486 8.23239 35.7577 9.01837C36.8642 9.88028 38.231 9.76368 39.1898 8.74591C40.888 6.94345 40.7349 3.2988 38.8906 1.61927C37.7772 0.605242 36.3593 0.641102 35.2984 1.70997C34.3143 2.70138 33.8989 4.21063 34.1417 5.91372Z" fill="#FED2A4"/>
<path d="M38.8907 1.6192C38.0888 0.888891 37.1295 0.706196 36.2588 1.0587C36.5622 1.18127 36.857 1.36772 37.1331 1.6192C38.9774 3.29885 39.1305 6.94338 37.4323 8.74584C37.1402 9.05592 36.8099 9.28116 36.4609 9.42178C37.4044 9.79315 38.4263 9.55631 39.1898 8.74584C40.888 6.94338 40.735 3.29874 38.8907 1.6192Z" fill="#FFBD86"/>
<path d="M40.4598 6.17533C40.5683 7.05353 40.8915 7.82439 41.6092 8.38349C42.3961 8.9965 43.3682 8.91353 44.0502 8.18966C45.2579 6.90775 45.1492 4.31556 43.8374 3.12095C43.0454 2.39978 42.037 2.42521 41.2825 3.18552C40.5826 3.89064 40.2871 4.96396 40.4598 6.17533Z" fill="#FED2A4"/>
<path d="M43.8375 3.12083C43.1875 2.5288 42.3916 2.44091 41.71 2.84861C41.837 2.92326 41.9611 3.01255 42.0799 3.12083C43.3917 4.31544 43.5005 6.90751 42.2927 8.18955C42.1563 8.33427 42.008 8.45228 41.8522 8.54533C42.5892 8.9713 43.437 8.84064 44.0503 8.18955C45.2582 6.90751 45.1493 4.31544 43.8375 3.12083Z" fill="#FFBD86"/>
<path d="M44.7479 8.26834C44.8564 9.14655 45.1796 9.91741 45.8972 10.4765C46.6842 11.0895 47.6562 11.0065 48.3383 10.2827C49.546 9.00077 49.4372 6.40858 48.1254 5.21397C47.3335 4.4928 46.3251 4.51823 45.5705 5.27854C44.8707 5.98366 44.5752 7.05698 44.7479 8.26834Z" fill="#FED2A4"/>
<path d="M48.1253 5.2141C47.4753 4.62207 46.6795 4.53417 45.9978 4.94187C46.1248 5.01652 46.2489 5.10582 46.3678 5.2141C47.6796 6.40871 47.7883 9.00078 46.5806 10.2828C46.4442 10.4275 46.2958 10.5455 46.1401 10.6386C46.8771 11.0646 47.7248 10.9339 48.3382 10.2828C49.546 9.00089 49.4371 6.40871 48.1253 5.2141Z" fill="#FFBD86"/>
<path d="M49.0106 10.4334C49.1191 11.3116 49.4423 12.0824 50.16 12.6415C50.9469 13.2546 51.919 13.1716 52.601 12.4477C53.8087 11.1658 53.7 8.57362 52.3882 7.37901C51.5962 6.65784 50.5878 6.68327 49.8333 7.44358C49.1333 8.1487 48.8379 9.22213 49.0106 10.4334Z" fill="#FED2A4"/>
<path d="M52.3883 7.37914C51.7382 6.7871 50.9424 6.69921 50.2607 7.10691C50.3878 7.18156 50.5119 7.27085 50.6307 7.37914C51.9425 8.57374 52.0513 11.1658 50.8435 12.4478C50.7071 12.5926 50.5588 12.7106 50.403 12.8036C51.14 13.2296 51.9877 13.0989 52.6011 12.4478C53.8088 11.1658 53.7001 8.57363 52.3883 7.37914Z" fill="#FFBD86"/>
<path d="M52.8185 13.9222C52.927 14.8004 53.2502 15.5712 53.9678 16.1303C54.7547 16.7433 55.7268 16.6604 56.4089 15.9365C57.6166 14.6546 57.5078 12.0624 56.196 10.8678C55.4041 10.1466 54.3957 10.172 53.6411 10.9323C52.9413 11.6375 52.6457 12.7109 52.8185 13.9222Z" fill="#FED2A4"/>
<path d="M56.1959 10.8677C55.5459 10.2756 54.75 10.1877 54.0684 10.5954C54.1954 10.6701 54.3195 10.7594 54.4383 10.8677C55.75 12.0623 55.8589 14.6543 54.6511 15.9364C54.5147 16.0811 54.3664 16.1991 54.2106 16.2922C54.9476 16.7181 55.7954 16.5875 56.4087 15.9364C57.6164 14.6545 57.5077 12.0623 56.1959 10.8677Z" fill="#FFBD86"/>
<path d="M58.1259 13.3559C58.0776 12.0949 57.5899 10.9526 56.7876 10.222C56.051 9.55108 55.1409 9.33428 54.2964 9.55987C54.1868 8.42198 53.7164 7.40409 52.9798 6.73342C52.0439 5.88088 50.8279 5.75877 49.8227 6.35081C49.5976 5.64335 49.2188 5.0253 48.717 4.56827C47.7682 3.70413 46.532 3.59151 45.519 4.21155C45.2922 3.52354 44.9199 2.92213 44.4291 2.4753C43.2923 1.43995 41.7419 1.47897 40.6588 2.57045C40.6546 2.57467 40.6509 2.57924 40.6467 2.58346C40.353 1.95827 39.9605 1.40924 39.4823 0.973657C38.0097 -0.367671 36.0777 -0.318803 34.6746 1.09483C33.4875 2.29085 32.9889 4.04456 33.2705 6.03358C33.4716 7.64702 34.1086 8.85159 35.2176 9.71561C35.8677 10.2219 36.6071 10.4712 37.3395 10.4711C38.2408 10.4711 39.1312 10.0934 39.8294 9.35233C40.0713 9.09557 40.2849 8.80635 40.4684 8.49112C40.6443 8.70815 40.844 8.90526 41.069 9.08045C41.5795 9.47819 42.1604 9.67401 42.7355 9.67401C43.1984 9.67401 43.6572 9.54627 44.0728 9.29573C44.3184 10.0694 44.7478 10.6992 45.3569 11.1735C45.8674 11.5713 46.4483 11.7671 47.0234 11.7671C47.4712 11.7671 47.9154 11.648 48.3201 11.4134C48.5632 12.209 48.9982 12.8545 49.6198 13.3387C50.1303 13.7364 50.7112 13.9323 51.2864 13.9321C51.5013 13.9321 51.7154 13.9044 51.9247 13.85C51.9315 13.9139 51.9379 13.9775 51.9471 14.0418C52.0971 15.2418 52.5951 16.179 53.4276 16.8274C53.9381 17.2251 54.5189 17.4209 55.0941 17.4208C55.8016 17.4208 56.5004 17.1244 57.0484 16.5428C57.7809 15.7654 58.1736 14.6037 58.1259 13.3559ZM38.5502 8.14717C37.9012 8.83612 37.0381 8.90573 36.2977 8.32916C35.5634 7.75717 35.1555 6.95667 35.0137 5.80987C35.013 5.80448 35.0123 5.79909 35.0115 5.79358C34.8071 4.35944 35.1303 3.13038 35.9218 2.33292C36.2955 1.95639 36.712 1.76772 37.1322 1.76772C37.5288 1.76772 37.9286 1.93577 38.2987 2.27268C38.9998 2.91112 39.4456 4.00424 39.4912 5.19663C39.5363 6.37096 39.1845 7.47393 38.5502 8.14717ZM43.4105 7.59088C43.0357 7.98885 42.5759 8.02659 42.1491 7.69401C41.6836 7.33143 41.4239 6.81581 41.3319 6.07143C41.3312 6.06604 41.3305 6.06065 41.3297 6.05514C41.1958 5.11577 41.4004 4.31772 41.906 3.80842C42.1225 3.59022 42.3535 3.48088 42.5868 3.48088C42.8076 3.48088 43.0305 3.57874 43.2455 3.77456C43.6948 4.18377 43.981 4.89463 44.011 5.67604C44.0406 6.44467 43.816 7.16045 43.4105 7.59088ZM47.6984 9.68397C47.3234 10.0821 46.8637 10.1193 46.437 9.78709C45.9714 9.42452 45.7118 8.90889 45.6198 8.16452C45.6191 8.15913 45.6184 8.15362 45.6175 8.14823C45.4836 7.20885 45.6883 6.41092 46.194 5.90151C46.4105 5.68331 46.6414 5.57409 46.8747 5.57409C47.0955 5.57409 47.3184 5.67182 47.5334 5.86776C47.9827 6.27698 48.2689 6.98784 48.2988 7.76936C48.3284 8.53788 48.1039 9.25366 47.6984 9.68397ZM51.9614 11.8491C51.5866 12.247 51.1266 12.2847 50.7 11.9523C50.2344 11.5896 49.9747 11.0739 49.8827 10.3296C49.882 10.3242 49.8813 10.3188 49.8805 10.3133C49.8226 9.90733 49.8283 9.52799 49.8938 9.18674C49.9132 9.11397 49.9309 9.04038 49.9469 8.96585C50.0476 8.61229 50.2182 8.3069 50.4568 8.06643C50.6734 7.84823 50.9042 7.73901 51.1377 7.73901C51.3584 7.73901 51.5813 7.83674 51.7964 8.03256C52.2457 8.4419 52.532 9.15276 52.5618 9.93428C52.5913 10.703 52.3668 11.4187 51.9614 11.8491ZM55.7691 15.3377C55.3941 15.7357 54.9344 15.7733 54.5077 15.4408C54.0421 15.0782 53.7825 14.5625 53.6905 13.8181C53.6898 13.8127 53.6891 13.8072 53.6882 13.8018C53.5543 12.8624 53.759 12.0645 54.2647 11.5551C54.4813 11.3369 54.7121 11.2277 54.9454 11.2277C55.1662 11.2277 55.3892 11.3254 55.6041 11.5212C56.0534 11.9306 56.3396 12.6414 56.3696 13.423C56.3989 14.1917 56.1745 14.9074 55.7691 15.3377ZM42.5491 12.6043C38.3027 11.5509 34.6193 13.7024 33.3847 17.9592C32.5982 20.6711 32.9953 23.2204 34.5649 25.5364C34.8945 26.0226 35.2265 26.5075 35.5585 26.9923C36.4704 28.324 37.4132 29.7011 38.2836 31.0814C40.4497 34.5166 41.0946 38.0855 40.2004 41.6893C39.8861 42.9561 39.1045 44.2088 38.3485 45.4203C38.2374 45.5984 38.1268 45.7757 38.0179 45.9524C36.5209 48.3828 36.0634 50.9733 36.6577 53.652C37.4657 57.2924 40.8664 60.0001 44.5237 60.0001C44.6802 60.0001 44.837 59.9951 44.9942 59.9851C46.9975 59.857 48.7725 59.0915 50.127 57.7712C51.4922 56.4405 52.3007 54.6701 52.4654 52.6514C52.5039 52.1794 52.526 51.6737 52.5327 51.1052C52.5384 50.6199 52.1497 50.2218 51.6643 50.2161C51.6608 50.2161 51.6573 50.2161 51.6536 50.2161C51.1732 50.2161 50.7808 50.6027 50.7751 51.0844C50.7689 51.6118 50.7487 52.0775 50.7136 52.5085C50.4512 55.7252 48.1077 58.025 44.882 58.2311C41.9431 58.4192 39.0221 56.194 38.3735 53.2712C37.8746 51.023 38.2477 48.9305 39.5143 46.8741C39.6214 46.7003 39.7303 46.526 39.8396 46.3508C40.6681 45.0229 41.5248 43.6499 41.9062 42.1126C42.9201 38.0265 42.2014 33.9996 39.7702 30.1439C38.8822 28.7355 37.9297 27.3445 37.0086 25.9993C36.6781 25.5167 36.3478 25.0342 36.0198 24.5501C34.7396 22.6613 34.4298 20.6655 35.0727 18.4485C36.0554 15.0603 38.7582 13.4744 42.1258 14.3101C45.4196 15.1273 48.388 16.8813 50.9484 19.5235C53.5353 22.193 54.6158 25.064 54.2514 28.3007C54.016 30.3928 53.5637 32.3538 52.907 34.1294C51.3267 38.4021 50.6159 42.8094 50.7341 47.603C50.746 48.0882 51.1457 48.47 51.6342 48.4599C52.1195 48.448 52.503 48.0449 52.4911 47.5598C52.3787 42.9928 53.0539 38.7991 54.5554 34.739C55.2614 32.8303 55.7468 30.7303 55.998 28.4973C56.4188 24.7587 55.1445 21.328 52.2105 18.3004C49.4177 15.4184 46.167 13.5019 42.5491 12.6043ZM6.57231 16.8275C7.40469 16.1791 7.90274 15.2419 8.05285 14.0419C8.06188 13.9777 8.06844 13.914 8.07524 13.8501C8.28453 13.9045 8.49863 13.9323 8.71356 13.9323C9.2886 13.9323 9.86961 13.7363 10.3801 13.3388C11.0018 12.8545 11.4368 12.2091 11.6798 11.4135C12.0846 11.6481 12.5287 11.7672 12.9765 11.7672C13.5515 11.7672 14.1325 11.5714 14.6429 11.1738C15.2521 10.6993 15.6814 10.0695 15.9271 9.29584C16.3427 9.54639 16.8015 9.67401 17.2644 9.67401C17.8395 9.67401 18.4204 9.47819 18.9309 9.08057C19.1559 8.90526 19.3557 8.70815 19.5315 8.49124C19.715 8.80647 19.9286 9.09569 20.1705 9.35245C20.8687 10.0935 21.759 10.4712 22.6604 10.4712C23.3927 10.4712 24.1325 10.2219 24.7824 9.71561C25.8915 8.85159 26.5284 7.64713 26.7295 6.03358C27.0111 4.04456 26.5126 2.29084 25.3255 1.09471C23.9223 -0.318921 21.9902 -0.367788 20.5177 0.973306C20.0395 1.40877 19.6469 1.95792 19.3534 2.58311C19.3493 2.57889 19.3455 2.57432 19.3413 2.5701C18.258 1.47885 16.7076 1.43971 15.571 2.47495C15.0802 2.9219 14.7079 3.52331 14.4812 4.21131C13.4682 3.59116 12.232 3.70389 11.2831 4.56803C10.7813 5.02506 10.4026 5.64311 10.1775 6.35057C9.17223 5.75842 7.95617 5.88065 7.02031 6.73319C6.28356 7.40397 5.81316 8.42186 5.70348 9.55975C4.85902 9.33416 3.94906 9.55096 3.21231 10.222C2.41004 10.9526 1.92219 12.0949 1.87402 13.3559C1.82621 14.6037 2.21902 15.7654 2.95168 16.5431C3.49965 17.1247 4.19832 17.421 4.90578 17.421C5.48094 17.4209 6.06184 17.2251 6.57231 16.8275ZM20.5086 5.19686C20.5542 4.00448 21 2.91135 21.7011 2.27292C22.0712 1.93588 22.4709 1.76795 22.8676 1.76795C23.2878 1.76795 23.7044 1.95663 24.078 2.33303C24.8695 3.13049 25.1928 4.35956 24.9883 5.7937C24.9875 5.79909 24.9868 5.80448 24.9861 5.80999C24.8444 6.95667 24.4364 7.75717 23.7022 8.32916C22.9619 8.90596 22.0988 8.83624 21.4497 8.14729C20.8154 7.47393 20.4636 6.37096 20.5086 5.19686ZM15.9888 5.67616C16.0187 4.89463 16.3048 4.18377 16.7543 3.77456C16.9693 3.57874 17.1922 3.48088 17.4129 3.48088C17.6462 3.48088 17.8771 3.5901 18.0937 3.80831C18.5993 4.31772 18.804 5.11565 18.6702 6.05514C18.6693 6.06053 18.6686 6.06592 18.6679 6.07143C18.5759 6.81581 18.3162 7.33143 17.8507 7.69413C17.4238 8.02647 16.9643 7.98885 16.5893 7.591C16.1839 7.16045 15.9594 6.44467 15.9888 5.67616ZM11.7009 7.76924C11.7308 6.98772 12.017 6.27686 12.4663 5.86764C12.6813 5.67182 12.9042 5.57397 13.125 5.57397C13.3583 5.57397 13.5891 5.68319 13.8058 5.90151C14.3114 6.41092 14.5161 7.20873 14.3821 8.14823C14.3813 8.15362 14.3806 8.15901 14.3799 8.16452C14.2879 8.90889 14.0282 9.42452 13.5625 9.78721C13.1359 10.1197 12.6761 10.0819 12.3013 9.68409C11.896 9.25366 11.6715 8.53788 11.7009 7.76924ZM7.43797 9.9344C7.46785 9.15288 7.75402 8.4419 8.20344 8.03268C8.41848 7.83686 8.64137 7.73913 8.86215 7.73913C9.09547 7.73913 9.32645 7.84834 9.54301 8.06655C9.7816 8.30702 9.95235 8.61241 10.0529 8.96596C10.0689 9.04038 10.0866 9.11409 10.106 9.18686C10.1715 9.52811 10.1772 9.90745 10.1193 10.3134C10.1185 10.3188 10.1178 10.3242 10.1171 10.3297C10.0251 11.074 9.76543 11.5897 9.29985 11.9524C8.87305 12.2847 8.41332 12.2471 8.03844 11.8491C7.63309 11.4187 7.40867 10.703 7.43797 9.9344ZM3.63031 13.4231C3.6602 12.6415 3.94637 11.9306 4.39578 11.5214C4.61082 11.3255 4.83371 11.2277 5.05449 11.2277C5.28781 11.2277 5.51867 11.3369 5.73524 11.5551C6.2409 12.0646 6.44563 12.8624 6.31168 13.8018C6.31086 13.8072 6.31016 13.8126 6.30945 13.8181C6.21746 14.5625 5.95777 15.0781 5.49219 15.4408C5.06551 15.773 4.60578 15.7355 4.23078 15.3376C3.82543 14.9074 3.60102 14.1917 3.63031 13.4231ZM17.4508 12.6043C13.8329 13.5019 10.5822 15.4184 7.78942 18.3004C4.85539 21.328 3.5811 24.7587 4.00192 28.4973C4.25223 30.7214 4.73481 32.8135 5.43617 34.7163L6.51559 38.208C7.25457 41.1717 7.58879 44.318 7.50899 47.5598C7.50887 47.5671 7.50875 47.5742 7.50875 47.5815C7.50875 48.0925 7.49774 48.6176 7.48707 49.1254C7.46293 50.2768 7.43797 51.4674 7.53453 52.6514C7.69918 54.6701 8.50777 56.4405 9.87289 57.7712C11.2275 59.0915 13.0024 59.857 15.0057 59.9851C15.1632 59.9951 15.3195 60.0001 15.4762 60.0001C19.1333 60.0001 22.5343 57.2922 23.3422 53.6519C23.506 52.914 23.5913 52.1744 23.5959 51.4537C23.5989 50.9683 23.208 50.5724 22.7226 50.5694C22.2399 50.5621 21.8414 50.9573 21.8383 51.4427C21.8346 52.0392 21.7632 52.6543 21.6263 53.2712C20.9777 56.194 18.0575 58.4203 15.1179 58.2311C11.8921 58.025 9.54863 55.7253 9.28625 52.5085C9.19695 51.4143 9.21992 50.3205 9.2443 49.1623C9.25508 48.6489 9.26609 48.1183 9.26633 47.5924C9.3493 44.1876 8.99551 40.8791 8.21492 37.7583C8.21106 37.7428 8.20672 37.7273 8.20203 37.7121L7.10856 34.1748C7.10387 34.1595 7.09871 34.1444 7.0932 34.1295C6.43649 32.3539 5.98414 30.3928 5.74871 28.3008C5.38414 25.0641 6.46461 22.193 9.05152 19.5235C11.612 16.8814 14.5803 15.1273 17.8741 14.3101C21.2422 13.4745 23.9445 15.0603 24.9273 18.4485C25.5702 20.6654 25.2603 22.6613 23.9802 24.5501C23.6521 25.0341 23.3218 25.5167 22.9913 25.9993C22.0702 27.3445 21.1177 28.7355 20.2297 30.1439C17.7985 33.9996 17.0798 38.0264 18.0937 42.1126C18.4752 43.6499 19.3318 45.0229 20.1603 46.3508C20.2696 46.526 20.3785 46.7003 20.4855 46.8741C20.7305 47.272 20.9449 47.6777 21.1229 48.0801C21.3192 48.524 21.8382 48.7246 22.282 48.5285C22.7259 48.3322 22.9266 47.8133 22.7304 47.3694C22.5205 46.8945 22.2686 46.4178 21.982 45.9523C21.8731 45.7756 21.7625 45.5983 21.6514 45.4202C20.8954 44.2087 20.1138 42.956 19.7995 41.6892C18.9054 38.0854 19.5502 34.5165 21.7163 31.0812C22.5867 29.701 23.5296 28.3239 24.4414 26.9922C24.7734 26.5074 25.1054 26.0225 25.435 25.5363C27.0047 23.2204 27.4017 20.6711 26.6152 17.959C25.3805 13.7024 21.6976 11.5508 17.4508 12.6043Z" fill="black"/>
</g>
<defs>
<clipPath id="clip0_114_9561">
<rect width="60" height="60" fill="white"/>
</clipPath>
</defs>
</svg>
