<svg width="60" height="60" viewBox="0 0 60 60" fill="none" xmlns="http://www.w3.org/2000/svg">
<mask id="mask0_99_5657" style="mask-type:luminance" maskUnits="userSpaceOnUse" x="0" y="0" width="60" height="60">
<path d="M60 0H0V60H60V0Z" fill="white"/>
</mask>
<g mask="url(#mask0_99_5657)">
<path d="M19.5476 47.0482C20.028 44.869 22.1852 43.4913 24.3644 43.9717C26.5447 44.4521 27.9225 46.6082 27.442 48.7886L26.1648 54.5801L22.019 56.0068L18.2587 52.8928L19.5476 47.0482Z" fill="#ECECEE"/>
<path d="M40.4525 47.0482C39.972 44.869 37.8148 43.4913 35.6356 43.9717C33.4554 44.4521 32.0776 46.6082 32.5581 48.7886L33.8353 54.5801L37.981 56.0068L41.7413 52.8928L40.4525 47.0482Z" fill="#ECECEE"/>
<path d="M43.1155 38.6619C39.1244 36.4873 34.4276 35.4005 32.67 35.1373L33.7798 27.714C34.0974 27.7613 40.2757 28.7164 46.155 31.7756L43.1155 38.6619Z" fill="#ECECEE"/>
<path d="M16.8844 38.6619C20.8756 36.4873 25.5724 35.4005 27.33 35.1373L26.2202 27.714C25.9026 27.7613 19.7243 28.7164 13.845 31.7756L16.8844 38.6619Z" fill="#ECECEE"/>
<path d="M19.5476 47.0484C20.028 44.8692 22.1852 43.4914 24.3644 43.9719C26.5447 44.4524 27.9225 46.6084 27.442 48.7888L26.4661 53.2141C23.2829 52.8999 20.5827 52.2096 18.558 51.5356L19.5476 47.0484Z" fill="#DADADC"/>
<path d="M35.6357 43.9719C37.8149 43.4914 39.9721 44.8692 40.4526 47.0484L41.442 51.5356C39.4175 52.2095 36.7173 52.8999 33.5341 53.2141L32.558 48.7888C32.0777 46.6084 33.4553 44.4524 35.6357 43.9719Z" fill="#DADADC"/>
<path d="M15.7655 45.1717C17.1491 37.0726 21.5685 30.8643 21.5685 30.8643H38.4318C38.4318 30.8643 42.851 37.0726 44.2347 45.1717C44.4311 46.3215 43.814 47.4587 42.7413 47.917C40.3928 48.9202 35.8385 50.4595 30.0001 50.4595C24.1616 50.4595 19.6073 48.9202 17.2588 47.917C16.1863 47.4587 15.5691 46.3215 15.7655 45.1717Z" fill="#85B7FF"/>
<path d="M25.6695 43.2672C25.6695 44.4625 26.1545 45.5457 26.9375 46.3299C27.7217 47.1129 28.8038 47.5979 30.0001 47.5979C32.3918 47.5979 34.3308 45.6589 34.3308 43.2672L30.0001 41.9068L25.6695 43.2672Z" fill="#4697FF"/>
<path d="M25.6695 41.5327V43.2673H34.3308V41.5327C34.3308 40.9877 33.8896 40.5465 33.3446 40.5465H26.6557C26.1106 40.5465 25.6695 40.9877 25.6695 41.5327Z" fill="#ECECEE"/>
<path d="M50.8218 39.4933C50.0839 40.4691 48.9613 40.9841 47.8238 40.9841C47.0362 40.9841 46.2417 40.737 45.565 40.2255C44.8062 39.6515 43.977 39.1317 43.1156 38.6629V38.6618C43.1814 35.4814 44.9125 33.0897 46.1551 31.7754C47.5074 32.48 48.8436 33.2941 50.0896 34.2353C51.7434 35.4849 52.0714 37.8383 50.8218 39.4933Z" fill="#FFC6B3"/>
<path d="M9.17827 39.4933C9.9162 40.4691 11.0387 40.9841 12.1763 40.9841C12.9639 40.9841 13.7584 40.737 14.4351 40.2255C15.1939 39.6515 16.0231 39.1317 16.8845 38.6629V38.6618C16.8187 35.4814 15.0876 33.0897 13.845 31.7754C12.4927 32.48 11.1565 33.2941 9.91046 34.2353C8.25671 35.4849 7.9287 37.8383 9.17827 39.4933Z" fill="#FFC6B3"/>
<path d="M12.0641 9.03404C11.8294 9.03404 11.2801 9.659 11.1195 9.7988C8.13997 12.3917 6.06071 16.3438 6.23262 20.5595C6.43008 25.3996 10.0774 29.2428 14.774 27.4314C15.0222 27.3357 16.6583 26.7226 16.6583 26.4671V17.0652L14.352 9.03404H12.0641Z" fill="#FF4444"/>
<path d="M47.9359 9.03404C48.1707 9.03404 48.7199 9.659 48.8806 9.7988C51.8601 12.3917 53.9393 16.3438 53.7674 20.5595C53.57 25.3996 49.9226 29.2428 45.2261 27.4314C44.9779 27.3357 43.3417 26.7226 43.3417 26.4671V17.0652L45.6481 9.03404H47.9359Z" fill="#FF4444"/>
<path d="M25.6695 33.1359C25.6695 35.5277 27.6083 37.4666 30.0001 37.4666C32.3919 37.4666 34.3308 35.5277 34.3308 33.1359C34.3308 30.7441 32.3919 28.8052 30.0001 28.8052C27.6083 28.8052 25.6695 30.7441 25.6695 33.1359Z" fill="#FFDDCB"/>
<path d="M13.6429 15.0997C13.5678 15.7256 13.5285 16.3619 13.5285 17.0075C13.5285 25.9148 20.9034 33.136 30 33.136C39.0968 33.136 46.4716 25.9148 46.4716 17.0075C46.4716 16.3619 46.4323 15.7256 46.3573 15.0997L30 4.98075L13.6429 15.0997Z" fill="#FFDDCB"/>
<path d="M42.9559 17.0075C42.9559 16.3619 42.9167 14.5537 42.8416 13.9278L28.3503 6.00134L30 4.98075L46.3572 15.0997C46.4323 15.7256 46.4716 16.3619 46.4716 17.0075C46.4716 25.9148 39.0967 33.136 30 33.136C29.4061 33.136 28.8198 33.1045 28.2422 33.0445C36.5124 32.1852 42.9559 25.3332 42.9559 17.0075Z" fill="#FFC6B3"/>
<path d="M20.7613 22.155H22.9219C23.4074 22.155 23.8008 21.7615 23.8008 21.2761C23.8008 20.7907 23.4074 20.3972 22.9219 20.3972H20.7613C20.2758 20.3972 19.8824 20.7907 19.8824 21.2761C19.8824 21.7615 20.2758 22.155 20.7613 22.155Z" fill="#FF89C5"/>
<path d="M37.0782 22.155H39.2388C39.7243 22.155 40.1177 21.7615 40.1177 21.2761C40.1177 20.7907 39.7243 20.3972 39.2388 20.3972H37.0782C36.5927 20.3972 36.1993 20.7907 36.1993 21.2761C36.1993 21.7615 36.5927 22.155 37.0782 22.155Z" fill="#FF89C5"/>
<path d="M11.9846 8.31113C11.9846 10.1505 13.4757 11.6416 15.315 11.6416C17.1544 11.6416 18.6455 10.1505 18.6455 8.31113C18.6455 6.47176 17.1544 4.98066 15.315 4.98066C13.4757 4.98066 11.9846 6.47176 11.9846 8.31113Z" fill="#F9DA60"/>
<path d="M48.0156 8.31113C48.0156 10.1505 46.5245 11.6416 44.6852 11.6416C42.8458 11.6416 41.3547 10.1505 41.3547 8.31113C41.3547 6.47176 42.8458 4.98066 44.6852 4.98066C46.5245 4.98066 48.0156 6.47176 48.0156 8.31113Z" fill="#F9DA60"/>
<path d="M13.6429 15.0996C13.6429 15.0996 24.1681 14.2935 30 7.94191C35.832 14.2935 46.3573 15.0996 46.3573 15.0996C45.393 7.09078 38.4374 0.878906 30 0.878906C21.5628 0.878906 14.6072 7.09078 13.6429 15.0996Z" fill="#FF6868"/>
<path d="M21.0466 59.0264C21.3388 59.0911 21.6321 59.1211 21.9197 59.1211C23.7756 59.1211 25.4477 57.8358 25.8635 55.9487L26.1649 54.5803L18.2589 52.893L17.9689 54.2084C17.4886 56.3888 18.8662 58.5459 21.0466 59.0264Z" fill="#44596A"/>
<path d="M38.9536 59.0264C38.6614 59.0911 38.3681 59.1211 38.0805 59.1211C36.2246 59.1211 34.5525 57.8358 34.1367 55.9487L33.8353 54.5803L41.7414 52.893L42.0313 54.2084C42.5116 56.3888 41.134 58.5459 38.9536 59.0264Z" fill="#44596A"/>
<path d="M21.8418 17.3582V18.9446" stroke="black" stroke-width="2" stroke-miterlimit="10" stroke-linecap="round" stroke-linejoin="round"/>
<path d="M38.1586 17.3582V18.9446" stroke="black" stroke-width="2" stroke-miterlimit="10" stroke-linecap="round" stroke-linejoin="round"/>
<path d="M31.4594 20.5409C31.1151 20.9348 30.5892 21.1865 30.0001 21.1865C29.411 21.1865 28.8852 20.9348 28.5409 20.5409" stroke="black" stroke-width="2" stroke-miterlimit="10" stroke-linecap="round" stroke-linejoin="round"/>
<path d="M25.6695 43.2672C25.6695 44.4625 26.1545 45.5457 26.9375 46.3299C27.7217 47.1129 28.8038 47.5979 30.0001 47.5979C32.3918 47.5979 34.3308 45.6589 34.3308 43.2672H25.6695Z" stroke="black" stroke-width="2" stroke-miterlimit="10" stroke-linecap="round" stroke-linejoin="round"/>
<path d="M25.6695 41.5327V43.2673H34.3308V41.5327C34.3308 40.9877 33.8896 40.5465 33.3446 40.5465H26.6557C26.1106 40.5465 25.6695 40.9877 25.6695 41.5327Z" stroke="black" stroke-width="2" stroke-miterlimit="10" stroke-linecap="round" stroke-linejoin="round"/>
<path d="M13.6429 15.0996C13.6429 15.0996 24.1681 14.2935 30 7.94191C35.832 14.2935 46.3573 15.0996 46.3573 15.0996C45.393 7.09078 38.4374 0.878906 30 0.878906C21.5628 0.878906 14.6072 7.09078 13.6429 15.0996Z" stroke="black" stroke-width="2" stroke-miterlimit="10" stroke-linecap="round" stroke-linejoin="round"/>
<path d="M15.315 4.98073C16.3223 4.98073 17.2244 5.42851 17.8351 6.13526C16.3859 7.68905 15.2428 9.52116 14.4997 11.5408C13.0545 11.177 11.9845 9.86933 11.9845 8.3112C11.9845 6.47183 13.4756 4.98073 15.315 4.98073Z" stroke="black" stroke-width="2" stroke-miterlimit="10" stroke-linecap="round" stroke-linejoin="round"/>
<path d="M44.6852 4.98073C43.6778 4.98073 42.7757 5.42851 42.165 6.13526C43.6142 7.68905 44.7573 9.52116 45.5004 11.5408C46.9456 11.177 48.0156 9.86933 48.0156 8.3112C48.0156 6.47183 46.5245 4.98073 44.6852 4.98073Z" stroke="black" stroke-width="2" stroke-miterlimit="10" stroke-linecap="round" stroke-linejoin="round"/>
<path d="M9.20688 11.7455C9.75895 11.0392 10.3709 10.3873 11.0284 9.80266C11.1876 9.66121 11.7304 9.03063 11.9651 9.02816C11.9651 9.02816 11.9668 9.02805 11.9671 9.02805C12.2521 10.2527 13.2092 11.2163 14.4269 11.5091L14.3989 11.5916C14.0093 12.704 13.7399 13.8706 13.6074 15.0768C13.539 15.7034 13.5064 16.3402 13.5132 16.9857C13.5176 17.4088 13.5391 17.8277 13.5761 18.2421C13.5767 18.2488 13.5773 18.2555 13.5777 18.2622C13.5795 18.2814 13.5813 18.3006 13.583 18.3198C13.8336 21.3665 14.9492 24.1736 16.6887 26.5068C16.4082 26.7974 15.0883 27.3082 14.8679 27.396C10.1907 29.2566 6.50313 25.4518 6.25493 20.6141C6.14806 18.5322 6.5922 16.5091 7.42446 14.678" stroke="black" stroke-width="2" stroke-miterlimit="10" stroke-linecap="round" stroke-linejoin="round"/>
<path d="M50.0975 27.2134C48.7029 27.9783 46.9965 28.1373 45.1323 27.3959C44.9119 27.3081 43.592 26.7972 43.3115 26.5065C45.051 24.1734 46.1666 21.3662 46.4172 18.3196C46.419 18.3004 46.4207 18.2813 46.4225 18.262C46.4229 18.2554 46.4235 18.2486 46.4241 18.2419C46.4611 17.8274 46.4826 17.4086 46.487 16.9855C46.4938 16.3399 46.4613 15.7032 46.3928 15.0765C46.2603 13.8703 45.9909 12.7038 45.6013 11.5914L45.5733 11.5089C46.791 11.216 47.7481 10.2525 48.0331 9.02777C48.0334 9.02777 48.0351 9.02789 48.0351 9.02789C48.2698 9.03035 48.8126 9.66106 48.9718 9.8025C51.9238 12.4266 53.9615 16.4003 53.7453 20.614C53.6675 22.1307 53.2515 23.5459 52.5728 24.7168" stroke="black" stroke-width="2" stroke-miterlimit="10" stroke-linecap="round" stroke-linejoin="round"/>
<path d="M30.0001 33.1359C31.4857 33.1359 32.925 32.9422 34.2942 32.581C34.3175 32.7628 34.3308 32.9478 34.3308 33.1359C34.3308 35.5277 32.3919 37.4666 30.0001 37.4666C27.6083 37.4666 25.6695 35.5277 25.6695 33.1359C25.6695 32.9478 25.6828 32.7628 25.706 32.581C27.0753 32.9422 28.5146 33.1359 30.0001 33.1359Z" stroke="black" stroke-width="2" stroke-miterlimit="10" stroke-linecap="round" stroke-linejoin="round"/>
<path d="M13.6428 15.0997C13.6428 15.0997 24.168 14.2936 30 7.94196C35.832 14.2936 46.3572 15.0997 46.3572 15.0997C46.4323 15.7256 46.4716 16.3619 46.4716 17.0075C46.4716 25.9148 39.0967 33.136 30 33.136C20.9034 33.136 13.5284 25.9148 13.5284 17.0075C13.5284 16.3619 13.5676 15.7256 13.6428 15.0997Z" stroke="black" stroke-width="2" stroke-miterlimit="10" stroke-linecap="round" stroke-linejoin="round"/>
<path d="M40.5249 29.4137C42.2914 30.0051 44.2391 30.7784 46.1553 31.7756C44.9126 33.0897 43.1815 35.4814 43.1158 38.6619C42.8325 38.5075 42.5455 38.3593 42.2566 38.2158C40.5054 33.7775 38.4319 30.8641 38.4319 30.8641C39.1688 30.4334 39.8684 29.9483 40.5249 29.4137Z" stroke="black" stroke-width="2" stroke-miterlimit="10" stroke-linecap="round" stroke-linejoin="round"/>
<path d="M50.8218 39.4933C50.0839 40.4691 48.9613 40.9841 47.8238 40.9841C47.0362 40.9841 46.2417 40.737 45.565 40.2255C44.8062 39.6515 43.977 39.1317 43.1156 38.6629V38.6618C43.1814 35.4814 44.9125 33.0897 46.1551 31.7754C47.5074 32.48 48.8436 33.2941 50.0896 34.2353C51.7434 35.4849 52.0714 37.8383 50.8218 39.4933Z" stroke="black" stroke-width="2" stroke-miterlimit="10" stroke-linecap="round" stroke-linejoin="round"/>
<path d="M19.4754 29.4137C17.7089 30.0051 15.7611 30.7784 13.845 31.7756C15.0877 33.0897 16.8188 35.4814 16.8845 38.6619C17.1677 38.5075 17.4547 38.3593 17.7437 38.2158C19.4948 33.7775 21.5684 30.8641 21.5684 30.8641C20.8315 30.4334 20.1319 29.9483 19.4754 29.4137Z" stroke="black" stroke-width="2" stroke-miterlimit="10" stroke-linecap="round" stroke-linejoin="round"/>
<path d="M9.17827 39.4933C9.9162 40.4691 11.0387 40.9841 12.1763 40.9841C12.9639 40.9841 13.7584 40.737 14.4351 40.2255C15.1939 39.6515 16.0231 39.1317 16.8845 38.6629V38.6618C16.8187 35.4814 15.0876 33.0897 13.845 31.7754C12.4927 32.48 11.1565 33.2941 9.91046 34.2353C8.25671 35.4849 7.9287 37.8383 9.17827 39.4933Z" stroke="black" stroke-width="2" stroke-miterlimit="10" stroke-linecap="round" stroke-linejoin="round"/>
<path d="M21.5684 30.8643C24.035 32.3065 26.9184 33.1361 30 33.1361C33.0817 33.1361 35.9651 32.3065 38.4316 30.8643C38.4316 30.8643 42.8509 37.0726 44.2347 45.1717C44.4311 46.3215 43.8138 47.4587 42.7412 47.917C40.3928 48.9202 35.8384 50.4595 30 50.4595C24.1616 50.4595 19.6072 48.9202 17.2588 47.917C16.1862 47.4587 15.569 46.3215 15.7654 45.1717C17.1491 37.0726 21.5684 30.8643 21.5684 30.8643Z" stroke="black" stroke-width="2" stroke-miterlimit="10" stroke-linecap="round" stroke-linejoin="round"/>
<path d="M41.7413 52.8929L33.8353 54.5801L32.8984 50.3319C36.1215 50.0503 38.8244 49.3438 40.8078 48.6595L41.7413 52.8929Z" stroke="black" stroke-width="2" stroke-miterlimit="10" stroke-linecap="round" stroke-linejoin="round"/>
<path d="M38.9536 59.0264C38.6614 59.0911 38.3681 59.1211 38.0805 59.1211C36.2246 59.1211 34.5525 57.8358 34.1367 55.9487L33.8353 54.5803L41.7414 52.893L42.0313 54.2084C42.5116 56.3888 41.134 58.5459 38.9536 59.0264Z" stroke="black" stroke-width="2" stroke-miterlimit="10" stroke-linecap="round" stroke-linejoin="round"/>
<path d="M26.1649 54.5801L18.2588 52.8929L19.1924 48.6595C21.1758 49.3438 23.8787 50.0503 27.1018 50.3319L26.1649 54.5801Z" stroke="black" stroke-width="2" stroke-miterlimit="10" stroke-linecap="round" stroke-linejoin="round"/>
<path d="M21.0466 59.0264C21.3388 59.0911 21.6321 59.1211 21.9197 59.1211C23.7756 59.1211 25.4477 57.8358 25.8635 55.9487L26.1649 54.5803L18.2589 52.893L17.9689 54.2084C17.4886 56.3888 18.8662 58.5459 21.0466 59.0264Z" stroke="black" stroke-width="2" stroke-miterlimit="10" stroke-linecap="round" stroke-linejoin="round"/>
</g>
</svg>
