<svg width="60" height="60" viewBox="0 0 60 60" fill="none" xmlns="http://www.w3.org/2000/svg">
<g clip-path="url(#clip0_113_9430)">
<path d="M60 29.9999C60 46.5685 46.5686 59.9999 30 59.9999C24.8796 59.9999 20.0589 58.7171 15.8416 56.4555C12.3699 54.5936 10.5731 52.0683 8.08871 49.0491C5.74388 46.1996 2.64859 42.9099 1.47682 39.323C0.518353 36.3884 0 33.2546 0 29.9999C0 24.4612 1.50094 19.2731 4.11835 14.82C9.33059 5.95228 18.9701 2.20228 30 2.20228C33.3001 2.20228 36.4758 0.532868 39.4456 1.51722C51.3862 5.47499 60 16.7316 60 29.9999Z" fill="url(#paint0_linear_113_9430)"/>
<path d="M36.6766 4.22446C33.6571 3.20293 30.422 2.64893 27.0576 2.64893C20.0578 2.64893 14.2143 5.64257 9.11063 9.66093C7.5291 11.2839 5.53415 12.4894 4.35039 14.4361C3.16662 16.3828 2.19827 18.4749 1.47827 20.6796C1.60615 20.8348 1.75004 20.9799 1.91345 21.1089C2.66651 21.7035 3.66686 21.8827 4.57945 21.5865L12.741 18.9366C13.7293 18.6156 14.814 18.8762 15.5487 19.611L17.5093 21.5716C18.3032 22.3655 18.5379 23.5607 18.1033 24.5959C17.4771 26.0875 18.2602 27.7956 19.799 28.2948L22.1578 29.0599C22.5135 29.1752 22.8249 29.3978 23.0492 29.6968C23.6418 30.487 23.4932 31.6061 22.7149 32.2142L21.7612 32.9593C20.8716 33.6543 20.3516 34.7205 20.3516 35.8495V36.6919C20.3516 38.138 21.0634 39.4913 22.2551 40.3106L23.8915 41.4355C24.04 41.5376 24.2065 41.6109 24.3823 41.6515L25.3477 41.8743C27.384 42.3442 28.944 43.983 29.3133 46.04C29.4547 46.8276 29.4132 47.6372 29.1919 48.4062L27.5851 53.992C27.321 54.9101 28.0102 55.8255 28.9656 55.8255C29.3273 55.8255 29.6757 55.689 29.9412 55.4434L36.0971 49.7469C36.9646 48.9442 37.6692 47.9818 38.1725 46.9123L39.547 43.9916C40.0016 43.0256 40.2845 41.9879 40.3832 40.9247L40.9177 35.1638C41.1506 32.653 40.0557 30.2029 38.0297 28.7016C36.7871 27.7809 35.2816 27.2839 33.7351 27.2839H32.6337C30.9944 27.2839 29.6123 26.0622 29.4109 24.4354C29.2655 23.2609 29.7705 22.1003 30.7291 21.4062L31.9464 20.5248C32.3673 20.22 32.8553 20.0207 33.3693 19.9435L36.3556 19.4955C38.4295 19.1845 40.24 17.925 41.2531 16.0888C42.5643 13.7123 42.6309 10.845 41.4317 8.41022C40.4619 6.44151 38.7555 4.92775 36.6766 4.22446Z" fill="url(#paint1_linear_113_9430)"/>
<path d="M30.0001 0C29.2078 0 28.4228 0.0312941 27.646 0.0915294C43.1141 1.29224 55.2919 14.2238 55.2919 30C55.2919 45.7762 43.1141 58.7078 27.646 59.9085C28.4228 59.9687 29.2078 60 30.0001 60C38.6443 60 46.4347 56.344 51.9092 50.4939C51.9092 50.4939 59.7648 37.9242 59.7648 30C59.7648 24.2176 55.5299 14.2367 55.5299 14.2367C50.2429 5.69224 40.7862 0 30.0001 0Z" fill="url(#paint2_linear_113_9430)"/>
<path d="M44.3738 5.76118C43.4042 3.79247 41.6977 2.27882 39.6189 1.57553C36.5994 0.553882 33.3643 0 29.9998 0C19.0024 0 9.38735 5.91753 4.16453 14.7421C3.43206 15.9798 3.72712 17.5687 4.85582 18.46C5.60888 19.0546 6.60924 19.2338 7.52182 18.9375L15.6834 16.2876C16.6717 15.9667 17.7564 16.2273 18.4911 16.9621L20.4517 18.9227C21.2456 19.7166 21.4803 20.9118 21.0457 21.9469C20.4195 23.4386 21.2025 25.1467 22.7414 25.6459L25.1002 26.4109C25.4558 26.5264 25.7672 26.7488 25.9916 27.0479C26.5842 27.8381 26.4356 28.9572 25.6572 29.5653L24.7036 30.3104C23.8139 31.0055 23.2939 32.0716 23.2939 33.2007V34.0431C23.2939 35.4891 24.0058 36.8425 25.1975 37.6618L26.8338 38.7867C26.9824 38.8888 27.1489 38.9621 27.3246 39.0027L28.2901 39.2255C30.3264 39.6954 31.8864 41.3342 32.2557 43.3912C32.3971 44.1788 32.3556 44.9884 32.1343 45.7574L30.5275 51.3432C30.2634 52.2614 30.9525 53.1767 31.9079 53.1767C32.2697 53.1767 32.6181 53.0402 32.8836 52.7946L39.0395 47.0981C39.907 46.2953 40.6116 45.3329 41.1149 44.2634L42.4894 41.3427C42.9439 40.3767 43.2269 39.3389 43.3256 38.2759L43.8601 32.5149C44.093 30.0042 42.9981 27.5541 40.9721 26.0528C39.7295 25.1321 38.2239 24.6351 36.6775 24.6351H35.5761C33.9368 24.6351 32.5546 23.4134 32.3532 21.7866C32.2078 20.6121 32.7129 19.4515 33.6715 18.7574L34.8888 17.876C35.3097 17.5712 35.7977 17.3719 36.3117 17.2947L39.2979 16.8467C41.3718 16.5356 43.1824 15.2762 44.1955 13.44C45.5064 11.0633 45.5731 8.196 44.3738 5.76118Z" fill="url(#paint3_linear_113_9430)"/>
<path d="M12.1672 44.6294C10.1271 43.6166 8.5212 41.9011 7.64485 39.7988L6.69273 37.5147C6.30356 36.581 5.4352 35.9347 4.4292 35.8297C2.43273 35.6215 0.888025 37.5443 1.51979 39.4496C3.95438 46.7909 9.14814 52.8735 15.8721 56.4698L16.3071 52.114C16.6178 49.001 14.9693 46.0206 12.1672 44.6294Z" fill="url(#paint4_linear_113_9430)"/>
<path d="M55.5281 14.2378L55.3402 14.59C53.7574 17.5579 54.1922 21.1978 56.4296 23.7092C57.7442 25.1847 58.4705 27.0919 58.4705 29.068C58.4705 31.3809 57.4765 33.582 55.7415 35.1113L53.3949 37.1798C51.8698 38.524 50.9962 40.4589 50.9962 42.4917V43.1056C50.9962 44.3094 50.6892 45.4934 50.1044 46.5457L49.0591 48.4262C48.7957 48.9 48.7637 49.4684 48.9724 49.9689C49.4687 51.1593 51.0263 51.4344 51.9077 50.4926C56.9264 45.13 60 37.9244 60 30C60 24.2176 58.3624 18.8184 55.5281 14.2378Z" fill="url(#paint5_linear_113_9430)"/>
<path d="M55.5282 14.2378L55.3403 14.59C53.7575 17.5579 54.1923 21.1978 56.4297 23.7092C57.7443 25.1847 58.4707 27.0919 58.4707 29.068C58.4707 31.3809 57.4767 33.582 55.7416 35.1113L54.68 36.0471C53.7782 40.4526 51.9112 44.5059 49.3088 47.9769L49.0591 48.4262C48.7957 48.9 48.7637 49.4684 48.9724 49.9689C49.4687 51.1593 51.0263 51.4344 51.9077 50.4926C56.9265 45.13 60.0001 37.9244 60.0001 30C60.0001 24.2176 58.3625 18.8184 55.5282 14.2378Z" fill="url(#paint6_linear_113_9430)"/>
<path d="M33.6716 18.7572L34.8889 17.8758C35.3098 17.5709 35.7978 17.3716 36.3118 17.2945L39.298 16.8465C41.3719 16.5354 43.1825 15.276 44.1956 13.4398C45.5068 11.0633 45.5733 8.196 44.3742 5.76118C43.4045 3.79247 41.698 2.27882 39.6192 1.57553C36.5996 0.553882 33.3645 0 30 0C29.2073 0 28.4222 0.0317647 27.645 0.0921177C30.1672 0.287882 32.6022 0.794471 34.9109 1.57553C36.9897 2.27882 38.6962 3.79247 39.6658 5.76118C40.8651 8.196 40.7984 11.0633 39.4872 13.4398C38.4742 15.276 36.6636 16.5354 34.5897 16.8465L31.6035 17.2945C31.0895 17.3715 30.6015 17.5709 30.1805 17.8758L28.9632 18.7572C28.0048 19.4513 27.4997 20.6119 27.645 21.7864C27.8464 23.4132 29.2285 24.6348 30.8678 24.6348H31.9692C33.5157 24.6348 35.0213 25.1319 36.2638 26.0526C38.2897 27.5538 39.3848 30.0039 39.1518 32.5147L38.6173 38.2756C38.5188 39.3387 38.2357 40.3765 37.7811 41.3425L36.4066 44.2632C35.9033 45.3326 35.1988 46.2951 34.3312 47.0979L30.8118 50.3546L30.5275 51.3428C30.2633 52.2611 30.9525 53.1764 31.9079 53.1764C32.2697 53.1764 32.618 53.0399 32.8836 52.7942L39.0395 47.0978C39.907 46.2949 40.6116 45.3326 41.1149 44.2631L42.4893 41.3424C42.9439 40.3764 43.2269 39.3386 43.3256 38.2755L43.86 32.5146C44.093 30.0039 42.998 27.5538 40.972 26.0525C39.7295 25.1318 38.2239 24.6347 36.6775 24.6347H35.576C33.9368 24.6347 32.5546 23.4131 32.3532 21.7862C32.2079 20.6118 32.713 19.4513 33.6716 18.7572Z" fill="url(#paint7_linear_113_9430)"/>
<path d="M12.1672 44.6293C10.1271 43.6165 8.52122 41.9011 7.64486 39.7987L6.69275 37.5146C6.30357 36.581 5.43522 35.9346 4.42922 35.8297C3.77345 35.7612 3.1671 35.9239 2.66992 36.2392C3.14475 36.5378 3.52686 36.9784 3.75027 37.5146L4.70239 39.7987C5.57875 41.9011 7.18463 43.6164 9.22475 44.6293C12.0269 46.0205 13.6753 49.0009 13.3645 52.1139L13.0979 54.7844C13.9897 55.3937 14.9147 55.9578 15.8722 56.4698L16.3071 52.1139C16.6178 49.001 14.9693 46.0205 12.1672 44.6293Z" fill="url(#paint8_linear_113_9430)"/>
</g>
<defs>
<linearGradient id="paint0_linear_113_9430" x1="-0.971765" y1="30.6032" x2="72.6134" y2="30.6032" gradientUnits="userSpaceOnUse">
<stop stop-color="#60B7FF"/>
<stop offset="0.5857" stop-color="#0182FC"/>
<stop offset="1" stop-color="#2740B0"/>
</linearGradient>
<linearGradient id="paint1_linear_113_9430" x1="-14.3529" y1="29.2372" x2="64.3905" y2="29.2372" gradientUnits="userSpaceOnUse">
<stop stop-color="#60B7FF"/>
<stop offset="0.5857" stop-color="#0182FC"/>
<stop offset="1" stop-color="#2740B0"/>
</linearGradient>
<linearGradient id="paint2_linear_113_9430" x1="-4.23695" y1="30" x2="60.7814" y2="30" gradientUnits="userSpaceOnUse">
<stop stop-color="#60B7FF"/>
<stop offset="0.5857" stop-color="#0182FC"/>
<stop offset="1" stop-color="#2740B0"/>
</linearGradient>
<linearGradient id="paint3_linear_113_9430" x1="0.823353" y1="26.5882" x2="62.4795" y2="26.5882" gradientUnits="userSpaceOnUse">
<stop stop-color="#A2E62E"/>
<stop offset="0.5857" stop-color="#81B823"/>
<stop offset="1" stop-color="#037E73"/>
</linearGradient>
<linearGradient id="paint4_linear_113_9430" x1="0.823437" y1="46.1421" x2="62.4796" y2="46.1421" gradientUnits="userSpaceOnUse">
<stop stop-color="#A2E62E"/>
<stop offset="0.5857" stop-color="#81B823"/>
<stop offset="1" stop-color="#037E73"/>
</linearGradient>
<linearGradient id="paint5_linear_113_9430" x1="0.823475" y1="32.6479" x2="62.4796" y2="32.6479" gradientUnits="userSpaceOnUse">
<stop stop-color="#A2E62E"/>
<stop offset="0.5857" stop-color="#81B823"/>
<stop offset="1" stop-color="#037E73"/>
</linearGradient>
<linearGradient id="paint6_linear_113_9430" x1="20.706" y1="32.6479" x2="47.6097" y2="32.6479" gradientUnits="userSpaceOnUse">
<stop stop-color="#A2E62E"/>
<stop offset="0.5857" stop-color="#81B823"/>
<stop offset="1" stop-color="#037E73"/>
</linearGradient>
<linearGradient id="paint7_linear_113_9430" x1="-0.925836" y1="26.5882" x2="54.6653" y2="26.5882" gradientUnits="userSpaceOnUse">
<stop stop-color="#A2E62E"/>
<stop offset="0.5857" stop-color="#81B823"/>
<stop offset="1" stop-color="#037E73"/>
</linearGradient>
<linearGradient id="paint8_linear_113_9430" x1="-4.63161" y1="46.142" x2="36.1555" y2="46.142" gradientUnits="userSpaceOnUse">
<stop stop-color="#A2E62E"/>
<stop offset="0.5857" stop-color="#81B823"/>
<stop offset="1" stop-color="#037E73"/>
</linearGradient>
<clipPath id="clip0_113_9430">
<rect width="60" height="60" fill="white"/>
</clipPath>
</defs>
</svg>
