<svg width="60" height="60" viewBox="0 0 60 60" fill="none" xmlns="http://www.w3.org/2000/svg">
<path d="M57.1875 30V35.7844C57.1875 36.5602 56.9468 37.3169 56.4987 37.9502C56.0506 38.5836 55.4171 39.0623 54.6855 39.3205L41.25 44.0625V39.9773L52.1931 36.0694C52.5573 35.9393 52.8724 35.6998 53.0951 35.3837C53.3179 35.0676 53.4375 34.6903 53.4375 34.3036V31.875C53.4375 31.3777 53.24 30.9008 52.8883 30.5492C52.5367 30.1975 52.0598 30 51.5625 30H41.25V26.25H53.4375C54.4321 26.25 55.3859 26.6451 56.0891 27.3484C56.7924 28.0516 57.1875 29.0054 57.1875 30Z" fill="#D9DBDD"/>
<path d="M36.3364 50.625H17.8125C4.83398 41.25 7.5 21.5625 7.5 21.5625H46.6489C46.6489 21.5625 49.315 41.25 36.3364 50.625Z" fill="#E0E2E5"/>
<path d="M46.759 29.0625C46.2856 35.6344 44.1352 44.9918 36.3364 50.625H17.8125C10.0137 44.9918 7.86333 35.6344 7.38989 29.0625H46.759Z" fill="#F4AE40"/>
<path d="M56.25 49.6875C56.25 49.6875 56.25 57.1875 47.8125 57.1875H12.1875C3.75 57.1875 3.75 49.6875 3.75 49.6875H56.25Z" fill="#D9DBDD"/>
<path d="M36.5625 36.5625V45.9375H29.0625V36.5625L32.8125 32.8125L36.5625 36.5625Z" fill="#E07E30"/>
<path d="M53.4375 25.3125H47.8117C47.8069 24.0172 47.729 22.7232 47.5781 21.4368C47.5477 21.2119 47.4368 21.0058 47.2659 20.8565C47.095 20.7072 46.8758 20.625 46.6489 20.625H7.72605C7.49917 20.625 7.27997 20.7072 7.1091 20.8565C6.93824 21.0058 6.82731 21.2119 6.79688 21.4368C6.77074 21.6301 6.16488 26.2429 6.99961 32.1243C7.4918 35.5917 8.38676 38.7773 9.65977 41.593C10.8338 44.2369 12.4555 46.6581 14.4536 48.75H3.75C3.50136 48.75 3.2629 48.8488 3.08709 49.0246C2.91127 49.2004 2.8125 49.4389 2.8125 49.6875C2.86887 51.1634 3.27138 52.6054 3.98754 53.8971C5.07246 55.8259 7.37578 58.125 12.1875 58.125H47.8125C52.6242 58.125 54.9275 55.8259 56.0125 53.8971C56.7286 52.6054 57.1311 51.1634 57.1875 49.6875C57.1875 49.4389 57.0887 49.2004 56.9129 49.0246C56.7371 48.8488 56.4986 48.75 56.25 48.75H39.9213C41.2064 47.4137 42.3335 45.934 43.2803 44.3401L54.9976 40.2046C55.9115 39.8809 56.7028 39.2822 57.2628 38.4907C57.8228 37.6992 58.124 36.7538 58.125 35.7843V30C58.1236 28.7572 57.6293 27.5658 56.7505 26.687C55.8717 25.8082 54.6803 25.3139 53.4375 25.3125ZM47.3753 32.1245C47.4323 31.7223 47.4827 31.3266 47.5263 30.9375H51.5625C51.8111 30.9378 52.0494 31.0366 52.2251 31.2124C52.4009 31.3881 52.4997 31.6264 52.5 31.875V34.3037C52.4997 34.497 52.4398 34.6855 52.3284 34.8435C52.2171 35.0015 52.0597 35.1212 51.8777 35.1865L46.318 37.1719C46.7835 35.5151 47.1367 33.8288 47.3753 32.1245ZM33.75 22.5H45.803C45.953 24.3713 45.9778 26.2504 45.8771 28.125H33.75V22.5ZM8.57262 22.5H31.875V28.125H8.49867C8.39869 26.2504 8.42339 24.3713 8.57262 22.5ZM32.8125 34.1382L35.625 36.9507V45H30V36.9507L32.8125 34.1382ZM55.2063 50.625C55.0619 51.4496 54.7821 52.2446 54.3782 52.9779C53.1568 55.149 50.9479 56.25 47.8125 56.25H12.1875C9.08203 56.25 6.88441 55.1692 5.65594 53.0378C5.23314 52.2885 4.9413 51.4725 4.79297 50.625H55.2063ZM43.0065 40.8205C41.5697 43.998 39.6146 46.6629 37.1953 48.75H17.1797C14.7669 46.6686 12.8159 44.0125 11.3802 40.8466C10.1803 38.2002 9.3334 35.1936 8.86324 31.9107C8.76949 31.2573 8.69508 30.6187 8.63602 30H31.875V32.4241L28.3996 35.8996C28.3125 35.9866 28.2435 36.09 28.1964 36.2037C28.1492 36.3175 28.125 36.4394 28.125 36.5625V45.9375C28.125 46.1861 28.2238 46.4246 28.3996 46.6004C28.5754 46.7762 28.8139 46.875 29.0625 46.875H36.5625C36.8111 46.875 37.0496 46.7762 37.2254 46.6004C37.4012 46.4246 37.5 46.1861 37.5 45.9375V36.5625C37.5 36.4394 37.4758 36.3175 37.4286 36.2037C37.3815 36.09 37.3125 35.9866 37.2254 35.8996L33.75 32.4241V30H45.7391C45.6814 30.6028 45.6093 31.2246 45.5189 31.8611C45.0516 35.1526 44.2064 38.1669 43.0065 40.8205ZM56.25 35.7843C56.2494 36.366 56.0687 36.9332 55.7327 37.4081C55.3967 37.883 54.9219 38.2422 54.3736 38.4364L44.5736 41.8952C44.6204 41.7945 44.6688 41.6948 44.7149 41.593C45.0321 40.8915 45.3257 40.1675 45.5957 39.4209L52.5082 36.9523C53.0541 36.7565 53.5262 36.3972 53.8603 35.9232C54.1944 35.4492 54.3741 34.8837 54.375 34.3038V31.875C54.3741 31.1293 54.0775 30.4145 53.5503 29.8872C53.023 29.36 52.3082 29.0634 51.5625 29.0625H47.6993C47.7462 28.4074 47.7762 27.7807 47.7939 27.1875H53.4375C54.1832 27.1884 54.898 27.485 55.4253 28.0122C55.9525 28.5395 56.2491 29.2543 56.25 30V35.7843Z" fill="black"/>
<path d="M28.379 3.55948C28.5744 3.40871 28.7026 3.18691 28.7355 2.94224C28.7684 2.69757 28.7035 2.44979 28.5549 2.25268C28.4063 2.05556 28.1859 1.92504 27.9416 1.88944C27.6973 1.85384 27.4488 1.91604 27.2501 2.06253C26.4725 2.69751 25.8517 3.50306 25.4357 4.41671C24.8081 5.79741 24.409 8.02456 26.0712 10.7949C28.4465 14.7537 26.2986 17.0596 26.2118 17.1496C26.1239 17.2365 26.054 17.3398 26.0062 17.4538C25.9583 17.5678 25.9335 17.6901 25.9332 17.8137C25.9328 17.9373 25.9568 18.0597 26.004 18.174C26.0511 18.2882 26.1203 18.392 26.2077 18.4794C26.2951 18.5668 26.3989 18.6361 26.5132 18.6832C26.6274 18.7303 26.7499 18.7544 26.8735 18.754C26.997 18.7537 27.1193 18.7289 27.2333 18.6811C27.3473 18.6333 27.4507 18.5634 27.5375 18.4755C27.6736 18.3394 30.8315 15.085 27.6782 9.83019C26.6958 8.19273 26.5055 6.65441 27.1125 5.25859C27.4002 4.60342 27.8333 4.02237 28.379 3.55948Z" fill="black"/>
<path d="M16.6004 5.8996C16.5134 5.81254 16.41 5.74348 16.2963 5.69637C16.1825 5.64925 16.0606 5.625 15.9375 5.625C15.8144 5.625 15.6925 5.64925 15.5787 5.69637C15.465 5.74348 15.3616 5.81254 15.2746 5.8996C14.7001 6.50757 14.2631 7.23206 13.9935 8.02386C13.589 9.23687 13.4831 11.059 15.2746 12.8505C17.3415 14.9174 15.4891 16.9303 15.2746 17.1496C15.0987 17.3254 15 17.5639 15 17.8125C15 18.0612 15.0987 18.2996 15.2746 18.4755C15.4504 18.6513 15.6888 18.7501 15.9375 18.7501C16.1861 18.7501 16.4246 18.6513 16.6004 18.4755C17.1749 17.8675 17.6118 17.143 17.8815 16.3512C18.2859 15.1382 18.3919 13.3161 16.6004 11.5246C14.5336 9.45777 16.3856 7.44496 16.6038 7.22206C16.7782 7.04594 16.8757 6.80795 16.875 6.56013C16.8744 6.31232 16.7757 6.07483 16.6004 5.8996Z" fill="black"/>
<path d="M39.1004 5.8996C39.0134 5.81254 38.91 5.74348 38.7963 5.69637C38.6825 5.64925 38.5606 5.625 38.4375 5.625C38.3144 5.625 38.1925 5.64925 38.0787 5.69637C37.965 5.74348 37.8616 5.81254 37.7746 5.8996C37.2001 6.50761 36.7632 7.23209 36.4934 8.02386C36.0891 9.23687 35.9831 11.059 37.7746 12.8505C39.8414 14.9174 37.9892 16.9303 37.7746 17.1496C37.5988 17.3254 37.5 17.5639 37.5 17.8125C37.5 18.0612 37.5988 18.2996 37.7746 18.4755C37.9504 18.6513 38.1889 18.7501 38.4375 18.7501C38.6862 18.7501 38.9246 18.6513 39.1004 18.4755C39.6749 17.8675 40.1119 17.143 40.3817 16.3512C40.786 15.1382 40.8919 13.3161 39.1004 11.5246C37.0337 9.45777 38.8855 7.44496 39.1038 7.22206C39.2782 7.04594 39.3757 6.80795 39.3751 6.56013C39.3744 6.31232 39.2757 6.07483 39.1004 5.8996Z" fill="black"/>
</svg>
