<svg width="58" height="58" viewBox="0 0 58 58" fill="none" xmlns="http://www.w3.org/2000/svg">
<g clip-path="url(#clip0_53_14089)">
<path d="M41.6422 0.566406L37.2695 2.2543L18.5328 19.2465L20.2207 20.9344C23.823 17.5133 29.9742 12.5969 35.2644 12.9141L45.0859 22.7355C45.4031 28.0371 40.4867 34.1883 37.0656 37.7793L38.7535 39.4672L55.7457 20.7305L57.4336 16.3578L41.6422 0.566406Z" fill="#FFC96F"/>
<path d="M14.8058 16.3464C16.1539 15.8366 16.7656 14.7944 16.7656 14.7944C16.7656 14.7944 21.7047 15.3608 24.8199 17.0487C28.0371 14.6925 31.832 12.6987 35.2531 12.914C38.6742 13.1292 26.2359 5.78857 16.675 8.36005C16.675 8.36005 16.4937 8.30341 16.1992 8.24677C14.568 8.65458 13.0273 9.85536 13.0273 12.9366C13.0273 14.6132 12.5969 15.712 14.8058 16.3464Z" fill="#9CD3FC"/>
<path d="M33.905 40.8492C30.2914 54.896 21.1722 51.7355 19.3371 52.2566C18.1476 52.5964 16.8109 55.4625 15.0777 56.7765C11.9398 54.4316 13.2652 49.5718 15.0437 47.4648C16.8675 45.3011 28.0144 45.6749 27.6632 33.7351C26.4058 33.7011 25.273 33.7917 24.2648 33.9843C24.2648 33.905 24.2648 33.8144 24.2648 33.7351C12.325 33.3953 12.6988 44.5308 10.5351 46.3546C9.70816 47.057 8.45074 47.6914 7.08004 47.9972C6.0605 47.7027 5.1316 47.1023 4.45191 46.0714C2.17496 42.6277 8.62066 40.4753 9.14175 38.6515C9.66285 36.8164 6.5023 27.7085 20.5492 24.0835C20.5492 24.0835 28.2636 15.123 35.6043 13.2312L45.0859 22.7128C45.573 30.8011 33.905 40.8492 33.905 40.8492Z" fill="#9CD3FC"/>
<path d="M52.4265 19.1785C49.6058 21.9992 45.0859 22.7356 45.0859 22.7356L35.2644 12.9141C35.2644 12.9141 36.0007 8.40548 38.8214 5.57345C43.0128 1.38204 49.2886 1.61993 52.8343 5.15431C56.38 8.68868 56.6066 14.9871 52.4265 19.1785Z" fill="#9CD3FC"/>
<path d="M49.6964 18.8047C47.714 20.7871 44.4402 18.2496 42.0952 15.9047C39.7503 13.5598 37.2015 10.2973 39.1952 8.30355C42.4238 5.07503 46.8757 5.7887 49.5491 8.45081C52.2113 11.1242 52.9249 15.5762 49.6964 18.8047Z" fill="#3279AF"/>
<path d="M33.5765 16.2332L35.2644 12.9141L36.7711 14.4207L35.423 18.091" fill="#3279AF"/>
<path d="M23.2 26.5532C20.991 26.5419 16.4484 26.3946 13.4351 25.3298C11.8832 24.786 10.739 24.0044 10.5125 22.8942C9.68552 18.8388 22.0332 19.1559 22.1804 19.1559C21.3082 19.9036 20.5152 20.6399 19.8355 21.297C19.8355 21.297 14.3527 20.9231 14.3074 22.7696C14.2847 23.438 15.5648 23.8458 17.2074 24.061C19.2238 24.3329 21.8066 24.3556 23.2 24.3556H23.2113C23.7777 24.3556 24.2535 24.752 24.3215 25.3071C24.4121 25.9868 23.8797 26.5645 23.2 26.5532Z" fill="#3279AF"/>
<path d="M30.4613 10.0708C28.275 10.9543 27.7878 12.7442 27.7878 12.7442L25.205 11.8719C24.9671 9.94614 27.1535 8.83599 27.2214 8.802C28.3996 9.18716 29.4871 9.61763 30.4613 10.0708Z" fill="#DB3529"/>
<path d="M45.0859 22.7356C45.0859 22.7356 52.2113 31.7528 49.6398 41.3137C49.6398 41.3137 51.6562 48.3825 45.0632 48.3825C43.1941 48.3825 42.0499 48.9149 41.4609 45.777C40.8718 42.6391 43.2054 41.2458 43.2054 41.2458C43.2054 41.2458 42.639 36.3067 40.9511 33.1915" fill="#9CD3FC"/>
<path d="M41.7668 24.4235L45.0859 22.7356L43.5793 21.229L39.9089 22.5771" fill="#3279AF"/>
<path d="M35.1058 47.4988C33.9843 47.2723 33.214 46.1281 32.6703 44.5762C31.6168 41.5516 31.4582 37.009 31.4468 34.8C31.4468 34.1203 32.0246 33.5879 32.6929 33.6785C33.2593 33.7578 33.6445 34.2336 33.6445 34.8V34.8113C33.6445 36.2047 33.6672 38.7762 33.939 40.8039C34.1543 42.4465 34.5507 43.7153 35.2191 43.7039C37.0316 43.6586 36.7144 38.4137 36.7031 38.1871L36.7144 38.1758C37.3714 37.4961 38.0625 36.7145 38.8554 35.8422C38.8554 36.3746 39.0933 48.3031 35.1058 47.4988Z" fill="#3279AF"/>
<path d="M49.1867 30.7784C49.1527 30.8464 48.0539 33.044 46.1168 32.7948L45.2445 30.212C45.2445 30.212 47.0344 29.7249 47.9179 27.5386C48.3824 28.5128 48.8129 29.6003 49.1867 30.7784Z" fill="#3279AF"/>
<path d="M34.3608 19.1479L39.1662 23.9533L37.5644 25.5551L32.759 20.7497L34.3608 19.1479Z" fill="#DB3529"/>
<path d="M47.9746 20.0849C47.3629 20.0849 46.6265 19.915 45.7656 19.4845C44.5648 18.8841 43.1941 17.8193 41.6875 16.3013C40.1808 14.7947 39.1047 13.4126 38.5043 12.2232C37.3828 10.0029 38.0398 8.6435 38.7875 7.90717C42.3558 4.33881 47.2043 5.31303 49.9344 8.05444C52.6758 10.7958 53.6613 15.633 50.0816 19.2013C49.6398 19.6658 48.9488 20.0849 47.9746 20.0849ZM44.157 6.74037C42.5937 6.74037 40.9738 7.31811 39.5918 8.71147C37.9832 10.3201 40.2828 13.2994 42.4918 15.5083C43.9191 16.9357 45.1879 17.9326 46.2754 18.4763C48.2351 19.4619 49.0281 18.6689 49.2887 18.4083C52.3359 15.3611 51.4863 11.215 49.1414 8.85873C47.8613 7.57866 46.0375 6.74037 44.157 6.74037Z" fill="#101F3C"/>
<path d="M47.7254 10.2748C46.2754 8.82476 44.2703 8.33765 42.7523 9.07398L42.2539 8.05445C44.2137 7.10289 46.7285 7.68062 48.5297 9.47047L47.7254 10.2748Z" fill="#101F3C"/>
<path d="M45.0859 23.302C44.9386 23.302 44.7914 23.2454 44.6894 23.1321L34.8679 13.3106C34.7433 13.186 34.6754 12.9934 34.7093 12.8235C34.7433 12.6309 35.5023 8.09968 38.425 5.17702C40.5093 3.09265 43.2281 1.92585 46.0715 1.90319C48.7902 1.88054 51.407 2.92273 53.2422 4.75788C55.0773 6.59304 56.1195 9.20983 56.0968 11.9286C56.0742 14.7719 54.9074 17.4907 52.823 19.5751C49.9004 22.4977 45.3691 23.2567 45.1765 23.2907C45.1425 23.302 45.1199 23.302 45.0859 23.302ZM35.8761 12.7216L45.2672 22.1126C46.2754 21.8973 49.7531 21.0364 52.0187 18.7708C55.7797 15.0098 55.9609 9.08522 52.4379 5.56218C48.9148 2.03913 42.9789 2.22038 39.2293 5.98132C36.9636 8.24694 36.0914 11.7247 35.8761 12.7216Z" fill="#101F3C"/>
<path d="M24.5594 17.5472C22.0219 16.1765 18.1703 15.5648 17.0375 15.4062C16.4937 16.0972 14.9191 17.6265 12.1324 17.0941C10.6937 16.8222 9.85546 16.4144 9.41366 15.7574C8.98319 15.123 9.01718 14.3867 9.05116 13.6164C9.06249 13.4011 9.07382 13.1746 9.07382 12.9367C9.07382 10.9203 9.69686 9.4363 10.909 8.51872C12.948 6.9781 15.9726 7.58981 16.6976 7.77106C21.7387 6.46833 26.5871 7.80505 29.7816 9.1531C33.2594 10.6258 35.525 12.3929 35.6156 12.4722L34.9133 13.3558C34.8793 13.3332 32.6476 11.5886 29.3059 10.184C26.2473 8.89255 21.6027 7.6238 16.8336 8.90388C16.7316 8.92653 16.6297 8.92653 16.5277 8.90388C16.4937 8.89255 13.4012 8.04294 11.566 9.42497C10.6484 10.116 10.184 11.3054 10.184 12.9367C10.184 13.1972 10.1726 13.4351 10.1613 13.6617C10.1047 15.0437 10.082 15.5648 12.325 15.984C15.0437 16.4937 16.2558 14.534 16.2672 14.5113C16.3805 14.3187 16.5957 14.2168 16.8223 14.2394C17.0262 14.2621 21.8973 14.8398 25.0805 16.5504L24.5594 17.5472Z" fill="#101F3C"/>
<path d="M35.9554 18.2837L34.8906 17.8872L36.114 14.568L35.4117 13.8657L34.075 16.4938L33.0668 15.9841L34.766 12.6649C34.8453 12.5063 35.0039 12.393 35.1851 12.3591C35.3664 12.3251 35.5476 12.393 35.6722 12.5177L37.1789 14.0243C37.3375 14.1829 37.3828 14.4095 37.3148 14.6247L35.9554 18.2837Z" fill="#101F3C"/>
<path d="M23.9363 28.6262C23.1094 28.6262 22.2824 28.309 21.6594 27.6859C21.3988 27.4254 21.1949 27.1309 21.0363 26.8023L22.0559 26.3152C22.1578 26.5305 22.2938 26.7117 22.4637 26.8816C23.2793 27.6973 24.6047 27.6973 25.409 26.8816C26.2246 26.066 26.2246 24.7406 25.409 23.9363C24.5934 23.1207 23.268 23.1207 22.4637 23.9363C22.2598 24.1402 22.1125 24.3668 22.0105 24.6273L20.957 24.1969C21.1156 23.8004 21.3535 23.4379 21.6594 23.132C22.9168 21.8746 24.9559 21.8746 26.2133 23.132C27.4707 24.3895 27.4707 26.4285 26.2133 27.6859C25.5789 28.309 24.752 28.6262 23.9363 28.6262Z" fill="#101F3C"/>
<path d="M23.2 27.1197C18.5555 27.097 10.6598 26.542 9.94608 23.0076C9.79881 22.2826 9.98006 21.6029 10.4558 21.0365C11.4301 19.881 13.7183 19.122 17.264 18.7709C19.8242 18.5216 22.0898 18.5783 22.1918 18.5783L22.1578 19.7111C19.6769 19.6431 12.9027 19.881 11.3168 21.7615C11.0562 22.0673 10.9769 22.3959 11.0562 22.781C11.532 25.1146 17.6379 25.9642 23.2 25.9869C23.3586 25.9869 23.5172 25.9189 23.6191 25.7943C23.7324 25.6697 23.7777 25.5111 23.7551 25.3525C23.7211 25.0693 23.4719 24.8654 23.1887 24.8654C21.9312 24.8767 20.0734 24.8654 18.3402 24.7295C15.2703 24.4802 14.4433 23.9591 14.0808 23.5966C13.7863 23.2908 13.7297 22.9736 13.7297 22.7697C13.741 22.3619 13.9223 21.9881 14.2394 21.6935C15.5648 20.4814 19.4277 20.708 19.8582 20.742L19.7789 21.8748C18.3176 21.7728 15.7348 21.8634 14.9984 22.5318C14.8851 22.6338 14.8625 22.7131 14.8625 22.781C14.9191 22.849 15.3723 23.3248 18.159 23.5853C20.0055 23.7552 22.0898 23.7552 23.1773 23.7439H23.2C24.0496 23.7439 24.7633 24.3783 24.8765 25.2166C24.9445 25.7037 24.7973 26.1908 24.4687 26.5533C24.1515 26.9158 23.6871 27.1197 23.2 27.1197Z" fill="#101F3C"/>
<path d="M17.9777 35.3326C10.7844 31.4018 10.9203 26.4627 10.9316 26.2588L12.0645 26.3041C12.0645 26.3154 12.0305 27.4256 12.8008 28.9549C13.5145 30.3822 15.0891 32.4666 18.5215 34.3357L17.9777 35.3326Z" fill="#101F3C"/>
<path d="M11.7473 41.5404C9.95743 41.5404 8.33751 40.6568 7.00079 38.9349C5.80001 37.383 5.26759 35.7064 5.24493 35.6384L6.32111 35.2986C6.32111 35.3099 6.83087 36.8732 7.90704 38.2666C9.28907 40.0337 10.9317 40.7134 12.8121 40.283L13.0613 41.3818C12.6195 41.4951 12.1777 41.5404 11.7473 41.5404Z" fill="#101F3C"/>
<path d="M16.3351 15.1685C16.2332 15.0552 13.9675 12.2685 16.1879 8.08838L17.1847 8.6208C15.3269 12.0985 17.1168 14.3415 17.1961 14.4321L16.3351 15.1685Z" fill="#101F3C"/>
<path d="M27.7879 13.3106C27.7312 13.3106 27.6633 13.2993 27.6066 13.2766L25.0238 12.4043C24.8199 12.3364 24.6726 12.1551 24.6387 11.9399C24.3441 9.6063 26.859 8.34888 26.9722 8.29224L27.4707 9.31177C27.448 9.3231 25.8508 10.1387 25.7488 11.4528L27.4594 12.0305C27.7992 11.3508 28.5808 10.2067 30.2461 9.53833L30.6765 10.5918C28.7621 11.3622 28.343 12.8688 28.3316 12.8915C28.2863 13.0387 28.1844 13.1747 28.0484 13.2426C27.9691 13.2879 27.8785 13.3106 27.7879 13.3106Z" fill="#101F3C"/>
<path d="M34.2676 41.2799L33.5312 40.4189C33.6445 40.317 44.984 30.4615 44.5195 22.7584L45.6523 22.6904C45.8676 26.1795 43.9984 30.3822 40.1242 35.1627C37.2582 38.6971 34.3922 41.1779 34.2676 41.2799Z" fill="#101F3C"/>
<path d="M17.5812 24.4689L16.7203 23.7326C17.0601 23.3361 25.1144 14.0697 32.7382 12.5518L32.9648 13.6619C25.7148 15.1006 17.6605 24.3783 17.5812 24.4689Z" fill="#101F3C"/>
<path d="M13.3785 58.0001C12.7894 58.0001 12.2004 57.8075 11.6113 57.4224C10.3199 56.5728 9.51561 55.2813 9.28905 53.6954C8.92655 51.1692 10.0254 48.5071 11.2148 47.1024C11.7926 46.4228 12.9594 46.0036 14.4433 45.4825C18.1476 44.1798 23.6984 42.2313 23.7097 34.2903C15.7687 34.3017 13.8203 39.8524 12.5176 43.5567C11.9965 45.0407 11.5887 46.2075 10.8976 46.7853C9.49295 47.9634 6.84217 49.0735 4.30467 48.711C2.70741 48.4845 1.416 47.6802 0.577718 46.3888C-0.215251 45.188 -0.192594 43.9646 0.645687 42.7524C1.30272 41.7896 2.39022 40.9739 3.35311 40.2489C4.15741 39.6372 5.07498 38.9462 5.19959 38.4931C5.26756 38.2665 5.24491 37.7454 5.23358 37.179C5.14295 34.3017 4.95037 28.3091 13.2086 24.7974L13.6504 25.8396C6.09452 29.0567 6.26444 34.3243 6.35506 37.1563C6.37772 37.8927 6.40037 38.4251 6.28709 38.8216C6.0492 39.6372 5.1203 40.3396 4.0328 41.1665C1.8578 42.7978 0.419124 44.0892 1.52928 45.7657C2.20897 46.7853 3.19451 47.4083 4.47459 47.5896C6.55897 47.8954 8.91522 46.9778 10.1726 45.9243C10.6258 45.5505 10.9996 44.4517 11.4527 43.1829C12.8008 39.3313 15.0664 32.897 24.2875 33.1688C24.582 33.1802 24.8312 33.4181 24.8426 33.7239C25.1144 42.945 18.6687 45.2106 14.8285 46.5587C13.5597 47.0005 12.4722 47.3856 12.0871 47.8388C11.0336 49.0849 10.116 51.4524 10.4219 53.5368C10.6031 54.8169 11.2262 55.8138 12.2457 56.4821C13.9336 57.5923 15.225 56.1423 16.8562 53.9786C17.6719 52.8911 18.3855 51.9509 19.2012 51.7243C19.5976 51.611 20.1301 51.6337 20.8664 51.6563C23.6984 51.747 28.9547 51.9169 32.1605 44.361L33.2027 44.8028C29.691 53.061 23.7097 52.8798 20.8211 52.7778C20.266 52.7552 19.7336 52.7438 19.507 52.8118C19.0539 52.9364 18.3629 53.854 17.7512 54.6583C17.0262 55.6099 16.2105 56.6974 15.2476 57.3657C14.6246 57.7849 14.0015 58.0001 13.3785 58.0001Z" fill="#101F3C"/>
<path d="M43.7945 48.9715C43.2394 48.9715 42.707 48.9035 42.2425 48.5863C41.5855 48.1445 41.1777 47.3062 40.9058 45.8676C40.3847 43.0809 41.914 41.5176 42.5937 40.9625C42.4351 39.8297 41.8121 35.9668 40.4527 33.4406L41.4496 32.9082C43.1601 36.0914 43.7379 40.9625 43.7605 41.1664C43.7832 41.393 43.6812 41.6082 43.4886 41.7215C43.4093 41.7668 41.5062 42.9789 42.016 45.6637C42.4351 47.9066 42.9562 47.884 44.3382 47.8273C44.5648 47.816 44.8027 47.8047 45.0632 47.8047C46.7058 47.8047 47.8839 47.3402 48.5863 46.4113C49.9683 44.5762 49.1187 41.4836 49.1074 41.4609C49.0847 41.359 49.0734 41.257 49.1074 41.1551C50.3875 36.3859 49.1187 31.7414 47.8273 28.6828C46.4113 25.341 44.6668 23.098 44.6554 23.0754L45.5504 22.373C45.6297 22.4637 47.3968 24.7293 48.8695 28.207C50.2175 31.4016 51.5543 36.2613 50.2515 41.291C50.4328 42.016 51.0445 45.0406 49.5039 47.0797C48.5863 48.3031 47.091 48.9148 45.0859 48.9148C44.848 48.9148 44.6214 48.9262 44.4062 48.9375C44.1797 48.9602 43.9871 48.9715 43.7945 48.9715Z" fill="#101F3C"/>
<path d="M42.0273 24.9332L41.5175 23.925L44.1457 22.5883L43.4433 21.8859L40.1129 23.1094L39.7164 22.0445L43.3754 20.6965C43.5793 20.6172 43.8172 20.6738 43.9757 20.8324L45.4824 22.3391C45.607 22.4637 45.675 22.6449 45.641 22.8262C45.6183 23.0074 45.505 23.1547 45.3351 23.2453L42.0273 24.9332Z" fill="#101F3C"/>
<path d="M33.8031 37.0544L33.3726 36.0009C33.6332 35.8989 33.8597 35.7403 34.0636 35.5478C34.8793 34.7321 34.8793 33.4067 34.0636 32.6024C33.248 31.7868 31.9226 31.7868 31.1183 32.6024C30.3027 33.4181 30.3027 34.7435 31.1183 35.5478C31.3109 35.7403 31.5375 35.8989 31.7867 36.0009L31.3562 37.0431C30.9711 36.8845 30.6199 36.6466 30.314 36.3407C29.0566 35.0833 29.0566 33.0442 30.314 31.7868C31.5715 30.5294 33.6105 30.5294 34.8679 31.7868C36.1254 33.0442 36.1254 35.0833 34.8679 36.3407C34.5621 36.6466 34.2109 36.8845 33.8031 37.0544Z" fill="#101F3C"/>
<path d="M35.4797 48.0992C35.3211 48.0992 35.1625 48.0879 34.9925 48.0539C31.4582 47.3402 30.9031 39.4445 30.8804 34.8113C30.8804 34.3242 31.0843 33.8597 31.4582 33.5312C31.8207 33.2027 32.3191 33.0554 32.7949 33.1234C33.6445 33.2367 34.2789 33.9617 34.2675 34.8226C34.2562 35.8988 34.2562 37.9945 34.4261 39.841C34.6867 42.6277 35.1625 43.0922 35.2304 43.1375C35.2984 43.1375 35.3777 43.1035 35.4797 43.0015C36.148 42.2652 36.2386 39.6824 36.1367 38.2211L37.2695 38.1418C37.3035 38.5722 37.53 42.4351 36.3179 43.7605C36.0234 44.089 35.6496 44.259 35.2418 44.2703C35.0265 44.2703 34.7093 44.225 34.4148 43.9191C34.0523 43.5566 33.5312 42.7183 33.282 39.6597C33.1347 37.9265 33.1234 36.0687 33.1461 34.8113C33.1461 34.5281 32.9421 34.2902 32.6589 34.2449C32.5004 34.2222 32.3418 34.2676 32.2171 34.3808C32.0925 34.4941 32.0246 34.6414 32.0246 34.8C32.0472 40.3621 32.8968 46.4679 35.2304 46.9437C35.6156 47.023 35.9441 46.9324 36.25 46.6832C38.1304 45.1086 38.3683 38.323 38.3004 35.8422L39.4332 35.8082C39.4332 35.8988 39.4898 38.1644 39.2406 40.7359C38.8894 44.2816 38.1304 46.5812 36.975 47.5441C36.5218 47.9066 36.0121 48.0992 35.4797 48.0992Z" fill="#101F3C"/>
<path d="M31.6621 47.0684C30.9711 47.0684 26.3718 46.7965 22.6675 40.0223L23.6644 39.4785C27.2668 46.0602 31.6507 45.9355 31.6961 45.9355L31.7527 47.0684C31.73 47.0684 31.6961 47.0684 31.6621 47.0684Z" fill="#101F3C"/>
<path d="M22.3504 52.7665C22.2824 52.7438 20.6059 52.2114 19.0539 51.0106C16.9242 49.3567 16.0746 47.261 16.607 44.9387L17.7059 45.1879C16.6637 49.7418 22.6223 51.6676 22.6902 51.6903L22.3504 52.7665Z" fill="#101F3C"/>
<path d="M46.3093 42.7751C44.1796 42.7751 42.8882 41.7216 42.8316 41.665L43.5566 40.7927C43.6132 40.838 45.0066 41.9595 47.2836 41.5517L47.4875 42.6619C47.0683 42.7412 46.6832 42.7751 46.3093 42.7751Z" fill="#101F3C"/>
<path d="M46.4227 33.3841C46.2981 33.3841 46.1735 33.3728 46.0488 33.3615C45.8336 33.3388 45.6524 33.1916 45.5844 32.9763L44.7121 30.3935C44.6668 30.2462 44.6781 30.0876 44.7461 29.9404C44.8141 29.7931 44.95 29.7025 45.0973 29.6572C45.1539 29.6458 46.6266 29.2041 47.3969 27.3123L48.4504 27.7427C47.782 29.3966 46.6379 30.1896 45.9582 30.5294L46.5359 32.24C47.8613 32.1494 48.677 30.5408 48.677 30.5181L49.6965 31.0166C49.6512 31.1298 48.5184 33.3841 46.4227 33.3841Z" fill="#101F3C"/>
<path d="M38.0512 30.9824C37.9039 30.9824 37.7566 30.9258 37.6547 30.8125L27.1875 20.3453C26.9723 20.1301 26.9609 19.7903 27.1648 19.575C30.0762 16.2559 33.35 15.7008 33.4859 15.6782C33.6672 15.6442 33.8484 15.7121 33.973 15.8367L42.1633 24.027C42.2879 24.1516 42.3559 24.3328 42.3219 24.5141C42.2992 24.65 41.7441 27.9239 38.425 30.8352C38.3117 30.9258 38.1871 30.9824 38.0512 30.9824ZM28.377 19.9262L38.0738 29.6231C40.2375 27.55 40.9512 25.3524 41.1438 24.6047L33.3953 16.8563C32.6363 17.0489 30.4387 17.7625 28.377 19.9262Z" fill="#101F3C"/>
<path d="M41.5272 35.5854L42.3666 36.3467L39.1693 39.8722L38.3299 39.111L41.5272 35.5854Z" fill="#101F3C"/>
<path d="M48.8242 29.1926L47.9859 28.4336L55.2472 20.4246L56.7652 16.4938L54.8394 14.568L55.6437 13.7637L57.83 15.95C57.9886 16.1086 58.0339 16.3465 57.9547 16.5504L56.2668 20.923C56.2441 20.991 56.2101 21.0477 56.1535 21.1043L48.8242 29.1926Z" fill="#101F3C"/>
<path d="M29.6231 9.95751L28.8641 9.11922L36.8957 1.83524C36.9524 1.78993 37.009 1.75594 37.077 1.72196L41.4496 0.0340689C41.6535 -0.045228 41.8914 8.45324e-05 42.05 0.158678L44.2363 2.34501L43.432 3.1493L41.5063 1.22352L37.5754 2.74149L29.6231 9.95751Z" fill="#101F3C"/>
<path d="M21.7996 15.5315L22.5608 16.3709L18.9178 19.6747L18.1565 18.8353L21.7996 15.5315Z" fill="#101F3C"/>
<path d="M37.5754 26.1227C37.4281 26.1227 37.2809 26.066 37.1789 25.9527L32.3758 21.1496C32.1492 20.923 32.1492 20.5719 32.3758 20.3453L33.9731 18.748C34.1996 18.5215 34.5508 18.5215 34.7774 18.748L39.5805 23.5512C39.807 23.7777 39.807 24.1289 39.5805 24.3555L37.9832 25.9527C37.8586 26.066 37.7227 26.1227 37.5754 26.1227ZM33.5652 20.7531L37.5754 24.7633L38.3797 23.959L34.3695 19.9488L33.5652 20.7531Z" fill="#101F3C"/>
</g>
<defs>
<clipPath id="clip0_53_14089">
<rect width="58" height="58" fill="white"/>
</clipPath>
</defs>
</svg>
