<svg width="60" height="60" viewBox="0 0 60 60" fill="none" xmlns="http://www.w3.org/2000/svg">
<g clip-path="url(#clip0_98_1765)">
<path d="M26 29H34V49H26V29Z" fill="#C81E1E"/>
<path d="M34 20V25H26V20C26 19.4477 26.4477 19 27 19H33C33.5523 19 34 19.4477 34 20Z" fill="#C81E1E"/>
<path d="M34 53V58C34 58.5523 33.5523 59 33 59H27C26.4477 59 26 58.5523 26 58V53H34Z" fill="#C81E1E"/>
<path d="M26 20.1199V57.9399C25.9978 58.2761 25.8269 58.5887 25.545 58.7719C25.2632 58.9551 24.9081 58.9844 24.6 58.8499L1.60001 48.7299C1.23617 48.5737 1.00025 48.2159 1.00001 47.8199V9.99993C0.998566 9.66232 1.16876 9.34711 1.45183 9.16311C1.7349 8.97912 2.09206 8.95155 2.40001 9.08993L3.38001 9.51993L25.4 19.2099C25.7656 19.364 26.0024 19.7232 26 20.1199Z" fill="#F44335"/>
<path d="M25.4 19.21L3.38002 9.51997L2.40002 9.08997C2.12523 8.96583 1.80875 8.97411 1.54083 9.11246C1.2729 9.25081 1.08291 9.50404 1.02502 9.79997L22.4 19.21C22.7656 19.3641 23.0025 19.7232 23 20.12V57.94C22.9988 58.0073 22.9904 58.0744 22.975 58.14L24.6 58.855C24.9081 58.9895 25.2632 58.9601 25.545 58.7769C25.8269 58.5937 25.9978 58.2811 26 57.945V20.12C26.0025 19.7232 25.7656 19.3641 25.4 19.21Z" fill="#C81E1E"/>
<path d="M59 9.99993V47.8199C58.9998 48.2159 58.7639 48.5737 58.4 48.7299L35.4 58.8499C35.0919 58.9844 34.7369 58.9551 34.455 58.7719C34.1732 58.5887 34.0022 58.2761 34 57.9399V20.1199C33.9976 19.7232 34.2344 19.364 34.6 19.2099L56.62 9.51993L57.6 9.08993C57.908 8.95155 58.2651 8.97912 58.5482 9.16311C58.8313 9.34711 59.0015 9.66232 59 9.99993Z" fill="#C81E1E"/>
<path d="M56.62 9.52005L34.6 19.21C34.2344 19.3641 33.9976 19.7233 34 20.12V20C34 19.4478 33.5523 19 33 19H30V16C30 16 30.01 15.93 30.03 15.8C30.51 13.95 37.41 9.02005 47 6.31005C48.55 5.87005 50.17 5.49005 51.84 5.19005C52.5586 5.0732 53.2845 5.3521 53.74 5.92005L56.62 9.52005Z" fill="#FFE0B2"/>
<path d="M53.74 5.92005C53.2845 5.3521 52.5586 5.0732 51.84 5.19005C51.312 5.28505 50.798 5.40105 50.28 5.51105C50.4535 5.62283 50.6087 5.76079 50.74 5.92005L53.62 9.52005L32.077 19H33C33.5523 19 34 19.4478 34 20V20.12C33.9976 19.7233 34.2344 19.3641 34.6 19.21L56.62 9.52005L53.74 5.92005Z" fill="#DFC49C"/>
<path d="M30 16V19H27C26.4477 19 26 19.4478 26 20V20.12C26.0024 19.7233 25.7656 19.3641 25.4 19.21L3.38 9.52005L6.26001 5.92005C6.71551 5.3521 7.4414 5.0732 8.16001 5.19005C9.83001 5.49005 11.45 5.87005 13 6.31005C22.59 9.02005 29.49 13.95 29.97 15.8C29.99 15.93 30 16 30 16Z" fill="#FFE0B2"/>
<path d="M29.97 15.8C29.49 13.95 22.59 9.02 13 6.31V1C27.78 3.77 29.76 14.22 29.97 15.8Z" fill="#DFC49C"/>
<path d="M47 1V6.31C37.41 9.02 30.51 13.95 30.03 15.8C30.24 14.22 32.22 3.77 47 1Z" fill="#DFC49C"/>
<path d="M55 28L38 36V26L55 18V28Z" fill="#F57C00"/>
<path d="M5 28L22 36V26L5 18V28Z" fill="#FF9801"/>
<path d="M26 25H34V29H26V25Z" fill="#FFDC00"/>
<path d="M31 25H34V29H31V25Z" fill="#FEC108"/>
<path d="M26 49H34V53H26V49Z" fill="#FFDC00"/>
<path d="M31 49H34V53H31V49Z" fill="#FEC108"/>
<path d="M59.093 8.32602C58.5268 7.9561 57.812 7.89741 57.193 8.17002L56.917 8.29202L54.517 5.29202C53.8354 4.43296 52.7381 4.01615 51.658 4.20602C50.419 4.42802 49.197 4.70002 47.999 5.00602V1.00002C47.9992 0.702422 47.8669 0.420183 47.638 0.230019C47.4084 0.0414011 47.1073 -0.0365138 46.815 0.0170189C35.858 2.07102 31.617 8.29002 30 12.27C28.378 8.28302 24.136 2.07002 13.184 0.0170189C12.8917 -0.036235 12.5908 0.0416497 12.361 0.230019C12.1321 0.420183 11.9998 0.702422 12 1.00002V5.01202C10.8 4.70302 9.58 4.43102 8.341 4.21202C7.26079 4.02508 6.16463 4.44222 5.482 5.30002L3.082 8.30002L2.806 8.17902C2.18903 7.90734 1.47671 7.96475 0.91122 8.33173C0.345728 8.69872 0.00316515 9.32589 0 10V47.816C0.00015853 48.6087 0.468501 49.3266 1.194 49.646L24.194 59.766C24.753 60.0188 25.3993 59.9883 25.932 59.684C26.2504 59.8894 26.6211 59.9991 27 60H33C33.3785 59.9992 33.7488 59.8899 34.067 59.685C34.3522 59.8445 34.6723 59.931 34.999 59.937C35.2769 59.9369 35.5517 59.879 35.806 59.767L58.806 49.647C59.5318 49.3274 60.0002 48.6091 60 47.816V10C60.0008 9.3244 59.6594 8.69433 59.093 8.32602ZM52.011 6.17802C52.3691 6.1211 52.7302 6.26131 52.956 6.54502L55.023 9.12602L34.193 18.291C34.164 18.303 34.143 18.326 34.114 18.34C33.7849 18.1182 33.3969 17.9998 33 18H31V16.073V16.036C31.421 14.627 39.734 8.37402 52.011 6.17802ZM33 20V20.121V24H27V20H33ZM27 26H33V28H27V26ZM27 30H33V48H27V30ZM27 50H33V52H27V50ZM46 2.22802V5.56802C41.0981 6.97321 36.4592 9.1709 32.267 12.074C33.9 8.71002 37.618 4.13402 46 2.22802ZM14 2.22802C22.376 4.12802 26.093 8.70302 27.73 12.072C23.5386 9.16979 18.9007 6.97277 14 5.56802V2.22802ZM7.044 6.54502C7.26996 6.26149 7.6309 6.12131 7.989 6.17802C20.244 8.37002 28.547 14.604 28.989 15.971L29.004 16.071V18H27C26.6031 17.9998 26.2151 18.1182 25.886 18.34C25.857 18.326 25.835 18.303 25.806 18.29L4.977 9.12602L7.044 6.54502ZM2 47.816V10L25 20.12V57.936L2 47.816ZM27 58V54H33V58H27ZM35 57.936V20.121L58 10V47.816L35 57.936Z" fill="black"/>
<path d="M55.536 17.1561C55.2469 16.9723 54.884 16.9493 54.574 17.0951L37.574 25.0951C37.2235 25.2601 36.9999 25.6127 37 26.0001V36.0001C36.9999 36.3425 37.175 36.6612 37.4642 36.8447C37.7533 37.0282 38.1162 37.0509 38.426 36.9051L55.426 28.9051C55.7765 28.74 56.0001 28.3874 56 28.0001V18.0001C55.9999 17.6579 55.8249 17.3395 55.536 17.1561ZM54 27.3651L39 34.4241V26.6351L54 19.5761V27.3651Z" fill="black"/>
<path d="M22.426 25.0999L5.426 17.0999C5.11699 16.9544 4.7551 16.9767 4.46626 17.159C4.17743 17.3413 4.00161 17.6584 4 17.9999V27.9999C3.99989 28.3873 4.22353 28.7399 4.574 28.9049L21.574 36.9049C21.7074 36.9673 21.8528 36.9997 22 36.9999C22.5523 36.9999 23 36.5522 23 35.9999V25.9999C22.9982 25.6144 22.7748 25.2642 22.426 25.0999ZM21 34.4239L6 27.3649V19.5759L21 26.6349V34.4239Z" fill="black"/>
<path d="M22.426 40.1001L5.42602 32.1001C5.10269 31.9479 4.72273 31.9798 4.42926 32.1837C4.1358 32.3876 3.97341 32.7326 4.00326 33.0887C4.03312 33.4448 4.25069 33.7579 4.57402 33.9101L21.574 41.9101C22.0738 42.1454 22.6697 41.931 22.905 41.4311C23.1403 40.9313 22.9258 40.3354 22.426 40.1001Z" fill="black"/>
<path d="M20.4 44.1441L7.44502 38.0441C7.11974 37.8821 6.73219 37.9093 6.43275 38.1152C6.13331 38.321 5.96911 38.6731 6.00386 39.0349C6.03862 39.3966 6.26686 39.711 6.60002 39.8561L19.554 45.9561C19.8784 46.1169 20.2644 46.0898 20.5631 45.8853C20.8619 45.6807 21.0267 45.3307 20.9941 44.9701C20.9616 44.6095 20.7366 44.2947 20.406 44.1471L20.4 44.1441Z" fill="black"/>
<path d="M54.574 32.1001L37.574 40.1001C37.2507 40.2523 37.0331 40.5654 37.0033 40.9216C36.9734 41.2777 37.1358 41.6226 37.4293 41.8266C37.7227 42.0305 38.1027 42.0623 38.426 41.9101L55.426 33.9101C55.9258 33.6749 56.1403 33.0789 55.905 32.5791C55.6697 32.0793 55.0738 31.8649 54.574 32.1001Z" fill="black"/>
<path d="M52.552 38.047L39.6 44.144C39.1122 44.3859 38.9075 44.9735 39.1395 45.4661C39.3715 45.9586 39.9549 46.1751 40.452 45.953L53.406 39.853C53.7398 39.7076 53.9682 39.3922 54.0022 39.0296C54.0362 38.6671 53.8704 38.3147 53.5694 38.1098C53.2685 37.9048 52.8799 37.8796 52.555 38.044L52.552 38.047Z" fill="black"/>
</g>
<defs>
<clipPath id="clip0_98_1765">
<rect width="60" height="60" fill="white"/>
</clipPath>
</defs>
</svg>
