<svg width="60" height="60" viewBox="0 0 60 60" fill="none" xmlns="http://www.w3.org/2000/svg">
<g clip-path="url(#clip0_113_9512)">
<path d="M39.1426 53.2632H34.5544V48.1817C34.5544 47.8984 34.1585 47.6687 33.6702 47.6687H26.3296C25.8413 47.6687 25.4454 47.8985 25.4454 48.1817V53.2632H21.8101C21.7974 53.2632 21.7847 53.2635 21.772 53.2641C21.7594 53.2636 21.7467 53.2632 21.734 53.2632H20.8572C18.3546 53.2632 16.3186 55.2992 16.3186 57.8018V59.1159C16.3186 59.6042 16.7145 60.0001 17.2028 60.0001H42.797C43.2853 60.0001 43.6812 59.6042 43.6812 59.1159V57.8018C43.6812 55.2991 41.6453 53.2632 39.1426 53.2632Z" fill="#FFA600"/>
<path d="M33.6704 47.6687H30.959C31.4473 47.6687 31.8432 47.8985 31.8432 48.1819V53.5629H34.5545V48.1819C34.5544 47.8984 34.1586 47.6687 33.6704 47.6687Z" fill="#FF902C"/>
<path d="M39.1426 53.2632H21.8101C21.7974 53.2632 21.7847 53.2634 21.772 53.264C21.7594 53.2635 21.7467 53.2632 21.734 53.2632H20.8572C18.3546 53.2632 16.3186 55.2992 16.3186 57.8017V59.1159C16.3186 59.6042 16.7145 60.0001 17.2028 60.0001H42.797C43.2853 60.0001 43.6812 59.6042 43.6812 59.1159V57.8017C43.6812 55.2991 41.6453 53.2632 39.1426 53.2632Z" fill="#FFA600"/>
<path d="M39.1428 53.2632H36.4314C38.9339 53.2632 40.9699 55.2992 40.9699 57.8017V59.1159C40.9699 59.6042 40.5741 60.0001 40.0858 60.0001H42.7971C43.2855 60.0001 43.6813 59.6042 43.6813 59.1159V57.8017C43.6813 55.2991 41.6454 53.2632 39.1428 53.2632Z" fill="#FF902C"/>
<path d="M30.0001 0C27.0008 0 23.8563 0.630703 20.9065 1.82367C17.5969 3.16219 14.7253 5.1082 12.3711 7.60793C7.99147 12.0439 5.77124 17.6358 5.77124 24.229C5.77124 26.4661 6.07733 28.6329 6.64757 30.6908C6.6539 30.7286 6.66186 30.7663 6.67335 30.8038C6.67733 30.817 6.6839 30.8286 6.68847 30.8416C9.57339 40.9978 18.9319 48.458 30.0001 48.458C43.36 48.458 54.229 37.5889 54.229 24.2291C54.229 10.8693 43.36 0 30.0001 0ZM50.5989 15.28L47.062 16.977C44.2337 10.3478 37.6508 5.68934 30.0001 5.68934C27.7305 5.68934 25.5552 6.10008 23.5437 6.84984L21.6826 3.41859C24.3907 2.3393 27.2639 1.76824 30.0001 1.76824C39.2058 1.76824 47.1342 7.3357 50.5989 15.28ZM35.8962 23.3156C36.0483 23.6326 36.3644 23.8174 36.6939 23.8174C36.8221 23.8174 36.9524 23.7894 37.0757 23.7302L46.0665 19.416C46.5242 20.9413 46.7715 22.5566 46.7715 24.2289C46.7715 31.3676 42.2879 37.4776 35.9892 39.8939L32.4506 30.2405C32.2826 29.7818 31.7743 29.5466 31.3162 29.7146C30.8578 29.8827 30.6224 30.3906 30.7904 30.849L34.3058 40.4391C32.9312 40.8045 31.4882 41.0003 30.0001 41.0003C22.5794 41.0003 16.27 36.1554 14.066 29.4632L24.6042 26.2339C25.0711 26.091 25.3336 25.5964 25.1906 25.1296C25.0475 24.6627 24.5531 24.4002 24.0862 24.5432L13.603 27.7556C13.3585 26.6181 13.2287 25.4384 13.2287 24.2288C13.2287 17.5743 17.1245 11.8127 22.7551 9.10453L28.1729 19.0928C28.3331 19.388 28.637 19.5554 28.9509 19.5554C29.0933 19.5554 29.2377 19.521 29.3716 19.4483C29.8009 19.2155 29.96 18.6787 29.7273 18.2496L24.3962 8.42144C26.1494 7.79812 28.0356 7.45734 30 7.45734C36.9496 7.45734 42.9251 11.7063 45.466 17.7427L36.3107 22.1359C35.8705 22.3473 35.6849 22.8754 35.8962 23.3156ZM13.6365 8.84309C13.6416 8.83805 13.6466 8.83277 13.6515 8.8275C15.4657 6.89941 17.6169 5.32699 20.0601 4.13637L21.9114 7.54922C15.7303 10.5589 11.4605 16.9044 11.4605 24.229C11.4605 25.6186 11.6153 26.9726 11.9065 28.2757L8.14792 29.4274C7.75089 27.7583 7.53936 26.018 7.53936 24.229C7.53948 18.114 9.59073 12.9375 13.6365 8.84309ZM8.62558 31.1304L12.3751 29.9814C14.8012 37.3966 21.7846 42.7686 30.0001 42.7686C31.7018 42.7686 33.3501 42.537 34.9167 42.1057L36.2701 45.7979C34.2793 46.3775 32.1756 46.6896 30.0001 46.6896C20.0221 46.6896 11.5445 40.1489 8.62558 31.1304ZM37.9474 45.2359L36.5979 41.5542C43.5725 38.8893 48.5398 32.1287 48.5398 24.2289C48.5398 22.2827 48.2375 20.406 47.679 18.6422L51.2433 16.932C52.0317 19.2209 52.4608 21.6756 52.4608 24.2289C52.4607 33.8168 46.4212 42.0193 37.9474 45.2359Z" fill="#D2D2D2"/>
<path d="M53.292 23.6294C53.1246 23.448 52.889 23.3447 52.6422 23.3447H30.0865C29.8397 23.3447 29.6042 23.448 29.4367 23.6294C29.2694 23.8108 29.1854 24.0539 29.2053 24.2999C29.4425 27.2407 30.8168 29.9682 33.0752 31.9799C35.3359 33.9938 38.2797 35.103 41.3642 35.103C44.4488 35.103 47.3927 33.9938 49.6534 31.9799C51.9118 29.9683 53.286 27.2406 53.5233 24.2999C53.5434 24.0538 53.4595 23.8107 53.292 23.6294Z" fill="#B6E4EA"/>
<path d="M53.1901 23.5364C52.6193 25.7208 51.4034 27.7099 49.6537 29.2686C47.3929 31.2825 44.4492 32.3917 41.3644 32.3917C38.2798 32.3917 35.3359 31.2825 33.0754 29.2686C31.3257 27.7099 30.1097 25.7206 29.5389 23.5364C29.5029 23.5647 29.4684 23.5952 29.437 23.6294C29.2696 23.8108 29.1856 24.054 29.2055 24.3C29.4427 27.2408 30.8171 29.9682 33.0754 31.98C35.3362 33.9938 38.2799 35.103 41.3644 35.103C44.449 35.103 47.3929 33.9938 49.6537 31.98C51.912 29.9683 53.2863 27.2407 53.5236 24.3C53.5434 24.054 53.4596 23.8107 53.2921 23.6294C53.2606 23.5952 53.226 23.5649 53.1901 23.5364Z" fill="#6FC8F1"/>
<path d="M30.9028 47.2183C31.0816 47.048 31.1811 46.8108 31.1772 46.5642L30.826 24.0113C30.8221 23.7645 30.7153 23.5306 30.5313 23.366C30.3473 23.2014 30.1028 23.1213 29.8572 23.1449C26.9205 23.4278 24.2148 24.8446 22.2384 27.134C20.2599 29.4257 19.1968 32.3866 19.2447 35.4707C19.2926 38.555 20.4476 41.4813 22.4964 43.7103C24.5431 45.937 27.2917 47.2687 30.2359 47.4601C30.4822 47.4762 30.7239 47.3886 30.9028 47.2183Z" fill="#B6E4EA"/>
<path d="M24.8543 43.7104C22.8054 41.4813 21.6506 38.5551 21.6025 35.4709C21.5546 32.3867 22.6176 29.426 24.5962 27.1341C26.2014 25.2745 28.288 23.9909 30.5886 23.4228C30.5703 23.4032 30.5516 23.3841 30.5315 23.3662C30.3475 23.2017 30.1031 23.1215 29.8575 23.1452C26.9207 23.4281 24.215 24.8449 22.2386 27.1341C20.2602 29.4259 19.197 32.3867 19.245 35.4709C19.2929 38.5551 20.4479 41.4814 22.4967 43.7104C24.5434 45.9371 27.292 47.2688 30.2361 47.4602C30.4818 47.4762 30.723 47.3888 30.9015 47.2195C28.6068 46.7155 26.5027 45.504 24.8543 43.7104Z" fill="#6FC8F1"/>
<path d="M6.96809 25.199C7.14106 25.3751 7.37977 25.471 7.62645 25.4632L30.1712 24.7609C30.4179 24.7533 30.6502 24.6428 30.8118 24.4562C30.9734 24.2697 31.0498 24.024 31.0222 23.7788C30.6935 20.8467 29.2349 18.1634 26.915 16.2229C24.5927 14.2803 21.6158 13.2634 18.5327 13.3595C15.4497 13.4556 12.5418 14.6557 10.3449 16.7391C8.15016 18.8202 6.86145 21.5891 6.71591 24.5359C6.70383 24.7825 6.79512 25.0229 6.96809 25.199Z" fill="#B6E4EA"/>
<path d="M7.00045 25.2286C7.51022 23.051 8.6603 21.0479 10.3448 19.4506C12.5418 17.3672 15.4496 16.1671 18.5326 16.071C21.6157 15.9749 24.5926 16.9917 26.9149 18.9343C28.7265 20.4496 30.0099 22.4191 30.6432 24.6053C30.7047 24.5631 30.7619 24.5138 30.8117 24.4562C30.9733 24.2697 31.0497 24.024 31.0221 23.7788C30.6934 20.8467 29.2348 18.1634 26.9149 16.223C24.5926 14.2804 21.6157 13.2635 18.5326 13.3595C15.4496 13.4556 12.5417 14.6558 10.3448 16.7391C8.15006 18.8201 6.86147 21.5891 6.71592 24.5359C6.70373 24.7825 6.79526 25.0229 6.96823 25.1988C6.97831 25.2095 6.98967 25.2186 7.00045 25.2286Z" fill="#6FC8F1"/>
<path d="M28.6119 0.924588C28.4385 1.10025 28.3465 1.34049 28.3579 1.58693L29.4112 24.118C29.4228 24.3645 29.5368 24.5951 29.7258 24.7537C29.9149 24.9125 30.1616 24.9849 30.4064 24.9537C33.333 24.5794 35.9932 23.0792 37.8973 20.7293C39.8035 18.377 40.7739 15.3846 40.6299 12.3034C40.4858 9.22217 39.2405 6.33326 37.1231 4.16892C35.0081 2.00705 32.2194 0.761463 29.2709 0.661853C29.0243 0.653767 28.7854 0.748924 28.6119 0.924588Z" fill="#B6E4EA"/>
<path d="M40.63 12.3035C40.486 9.22231 39.2406 6.3334 37.1233 4.16919C35.0084 2.00731 32.2197 0.761725 29.271 0.662115C29.0256 0.653912 28.7878 0.748131 28.6147 0.922154C30.7875 1.4018 32.7965 2.51766 34.412 4.16919C36.5294 6.3334 37.7746 9.22231 37.9187 12.3035C38.0628 15.3847 37.0923 18.3772 35.1862 20.7294C33.6938 22.5713 31.7354 23.888 29.5498 24.5529C29.5976 24.6277 29.6565 24.6956 29.7259 24.7539C29.9151 24.9127 30.1617 24.9851 30.4065 24.9538C33.3331 24.5795 35.9933 23.0794 37.8974 20.7294C39.8037 18.3771 40.7741 15.3847 40.63 12.3035Z" fill="#6FC8F1"/>
<path d="M30.4058 17.7874C26.7583 17.7874 23.791 20.7547 23.791 24.4021C23.791 28.0496 26.7583 31.0169 30.4058 31.0169C34.0532 31.0169 37.0205 28.0496 37.0205 24.4021C37.0205 20.7547 34.0532 17.7874 30.4058 17.7874Z" fill="#F7F5F5"/>
<path d="M30.4056 29.1829C33.0462 29.1829 35.1868 27.0423 35.1868 24.4017C35.1868 21.7612 33.0462 19.6206 30.4056 19.6206C27.7651 19.6206 25.6245 21.7612 25.6245 24.4017C25.6245 27.0423 27.7651 29.1829 30.4056 29.1829Z" fill="#6FC8F1"/>
<path d="M30.7399 21.9504C29.1835 21.7949 27.8805 23.098 28.0361 24.6544C28.1513 25.8067 29.0833 26.7385 30.2355 26.8537C31.7919 27.0094 33.0951 25.7061 32.9394 24.1496C32.8242 22.9972 31.8923 22.0653 30.7399 21.9504Z" fill="#606673"/>
</g>
<defs>
<clipPath id="clip0_113_9512">
<rect width="60" height="60" fill="white"/>
</clipPath>
</defs>
</svg>
