<svg width="60" height="60" viewBox="0 0 60 60" fill="none" xmlns="http://www.w3.org/2000/svg">
<path d="M37.6017 55.2038C37.6017 55.2038 35.467 56.7188 30 56.7188C24.5329 56.7188 22.3978 55.2038 22.3978 55.2038C22.2353 54.7556 22.038 54.3209 21.8076 53.9035V44.1193C21.8076 41.1015 23.0465 39.1205 24.5611 37.8263C26.082 36.5412 28.0088 35.8362 30 35.8362C31.9911 35.8362 33.9179 36.5412 35.4389 37.8263C36.9534 39.1205 38.1923 41.1015 38.1923 44.1193V53.9035C37.9618 54.3209 37.7643 54.7556 37.6017 55.2038Z" fill="#FFD92E"/>
<path d="M17.452 34.763C17.452 34.763 10.0266 28.9946 5.32641 32.8449C-0.556406 37.6637 7.30172 48.0357 16.3083 52.7996C16.3083 52.7996 4.85438 50.8679 3.28125 56.7188H17.452V34.763Z" fill="#6BC800"/>
<path d="M42.5476 34.763C42.5476 34.763 49.9731 28.9946 54.6737 32.8449C60.5565 37.6637 52.6984 48.0357 43.6918 52.7996C43.6918 52.7996 55.1457 50.8679 56.7189 56.7188H42.5476V34.763Z" fill="#6BC800"/>
<path d="M40.0532 29.2365C40.8238 30.2851 43.6917 34.7865 43.6917 43.7363V52.7996C43.6917 52.7996 49.5173 52.9506 50.0934 56.7188H37.2313C37.3603 55.7256 37.6871 54.7683 38.1923 53.9035V44.1193C38.1923 41.1015 36.9534 39.1206 35.4388 37.8263C33.9179 36.5413 31.9911 35.8362 29.9999 35.8362C28.0088 35.8362 26.082 36.5413 24.561 37.8263C23.0465 39.1206 21.8076 41.1015 21.8076 44.1193V53.9035C22.3128 54.7683 22.6395 55.7256 22.7685 56.7188H9.90649C10.4826 52.9506 16.3082 52.7996 16.3082 52.7996V43.7345C16.3082 34.7846 19.176 30.2813 19.9467 29.2346L40.0532 29.2365Z" fill="#9CDD03"/>
<path d="M49.7949 17.0762C49.7949 17.0762 44.7961 23.2651 30 23.2651C15.204 23.2651 10.2052 17.0776 10.2052 17.0776C9.25692 20.634 11.5697 30.5307 30 30.5307C48.4304 30.5307 50.7432 20.6326 49.7949 17.0762Z" fill="#6BC800"/>
<path d="M14.346 11.1432C14.346 11.1432 10.9288 14.3621 10.2051 17.0762C10.2051 17.0762 15.2038 23.2637 29.9999 23.2637C44.796 23.2637 49.7948 17.0762 49.7948 17.0762C49.071 14.3621 45.6534 11.1432 45.6534 11.1432L40.8018 3.28134C37.7082 3.2377 34.6977 4.28301 32.2968 6.23447C31.6477 6.76228 30.8366 7.05042 29.9999 7.05042C29.1633 7.05042 28.3522 6.76228 27.703 6.23447C25.3022 4.28301 22.2917 3.2377 19.198 3.28134L14.346 11.1432Z" fill="#9CDD03"/>
<path d="M19.1981 14.1412C22.197 14.1412 24.6281 11.7102 24.6281 8.71125C24.6281 5.71234 22.197 3.28125 19.1981 3.28125C16.1992 3.28125 13.7681 5.71234 13.7681 8.71125C13.7681 11.7102 16.1992 14.1412 19.1981 14.1412Z" fill="#E6F8FC"/>
<path d="M40.8018 14.1412C43.8007 14.1412 46.2318 11.7102 46.2318 8.71125C46.2318 5.71234 43.8007 3.28125 40.8018 3.28125C37.8029 3.28125 35.3718 5.71234 35.3718 8.71125C35.3718 11.7102 37.8029 14.1412 40.8018 14.1412Z" fill="#E6F8FC"/>
<path d="M21.2846 8.71141C21.2846 9.12406 21.1623 9.52744 20.933 9.87055C20.7037 10.2137 20.3779 10.4811 19.9967 10.639C19.6154 10.7969 19.1959 10.8382 18.7912 10.7577C18.3865 10.6772 18.0147 10.4785 17.7229 10.1867C17.4311 9.89493 17.2324 9.52317 17.1519 9.11844C17.0714 8.71372 17.1127 8.29421 17.2706 7.91297C17.4285 7.53173 17.696 7.20588 18.0391 6.97662C18.3822 6.74737 18.7856 6.625 19.1982 6.625C19.4722 6.62494 19.7436 6.67886 19.9967 6.78369C20.2499 6.88852 20.4799 7.0422 20.6737 7.23596C20.8674 7.42971 21.0211 7.65974 21.1259 7.9129C21.2308 8.16606 21.2847 8.4374 21.2846 8.71141Z" fill="#44538C"/>
<path d="M42.8906 8.71141C42.8906 9.12406 42.7682 9.52744 42.539 9.87055C42.3097 10.2137 41.9839 10.4811 41.6026 10.639C41.2214 10.7969 40.8019 10.8382 40.3971 10.7577C39.9924 10.6772 39.6207 10.4785 39.3289 10.1867C39.0371 9.89493 38.8384 9.52317 38.7579 9.11844C38.6774 8.71372 38.7187 8.29421 38.8766 7.91297C39.0345 7.53173 39.3019 7.20588 39.645 6.97662C39.9881 6.74737 40.3915 6.625 40.8042 6.625C41.0782 6.62494 41.3495 6.67886 41.6027 6.78369C41.8558 6.88852 42.0859 7.0422 42.2796 7.23596C42.4734 7.42971 42.6271 7.65974 42.7319 7.9129C42.8367 8.16606 42.8906 8.4374 42.8906 8.71141Z" fill="#44538C"/>
<path d="M19.1982 11.6174C19.773 11.6174 20.3349 11.447 20.8129 11.1276C21.2908 10.8083 21.6633 10.3544 21.8833 9.82336C22.1032 9.29231 22.1608 8.70796 22.0486 8.1442C21.9365 7.58044 21.6597 7.0626 21.2533 6.65615C20.8468 6.24971 20.329 5.97291 19.7652 5.86078C19.2015 5.74864 18.6171 5.80619 18.0861 6.02616C17.555 6.24613 17.1011 6.61863 16.7818 7.09656C16.4624 7.57449 16.292 8.13638 16.292 8.71118C16.2929 9.4817 16.5993 10.2204 17.1442 10.7653C17.689 11.3101 18.4277 11.6166 19.1982 11.6174ZM19.1982 7.44556C19.4486 7.44556 19.6933 7.51979 19.9014 7.65885C20.1095 7.79792 20.2717 7.99559 20.3675 8.22685C20.4633 8.45811 20.4884 8.71259 20.4395 8.95809C20.3907 9.2036 20.2702 9.42911 20.0932 9.60612C19.9162 9.78312 19.6907 9.90366 19.4452 9.95249C19.1996 10.0013 18.9452 9.97626 18.7139 9.88047C18.4826 9.78468 18.285 9.62246 18.1459 9.41433C18.0068 9.2062 17.9326 8.9615 17.9326 8.71118C17.9326 8.54494 17.9652 8.38031 18.0288 8.22671C18.0924 8.0731 18.1856 7.93352 18.3031 7.81595C18.4207 7.69837 18.5602 7.60511 18.7138 7.54147C18.8674 7.47784 19.032 7.44556 19.1982 7.44556Z" fill="black"/>
<path d="M37.8953 8.71118C37.8953 9.28598 38.0657 9.84788 38.3851 10.3258C38.7044 10.8037 39.1583 11.1762 39.6893 11.3962C40.2204 11.6162 40.8047 11.6737 41.3685 11.5616C41.9323 11.4495 42.4501 11.1727 42.8565 10.7662C43.263 10.3598 43.5398 9.84192 43.6519 9.27816C43.7641 8.71441 43.7065 8.13006 43.4865 7.59901C43.2666 7.06796 42.8941 6.61407 42.4161 6.29472C41.9382 5.97538 41.3763 5.80493 40.8015 5.80493C40.031 5.8058 39.2923 6.11227 38.7474 6.65711C38.2026 7.20195 37.8961 7.94066 37.8953 8.71118ZM42.0671 8.71118C42.0671 8.9615 41.9929 9.20619 41.8538 9.41433C41.7148 9.62246 41.5171 9.78467 41.2858 9.88047C41.0546 9.97626 40.8001 10.0013 40.5546 9.95249C40.3091 9.90365 40.0836 9.78311 39.9066 9.60611C39.7296 9.42911 39.609 9.2036 39.5602 8.95809C39.5114 8.71259 39.5364 8.45811 39.6322 8.22685C39.728 7.99559 39.8902 7.79792 40.0984 7.65885C40.3065 7.51978 40.5512 7.44556 40.8015 7.44556C40.9678 7.44543 41.1325 7.47808 41.2861 7.54163C41.4398 7.60518 41.5794 7.69838 41.6971 7.81592C41.8147 7.93345 41.908 8.07302 41.9716 8.22663C42.0353 8.38025 42.0681 8.5449 42.0681 8.71118H42.0671Z" fill="black"/>
<path d="M57.5109 56.506C56.3587 52.2211 50.8748 51.5841 47.1267 51.6778C47.9577 51.1088 48.7702 50.4961 49.5642 49.8399C49.6472 49.7712 49.7158 49.6869 49.7661 49.5917C49.8165 49.4965 49.8476 49.3923 49.8577 49.2851C49.8678 49.1779 49.8567 49.0698 49.825 48.9669C49.7933 48.8639 49.7416 48.7683 49.673 48.6853C49.6043 48.6024 49.52 48.5338 49.4248 48.4834C49.3296 48.4331 49.2254 48.4019 49.1182 48.3918C49.011 48.3817 48.9029 48.3929 48.8 48.4246C48.697 48.4563 48.6014 48.5079 48.5184 48.5766C47.2594 49.6199 45.9205 50.5628 44.5139 51.3966V43.7344C44.5416 40.8231 44.1972 37.9203 43.4892 35.0963C45.0708 34.006 50.6203 30.5808 54.1556 33.4772C56.5903 35.4722 56.0091 38.3892 55.0931 40.4855C55.0113 40.6839 55.0105 40.9065 55.0909 41.1055C55.1714 41.3046 55.3266 41.4641 55.5233 41.55C55.72 41.6359 55.9426 41.6412 56.1432 41.5649C56.3438 41.4886 56.5065 41.3367 56.5964 41.1417C58.2131 37.4447 57.7158 34.2713 55.1962 32.2074C51.0506 28.8113 45.2667 31.9566 43.0017 33.4416C42.5779 32.1302 42.0152 30.8679 41.3231 29.6761C45.0389 28.3594 47.2575 26.461 48.5728 24.75C50.8289 21.8138 51.068 18.6675 50.5884 16.8656C49.9631 14.5219 47.5973 11.9377 46.6298 10.9542C46.9977 10.0081 47.1289 8.98641 47.0121 7.97801C46.8953 6.96961 46.534 6.00498 45.9596 5.16795C45.3853 4.33091 44.6152 3.64679 43.7163 3.17504C42.8175 2.70328 41.817 2.45815 40.8019 2.46096C37.5194 2.42195 34.3269 3.53306 31.778 5.60158C31.2752 6.0098 30.6474 6.23262 29.9998 6.23262C29.3522 6.23262 28.7243 6.0098 28.2216 5.60158C25.6728 3.53299 22.4804 2.42186 19.1981 2.46096C18.1832 2.45837 17.1829 2.70361 16.2843 3.17538C15.3857 3.64715 14.6158 4.33118 14.0416 5.16807C13.4673 6.00496 13.1061 6.96938 12.9893 7.97758C12.8724 8.98578 13.0035 10.0073 13.3711 10.9533C12.4087 11.9311 10.0669 14.4896 9.42515 16.8244L9.41906 16.8441C9.41906 16.8506 9.41437 16.8577 9.4125 16.8647C8.98171 18.4805 9.13125 21.3474 10.9692 24.1097C11.0289 24.1994 11.1057 24.2764 11.1952 24.3365C11.2847 24.3965 11.3851 24.4383 11.4908 24.4595C11.5964 24.4807 11.7052 24.4808 11.8109 24.46C11.9166 24.4392 12.0172 24.3977 12.1069 24.338C12.1966 24.2783 12.2736 24.2015 12.3336 24.112C12.3936 24.0225 12.4354 23.9221 12.4566 23.8164C12.4778 23.7108 12.478 23.602 12.4572 23.4963C12.4363 23.3906 12.3949 23.29 12.3352 23.2003C11.4436 21.9009 10.9292 20.3801 10.8487 18.8063C13.1775 20.6897 18.9108 24.0853 30 24.0853C41.0766 24.0853 46.8094 20.6977 49.1433 18.8128C49.0484 20.613 48.394 22.3387 47.2716 23.7492C45.1833 26.468 40.4911 29.7085 30 29.7085C23.5312 29.7085 18.5414 28.486 15.1659 26.0738C15.0783 26.0111 14.9791 25.9664 14.8742 25.9421C14.7692 25.9177 14.6605 25.9143 14.5542 25.932C14.448 25.9497 14.3462 25.9882 14.2548 26.0452C14.1634 26.1022 14.0841 26.1767 14.0215 26.2643C13.9588 26.352 13.9141 26.4511 13.8898 26.5561C13.8654 26.661 13.862 26.7697 13.8797 26.876C13.9155 27.0906 14.035 27.2823 14.212 27.4088C15.5874 28.3708 17.0906 29.1359 18.6778 29.6817C17.9869 30.8729 17.4248 32.1342 17.0011 33.4444C14.7361 31.9594 8.95265 28.8131 4.80656 32.2102C3.96469 32.8818 3.31077 33.7596 2.90832 34.7586C2.50586 35.7575 2.36854 36.8435 2.50968 37.9111C2.9475 42.2827 7.20281 47.805 12.8691 51.6769C9.12703 51.5874 3.64078 52.2225 2.48906 56.505C2.45614 56.6266 2.45169 56.7542 2.47606 56.8778C2.50044 57.0015 2.55298 57.1178 2.62961 57.2178C2.70623 57.3178 2.80488 57.3989 2.9179 57.4546C3.03091 57.5103 3.15525 57.5392 3.28125 57.5391H22.7686C22.8809 57.5391 22.992 57.5161 23.095 57.4715C23.198 57.4268 23.2908 57.3615 23.3675 57.2795C23.4442 57.1976 23.5033 57.1007 23.5411 56.995C23.5788 56.8893 23.5945 56.7769 23.587 56.6649C23.587 56.6611 23.587 56.6499 23.5847 56.6344C25.6591 57.2852 27.8264 57.5909 30 57.5391C32.1735 57.5909 34.3408 57.2852 36.4153 56.6344C36.4153 56.6499 36.413 56.6611 36.413 56.6649C36.4055 56.7769 36.4212 56.8893 36.4589 56.995C36.4967 57.1007 36.5558 57.1976 36.6325 57.2795C36.7092 57.3615 36.802 57.4268 36.905 57.4715C37.008 57.5161 37.1191 57.5391 37.2314 57.5391H56.7187C56.8444 57.5391 56.9684 57.5102 57.0812 57.4546C57.1939 57.3991 57.2924 57.3184 57.369 57.2187C57.4455 57.119 57.4982 57.0031 57.5228 56.8798C57.5474 56.7565 57.5433 56.6293 57.5109 56.5078V56.506ZM45.4111 8.71127C45.4111 9.623 45.1407 10.5143 44.6342 11.2723C44.1276 12.0304 43.4077 12.6212 42.5653 12.9701C41.723 13.319 40.7961 13.4103 39.9019 13.2324C39.0077 13.0544 38.1864 12.6154 37.5417 11.9706C36.897 11.3259 36.458 10.5045 36.2802 9.61029C36.1024 8.71607 36.1938 7.7892 36.5427 6.9469C36.8917 6.10459 37.4826 5.38469 38.2407 4.87823C38.9989 4.37177 39.8901 4.10149 40.8019 4.10158C42.024 4.10295 43.1956 4.58906 44.0597 5.45327C44.9239 6.31747 45.4099 7.48917 45.4111 8.71127ZM19.1981 4.10158C20.1099 4.10149 21.0011 4.37177 21.7593 4.87823C22.5174 5.38469 23.1083 6.10459 23.4573 6.9469C23.8062 7.7892 23.8976 8.71607 23.7198 9.61029C23.5419 10.5045 23.103 11.3259 22.4583 11.9706C21.8136 12.6154 20.9923 13.0544 20.0981 13.2324C19.2039 13.4103 18.277 13.319 17.4346 12.9701C16.5923 12.6212 15.8723 12.0304 15.3658 11.2723C14.8593 10.5143 14.5889 9.623 14.5889 8.71127C14.5903 7.48921 15.0763 6.31758 15.9404 5.4534C16.8045 4.58923 17.9761 4.10307 19.1981 4.10158ZM11.1356 16.8638C11.7403 15.2269 13.2919 13.4255 14.2059 12.4575C15.1834 13.7818 16.6444 14.6665 18.271 14.9188C19.8975 15.1712 21.5579 14.7709 22.8907 13.805C24.2235 12.8391 25.1209 11.3859 25.3874 9.76166C25.654 8.13739 25.2682 6.47358 24.3141 5.13237C25.3464 5.57678 26.3122 6.16186 27.1842 6.87096C27.9802 7.51749 28.9745 7.8704 30 7.8704C31.0255 7.8704 32.0198 7.51749 32.8158 6.87096C33.6876 6.16194 34.6533 5.57687 35.6855 5.13237C34.7335 6.47407 34.3497 8.13735 34.6175 9.76052C34.8854 11.3837 35.7832 12.8355 37.1157 13.8002C38.4483 14.765 40.1078 15.1647 41.7335 14.9123C43.3591 14.66 44.8194 13.7761 45.7969 12.4528C46.8131 13.531 48.2883 15.3174 48.8653 16.8638C47.6217 18.0689 42.2639 22.4447 30 22.4447C17.7361 22.4447 12.3792 18.0703 11.1352 16.8638H11.1356ZM4.14281 37.7475C4.02904 36.9492 4.12645 36.1351 4.42532 35.3861C4.7242 34.6372 5.21411 33.9797 5.84625 33.4791C9.38156 30.585 14.9306 34.0083 16.5127 35.0981C15.8049 37.9215 15.4605 40.8238 15.488 43.7344V51.3975C9.45093 47.8238 4.57125 42.0197 4.14281 37.7475ZM10.4241 53.385C10.7475 53.3578 11.0691 53.3405 11.3859 53.3297C10.3873 53.8969 9.63174 54.811 9.2625 55.8985H4.53093C5.45203 54.4763 7.42734 53.6325 10.4241 53.385ZM30 55.8985C25.7906 55.8985 23.6719 54.9656 23.0625 54.6413C22.9346 54.3194 22.79 54.0045 22.6294 53.6977V44.1192C22.5866 43.0491 22.7862 41.9832 23.2132 41.001C23.6403 40.0189 24.2837 39.1459 25.0955 38.4474C26.4681 37.2898 28.2058 36.6548 30.0014 36.6548C31.797 36.6548 33.5347 37.2898 34.9073 38.4474C35.719 39.146 36.3624 40.019 36.7894 41.0011C37.2164 41.9832 37.4161 43.0491 37.3734 44.1192V53.6977C37.2127 54.0046 37.0681 54.3197 36.9403 54.6417C36.3281 54.9661 34.208 55.8985 30 55.8985ZM38.2373 55.8985C38.4036 55.3426 38.6295 54.8064 38.9109 54.2991C38.9776 54.1779 39.0125 54.0418 39.0127 53.9035V44.1192C39.0127 41.2542 37.9894 38.9274 35.9719 37.2024C34.3012 35.7928 32.1858 35.0196 30 35.0196C27.8141 35.0196 25.6988 35.7928 24.0281 37.2024C22.0125 38.9274 20.9873 41.2542 20.9873 44.1192V53.9035C20.9874 54.0418 21.0224 54.1779 21.0891 54.2991C21.3703 54.8066 21.5963 55.3428 21.7631 55.8985H11.0494C12.2934 53.7614 16.2848 53.6208 16.3294 53.6194C16.5428 53.6133 16.7454 53.5243 16.8942 53.3712C17.043 53.2181 17.1262 53.013 17.1262 52.7996V43.7344C17.1262 36.0296 19.2544 31.7911 20.288 30.1875C23.4588 31.0073 26.7253 31.3979 30 31.3491C33.2735 31.4005 36.5389 31.0098 39.7078 30.1875C40.7391 31.7897 42.8714 36.0281 42.8714 43.7386V52.8019C42.8714 53.0154 42.9547 53.2204 43.1035 53.3735C43.2523 53.5266 43.4549 53.6156 43.6683 53.6217C43.7152 53.6217 47.7075 53.7539 48.9497 55.9008L38.2373 55.8985ZM50.7375 55.8985C50.3684 54.8113 49.6131 53.8975 48.615 53.3302C51.3389 53.4394 54.2358 54.061 55.4587 55.8985H50.7375Z" fill="black"/>
<path d="M54.009 43.9972C53.837 43.8641 53.6191 43.8048 53.4032 43.8323C53.1874 43.8598 52.9914 43.9719 52.8582 44.144C52.4579 44.6596 52.0201 45.1808 51.5561 45.6908C51.4133 45.8521 51.3398 46.0631 51.3513 46.2782C51.3628 46.4932 51.4584 46.6952 51.6175 46.8403C51.7765 46.9855 51.9863 47.0623 52.2016 47.0541C52.4168 47.046 52.6202 46.9535 52.7678 46.7966C53.2614 46.2562 53.7282 45.7021 54.1557 45.1499C54.2219 45.0646 54.2706 44.9671 54.299 44.863C54.3275 44.7589 54.3351 44.6502 54.3215 44.5431C54.3078 44.4361 54.2732 44.3328 54.2196 44.2391C54.166 44.1454 54.0944 44.0632 54.009 43.9972Z" fill="black"/>
</svg>
