<svg width="60" height="60" viewBox="0 0 60 60" fill="none" xmlns="http://www.w3.org/2000/svg">
<g clip-path="url(#clip0_99_5750)">
<path d="M35.9666 18.0173C32.8154 16.4418 31.7922 13.1847 31.4612 11.3554C31.3232 10.593 30.6665 10.0349 29.8916 10.0349C29.1168 10.0349 28.4601 10.593 28.322 11.3554C27.9911 13.1844 26.9678 16.4418 23.8166 18.0173C19.2958 20.2778 19.2958 25.6464 23.2515 27.3419C27.1124 28.9966 29.8916 24.5868 29.8916 24.5868C29.8916 24.5868 32.6708 28.9963 36.5317 27.3419C40.4877 25.6464 40.4877 20.2778 35.9666 18.0173Z" fill="#F4DBCE"/>
<path d="M32.5135 18.9088C32.5135 20.1864 31.1693 21.5195 29.8917 21.5195C28.6142 21.5195 27.27 20.1864 27.27 18.9088C27.27 17.6312 28.6142 18.1461 29.8917 18.1461C31.1693 18.1459 32.5135 17.6312 32.5135 18.9088Z" fill="#7D3D1A"/>
<path d="M34.8109 28.2934C32.6809 28.2934 30.9066 26.8469 29.8918 25.5883C28.5798 27.2148 25.9981 29.1564 23.0209 27.8802C21.0448 27.0334 19.8289 25.2955 19.7682 23.2314C19.6995 20.894 21.1503 18.6953 23.5548 17.4932C26.4837 16.0286 27.4377 12.9536 27.7456 11.2511C27.9345 10.2067 28.8373 9.44897 29.8918 9.44897C30.9465 9.44897 31.8491 10.2069 32.038 11.2511C32.3459 12.9536 33.2998 16.0286 36.2288 17.4932C38.633 18.6953 40.0841 20.894 40.0154 23.2314C39.9547 25.2955 38.7387 27.0334 36.7627 27.8802C36.0887 28.1692 35.4345 28.2932 34.8109 28.2934ZM29.8918 24.0008C30.0929 24.0008 30.2802 24.104 30.3875 24.2744C30.3936 24.284 31.0566 25.3185 32.1437 26.1372C33.518 27.1724 34.9168 27.3967 36.3012 26.8033C37.8467 26.1409 38.7971 24.7928 38.8442 23.1972C38.8993 21.3212 37.6965 19.5372 35.705 18.5416C32.3197 16.8489 31.232 13.378 30.8851 11.4599C30.7972 10.9738 30.3795 10.6211 29.892 10.6211C29.4045 10.6211 28.9869 10.9738 28.899 11.4601C28.5521 13.3783 27.4644 16.8489 24.0791 18.5416C22.0876 19.5374 20.8848 21.3212 20.9398 23.1974C20.9867 24.793 21.9373 26.1412 23.4828 26.8035C26.8452 28.2447 29.3715 24.3144 29.3966 24.2746C29.5034 24.1042 29.6907 24.0008 29.8918 24.0008Z" fill="black"/>
<path d="M29.8917 22.1053C28.2729 22.1053 26.6838 20.5219 26.6838 18.9087C26.6838 18.4392 26.8247 18.0729 27.1024 17.8198C27.5944 17.3714 28.305 17.4375 29.0569 17.5073C29.3339 17.5331 29.6201 17.5598 29.8915 17.5598C30.1629 17.5598 30.4491 17.5331 30.7261 17.5073C31.478 17.4373 32.1884 17.3712 32.6806 17.8198C32.9583 18.0729 33.0992 18.4392 33.0992 18.9087C33.0994 20.5219 31.5106 22.1053 29.8917 22.1053ZM28.237 18.6295C28.0702 18.6295 27.9352 18.6438 27.8918 18.686C27.8916 18.6862 27.8559 18.7348 27.8559 18.9087C27.8559 19.8548 28.9404 20.9334 29.892 20.9334C30.8435 20.9334 31.9277 19.8548 31.9277 18.9087C31.9277 18.735 31.8921 18.6865 31.8917 18.686C31.7888 18.5857 31.1686 18.6434 30.8351 18.6745C30.5318 18.7029 30.2177 18.732 29.892 18.732C29.5662 18.732 29.2524 18.7027 28.9488 18.6745C28.7555 18.6565 28.4665 18.6295 28.237 18.6295Z" fill="black"/>
<path d="M29.8408 25.3257C29.5171 25.3257 29.2549 25.0634 29.2549 24.7397V21.9795C29.2549 21.6558 29.5171 21.3936 29.8408 21.3936C30.1645 21.3936 30.4268 21.6558 30.4268 21.9795V24.7397C30.4268 25.0634 30.1645 25.3257 29.8408 25.3257Z" fill="black"/>
<path d="M39.5775 1.20865C39.2018 1.19904 38.8683 1.20349 38.5728 1.21943C37.4672 1.27943 37.0514 2.71826 37.9632 3.34638C38.8669 3.96911 39.8358 5.13654 39.8768 7.28716C39.9542 11.3529 41.9089 22.6631 44.8029 21.7453C47.0398 21.0358 42.7538 17.4337 47.5967 12.6408C52.4393 7.84779 43.6636 1.31411 39.5775 1.20865Z" fill="#EAA250"/>
<path d="M20.2203 1.20865C20.596 1.19904 20.9296 1.20349 21.2251 1.21943C22.3307 1.27943 22.7464 2.71826 21.8347 3.34638C20.931 3.96911 19.9621 5.13654 19.921 7.28716C19.8437 11.3529 17.889 22.6631 14.9949 21.7453C12.7581 21.0358 17.0441 17.4337 12.2012 12.6408C7.35878 7.84779 16.1345 1.31411 20.2203 1.20865Z" fill="#EAA250"/>
<path d="M39.877 7.28707C39.836 5.13644 38.8671 3.96902 37.9633 3.34628C37.4559 2.99683 37.3607 2.3966 37.5658 1.92222C35.6388 0.770503 33.8175 0.530269 32.433 0.596832C30.7392 0.67816 29.0449 0.67816 27.3511 0.596832C25.9696 0.530503 24.1528 0.7698 22.2302 1.91543C22.439 2.39074 22.3448 2.99519 21.835 3.34652C20.9313 3.96925 19.9624 5.13668 19.9214 7.2873C19.8504 11.0211 18.1957 20.8637 15.6846 21.7351C16.1657 24.2621 18.9832 25.8648 22.2593 26.7845C19.335 24.6828 19.713 20.0699 23.8169 18.0179C26.9681 16.4425 27.9914 13.1853 28.3223 11.3561C28.4604 10.5936 29.1171 10.0356 29.8919 10.0356C30.6668 10.0356 31.3235 10.5936 31.4615 11.3561C31.7925 13.1851 32.8157 16.4425 35.9669 18.0179C40.0708 20.0699 40.4489 24.6828 37.5246 26.7845C40.803 25.8641 43.6218 24.2598 44.1002 21.73C41.5966 20.8274 39.948 11.0141 39.877 7.28707Z" fill="#EAA250"/>
<path d="M44.4706 22.3833C44.1577 22.3833 43.7888 22.2935 43.3986 22.0135C42.2508 21.1901 41.2419 18.9157 40.4 15.2541C39.6828 12.1343 39.3223 8.94307 39.2911 7.29799C39.2614 5.73448 38.7026 4.56729 37.6308 3.82854C37.0086 3.39987 36.7395 2.64963 36.946 1.91721C37.1539 1.17916 37.7801 0.675257 38.5414 0.634007C38.8618 0.616429 39.2154 0.612679 39.593 0.622523C42.6511 0.701507 47.7891 3.97713 49.2031 7.54643C50.0089 9.58057 49.5961 11.4863 48.009 13.0568C45.2822 15.7554 45.6664 17.9653 45.9467 19.579C46.1333 20.6531 46.3449 21.8707 44.9801 22.3034C44.8374 22.3489 44.6647 22.3833 44.4706 22.3833ZM39.1951 1.78924C38.9862 1.78924 38.7889 1.79416 38.6044 1.80424C38.2186 1.8251 38.1005 2.13916 38.0736 2.23479C38.0473 2.3283 37.9854 2.64987 38.2955 2.86338C39.2583 3.5269 40.4159 4.83096 40.4628 7.27549C40.5366 11.1589 42.1158 19.6507 44.0818 21.0612C44.3368 21.2442 44.5065 21.2241 44.6258 21.1863C44.9408 21.0865 45.0066 21.0157 44.7919 19.7796C44.5041 18.1242 44.0227 15.3532 47.1844 12.2241C48.4292 10.9924 48.7416 9.56369 48.1135 7.97815C46.7958 4.65237 41.9968 1.85698 39.5628 1.79393C39.4367 1.79088 39.3141 1.78924 39.1951 1.78924Z" fill="black"/>
<path d="M15.3273 22.3833C15.133 22.3833 14.9605 22.3489 14.818 22.3034C13.4532 21.8707 13.6649 20.6532 13.8514 19.579C14.1318 17.9654 14.5159 15.7557 11.7892 13.0568C10.2022 11.4861 9.78926 9.58059 10.595 7.54645C12.0093 3.97739 17.1472 0.701762 20.2054 0.622778C20.5825 0.612934 20.9366 0.616684 21.257 0.634028C22.0182 0.675278 22.6445 1.17918 22.8524 1.91723C23.0586 2.64965 22.7898 3.39989 22.1675 3.82856C21.0955 4.56731 20.5368 5.7345 20.5072 7.29825C20.4761 8.94333 20.1156 12.1346 19.3984 15.2543C18.5565 18.9162 17.5475 21.1904 16.3998 22.0137C16.0093 22.2936 15.6402 22.3833 15.3273 22.3833ZM20.6031 1.78926C20.484 1.78926 20.3614 1.7909 20.2358 1.79418C17.8016 1.857 13.0025 4.65262 11.6846 7.9784C11.0565 9.56395 11.3689 10.9925 12.6137 12.2243C15.7754 15.3535 15.2938 18.1245 15.0062 19.7799C14.7913 21.0162 14.8574 21.0868 15.1724 21.1866C15.2917 21.2248 15.4611 21.2447 15.7164 21.0617C16.5871 20.4371 17.5126 18.2248 18.2558 14.9918C18.9543 11.9536 19.3051 8.86246 19.3351 7.27622C19.3818 4.83168 20.5393 3.52762 21.5024 2.86387C21.8125 2.65036 21.7506 2.32879 21.7243 2.23528C21.6974 2.13965 21.5793 1.82536 21.1935 1.8045C21.0095 1.79418 20.8117 1.78926 20.6031 1.78926Z" fill="black"/>
<path d="M37.5244 27.3701C37.3041 27.3701 37.096 27.2449 36.9966 27.038C36.8733 26.7818 36.9518 26.4741 37.1827 26.3081C38.3454 25.4726 38.9466 24.1716 38.8322 22.7388C38.6949 21.0209 37.5258 19.452 35.705 18.5414C32.3199 16.8488 31.2321 13.3781 30.885 11.46C30.7971 10.9739 30.3795 10.621 29.892 10.621C29.4045 10.621 28.9868 10.9737 28.8989 11.46C28.5521 13.3781 27.4643 16.8488 24.079 18.5414C22.2582 19.452 21.0891 21.0211 20.9518 22.7388C20.8371 24.1716 21.4386 25.4726 22.6013 26.3081C22.8321 26.4741 22.9107 26.7818 22.7874 27.038C22.6641 27.2942 22.3746 27.4249 22.1009 27.3481C17.9928 26.1949 15.575 24.2916 15.1088 21.8442C15.0544 21.5585 15.2178 21.2763 15.4925 21.181C15.8164 21.0685 16.9657 20.3227 18.1486 15.446C18.8834 12.4165 19.302 9.04267 19.3355 7.27572C19.3822 4.83119 20.5397 3.52713 21.5028 2.86338C21.7885 2.6665 21.7843 2.35642 21.6938 2.15041C21.575 1.87971 21.6762 1.56283 21.9303 1.41142C23.6433 0.390721 25.4778 -0.0813099 27.379 0.0107994C29.0466 0.0909557 30.7374 0.0909557 32.4047 0.0107994C34.3125 -0.0803724 36.15 0.392831 37.8664 1.41869C38.1188 1.56963 38.2203 1.88416 38.1036 2.15416C38.015 2.35924 38.0121 2.66791 38.2957 2.86314C39.2588 3.52689 40.4164 4.83096 40.463 7.27525C40.5441 11.5353 42.331 20.4685 44.299 21.1777C44.5697 21.2754 44.7296 21.555 44.6761 21.8377C44.2128 24.2881 41.795 26.1933 37.6833 27.3474C37.6301 27.3631 37.5769 27.3701 37.5244 27.3701ZM16.3632 22.0313C16.8858 23.6646 18.5766 24.7798 20.3848 25.5263C19.9172 24.6635 19.7016 23.6705 19.7834 22.6456C19.9538 20.5151 21.3636 18.589 23.5547 17.4935C26.4837 16.0289 27.4376 12.9539 27.7456 11.2514C27.9345 10.207 28.8371 9.44932 29.8918 9.44932C30.9464 9.44932 31.849 10.2073 32.0379 11.2514C32.3459 12.9539 33.3003 16.0292 36.2288 17.4935C38.42 18.589 39.8297 20.5151 40.0001 22.6456C40.0822 23.6703 39.8663 24.6635 39.3987 25.5263C41.21 24.7784 42.9031 23.6609 43.4227 22.0228C40.6986 20.0578 39.3493 10.3573 39.2911 7.29799C39.2614 5.73447 38.7026 4.56705 37.6308 3.8283C37.0894 3.45517 36.8196 2.83666 36.8888 2.21111C35.4837 1.45408 33.995 1.10744 32.461 1.1815C30.7564 1.26353 29.0276 1.26353 27.3228 1.1815C25.7937 1.10838 24.3104 1.45174 22.9095 2.20338C22.9819 2.8315 22.7124 3.45306 22.1675 3.8283C21.0957 4.56705 20.5369 5.73424 20.5072 7.29799C20.4486 10.3685 19.095 20.0836 16.3632 22.0313Z" fill="black"/>
<path d="M32.726 27.1932C30.974 26.304 29.8917 24.5872 29.8917 24.5872C29.8917 24.5872 28.7634 26.374 26.9475 27.2454L26.5563 29.7399C26.2399 31.7569 27.7992 33.5799 29.8411 33.5799C31.8829 33.5799 33.4422 31.7569 33.1258 29.7399L32.726 27.1932Z" fill="#FD605B"/>
<path d="M32.5623 27.103C32.6169 27.133 32.6701 27.1644 32.7261 27.1928L33.1255 29.7395C33.2155 30.3133 33.1494 30.8694 32.968 31.3743C34.3238 30.5451 35.4228 29.1833 36.0727 27.509C34.7316 27.9304 33.5363 27.6376 32.5623 27.103Z" fill="#52565B"/>
<path d="M26.556 29.7399L26.9472 27.2454C26.9688 27.2351 26.9889 27.2232 27.0105 27.2124C26.0974 27.6645 25.0063 27.8897 23.7935 27.5337C24.4085 29.1047 25.4177 30.4025 26.665 31.2369C26.5199 30.7695 26.4742 30.2616 26.556 29.7399Z" fill="#52565B"/>
<path d="M26.6651 31.2369C25.4177 30.4025 24.4085 29.1048 23.7935 27.5338C23.6151 27.4815 23.4349 27.4206 23.2514 27.3418C22.8865 27.1855 22.556 26.9975 22.2588 26.784C20.8047 26.3758 19.4426 25.8322 18.3335 25.134C19.1939 28.6011 22.6659 31.3607 27.1298 32.1768C26.9278 31.8918 26.7701 31.5754 26.6651 31.2369Z" fill="#039BE6"/>
<path d="M37.5243 26.7839C37.2271 26.9974 36.8966 27.1854 36.5317 27.3417C36.3766 27.4083 36.224 27.4615 36.0726 27.5091C35.4227 29.1832 34.3239 30.5451 32.968 31.3744C32.863 31.6664 32.7201 31.9411 32.541 32.1902C37.0316 31.3945 40.5339 28.635 41.4102 25.1599C40.3084 25.8462 38.9605 26.3808 37.5243 26.7839Z" fill="#039BE6"/>
<path d="M29.8408 34.1658C28.6962 34.1658 27.6129 33.6671 26.869 32.7971C26.1248 31.9273 25.8 30.7798 25.9774 29.6489L26.3686 27.1547C26.3983 26.9642 26.52 26.8006 26.6939 26.7171C28.339 25.9275 29.3859 24.2904 29.3962 24.274C29.5036 24.1041 29.6906 24.001 29.8917 24.001C30.093 24.001 30.2801 24.1043 30.3872 24.2745C30.3968 24.2895 31.4116 25.8689 32.9911 26.6705C33.1589 26.7558 33.2756 26.9164 33.3047 27.1022L33.704 29.6489C33.8815 30.7798 33.5566 31.9271 32.8125 32.7971C32.0688 33.6671 30.9855 34.1658 29.8408 34.1658ZM27.4802 27.6307L27.1352 29.8306C27.011 30.6225 27.2386 31.4262 27.7596 32.0354C28.2808 32.6445 29.0393 32.9939 29.8411 32.9939C30.6429 32.9939 31.4013 32.6445 31.9223 32.0354C32.4433 31.4262 32.6709 30.6225 32.5467 29.8306L32.1923 27.5707C31.1529 26.9785 30.3626 26.149 29.8915 25.5715C29.4035 26.1687 28.574 27.0359 27.4802 27.6307Z" fill="black"/>
<path d="M32.9681 31.9605C32.8364 31.9605 32.7051 31.9162 32.598 31.8288C32.4054 31.6718 32.3325 31.4102 32.4166 31.1763C32.5743 30.7376 32.6179 30.2847 32.5467 29.8305L32.19 27.5557C31.9762 27.3801 31.9106 27.0724 32.0484 26.8211C32.2038 26.5376 32.5598 26.4335 32.8439 26.5891L32.8441 26.5893C33.859 27.1465 34.8857 27.2679 35.8971 26.9501C36.1118 26.8828 36.3464 26.9442 36.5004 27.1087C36.6543 27.2733 36.7003 27.5114 36.6187 27.7211C35.9266 29.5033 34.7388 30.9783 33.2735 31.8743C33.1793 31.9322 33.0736 31.9605 32.9681 31.9605ZM33.4629 28.1095L33.7043 29.6491C33.7242 29.7764 33.738 29.9039 33.7453 30.0309C34.2541 29.5378 34.7001 28.9493 35.0636 28.2895C34.5283 28.3211 33.9944 28.2611 33.4629 28.1095Z" fill="black"/>
<path d="M26.6651 31.8229C26.5516 31.8229 26.4382 31.7901 26.3393 31.724C24.9984 30.827 23.9006 29.4147 23.2479 27.7473C23.1663 27.5392 23.2104 27.303 23.3616 27.138C23.5125 26.973 23.7441 26.9088 23.9585 26.9716C24.882 27.2427 25.8218 27.1471 26.7506 26.6873C27.0405 26.5436 27.3919 26.6622 27.5355 26.9519C27.6333 27.149 27.6098 27.3747 27.4938 27.5441L27.1352 29.8305C27.0701 30.2465 27.1003 30.6613 27.225 31.0633C27.2986 31.3002 27.2149 31.5581 27.0157 31.7064C26.9119 31.784 26.7886 31.8229 26.6651 31.8229ZM24.7943 28.2918C25.1184 28.8798 25.5084 29.4131 25.9491 29.8713C25.9563 29.7972 25.9659 29.7231 25.9777 29.6488L26.2148 28.1364C25.7428 28.2604 25.2696 28.3122 24.7943 28.2918Z" fill="black"/>
<path d="M34.772 13.694C34.4492 13.694 34.187 13.4329 34.186 13.1099C34.1842 12.5282 34.4089 11.9807 34.8189 11.5679C35.229 11.1554 35.7751 10.9272 36.3568 10.9253H36.3641C36.943 10.9253 37.4877 11.1498 37.8985 11.5581C38.3113 11.968 38.5393 12.5141 38.5414 13.0958C38.5424 13.4195 38.281 13.6827 37.9574 13.6837C37.9567 13.6837 37.956 13.6837 37.9555 13.6837C37.6328 13.6837 37.3705 13.4226 37.3696 13.0996C37.3686 12.831 37.2632 12.5786 37.0726 12.3894C36.8821 12.2001 36.6315 12.0951 36.3606 12.0972C36.092 12.0979 35.8396 12.2033 35.6502 12.3941C35.4608 12.5847 35.357 12.8376 35.3579 13.1062C35.3589 13.4298 35.0975 13.693 34.7739 13.694C34.7734 13.694 34.7727 13.694 34.772 13.694Z" fill="black"/>
<path d="M25.0519 13.6888C24.7283 13.6888 24.466 13.4265 24.466 13.1029C24.466 12.5483 24.0148 12.0972 23.46 12.0972C22.9053 12.0972 22.4543 12.5483 22.4543 13.1029C22.4543 13.4265 22.1921 13.6888 21.8684 13.6888C21.5447 13.6888 21.2825 13.4265 21.2825 13.1029C21.2825 11.9022 22.2593 10.9253 23.46 10.9253C24.661 10.9253 25.6379 11.9022 25.6379 13.1029C25.6379 13.4265 25.3756 13.6888 25.0519 13.6888Z" fill="black"/>
<path d="M27.13 32.7626C27.0951 32.7626 27.0597 32.7595 27.0245 32.753C22.3129 31.8916 18.6785 28.9566 17.7649 25.275C17.7072 25.043 17.7965 24.7992 17.9901 24.6591C18.1839 24.5187 18.4434 24.5107 18.6456 24.638C19.6406 25.2642 20.9095 25.7965 22.4172 26.2198C22.4831 26.2383 22.5452 26.2681 22.6007 26.3079C22.8693 26.501 23.166 26.6677 23.4822 26.8031C23.6252 26.8645 23.7763 26.918 23.9585 26.9714C24.1324 27.0225 24.2728 27.1512 24.3391 27.3199C24.9053 28.7665 25.8473 29.9845 26.9908 30.7495C27.1024 30.8241 27.1849 30.9349 27.2247 31.0629C27.3105 31.3392 27.4394 31.5996 27.6077 31.8368C27.7455 32.0311 27.752 32.2896 27.6241 32.4907C27.5153 32.662 27.3278 32.7626 27.13 32.7626ZM19.4135 26.378C20.5024 28.5729 22.7791 30.3377 25.6764 31.222C24.7035 30.3947 23.8982 29.2833 23.3549 28.0092C23.2378 27.9689 23.1281 27.9265 23.0205 27.8803C22.6595 27.7256 22.3176 27.5377 22.0033 27.3206C21.0515 27.0488 20.1855 26.7335 19.4135 26.378Z" fill="black"/>
<path d="M32.5409 32.7763C32.3419 32.7763 32.1534 32.6748 32.0451 32.5026C31.9181 32.3008 31.9261 32.0423 32.0651 31.8487C32.2111 31.6455 32.3292 31.4193 32.4166 31.1762C32.4619 31.0506 32.5483 30.9442 32.6623 30.8746C33.9096 30.1117 34.927 28.8412 35.5263 27.2971C35.5908 27.1312 35.7269 27.0037 35.8969 26.9502C36.0534 26.901 36.1816 26.8544 36.3009 26.8033C36.6176 26.6676 36.9143 26.5009 37.1826 26.3083C37.2382 26.2682 37.3003 26.2384 37.3662 26.2199C38.8573 25.8013 40.1137 25.2775 41.1007 24.6627C41.3037 24.5366 41.5629 24.5458 41.7558 24.6869C41.9489 24.8277 42.037 25.0717 41.9787 25.3035C41.0468 28.998 37.3826 31.9277 32.6433 32.7674C32.6091 32.7733 32.5748 32.7763 32.5409 32.7763ZM36.5147 27.9784C35.9801 29.2448 35.1916 30.3437 34.2321 31.1727C37.0451 30.2765 39.2541 28.5459 40.327 26.3983C39.5665 26.7452 38.7148 27.0536 37.7801 27.3205C37.4658 27.5373 37.1241 27.7255 36.7626 27.8805C36.683 27.9145 36.6014 27.9468 36.5147 27.9784Z" fill="black"/>
<path d="M54.6138 35.3102L53.8706 34.8333C53.7949 34.7848 53.7809 34.6812 53.8385 34.6123C57.3684 30.3914 55.7977 25.6095 55.4773 24.762C55.4489 24.687 55.3673 24.6492 55.2912 24.6743L54.6335 24.8909C54.5484 24.919 54.4594 24.8644 54.4418 24.7765C53.6965 21.0607 50.8542 19.9969 49.9692 19.7524C49.8539 19.7205 49.7531 19.8302 49.7902 19.9439C52.2577 27.5128 47.1607 33.1601 44.0859 35.7457C44.1199 36.0527 44.1502 36.3635 44.1762 36.678C46.233 36.6581 48.2616 37.1452 49.4137 38.7766C52.7536 37.6383 54.2686 35.9998 54.6506 35.5291C54.7064 35.4595 54.6888 35.3583 54.6138 35.3102Z" fill="#EAA250"/>
<path d="M49.4136 39.3623C49.227 39.3623 49.047 39.273 48.935 39.1143C48.0523 37.8644 46.4572 37.24 44.1818 37.2637C44.18 37.2637 44.1781 37.2637 44.1762 37.2637C43.872 37.2637 43.6177 37.0302 43.5924 36.7265C43.5666 36.4173 43.5371 36.1117 43.5036 35.8098C43.482 35.6153 43.5591 35.4229 43.7089 35.297C46.7778 32.7163 51.5764 27.3135 49.2331 20.1252C49.1487 19.866 49.2129 19.5831 49.4007 19.387C49.587 19.192 49.8647 19.1155 50.1254 19.1875C51.0291 19.4371 53.9541 20.5185 54.9068 24.1839L55.1084 24.1176C55.4829 23.9936 55.8861 24.186 56.0255 24.5545C56.3785 25.4882 57.92 30.2502 54.5965 34.6028L54.9305 34.8173C55.107 34.9305 55.2272 35.1138 55.2603 35.3202C55.2933 35.5258 55.2368 35.7365 55.1056 35.8984C54.6957 36.4035 53.0874 38.1438 49.6027 39.3313C49.5404 39.352 49.4766 39.3623 49.4136 39.3623ZM44.7118 36.0981C46.9093 36.1715 48.5553 36.8376 49.6161 38.0828C51.9451 37.2243 53.2559 36.1424 53.8646 35.5256L53.5543 35.3263C53.3771 35.2127 53.2573 35.0282 53.2257 34.8201C53.1938 34.611 53.2536 34.3982 53.3893 34.2358C56.3384 30.7094 55.5076 26.778 55.0651 25.3652L54.8166 25.447C54.6179 25.5126 54.4001 25.4896 54.2192 25.3841C54.0371 25.2782 53.9086 25.0987 53.8672 24.8915C53.3433 22.2791 51.6854 21.1054 50.5946 20.6052C51.4245 23.7869 51.0708 26.9355 49.5397 29.9765C48.2044 32.6277 46.2165 34.6816 44.701 35.9908C44.7045 36.0266 44.708 36.0623 44.7118 36.0981Z" fill="black"/>
<path d="M33.6041 57.961C33.6793 57.522 33.7967 57.0495 33.9807 56.6455C34.2737 56.0016 34.4427 55.3138 34.4427 54.6125V41.2248C34.4427 39.6151 33.523 38.2131 32.1563 37.4541C31.4724 37.1394 30.7077 36.9575 29.8991 36.9456C29.0905 36.9575 28.3257 37.1394 27.6418 37.4541C26.2754 38.2128 25.3555 39.6151 25.3555 41.2248V54.6125C25.3555 55.3138 25.5245 56.0016 25.8174 56.6455C26.0012 57.0495 26.1188 57.522 26.1941 57.961C26.21 58.0536 26.2142 58.1448 26.2091 58.2341C27.357 58.6461 28.5988 58.877 29.8991 58.877C31.1994 58.877 32.4413 58.6463 33.5891 58.2341C33.5839 58.1448 33.5881 58.0534 33.6041 57.961Z" fill="#F4DBCE"/>
<path d="M46.1044 55.7297L49.0198 48.8224C52.6041 38.7633 48.4446 36.6364 44.175 36.6778C44.6035 41.8376 43.9231 47.9656 40.4611 54.0628C40.0479 54.7906 40.2462 55.6899 40.9191 56.2156C41.341 56.5453 41.7992 56.9613 42.1727 57.443C42.7345 58.1667 42.296 59.1546 41.4443 59.3696L41.4881 59.4136H50.2345C51.2065 55.2694 46.1044 55.7297 46.1044 55.7297Z" fill="#EAA250"/>
<path d="M17.6251 57.443C17.9989 56.9613 18.4569 56.5453 18.8787 56.2156C19.5516 55.6899 19.7499 54.7906 19.3367 54.0628C15.8745 47.9658 15.1944 41.8376 15.6228 36.6778C11.3534 36.6364 7.19396 38.7633 10.778 48.8224L13.6934 55.7297C13.6934 55.7297 8.59131 55.2692 9.56326 59.4136H18.3097L18.3535 59.3696C17.5018 59.1546 17.0633 58.1667 17.6251 57.443Z" fill="#EAA250"/>
<path d="M41.3498 25.3787C40.3842 28.7504 36.937 31.4115 32.5411 32.1905C31.942 33.0249 30.9659 33.5797 29.8409 33.5797C28.7095 33.5797 27.728 33.0186 27.1298 32.1765C22.8007 31.3852 19.4048 28.7658 18.4188 25.4462C16.4123 30.148 12.5813 42.166 19.3366 54.0626C19.7498 54.7904 19.5516 55.6897 18.8787 56.2154C18.4568 56.5451 17.9986 56.9612 17.625 57.4428C16.9915 58.2591 17.6288 59.4134 18.6982 59.4134H24.8951C25.7088 59.4134 26.3243 58.7218 26.194 57.9608C26.1188 57.5218 26.0013 57.0493 25.8173 56.6452C25.5244 56.0014 25.3554 55.3135 25.3554 54.6123V41.2245C25.3554 38.8318 27.3834 36.8905 29.899 36.8534C32.4145 36.8907 34.4426 38.8318 34.4426 41.2245V54.6123C34.4426 55.3135 34.2736 56.0014 33.9806 56.6452C33.7969 57.0493 33.6792 57.5218 33.604 57.9608C33.4737 58.722 34.0891 59.4134 34.9029 59.4134H41.0998C42.169 59.4134 42.8065 58.2591 42.173 57.4428C41.7991 56.9612 41.3412 56.5451 40.9193 56.2154C40.2464 55.6897 40.0481 54.7904 40.4613 54.0626C47.2498 42.1074 43.3479 30.0308 41.3498 25.3787Z" fill="#EAA250"/>
<path d="M50.2345 59.9999H41.4881C41.3318 59.9999 41.1822 59.9375 41.0721 59.8267L41.0282 59.7826C40.8801 59.6333 40.8234 59.4158 40.8796 59.2131C40.9359 59.0103 41.0967 58.8533 41.3008 58.802C41.5366 58.7424 41.7302 58.5692 41.8054 58.3503C41.8516 58.2163 41.8725 58.0124 41.7098 57.8028C41.4152 57.4234 41.0278 57.0449 40.5581 56.6778C39.6529 55.9705 39.3977 54.7494 39.9513 53.7742C42.8777 48.6207 44.1023 42.8851 43.5909 36.7271C43.5773 36.5649 43.6319 36.4044 43.7418 36.2839C43.8518 36.1635 44.0062 36.0943 44.1691 36.0927C46.8426 36.0664 48.764 36.8492 49.8822 38.4186C51.4155 40.5707 51.311 44.1374 49.5714 49.0199C49.5677 49.0304 49.5637 49.0407 49.5593 49.051L46.9884 55.142C47.9386 55.1964 49.3851 55.453 50.2453 56.4428C50.9182 57.2174 51.1064 58.2622 50.805 59.5482C50.7429 59.8126 50.5066 59.9999 50.2345 59.9999ZM42.8775 58.828H49.747C49.8339 58.1415 49.7067 57.6104 49.3624 57.2127C48.5838 56.3136 46.7831 56.259 46.1559 56.3136C45.9539 56.3321 45.7518 56.2407 45.6309 56.0748C45.51 55.9086 45.4844 55.6914 45.5643 55.5022L48.4734 48.6104C50.0718 44.1182 50.2246 40.9178 48.9281 39.0981C48.1289 37.9764 46.7437 37.3646 44.8066 37.2749C45.2025 43.4284 43.9132 49.1706 40.9706 54.3524C40.702 54.8256 40.829 55.4021 41.2797 55.7539C41.8256 56.1805 42.2817 56.6279 42.6356 57.0838C43.0078 57.5633 43.1093 58.164 42.9138 58.7317C42.9025 58.7642 42.8906 58.7961 42.8775 58.828Z" fill="black"/>
<path d="M18.3099 59.9998H9.56331C9.2912 59.9998 9.05495 59.8125 8.99284 59.5477C8.6912 58.2617 8.87963 57.2171 9.55252 56.4422C10.4124 55.4522 11.8592 55.1958 12.8094 55.1414L10.2385 49.0505C10.2341 49.0402 10.2301 49.0299 10.2264 49.0193C8.48682 44.1368 8.38206 40.5699 9.91557 38.4181C11.0338 36.8489 12.9486 36.0673 15.6287 36.0921C15.7916 36.0938 15.9463 36.1629 16.056 36.2834C16.1656 36.4038 16.2203 36.5644 16.2069 36.7266C15.6955 42.8845 16.9201 48.6202 19.8465 53.7736C20.4003 54.7488 20.1451 55.9702 19.2397 56.6775C18.7703 57.0443 18.3826 57.4231 18.088 57.8025C17.9253 58.0123 17.9462 58.2162 17.9924 58.35C18.0678 58.5692 18.2612 58.7421 18.497 58.8017C18.7011 58.8532 18.8619 59.0103 18.9181 59.2128C18.9744 59.4155 18.9179 59.633 18.7696 59.7823L18.7257 59.8263C18.6158 59.9372 18.466 59.9998 18.3099 59.9998ZM10.051 58.8279H16.9206C16.9077 58.7963 16.8957 58.7642 16.8845 58.7316C16.689 58.1639 16.7903 57.5632 17.1627 57.0837C17.5164 56.6281 17.9727 56.1804 18.5183 55.7541C18.969 55.4018 19.0963 54.8255 18.8277 54.3523C15.8851 49.1705 14.5958 43.4283 14.9917 37.2748C13.0541 37.3643 11.6694 37.9763 10.8702 39.098C9.57362 40.9177 9.72643 44.1178 11.3249 48.6103L14.2339 55.5021C14.3139 55.6917 14.2885 55.9092 14.1674 56.0754C14.0462 56.2416 13.8463 56.3328 13.6414 56.3135C13.014 56.2589 11.2145 56.3138 10.4359 57.2128C10.0914 57.6103 9.96409 58.1412 10.051 58.8279Z" fill="black"/>
<path d="M29.8991 59.4629C28.5709 59.4629 27.2628 59.2351 26.011 58.7855C25.7663 58.6977 25.6088 58.4591 25.6241 58.1996C25.6269 58.1525 25.6243 58.1054 25.6163 58.0595C25.5359 57.5902 25.4241 57.1958 25.284 56.8878C24.9425 56.1376 24.7695 55.3719 24.7695 54.6123V41.2243C24.7695 39.4688 25.7612 37.8277 27.3573 36.9416C27.3702 36.9343 27.3833 36.9277 27.3966 36.9216C28.179 36.5614 29.0178 36.3723 29.8902 36.3594C30.7798 36.3723 31.6187 36.5614 32.401 36.9216C32.4144 36.9277 32.4275 36.9345 32.4404 36.9416C34.0365 37.828 35.0281 39.4691 35.0281 41.2243V54.6123C35.0281 55.3719 34.8549 56.1376 34.5137 56.8878C34.3735 57.1955 34.2617 57.59 34.1813 58.0595C34.1734 58.1054 34.171 58.1525 34.1736 58.1996C34.1888 58.4591 34.0313 58.6977 33.7866 58.7855C32.5353 59.2351 31.2273 59.4629 29.8991 59.4629ZM26.7613 57.8028C28.7933 58.4513 31.0048 58.4513 33.0369 57.8028C33.1339 57.2593 33.2717 56.7884 33.4473 56.4027C33.7189 55.8059 33.8565 55.2036 33.8565 54.6125V41.2245C33.8565 39.9015 33.1039 38.6591 31.8908 37.977C31.2634 37.6916 30.5905 37.5416 29.8902 37.5312C29.207 37.5416 28.5341 37.6918 27.9069 37.977C26.694 38.6593 25.9412 39.9015 25.9412 41.2245V54.6125C25.9412 55.2036 26.0788 55.8059 26.3504 56.4027C26.5262 56.7882 26.6642 57.2591 26.7613 57.8028Z" fill="black"/>
<path d="M41.0997 59.9998H34.9029C34.3279 59.9998 33.7903 59.7532 33.4279 59.3234C33.0836 58.9151 32.9374 58.3826 33.0264 57.8621C33.1239 57.2932 33.2655 56.8022 33.4474 56.4026C33.719 55.8059 33.8566 55.2035 33.8566 54.6124V41.2245C33.8566 39.1695 32.0775 37.4714 29.8905 37.4393C27.7207 37.4717 25.9415 39.1697 25.9415 41.2245V54.6124C25.9415 55.2035 26.0791 55.8059 26.3507 56.4026C26.5326 56.8022 26.6742 57.2932 26.7717 57.8621C26.8607 58.3826 26.7145 58.9151 26.3702 59.3234C26.0076 59.7532 25.4702 59.9998 24.8953 59.9998H18.6984C17.9524 59.9998 17.2903 59.5943 16.9706 58.9416C16.6678 58.3231 16.7395 57.6286 17.1623 57.0837C17.5162 56.6281 17.9723 56.1804 18.5179 55.7541C18.9686 55.4018 19.0959 54.8255 18.8273 54.3523C11.932 42.2088 15.8679 29.9313 17.88 25.2164C17.977 24.9893 18.2079 24.8489 18.4523 24.8613C18.6989 24.8756 18.9103 25.0428 18.9804 25.2795C19.8984 28.3704 23.1386 30.8513 27.2353 31.6001C27.3855 31.6278 27.5191 31.7126 27.6077 31.8373C28.1294 32.5723 28.9434 32.9939 29.8408 32.9939C30.7317 32.9939 31.5424 32.5765 32.065 31.8488C32.1541 31.7245 32.2884 31.6402 32.4389 31.6137C36.6086 30.8749 39.8852 28.3641 40.7864 25.2174C40.8546 24.9792 41.0653 24.8095 41.3125 24.7938C41.5589 24.7786 41.7902 24.9197 41.8879 25.1473C43.9165 29.8702 47.8879 42.1702 40.9706 54.352C40.702 54.8253 40.829 55.4018 41.2797 55.7536C41.8256 56.1802 42.2817 56.6276 42.6356 57.0835C43.0586 57.6284 43.1301 58.3228 42.8273 58.9413C42.5079 59.5943 41.8457 59.9998 41.0997 59.9998ZM29.8903 36.2677C32.7311 36.3092 35.0282 38.5329 35.0282 41.2245V54.6124C35.0282 55.372 34.855 56.1378 34.5138 56.888C34.3736 57.196 34.2618 57.5902 34.1815 58.0599C34.1503 58.2417 34.2009 58.4222 34.3235 58.568C34.4627 58.7332 34.6739 58.8279 34.9026 58.8279H41.0995C41.4522 58.8279 41.6796 58.6205 41.7747 58.4262C41.8352 58.3024 41.9074 58.0568 41.7098 57.8023C41.4152 57.4228 41.0278 57.0443 40.5581 56.6773C39.6529 55.9699 39.3977 54.7488 39.9513 53.7736C46.0331 43.0634 43.3565 32.2268 41.354 26.9543C39.9093 29.7938 36.7467 31.9781 32.8682 32.7258C32.1281 33.6317 31.0134 34.1658 29.8406 34.1658C28.6589 34.1658 27.5393 33.6258 26.7991 32.7101C22.9926 31.954 19.8707 29.7968 18.4228 27.0082C16.4369 32.2681 13.78 43.091 19.8459 53.7736C20.3997 54.7488 20.1445 55.9702 19.2391 56.6775C18.7697 57.0443 18.382 57.4231 18.0874 57.8025C17.8898 58.057 17.962 58.3027 18.0225 58.4264C18.1176 58.6207 18.3447 58.8281 18.6977 58.8281H24.8946C25.1233 58.8281 25.3345 58.7335 25.4737 58.5682C25.5965 58.4224 25.6472 58.242 25.6157 58.0601C25.5354 57.5906 25.4236 57.1962 25.2834 56.8882C24.9419 56.138 24.769 55.3723 24.769 54.6127V41.2247C24.7694 38.5329 27.0665 36.3092 29.8903 36.2677Z" fill="black"/>
</g>
<defs>
<clipPath id="clip0_99_5750">
<rect width="60" height="60" fill="white"/>
</clipPath>
</defs>
</svg>
