<svg width="60" height="60" viewBox="0 0 60 60" fill="none" xmlns="http://www.w3.org/2000/svg">
<g clip-path="url(#clip0_98_3805)">
<path d="M9.23156 25.7981L10.5441 23.5097C12.1836 20.6406 14.5523 18.2557 17.4102 16.5967C20.268 14.9377 23.5136 14.0634 26.8181 14.0625H29.4319C32.7372 14.0626 35.9837 14.9365 38.8425 16.5955C41.7013 18.2546 44.0707 20.6399 45.7106 23.5097L46.9294 25.6416C47.2054 26.1246 47.5854 26.5401 48.0418 26.8581C48.4983 27.1761 49.0197 27.3885 49.5684 27.48L52.7953 28.0181C54.5465 28.31 56.1375 29.2135 57.285 30.5682C58.4326 31.9228 59.0625 33.6406 59.0625 35.4159V38.4375C59.0625 39.4321 58.6674 40.3859 57.9641 41.0891C57.2609 41.7924 56.3071 42.1875 55.3125 42.1875H4.6875C3.69294 42.1875 2.73911 41.7924 2.03585 41.0891C1.33259 40.3859 0.9375 39.4321 0.9375 38.4375V31.9903C0.937627 31.1541 1.21726 30.3419 1.73195 29.6828C2.24664 29.0237 2.96685 28.5556 3.77813 28.3528L6.885 27.5756C7.37581 27.453 7.83672 27.2322 8.23999 26.9268C8.64326 26.6213 8.98055 26.2374 9.23156 25.7981Z" fill="#F8C460"/>
<path d="M58.125 39.3749H13.9472C11.2427 39.3749 8.64903 38.3006 6.73669 36.3882C4.82434 34.4759 3.75 31.8822 3.75 29.1777C3.75385 28.8932 3.79034 28.6101 3.85875 28.334L3.77813 28.3537C2.96716 28.5564 2.24718 29.0242 1.73252 29.6829C1.21787 30.3416 0.938045 31.1534 0.9375 31.9893V38.4374C0.9375 39.432 1.33259 40.3858 2.03585 41.0891C2.73911 41.7923 3.69294 42.1874 4.6875 42.1874H55.3125C56.1606 42.1859 56.983 41.8969 57.6457 41.3677C58.3084 40.8386 58.7721 40.1004 58.9613 39.2737C58.6872 39.3389 58.4067 39.3729 58.125 39.3749Z" fill="#FAAF42"/>
<path d="M0.9375 31.9875V34.6875H3.75L4.6875 30.9375H1.0875C0.989825 31.279 0.939357 31.6323 0.9375 31.9875Z" fill="#A7D0E1"/>
<path d="M4.30406 32.4713C4.13329 31.9711 4.00226 31.4583 3.91219 30.9375H1.09969C1.07344 31.0256 1.05 31.1147 1.03031 31.2047C1.01531 31.2722 0.9975 31.3397 0.98625 31.4081C0.955319 31.6004 0.939023 31.7947 0.9375 31.9894V34.6875H3.75L4.30406 32.4713Z" fill="#80BBCE"/>
<path d="M53.4375 30.9375C53.4369 31.4301 53.5335 31.918 53.7217 32.3733C53.9099 32.8285 54.1861 33.2422 54.5345 33.5905C54.8828 33.9389 55.2965 34.2151 55.7517 34.4033C56.207 34.5915 56.6949 34.6881 57.1875 34.6875H59.025C58.8979 33.3253 58.3912 32.0261 57.5625 30.9375H53.4375Z" fill="#A7D0E1"/>
<path d="M49.6875 41.2501C49.6921 40.469 49.5338 39.6956 49.223 38.979C48.9122 38.2624 48.4555 37.6184 47.882 37.088C47.3086 36.5577 46.631 36.1525 45.8924 35.8985C45.1538 35.6444 44.3703 35.5469 43.592 35.6123C42.8136 35.6776 42.0574 35.9044 41.3715 36.278C40.6856 36.6517 40.085 37.1642 39.6081 37.7828C39.1311 38.4013 38.7882 39.1124 38.6012 39.8708C38.4142 40.6292 38.3872 41.4182 38.5219 42.1876H49.6032C49.6574 41.878 49.6856 41.5644 49.6875 41.2501Z" fill="#FAAF42"/>
<path d="M45.9375 45.9375C49.0441 45.9375 51.5625 43.4191 51.5625 40.3125C51.5625 37.2059 49.0441 34.6875 45.9375 34.6875C42.8309 34.6875 40.3125 37.2059 40.3125 40.3125C40.3125 43.4191 42.8309 45.9375 45.9375 45.9375Z" fill="#7A838B"/>
<path d="M45.9375 42.1875C46.973 42.1875 47.8125 41.348 47.8125 40.3125C47.8125 39.277 46.973 38.4375 45.9375 38.4375C44.902 38.4375 44.0625 39.277 44.0625 40.3125C44.0625 41.348 44.902 42.1875 45.9375 42.1875Z" fill="#A7D0E1"/>
<path d="M14.0625 45.9375C17.1691 45.9375 19.6875 43.4191 19.6875 40.3125C19.6875 37.2059 17.1691 34.6875 14.0625 34.6875C10.9559 34.6875 8.4375 37.2059 8.4375 40.3125C8.4375 43.4191 10.9559 45.9375 14.0625 45.9375Z" fill="#7A838B"/>
<path d="M16.875 43.1251C15.935 43.1262 15.0097 42.8914 14.1839 42.4423C13.3581 41.9931 12.6582 41.3439 12.1483 40.5542C11.6384 39.7644 11.3348 38.8594 11.2654 37.9219C11.1959 36.9844 11.3627 36.0445 11.7507 35.1882C10.9197 35.5616 10.1919 36.1312 9.62974 36.848C9.0676 37.5648 8.68797 38.4075 8.52348 39.3034C8.359 40.1994 8.41459 41.122 8.68547 41.9917C8.95634 42.8615 9.43441 43.6524 10.0786 44.2966C10.7227 44.9407 11.5137 45.4188 12.3834 45.6897C13.2532 45.9605 14.1757 46.0161 15.0717 45.8517C15.9677 45.6872 16.8103 45.3075 17.5271 44.7454C18.244 44.1832 18.8136 43.4554 19.1869 42.6245C18.4607 42.954 17.6725 43.1247 16.875 43.1251Z" fill="#5D6972"/>
<path d="M48.75 43.1251C47.81 43.1262 46.8847 42.8914 46.0589 42.4423C45.2331 41.9931 44.5332 41.3439 44.0233 40.5542C43.5134 39.7644 43.2098 38.8594 43.1404 37.9219C43.0709 36.9844 43.2377 36.0445 43.6257 35.1882C42.7947 35.5616 42.0669 36.1312 41.5047 36.848C40.9426 37.5648 40.563 38.4075 40.3985 39.3034C40.234 40.1994 40.2896 41.122 40.5605 41.9917C40.8313 42.8615 41.3094 43.6524 41.9536 44.2966C42.5977 44.9407 43.3887 45.4188 44.2584 45.6897C45.1282 45.9605 46.0507 46.0161 46.9467 45.8517C47.8427 45.6872 48.6853 45.3075 49.4021 44.7454C50.119 44.1832 50.6886 43.4554 51.0619 42.6245C50.3357 42.954 49.5475 43.1247 48.75 43.1251Z" fill="#5D6972"/>
<path d="M14.0625 42.1875C15.098 42.1875 15.9375 41.348 15.9375 40.3125C15.9375 39.277 15.098 38.4375 14.0625 38.4375C13.027 38.4375 12.1875 39.277 12.1875 40.3125C12.1875 41.348 13.027 42.1875 14.0625 42.1875Z" fill="#A7D0E1"/>
<path d="M25.7625 16.875H26.25V26.25H13.125L13.575 25.125C14.5502 22.69 16.2323 20.6028 18.4045 19.1324C20.5767 17.6619 23.1394 16.8757 25.7625 16.875Z" fill="#A7D0E1"/>
<path d="M16.875 23.4376L17.325 22.3126C17.9242 20.8197 18.7927 19.4498 19.8872 18.271C17.016 19.7072 14.7704 22.1455 13.575 25.1251L13.125 26.2501H26.25V23.4376H16.875Z" fill="#80BBCE"/>
<path d="M43.125 26.25H30V16.875H30.4875C33.1106 16.8757 35.6733 17.6619 37.8455 19.1324C40.0177 20.6028 41.6998 22.69 42.675 25.125L43.125 26.25Z" fill="#A7D0E1"/>
<path d="M36.5625 21.4575C36.3836 21.4578 36.2085 21.4064 36.0581 21.3094C35.7769 21.1322 35.4956 20.9663 35.1984 20.8163C34.977 20.7032 34.8096 20.5067 34.7331 20.2702C34.6565 20.0336 34.677 19.7763 34.7902 19.5549C34.9033 19.3335 35.0997 19.1661 35.3363 19.0895C35.5729 19.0129 35.8302 19.0335 36.0516 19.1466C36.4003 19.3247 36.7391 19.5191 37.0678 19.7297C37.2389 19.8389 37.3699 20.0006 37.4412 20.1905C37.5125 20.3805 37.5203 20.5885 37.4633 20.7832C37.4064 20.978 37.2878 21.149 37.1253 21.2706C36.9629 21.3922 36.7654 21.4578 36.5625 21.4575Z" fill="white"/>
<path d="M41.85 23.4375H36.5625C35.5679 23.4375 34.6141 23.0424 33.9109 22.3391C33.2076 21.6359 32.8125 20.6821 32.8125 19.6875V17.0906C32.0455 16.9496 31.2674 16.8775 30.4875 16.875H30V26.25H43.125L42.675 25.125C42.4404 24.5436 42.1647 23.9797 41.85 23.4375Z" fill="#80BBCE"/>
<path d="M52.95 27.0938L49.7222 26.5566C49.3105 26.4885 48.9191 26.3294 48.5767 26.0908C48.2343 25.8522 47.9495 25.5402 47.7431 25.1775L46.5244 23.0456C44.7994 20.0349 42.3109 17.5324 39.31 15.7906C36.309 14.0489 32.9017 13.1294 29.4319 13.125H26.8181C23.3484 13.1293 19.9412 14.0486 16.9402 15.7902C13.9392 17.5319 11.4507 20.0342 9.72563 23.0447L8.41313 25.3331C8.22453 25.6617 7.97183 25.949 7.67002 26.178C7.36822 26.4071 7.02347 26.5731 6.65625 26.6663L3.54938 27.4425C2.77582 27.6361 2.06468 28.0245 1.48361 28.5706C0.902546 29.1167 0.470881 29.8024 0.229688 30.5625C0.219375 30.5869 0.218438 30.6159 0.21 30.6412C0.0742706 31.0782 0.00351421 31.5328 0 31.9903L0 38.4375C0.00148862 39.6802 0.495827 40.8717 1.37458 41.7504C2.25334 42.6292 3.44475 43.1235 4.6875 43.125H8.14219C8.67241 44.2467 9.51038 45.1947 10.5585 45.8585C11.6066 46.5224 12.8218 46.8749 14.0625 46.8749C15.3032 46.8749 16.5184 46.5224 17.5665 45.8585C18.6146 45.1947 19.4526 44.2467 19.9828 43.125H40.0172C40.5474 44.2467 41.3854 45.1947 42.4335 45.8585C43.4816 46.5224 44.6968 46.8749 45.9375 46.8749C47.1782 46.8749 48.3934 46.5224 49.4415 45.8585C50.4896 45.1947 51.3276 44.2467 51.8578 43.125H55.3125C56.5552 43.1235 57.7467 42.6292 58.6254 41.7504C59.5042 40.8717 59.9985 39.6802 60 38.4375V35.4159C60.005 33.4174 59.2983 31.4824 58.0065 29.9575C56.7147 28.4326 54.9222 27.4174 52.95 27.0938ZM57.0881 31.875C57.4589 32.453 57.7364 33.0857 57.9103 33.75H57.1875C56.4438 33.7498 55.7302 33.456 55.2019 32.9325C54.9049 32.6332 54.6776 32.2722 54.5363 31.875H57.0881ZM1.88437 31.875H3.48656L3.01781 33.75H1.875V31.9903C1.875 31.9509 1.88344 31.9134 1.88437 31.875ZM14.0625 45C13.1354 45 12.2291 44.7251 11.4583 44.21C10.6874 43.6949 10.0866 42.9629 9.73181 42.1063C9.37703 41.2498 9.2842 40.3073 9.46507 39.398C9.64594 38.4887 10.0924 37.6535 10.7479 36.9979C11.4035 36.3424 12.2387 35.8959 13.148 35.7151C14.0573 35.5342 14.9998 35.627 15.8563 35.9818C16.7129 36.3366 17.4449 36.9374 17.96 37.7083C18.4751 38.4791 18.75 39.3854 18.75 40.3125C18.7485 41.5552 18.2542 42.7467 17.3754 43.6254C16.4967 44.5042 15.3052 44.9985 14.0625 45ZM45.9375 45C45.0104 45 44.1041 44.7251 43.3333 44.21C42.5624 43.6949 41.9616 42.9629 41.6068 42.1063C41.252 41.2498 41.1592 40.3073 41.3401 39.398C41.5209 38.4887 41.9674 37.6535 42.6229 36.9979C43.2785 36.3424 44.1137 35.8959 45.023 35.7151C45.9323 35.5342 46.8748 35.627 47.7313 35.9818C48.5879 36.3366 49.3199 36.9374 49.835 37.7083C50.3501 38.4791 50.625 39.3854 50.625 40.3125C50.6235 41.5552 50.1292 42.7467 49.2504 43.6254C48.3717 44.5042 47.1802 44.9985 45.9375 45ZM55.3125 41.25H52.425C52.5675 40.3154 52.5064 39.361 52.2459 38.4521C51.9853 37.5433 51.5315 36.7015 50.9154 35.9844C50.2993 35.2672 49.5355 34.6916 48.6764 34.297C47.8172 33.9025 46.8829 33.6982 45.9375 33.6982C44.9921 33.6982 44.0578 33.9025 43.1986 34.297C42.3395 34.6916 41.5757 35.2672 40.9596 35.9844C40.3435 36.7015 39.8897 37.5433 39.6291 38.4521C39.3686 39.361 39.3075 40.3154 39.45 41.25H20.55C20.6925 40.3154 20.6314 39.361 20.3709 38.4521C20.1103 37.5433 19.6565 36.7015 19.0404 35.9844C18.4243 35.2672 17.6606 34.6916 16.8014 34.297C15.9422 33.9025 15.0079 33.6982 14.0625 33.6982C13.1171 33.6982 12.1828 33.9025 11.3236 34.297C10.4645 34.6916 9.70069 35.2672 9.08461 35.9844C8.46853 36.7015 8.01468 37.5433 7.75413 38.4521C7.49358 39.361 7.43247 40.3154 7.575 41.25H4.6875C3.94158 41.25 3.22621 40.9537 2.69876 40.4262C2.17132 39.8988 1.875 39.1834 1.875 38.4375V35.625H3.75C3.959 35.625 4.162 35.5552 4.32676 35.4266C4.49152 35.298 4.60859 35.118 4.65937 34.9153L5.59687 31.1653C5.6315 31.0271 5.63416 30.8828 5.60465 30.7434C5.57514 30.6039 5.51423 30.4731 5.42656 30.3607C5.33889 30.2484 5.22676 30.1575 5.0987 30.095C4.97063 30.0325 4.83001 30 4.6875 30H2.70844C3.06585 29.6412 3.51398 29.3862 4.005 29.2622L7.11281 28.485C7.72565 28.3303 8.30109 28.0538 8.80489 27.6721C9.30868 27.2904 9.73053 26.8112 10.0453 26.2631L11.3531 23.9747C12.914 21.2509 15.1657 18.987 17.8809 17.4113C20.5961 15.8356 23.6788 15.0039 26.8181 15H29.4319C32.5718 15.0032 35.6553 15.8347 38.3713 17.4104C41.0872 18.9861 43.3394 21.2504 44.9006 23.9747L46.1194 26.1066C46.4627 26.7109 46.9366 27.231 47.5065 27.6289C48.0765 28.0268 48.7281 28.2923 49.4137 28.4062L52.6416 28.9444C53.5854 29.1005 54.4838 29.4608 55.2741 30H53.4375C53.1889 30 52.9504 30.0988 52.7746 30.2746C52.5988 30.4504 52.5 30.6889 52.5 30.9375C52.4994 31.5532 52.6202 32.1631 52.8556 32.7321C53.0909 33.3011 53.4362 33.818 53.8716 34.2534C54.307 34.6888 54.8239 35.0341 55.3929 35.2694C55.9619 35.5048 56.5718 35.6256 57.1875 35.625H58.125V38.4375C58.125 39.1834 57.8287 39.8988 57.3012 40.4262C56.7738 40.9537 56.0584 41.25 55.3125 41.25Z" fill="black"/>
<path d="M31.875 28.125H30C29.7514 28.125 29.5129 28.2238 29.3371 28.3996C29.1613 28.5754 29.0625 28.8139 29.0625 29.0625C29.0625 29.3111 29.1613 29.5496 29.3371 29.7254C29.5129 29.9012 29.7514 30 30 30H31.875C32.1236 30 32.3621 29.9012 32.5379 29.7254C32.7137 29.5496 32.8125 29.3111 32.8125 29.0625C32.8125 28.8139 32.7137 28.5754 32.5379 28.3996C32.3621 28.2238 32.1236 28.125 31.875 28.125Z" fill="black"/>
<path d="M14.0625 28.125H12.1875C11.9389 28.125 11.7004 28.2238 11.5246 28.3996C11.3488 28.5754 11.25 28.8139 11.25 29.0625C11.25 29.3111 11.3488 29.5496 11.5246 29.7254C11.7004 29.9012 11.9389 30 12.1875 30H14.0625C14.3111 30 14.5496 29.9012 14.7254 29.7254C14.9012 29.5496 15 29.3111 15 29.0625C15 28.8139 14.9012 28.5754 14.7254 28.3996C14.5496 28.2238 14.3111 28.125 14.0625 28.125Z" fill="black"/>
<path d="M45.9375 37.5C45.3812 37.5 44.8375 37.665 44.375 37.974C43.9124 38.283 43.552 38.7223 43.3391 39.2362C43.1262 39.7501 43.0705 40.3156 43.179 40.8612C43.2876 41.4068 43.5554 41.9079 43.9488 42.3012C44.3421 42.6946 44.8432 42.9624 45.3888 43.071C45.9344 43.1795 46.4999 43.1238 47.0138 42.9109C47.5277 42.698 47.967 42.3376 48.276 41.875C48.585 41.4125 48.75 40.8688 48.75 40.3125C48.75 39.5666 48.4537 38.8512 47.9262 38.3238C47.3988 37.7963 46.6834 37.5 45.9375 37.5ZM45.9375 41.25C45.7521 41.25 45.5708 41.195 45.4167 41.092C45.2625 40.989 45.1423 40.8426 45.0714 40.6713C45.0004 40.5 44.9818 40.3115 45.018 40.1296C45.0542 39.9477 45.1435 39.7807 45.2746 39.6496C45.4057 39.5185 45.5727 39.4292 45.7546 39.393C45.9365 39.3568 46.125 39.3754 46.2963 39.4464C46.4676 39.5173 46.614 39.6375 46.717 39.7917C46.82 39.9458 46.875 40.1271 46.875 40.3125C46.875 40.5611 46.7762 40.7996 46.6004 40.9754C46.4246 41.1512 46.1861 41.25 45.9375 41.25Z" fill="black"/>
<path d="M14.0625 37.5C13.5062 37.5 12.9625 37.665 12.5 37.974C12.0374 38.283 11.677 38.7223 11.4641 39.2362C11.2512 39.7501 11.1955 40.3156 11.304 40.8612C11.4126 41.4068 11.6804 41.9079 12.0738 42.3012C12.4671 42.6946 12.9682 42.9624 13.5138 43.071C14.0594 43.1795 14.6249 43.1238 15.1388 42.9109C15.6527 42.698 16.092 42.3376 16.401 41.875C16.7101 41.4125 16.875 40.8688 16.875 40.3125C16.875 39.5666 16.5787 38.8512 16.0512 38.3238C15.5238 37.7963 14.8084 37.5 14.0625 37.5ZM14.0625 41.25C13.8771 41.25 13.6958 41.195 13.5417 41.092C13.3875 40.989 13.2673 40.8426 13.1964 40.6713C13.1254 40.5 13.1068 40.3115 13.143 40.1296C13.1792 39.9477 13.2685 39.7807 13.3996 39.6496C13.5307 39.5185 13.6977 39.4292 13.8796 39.393C14.0615 39.3568 14.25 39.3754 14.4213 39.4464C14.5926 39.5173 14.739 39.6375 14.842 39.7917C14.945 39.9458 15 40.1271 15 40.3125C15 40.5611 14.9012 40.7996 14.7254 40.9754C14.5496 41.1512 14.3111 41.25 14.0625 41.25Z" fill="black"/>
<path d="M26.25 15.9376H25.7625C22.95 15.9299 20.2004 16.769 17.8714 18.3456C15.5424 19.9222 13.7418 22.1633 12.704 24.7772L12.254 25.9022C12.1972 26.0445 12.1761 26.1985 12.1926 26.3509C12.209 26.5032 12.2626 26.6491 12.3485 26.7759C12.4345 26.9028 12.5502 27.0066 12.6855 27.0784C12.8209 27.1501 12.9718 27.1876 13.125 27.1876H26.25C26.4986 27.1876 26.7371 27.0888 26.9129 26.913C27.0887 26.7372 27.1875 26.4987 27.1875 26.2501V16.8751C27.1875 16.6264 27.0887 16.388 26.9129 16.2121C26.7371 16.0363 26.4986 15.9376 26.25 15.9376ZM25.3125 25.3126H14.5115C15.4021 23.1583 16.8943 21.3061 18.8097 19.9775C20.7252 18.649 22.9827 17.9003 25.3125 17.821V25.3126Z" fill="black"/>
<path d="M43.545 24.7762C42.7664 22.8245 41.558 21.0734 40.0097 19.6528C39.8267 19.4845 39.5843 19.3957 39.3359 19.4061C39.0875 19.4165 38.8533 19.5251 38.685 19.7081C38.5167 19.8911 38.4279 20.1335 38.4383 20.3819C38.4487 20.6304 38.5573 20.8645 38.7403 21.0328C40.0396 22.2238 41.0629 23.6845 41.7384 25.3125H30.9375V17.8209C32.7485 17.8889 34.5217 18.359 36.1284 19.1972C36.2376 19.2542 36.3569 19.2891 36.4795 19.3C36.6022 19.3109 36.7258 19.2976 36.8432 19.2607C36.9607 19.2238 37.0698 19.1642 37.1642 19.0852C37.2587 19.0061 37.3366 18.9093 37.3936 18.8002C37.4506 18.691 37.4855 18.5717 37.4964 18.4491C37.5073 18.3264 37.494 18.2028 37.4571 18.0854C37.4202 17.9679 37.3606 17.8588 37.2816 17.7644C37.2025 17.6699 37.1057 17.592 36.9966 17.535C34.9868 16.4871 32.754 15.9391 30.4875 15.9375H30C29.7514 15.9375 29.5129 16.0363 29.3371 16.2121C29.1613 16.3879 29.0625 16.6264 29.0625 16.875V26.25C29.0625 26.4986 29.1613 26.7371 29.3371 26.9129C29.5129 27.0887 29.7514 27.1875 30 27.1875H43.125C43.2782 27.1876 43.4291 27.1501 43.5644 27.0783C43.6998 27.0066 43.8155 26.9027 43.9014 26.7759C43.9874 26.6491 44.0409 26.5031 44.0574 26.3508C44.0739 26.1985 44.0528 26.0445 43.9959 25.9022L43.545 24.7762Z" fill="black"/>
</g>
<defs>
<clipPath id="clip0_98_3805">
<rect width="60" height="60" fill="white"/>
</clipPath>
</defs>
</svg>
