<svg width="50" height="50" viewBox="0 0 50 50" fill="none" xmlns="http://www.w3.org/2000/svg">
<g clip-path="url(#clip0_53_14163)">
<path d="M27.7148 19.8926C27.7148 19.8926 31.7969 19.6387 33.5938 15.0879C35.4102 10.5371 37.4512 1.33789 49.5117 0.488281C49.5117 0.488281 49.3457 3.02734 46.6797 4.01367C46.6797 4.01367 51.9629 6.11328 45.8984 8.16406C45.8984 8.16406 49.9316 11.5918 45.1855 13.1445C45.1855 13.1445 48.7988 15.957 43.584 17.2559C43.584 17.2559 45.5957 22.4609 39.873 20.5371C39.873 20.5371 40.9277 26.6406 35.7617 22.7441C35.7617 22.7441 35.1367 28.8477 31.3477 24.043C31.3477 24.043 29.7754 28.8086 27.8027 24.0137" fill="#9CD3FC"/>
<path d="M35.2539 23.3593C33.8867 23.3593 32.5684 21.6601 32.3926 21.4355L33.1738 20.8495C33.6523 21.4843 34.8535 22.6757 35.5273 22.3144C36.2988 21.9042 36.1426 20.1855 36.0254 19.619C35.9863 19.4042 36.084 19.1894 36.2793 19.0917C36.4746 18.994 36.709 19.0331 36.8555 19.1894C36.875 19.2089 38.6133 21.0058 39.5508 20.1659C40.5469 19.2773 39.4141 17.08 39.4043 17.0605C39.3066 16.8749 39.3359 16.6405 39.4922 16.4843C39.6387 16.328 39.873 16.2987 40.0684 16.3964C41.0937 16.9335 42.8027 17.4901 43.2031 16.953C43.5645 16.4745 42.5 15.2343 41.6016 14.5214C41.4062 14.3749 41.3574 14.1015 41.4844 13.8866C41.6113 13.6718 41.8652 13.5937 42.0898 13.6815C42.0996 13.6815 43.1836 14.1308 43.9941 13.7792C44.3359 13.6327 44.5801 13.3593 44.7363 12.9491C44.8926 12.539 44.8047 12.3241 44.7266 12.2069C44.3359 11.6112 42.9785 11.4257 42.5391 11.3964C42.3047 11.3866 42.1094 11.2011 42.0801 10.9667C42.0508 10.7323 42.1973 10.5077 42.4219 10.4394C43.2031 10.205 45.2734 9.32608 45.4199 8.08584C45.4395 7.89053 45.3906 7.8417 45.3613 7.82217C44.9902 7.5292 43.5059 7.79288 42.3535 8.2128L42.0215 7.29483C42.5098 7.11905 44.9805 6.26944 45.9766 7.05069C46.2109 7.23624 46.4746 7.57803 46.3965 8.19327C46.25 9.37491 45.1758 10.2148 44.2187 10.7323C44.7363 10.9179 45.2539 11.2108 45.5566 11.6601C45.7715 11.9823 45.957 12.5292 45.6641 13.2909C45.4102 13.955 44.9805 14.414 44.3848 14.6679C44.0625 14.8046 43.7207 14.8632 43.3984 14.873C44.0527 15.6542 44.6191 16.6894 43.9941 17.5194C43.291 18.4472 41.8066 18.1347 40.7422 17.7343C41.0254 18.6913 41.1621 20.0194 40.2148 20.869C39.2676 21.7089 38.0566 21.2987 37.1191 20.6444C37.1191 21.5429 36.9141 22.6562 36.0059 23.1444C35.7422 23.3007 35.498 23.3593 35.2539 23.3593Z" fill="#69BDFB"/>
<path d="M49.5117 0.488281C37.4512 1.33789 35.4102 10.5371 33.6035 15.0879C31.7969 19.6387 27.7246 19.8926 27.7246 19.8926L27.8418 21.6113C30.7031 21.4355 33.5742 19.668 35.1367 17.1973C37.0312 14.1602 38.5059 4.01367 46.6797 4.01367C49.3457 3.02734 49.5117 0.488281 49.5117 0.488281Z" fill="#CDE9FE"/>
<path d="M24.6777 14.1406L25 16.6211L22.1094 17.5684L21.8164 15.166L24.6777 14.1406Z" fill="#F3AB7D"/>
<path d="M19.9023 13.1445L5.58594 8.89648L2.31445 4.53125L0.488281 14.4824L4.95117 12.0605L19.9023 13.1445Z" fill="#F7D706"/>
<path d="M10.3711 14.7656C9.79492 13.9746 9.56055 12.998 9.70703 12.0312L9.7168 11.9922L9.42383 10.0293L10.0098 9.3457L12.0703 10.0977L12.8906 11.6797V13.5742" fill="#F6C9AA"/>
<path d="M21.0449 8.7792C19.7363 8.34952 19.7754 6.51358 22.041 6.58194C24.3066 6.6503 27.6367 7.82217 28.75 9.98038C29.3555 11.1523 29.6582 13.5351 29.6582 13.5351C29.6582 13.5351 28.4082 13.5644 27.7051 13.1444C27.7051 13.1444 27.6953 14.0819 28.3496 15.2245C28.3496 15.2245 26.1133 15.6054 24.668 14.1405" fill="#F7D706"/>
<path d="M23.2031 10.7519C23.2031 10.7519 22.6465 6.62105 21.0449 8.77926C21.0449 8.77926 21.1719 11.1816 19.4434 10.9375C19.4434 10.9375 19.2578 11.7968 19.7559 11.9238L20.2344 15.8691C20.2344 15.8691 23.5156 16.5429 24.6875 14.1406C24.6875 14.1406 25.625 14.2382 26.0352 13.1445C26.4453 12.0507 25.5274 11.8164 24.7754 12.3535C24.7656 12.3535 22.9102 12.3925 23.2031 10.7519Z" fill="#F6C9AA"/>
<path d="M43.0371 40.0684C43.0371 40.0684 43.8867 45.2637 36.9336 45.2637C36.9336 45.2637 35.6836 49.5117 31.3379 49.5117C31.3379 49.5117 23.8672 41.748 22.0508 35.6641C20.2344 29.5801 20.9082 22.8516 20.9082 22.8516C20.9082 22.8516 17.207 24.248 15.5859 24.1309C12.3535 23.8965 6.99219 19.0723 6.99219 19.0723C8.22266 13.8086 12.8711 13.1445 12.8711 13.1445C12.8711 13.1445 13.7695 20 15.9766 20C18.1836 20 21.9434 15.9961 24.6777 15.9863C28.0762 15.9668 28.3789 20.6738 27.8516 23.7402C27.334 26.8066 28.5449 32.627 35.1562 33.8477C41.7578 35.0684 46.3672 32.7148 46.3672 32.7148C46.3672 32.7148 48.1836 40.2539 43.0371 40.0684Z" fill="#EAEAE0"/>
<path d="M23.149 21.5024L23.4839 22.4194L21.0723 23.3004L20.7373 22.3834L23.149 21.5024Z" fill="#D7D4C1"/>
<path d="M25 5.37109C22.6465 5.37109 20.1172 4.75586 20.1172 3.41797C20.1172 2.08008 22.6465 1.46484 25 1.46484C27.3535 1.46484 29.8828 2.08008 29.8828 3.41797C29.8828 4.75586 27.3535 5.37109 25 5.37109ZM25 2.44141C22.4414 2.44141 21.0938 3.16406 21.0938 3.41797C21.0938 3.67188 22.4414 4.39453 25 4.39453C27.5586 4.39453 28.9062 3.67188 28.9062 3.41797C28.9062 3.16406 27.5586 2.44141 25 2.44141Z" fill="#F7D706"/>
<path d="M21.5573 9.79663L22.485 10.1033L22.0833 11.3186L21.1556 11.012L21.5573 9.79663Z" fill="#B24E10"/>
<path d="M36.9141 45.752C33.5938 45.752 31.4746 44.1016 31.3867 44.0332L31.9922 43.2715C32.0117 43.2813 33.9746 44.7754 36.9043 44.7754V45.752H36.9141Z" fill="#D7D4C1"/>
<path d="M43.0664 40.5566C39.1602 40.5566 35.7422 38.8672 35.6055 38.7988L36.0547 37.9297C36.084 37.9492 39.3555 39.5801 43.0664 39.5801V40.5566Z" fill="#D7D4C1"/>
<path d="M21.2696 16.4453C20.6348 16.4453 20.1758 16.3574 20.127 16.3476C19.9219 16.3085 19.7657 16.1328 19.7364 15.9277L19.2871 12.2363C18.916 11.9433 18.8477 11.3671 18.9551 10.8398C19.0137 10.5859 19.2481 10.4199 19.502 10.4589C19.8633 10.5078 20.0293 10.4003 20.127 10.3124C20.5176 9.96088 20.5664 9.09174 20.5469 8.80853C20.5371 8.69134 20.5762 8.58392 20.6446 8.49603C21.1328 7.84174 21.6407 7.57806 22.1485 7.70502C23.2324 7.98822 23.5938 10.0585 23.6719 10.6933C23.6817 10.7421 23.6817 10.791 23.6719 10.8495C23.6133 11.1523 23.6524 11.3769 23.7891 11.5331C23.9844 11.7675 24.375 11.8456 24.6192 11.8652C25.1758 11.5234 25.8008 11.4941 26.211 11.8066C26.4063 11.9531 26.8164 12.4023 26.4746 13.3203C26.1328 14.2187 25.4688 14.5507 24.9707 14.6191C24.0821 16.1523 22.4024 16.4453 21.2696 16.4453ZM20.6739 15.4394C21.4746 15.5273 23.4473 15.5663 24.2481 13.9257C24.336 13.7402 24.5313 13.623 24.7364 13.6523C24.8242 13.662 25.3223 13.6523 25.5762 12.9687C25.6739 12.7148 25.6446 12.5976 25.6348 12.5781C25.5957 12.5488 25.3418 12.539 25.0586 12.7538C24.9805 12.8124 24.8828 12.8417 24.7852 12.8515C24.668 12.8515 23.6524 12.8613 23.0664 12.1777C22.8516 11.9238 22.6172 11.4648 22.7149 10.7617C22.5684 9.7558 22.1778 8.73041 21.9239 8.66205C21.9043 8.66205 21.7676 8.69135 21.543 8.96478C21.5332 9.40424 21.4551 10.4492 20.8008 11.0449C20.6153 11.2109 20.3223 11.3964 19.9121 11.4453C19.9121 11.455 19.9219 11.4648 19.9219 11.4745C20.0977 11.5331 20.2149 11.6894 20.2442 11.8749L20.6739 15.4394Z" fill="#57130F"/>
<path d="M0.488315 14.9708C0.390658 14.9708 0.283236 14.9415 0.205111 14.8731C0.0488615 14.7657 -0.0194979 14.5704 0.00979896 14.3848L1.83597 4.44341C1.87503 4.2481 2.01175 4.10161 2.20706 4.05278C2.39261 4.00396 2.59769 4.08208 2.70511 4.23833L5.87894 8.47661L9.56058 9.57036L9.28714 10.5079L5.44925 9.36528C5.3516 9.33599 5.26371 9.27739 5.19535 9.1895L2.59769 5.72271L1.16214 13.5645L4.7266 11.6309C4.80472 11.5821 4.90238 11.5625 5.00003 11.5723L7.76371 11.7774L7.69535 12.754L5.06839 12.5684L0.72269 14.9122C0.644565 14.9512 0.56644 14.9708 0.488315 14.9708Z" fill="#57130F"/>
<path d="M19.9023 13.6328C19.8926 13.6328 19.8828 13.6328 19.8633 13.6328L12.8516 13.125L12.9199 12.1484L15.4297 12.334L12.3633 11.4258L12.6367 10.4883L20.0293 12.6758C20.2637 12.7441 20.4199 12.9883 20.3711 13.2324C20.3418 13.457 20.1367 13.6328 19.9023 13.6328Z" fill="#57130F"/>
<path d="M31.3379 50.0001C31.2012 50.0001 31.0742 49.9415 30.9863 49.8536C30.6738 49.5313 23.4082 41.9337 21.5821 35.8009C20.0977 30.8204 20.2442 25.5177 20.3613 23.5645C19.1797 23.9747 16.8164 24.7071 15.5469 24.6192C12.1875 24.3751 6.88479 19.629 6.66018 19.4337C6.52346 19.3165 6.47463 19.131 6.51369 18.9649C7.18752 16.0841 8.84768 14.5216 10.127 13.7208C11.5137 12.8517 12.7442 12.6661 12.793 12.6563C12.9199 12.6368 13.0567 12.6759 13.1543 12.754C13.2617 12.8321 13.3301 12.9493 13.3399 13.0763C13.6817 15.6739 14.7461 19.5118 15.9668 19.5118C16.875 19.5118 18.2715 18.6329 19.6192 17.754C21.3184 16.6505 23.086 15.5274 24.6582 15.5274H24.6875C25.7227 15.5274 26.5821 15.8985 27.2266 16.6603C28.6524 18.3302 28.7207 21.4552 28.3203 23.8185C28.086 25.1759 28.2129 27.3145 29.2481 29.2481C30.4199 31.4259 32.4805 32.8517 35.2246 33.3595C41.5723 34.5313 46.084 32.295 46.1231 32.2755C46.2598 32.2071 46.416 32.2071 46.5528 32.2657C46.6895 32.3243 46.7871 32.4513 46.8262 32.5977C46.875 32.7833 47.8809 37.1095 46.084 39.3165C45.4688 40.0685 44.6192 40.4884 43.5352 40.5567C43.5449 41.2989 43.3985 42.627 42.4219 43.7794C41.3574 45.0392 39.6192 45.7032 37.2559 45.7618C37.0899 46.1915 36.7383 46.9435 36.1231 47.7052C34.9317 49.1993 33.2715 50.0001 31.3379 50.0001ZM20.9082 22.3634C21.0156 22.3634 21.1231 22.4024 21.2012 22.461C21.3379 22.5685 21.4063 22.7247 21.3867 22.9005C21.377 22.9688 20.7422 29.5997 22.5098 35.5177C24.1309 40.9571 30.4981 47.9005 31.543 49.0138C35.293 48.8868 36.416 45.2735 36.4649 45.1173C36.5235 44.9122 36.7188 44.7657 36.9336 44.7657C39.1699 44.7657 40.7715 44.2091 41.6992 43.1251C42.8125 41.8165 42.5586 40.1466 42.5586 40.1368C42.5391 39.9903 42.5781 39.8438 42.6758 39.7364C42.7735 39.629 42.9102 39.5704 43.0567 39.5704C44.0821 39.6095 44.834 39.3165 45.3516 38.6817C46.5039 37.2755 46.211 34.5704 46.0156 33.3888C44.5508 33.9845 40.4883 35.3028 35.0781 34.3067C31.2305 33.5938 29.3262 31.4063 28.4082 29.6974C27.4317 27.8712 27.041 25.6056 27.3828 23.6427C27.7344 21.5919 27.7149 18.7013 26.5039 17.2853C26.0449 16.7481 25.459 16.4942 24.7071 16.4942C24.6973 16.4942 24.6973 16.4942 24.6875 16.4942C23.3887 16.4942 21.7578 17.5392 20.166 18.5645C18.6328 19.5606 17.1778 20.4884 15.9863 20.4884C14.8047 20.4884 13.877 19.2481 13.1348 16.7091C12.793 15.5372 12.5781 14.3751 12.4707 13.7306C11.3379 14.0431 8.53518 15.1759 7.53908 18.9063C8.56447 19.795 12.9492 23.4571 15.6153 23.6524C16.8555 23.7403 19.7266 22.7735 20.7324 22.4024C20.791 22.3731 20.8496 22.3634 20.9082 22.3634Z" fill="#57130F"/>
<path d="M29.5996 26.6309C28.7598 26.6309 28.0273 25.8301 27.3535 24.1992L28.252 23.8379C28.8086 25.1953 29.3066 25.6836 29.5996 25.6836H29.6094C30.0586 25.6836 30.6348 24.6289 30.8789 23.8965C30.9375 23.7305 31.084 23.5938 31.2598 23.5645C31.4355 23.5352 31.6211 23.5938 31.7285 23.7402C32.6855 24.9512 33.5059 25.5273 34.0332 25.3711C34.7852 25.1563 35.1953 23.4668 35.2734 22.6953C35.293 22.5195 35.4004 22.3633 35.5664 22.2949C35.7324 22.2266 35.918 22.2461 36.0547 22.3535C37.8809 23.7207 38.6328 23.6328 38.9258 23.4473C39.5801 23.0469 39.5215 21.3672 39.3945 20.6152C39.3652 20.4492 39.4238 20.2734 39.5605 20.166C39.6875 20.0586 39.873 20.0195 40.0293 20.0781C41.582 20.5957 42.6465 20.6152 43.1152 20.127C43.7305 19.4824 43.3203 17.9297 43.1348 17.4316C43.0859 17.3047 43.0957 17.1582 43.1543 17.0313C43.2227 16.9043 43.3301 16.8164 43.4668 16.7871C44.9121 16.4258 45.7715 15.9082 45.8984 15.3223C46.0449 14.6289 45.2148 13.7988 44.8828 13.5352C44.7363 13.4277 44.668 13.2422 44.707 13.0664C44.7363 12.8906 44.8633 12.7441 45.0391 12.6856C46.2109 12.3047 46.8652 11.7871 46.9922 11.1621C47.1875 10.1563 46.0449 8.92579 45.5859 8.54493C45.4492 8.42774 45.3906 8.25196 45.4199 8.07618C45.4492 7.9004 45.5762 7.76368 45.7422 7.70508C48.1152 6.9043 48.3203 6.21094 48.3203 6.0254C48.3398 5.46876 47.2461 4.7754 46.4941 4.47266C46.3086 4.39454 46.1816 4.21876 46.1914 4.01368C46.1914 3.8086 46.3184 3.63282 46.5137 3.56446C48.1055 2.96876 48.6914 1.75782 48.9062 1.03516C38.8965 2.02149 36.3281 9.06251 34.6191 13.75C34.4238 14.2871 34.2383 14.7949 34.0527 15.2637C32.998 17.9199 31.1914 19.1895 29.873 19.7852L29.4727 18.8965C30.6348 18.3789 32.2168 17.2559 33.1445 14.9024C33.3203 14.4531 33.5059 13.9453 33.7012 13.418C34.6094 10.9375 35.7324 7.8418 38.0566 5.19532C40.8203 2.05079 44.5605 0.351568 49.4727 5.71122e-06C49.6094 -0.00975991 49.7559 0.0390682 49.8535 0.136724C49.9512 0.234381 50.0098 0.371099 50 0.517584C49.9902 0.61524 49.8242 2.76368 47.7832 4.01368C48.4863 4.44337 49.3262 5.13672 49.2969 6.03516C49.2773 6.92383 48.4473 7.68555 46.7773 8.34962C47.3633 9.01368 48.1738 10.166 47.9395 11.3379C47.7734 12.168 47.1484 12.832 46.0742 13.3203C46.5234 13.8379 47.041 14.6387 46.8555 15.5078C46.6602 16.416 45.7715 17.1094 44.209 17.5879C44.4336 18.3887 44.6875 19.8926 43.8184 20.8008C43.1543 21.4941 42.0215 21.6309 40.4395 21.2207C40.498 22.168 40.4199 23.6914 39.4336 24.2969C38.6426 24.7754 37.5488 24.5508 36.1133 23.6035C35.9082 24.5508 35.4199 25.9961 34.3066 26.3184C33.4668 26.5625 32.5391 26.1231 31.4941 24.9805C31.1426 25.6934 30.5273 26.6113 29.6484 26.6504C29.6289 26.6309 29.6094 26.6309 29.5996 26.6309Z" fill="#57130F"/>
<path d="M23.149 21.5024L23.4839 22.4194L21.0723 23.3004L20.7373 22.3834L23.149 21.5024Z" fill="#57130F"/>
<path d="M25 5.37109C22.6465 5.37109 20.1172 4.75586 20.1172 3.41797C20.1172 2.08008 22.6465 1.46484 25 1.46484C27.3535 1.46484 29.8828 2.08008 29.8828 3.41797C29.8828 4.75586 27.3535 5.37109 25 5.37109ZM25 2.44141C22.4414 2.44141 21.0938 3.16406 21.0938 3.41797C21.0938 3.67188 22.4414 4.39453 25 4.39453C27.5586 4.39453 28.9062 3.67188 28.9062 3.41797C28.9062 3.16406 27.5586 2.44141 25 2.44141Z" fill="#57130F"/>
<path d="M21.5574 9.79688L22.4851 10.1035L22.0834 11.3188L21.1557 11.0122L21.5574 9.79688Z" fill="#57130F"/>
<path d="M36.9141 45.752C33.5938 45.752 31.4746 44.1016 31.3867 44.0332L31.9922 43.2715C32.0117 43.2813 33.9746 44.7754 36.9043 44.7754V45.752H36.9141Z" fill="#57130F"/>
<path d="M43.0664 40.5566C39.1602 40.5566 35.7422 38.8672 35.6055 38.7988L36.0547 37.9297C36.084 37.9492 39.3555 39.5801 43.0664 39.5801V40.5566Z" fill="#57130F"/>
<path d="M9.66797 14.5606C9.25781 13.7793 9.0918 12.8711 9.21875 12.002L8.93555 10.1075C8.91602 9.97073 8.95508 9.82425 9.05273 9.71683L9.63867 9.03323C9.77539 8.87698 9.99023 8.81839 10.1758 8.89651L12.2363 9.64847C12.3535 9.68753 12.4414 9.77542 12.5 9.88284L13.3203 11.4649C13.3594 11.5332 13.3789 11.6114 13.3789 11.6992L13.3594 13.1543L12.3828 13.1446L12.3926 11.8067L11.709 10.4981L10.1465 9.92191L9.92187 10.1758L10.1758 11.9141C10.1855 11.9629 10.1855 12.0117 10.1758 12.0606L10.166 12.0996C10.0684 12.7735 10.1855 13.4864 10.5078 14.0821L9.66797 14.5606Z" fill="#57130F"/>
<path d="M27.7051 15.752C26.8457 15.752 25.4102 15.5664 24.336 14.4825L25.0293 13.7989C25.8203 14.5996 26.9141 14.7657 27.6075 14.7754C27.2266 13.8575 27.2364 13.1641 27.2364 13.1348C27.2364 12.959 27.334 12.8028 27.4903 12.7149C27.6465 12.627 27.8321 12.6368 27.9785 12.7246C28.2715 12.9004 28.7305 12.9785 29.1114 13.0176C28.9844 12.2657 28.7207 10.9473 28.3399 10.2051C27.3731 8.33011 24.3848 7.1387 22.0508 7.07034C21.1231 7.04105 20.7422 7.36331 20.6934 7.64652C20.6543 7.88089 20.8203 8.18363 21.2207 8.32034L20.9082 9.24808C20.0879 8.97464 19.5899 8.23245 19.7266 7.4805C19.8535 6.78714 20.5274 6.05472 22.0801 6.09378C24.6582 6.17191 28.0274 7.4805 29.209 9.75589C29.8438 10.9864 30.1563 13.3692 30.1758 13.4668C30.1953 13.6035 30.1563 13.7403 30.0586 13.8477C29.961 13.9551 29.834 14.0137 29.6973 14.0137C29.5996 14.0137 28.9844 14.0235 28.3496 13.877C28.4375 14.1797 28.5742 14.5606 28.8086 14.9707C28.8867 15.1075 28.8965 15.2735 28.8282 15.42C28.7598 15.5664 28.6231 15.6641 28.4668 15.6934C28.418 15.7129 28.125 15.752 27.7051 15.752Z" fill="#57130F"/>
<path d="M35.2539 23.3595C33.8867 23.3595 32.5684 21.6603 32.3926 21.4357L33.1738 20.8498C33.6523 21.4845 34.8535 22.6759 35.5273 22.3146C36.2988 21.9044 36.1426 20.1857 36.0254 19.6193C35.9863 19.4044 36.084 19.1896 36.2793 19.0919C36.4746 18.9943 36.709 19.0334 36.8555 19.1896C36.875 19.2091 38.6133 21.006 39.5508 20.1662C40.5469 19.2775 39.4141 17.0802 39.4043 17.0607C39.3066 16.8752 39.3359 16.6408 39.4922 16.4845C39.6387 16.3283 39.873 16.299 40.0684 16.3966C41.0937 16.9337 42.8027 17.4904 43.2031 16.9533C43.5645 16.4748 42.5 15.2345 41.6016 14.5216C41.4062 14.3752 41.3574 14.1017 41.4844 13.8869C41.6113 13.672 41.8652 13.5939 42.0898 13.6818C42.0996 13.6818 43.1836 14.131 43.9941 13.7794C44.3359 13.633 44.5801 13.3595 44.7363 12.9494C44.8926 12.5392 44.8047 12.3244 44.7266 12.2072C44.3359 11.6115 42.9785 11.4259 42.5391 11.3966C42.3047 11.3869 42.1094 11.2013 42.0801 10.9669C42.0508 10.7326 42.1973 10.508 42.4219 10.4396C43.2031 10.2052 45.2734 9.32632 45.4199 8.08609C45.4395 7.89078 45.3906 7.84195 45.3613 7.82242C44.9902 7.52945 43.5059 7.79312 42.3535 8.21304L42.0215 7.29507C42.5098 7.11929 44.9805 6.26968 45.9766 7.05093C46.2109 7.23648 46.4746 7.57828 46.3965 8.19351C46.25 9.37515 45.1758 10.215 44.2187 10.7326C44.7363 10.9181 45.2539 11.2111 45.5566 11.6603C45.7715 11.9826 45.957 12.5294 45.6641 13.2912C45.4102 13.9552 44.9805 14.4142 44.3848 14.6681C44.0625 14.8048 43.7207 14.8634 43.3984 14.8732C44.0527 15.6544 44.6191 16.6896 43.9941 17.5197C43.291 18.4474 41.8066 18.1349 40.7422 17.7345C41.0254 18.6916 41.1621 20.0197 40.2148 20.8693C39.2676 21.7091 38.0566 21.299 37.1191 20.6447C37.1191 21.5431 36.9141 22.6564 36.0059 23.1447C35.7422 23.3009 35.498 23.3595 35.2539 23.3595Z" fill="#57130F"/>
<path d="M35.5371 17.4512L34.707 16.9336C35.127 16.2793 35.5273 15.2148 36.0059 13.9941C37.6172 9.82422 40.0391 3.52539 46.6797 3.52539V4.50195C40.7227 4.50195 38.5254 10.1855 36.9238 14.3359C36.4258 15.6152 36.0059 16.709 35.5371 17.4512Z" fill="#57130F"/>
</g>
<defs>
<clipPath id="clip0_53_14163">
<rect width="50" height="50" fill="white"/>
</clipPath>
</defs>
</svg>
