<svg width="80" height="80" viewBox="0 0 80 80" fill="none" xmlns="http://www.w3.org/2000/svg">
<path d="M64.0183 59.5723C65.3342 61.0907 66.0586 63.0326 66.0586 65.0418V75.9887H70.6093V65.0174C70.6093 63.0282 69.8706 61.0571 68.5292 59.4674C67.2415 57.9415 66.5311 56.0401 66.5286 54.1131C66.5279 53.5554 66.0789 53.1018 65.5278 53.1018H61.9778V54.1027C61.9779 56.112 62.7023 58.0538 64.0183 59.5723Z" fill="#C57A44"/>
<path d="M33.4126 75.9886V65.0417C33.4126 63.2897 32.8722 61.66 31.9668 60.6823C30.2678 58.8478 29.332 56.5436 29.332 54.1945V54.1028C29.332 53.5509 28.8879 53.1018 28.3422 53.1018C26.6992 53.1018 25.2126 52.414 24.1536 51.3137V54.1028C24.1536 56.112 24.8779 58.054 26.1939 59.5723C27.5098 61.0908 28.2342 63.0326 28.2342 65.0418V75.9887H33.4126V75.9886Z" fill="#D88A55"/>
<path d="M69.1263 30.6419C67.0241 30.6513 65.3286 28.9171 65.3286 26.8147V26.6585C65.3286 23.8691 63.0673 21.608 60.2781 21.608H60.1475C57.2464 21.608 54.9153 23.9391 54.9153 26.8146V28.4158L54.7591 28.5721V41.6808H42.0448V28.5721H42.0592L41.8886 28.4158V26.8146C41.8886 23.9391 39.5575 21.608 36.682 21.608C33.8066 21.608 31.4755 23.9391 31.4755 26.8146C31.4755 28.9283 29.762 30.6418 27.6483 30.6418H22.3728C19.8892 30.6418 17.8758 28.6283 17.8758 26.1447V15.5218C19.8331 14.2801 21.1081 12.059 21.0094 9.5474C20.8741 6.10678 18.112 3.28569 14.6747 3.08287C12.2375 2.93912 10.0611 4.09084 8.765 5.9124H4.24391C1.9 5.91256 0 7.81256 0 10.1563C0 12.5001 1.9 14.4002 4.24391 14.4002L5.38891 14.4004C7.96203 14.4107 10.0281 16.534 10.0281 19.1073V31.0077C10.0281 36.6822 13.8569 41.4624 19.0719 42.906C21.053 43.4544 22.3575 45.289 22.3728 47.3444C22.397 50.6179 25.0606 53.2633 28.3409 53.258C28.8 53.2572 29.1758 53.6435 29.1758 54.1026V54.1943C29.1758 56.6568 30.1789 58.9816 31.8522 60.7883C32.7636 61.7724 33.2564 63.3841 33.2564 65.0416V75.9885H38.4356V55.6122C38.4356 54.3121 39.4897 53.258 40.7898 53.258H65.5278C65.9984 53.258 66.3717 53.6426 66.3723 54.1132C66.375 56.1176 67.1177 58.0368 68.4097 59.568C69.7019 61.0994 70.453 63.0135 70.453 65.0172V75.9885H75.6323V37.1185C75.6323 33.5318 72.7167 30.6258 69.1263 30.6419Z" fill="#D88A55"/>
<path d="M6.03125 12.0939C4.09641 11.6989 2.64062 9.98745 2.64062 7.93589C2.64062 7.2698 2.79438 6.63979 3.06781 6.07886C1.29641 6.58901 0 8.22073 0 10.1564C0 12.5001 1.9 14.4003 4.24391 14.4003L5.38891 14.4004C5.60703 14.4014 5.82125 14.4185 6.03125 14.4489V12.0939Z" fill="#C57A44"/>
<path d="M28.3409 53.258C28.8 53.2572 29.1757 53.6435 29.1757 54.1026V54.1943C29.1757 56.6568 30.1789 58.9816 31.8521 60.7883C32.7635 61.7724 33.2564 63.3841 33.2564 65.0416V75.8322H35.897V62.8211C35.897 61.1636 35.404 59.5519 34.4928 58.5679C32.8195 56.7611 31.8164 54.4363 31.8164 51.9738V51.8821C31.8164 51.423 31.4406 51.0368 30.9815 51.0376C27.7012 51.0429 25.0376 48.3972 25.0134 45.124C25.0015 43.5257 24.2079 42.064 22.925 41.2336V47.1486C22.925 47.8486 22.8379 48.5285 22.6765 49.1793C23.465 51.5516 25.7029 53.2622 28.3409 53.258Z" fill="#C57A44"/>
<path d="M10.0281 19.107V31.0075C10.0281 36.682 13.8569 41.4622 19.0719 42.9058C19.6352 43.0617 20.1414 43.3245 20.5813 43.6639V40.3094C15.9536 38.5281 12.6688 34.042 12.6688 28.7869V16.8864C12.6688 14.4297 10.7848 12.3844 8.375 12.1953V15.5144V15.5147C9.38703 16.3816 10.0281 17.6742 10.0281 19.107Z" fill="#C57A44"/>
<path d="M78.8281 78.1763H21.9672C21.32 78.1763 20.7953 77.6516 20.7953 77.0044C20.7953 76.3572 21.32 75.8325 21.9672 75.8325H78.8281C79.4753 75.8325 80 76.3572 80 77.0044C80 77.6516 79.4753 78.1763 78.8281 78.1763Z" fill="#C99C56"/>
<path d="M6.03125 14.4487C6.91859 14.5765 7.72359 14.957 8.375 15.5148V5.9126H6.03125V14.4487Z" fill="#47A920"/>
<path d="M12.8533 10.9917C12.2061 10.9917 11.6814 10.467 11.6814 9.81978V8.25024C11.6814 7.60306 12.2061 7.07837 12.8533 7.07837C13.5005 7.07837 14.0251 7.60306 14.0251 8.25024V9.81962C14.0251 10.467 13.5005 10.9917 12.8533 10.9917Z" fill="#883F2E"/>
<path d="M21.7532 28.9453C21.106 28.9453 20.5813 29.47 20.5813 30.1172V47.1485C20.5813 50.5138 17.8435 53.2516 14.4782 53.2516C11.1128 53.2516 8.37488 50.5138 8.37488 47.1485V15.5146C7.72347 14.9567 6.91847 14.5758 6.03113 14.448V47.1485C6.03113 51.8061 9.82035 55.5953 14.4782 55.5953C19.1358 55.5953 22.925 51.8061 22.925 47.1485V30.1172C22.925 29.47 22.4003 28.9453 21.7532 28.9453Z" fill="#883F2E"/>
<path d="M19.1972 3.29395C18.0839 4.40723 17.6034 5.91301 17.7542 7.36583C17.7925 7.7352 18.0851 8.02786 18.4545 8.06614C19.9073 8.21692 21.4131 7.73661 22.5264 6.62317C23.6397 5.50989 24.1201 4.00411 23.9693 2.5513C23.9311 2.18192 23.6384 1.88927 23.269 1.85098C21.8162 1.7002 20.3104 2.18067 19.1972 3.29395Z" fill="#C57A44"/>
<path d="M42.8236 41.6809L41.8885 41.8372V46.0428C41.8885 46.69 42.4132 47.2147 43.0604 47.2147C43.7076 47.2147 44.2323 46.69 44.2323 46.0428V41.6809H42.8236Z" fill="#A82975"/>
<path d="M45.4799 41.6809V46.0428C45.4799 46.69 46.0045 47.2147 46.6517 47.2147C47.2989 47.2147 47.8236 46.69 47.8236 46.0428V41.6809H45.4799Z" fill="#A82975"/>
<path d="M49.0221 41.6809V46.0428C49.0221 46.69 49.5468 47.2147 50.194 47.2147C50.8412 47.2147 51.3658 46.69 51.3658 46.0428V41.6809H49.0221Z" fill="#A82975"/>
<path d="M53.9731 41.6809H52.5643V46.0428C52.5643 46.69 53.089 47.2147 53.7362 47.2147C54.3834 47.2147 54.9081 46.69 54.9081 46.0428V41.8372L53.9731 41.6809Z" fill="#A82975"/>
<path d="M50.5165 28.4158L50.3603 28.572V36.8764C50.3603 37.0525 50.217 37.1959 50.0407 37.1959H46.7629C46.5867 37.1959 46.4434 37.0526 46.4434 36.8764V28.572L46.2871 28.4158H41.8885V41.837H54.9153V28.4158H50.5165Z" fill="#4FC123"/>
<path d="M41.8885 28.4158H45.1239V41.837H41.8885V28.4158Z" fill="#47A920"/>
<path d="M46.2872 36.8764V28.4158H50.5166V36.8764C50.5166 37.1392 50.3036 37.3522 50.0408 37.3522H46.763C46.5004 37.3523 46.2872 37.1392 46.2872 36.8764Z" fill="#FEF1DA"/>
<path d="M35.6019 35.0347H33.8522C33.205 35.0347 32.6803 34.51 32.6803 33.8628C32.6803 33.2156 33.205 32.6909 33.8522 32.6909H35.6019C36.249 32.6909 36.7737 33.2156 36.7737 33.8628C36.7737 34.51 36.249 35.0347 35.6019 35.0347Z" fill="#C57A44"/>
<path d="M32.9189 41.0925H31.1691C30.5219 41.0925 29.9972 40.5678 29.9972 39.9207C29.9972 39.2735 30.5219 38.7488 31.1691 38.7488H32.9189C33.5661 38.7488 34.0908 39.2735 34.0908 39.9207C34.0908 40.5678 33.5661 41.0925 32.9189 41.0925Z" fill="#C57A44"/>
<path d="M34.5521 48.323H32.8024C32.1552 48.323 31.6305 47.7983 31.6305 47.1511C31.6305 46.5039 32.1552 45.9792 32.8024 45.9792H34.5521C35.1992 45.9792 35.7239 46.5039 35.7239 47.1511C35.7239 47.7983 35.1992 48.323 34.5521 48.323Z" fill="#C57A44"/>
<path d="M64.3155 35.0347H62.5658C61.9186 35.0347 61.3939 34.51 61.3939 33.8628C61.3939 33.2156 61.9186 32.6909 62.5658 32.6909H64.3155C64.9627 32.6909 65.4874 33.2156 65.4874 33.8628C65.4874 34.51 64.9627 35.0347 64.3155 35.0347Z" fill="#C57A44"/>
<path d="M61.6325 40.835H59.8828C59.2356 40.835 58.7109 40.3103 58.7109 39.6631C58.7109 39.0159 59.2356 38.4912 59.8828 38.4912H61.6327C62.2798 38.4912 62.8045 39.0159 62.8045 39.6631C62.8045 40.3103 62.2797 40.835 61.6325 40.835Z" fill="#C57A44"/>
<path d="M63.2657 47.7581H61.516C60.8688 47.7581 60.3441 47.2334 60.3441 46.5862C60.3441 45.939 60.8688 45.4143 61.516 45.4143H63.2657C63.9129 45.4143 64.4376 45.939 64.4376 46.5862C64.4376 47.2334 63.9129 47.7581 63.2657 47.7581Z" fill="#C57A44"/>
</svg>
