<svg width="60" height="60" viewBox="0 0 60 60" fill="none" xmlns="http://www.w3.org/2000/svg">
<path d="M13.125 2.8125H46.875V57.1875H13.125V2.8125Z" fill="#BF702A"/>
<path d="M30 60H31.875V0H30L15 4.6875V55.3125L30 60Z" fill="#F29A2E"/>
<path d="M27.1598 34.0579L26.0051 33.8654C25.6054 33.7989 25.3125 33.4531 25.3125 33.0478V28.8272C25.3125 28.422 25.6055 28.0761 26.0051 28.0096L27.1598 27.8172C27.665 27.7329 28.125 28.1226 28.125 28.6348V33.2404C28.125 33.7525 27.665 34.1421 27.1598 34.0579Z" fill="#6ED1F7"/>
<path d="M30 0H31.875V60H30V0Z" fill="#BF702A"/>
<path d="M31.875 4.6875H45V55.3125H31.875V4.6875Z" fill="#733729"/>
<path d="M26.2501 29.5314H25.4232L24.5962 29.1178C23.8707 28.755 23.0045 28.755 22.279 29.1178L21.3529 29.5808C21.1214 29.6966 21.0276 29.9782 21.1433 30.2096C21.2254 30.3739 21.3909 30.4689 21.5629 30.4689C21.6334 30.4689 21.705 30.4529 21.7722 30.4193L22.6982 29.9563C23.1611 29.7248 23.714 29.7248 24.1769 29.9563L25.1029 30.4193C25.1681 30.4519 25.2398 30.4687 25.3126 30.4687H26.2501C26.509 30.4687 26.7188 30.2589 26.7188 30C26.7188 29.7411 26.509 29.5314 26.2501 29.5314Z" fill="#733729"/>
</svg>
