<svg width="140" height="185" viewBox="0 0 140 185" fill="none" xmlns="http://www.w3.org/2000/svg">
<g style="mix-blend-mode:multiply">
<path opacity="0.03" d="M54.3875 184.285C53.6924 184.285 52.9774 184.256 52.2624 184.206C51.5475 184.266 50.8424 184.285 50.1374 184.285C33.7527 184.285 20.4265 170.25 20.4265 152.997V52.4355C20.4265 35.182 33.7527 21.1467 50.1374 21.1467H77.1969C91.5062 21.1467 104.962 27.0171 115.09 37.6752C125.209 48.3332 130.79 62.5075 130.79 77.5758C130.79 83.1184 130.015 88.5914 128.496 93.8857C135.556 103.699 139.28 115.41 139.28 127.856C139.28 142.925 133.709 157.099 123.59 167.747C113.472 178.405 100.006 184.276 85.6971 184.276H54.3974L54.3875 184.285Z" fill="#FBFBFB"/>
<path opacity="0.06" d="M53.7121 183.57C53.017 183.57 52.302 183.54 51.587 183.49C50.8721 183.55 50.167 183.57 49.462 183.57C33.0773 183.57 19.7511 169.534 19.7511 152.291V51.7496C19.7511 34.506 33.0773 20.4707 49.462 20.4707H76.5215C90.8308 20.4707 104.286 26.3411 114.405 36.9892C124.524 47.6472 130.104 61.8116 130.104 76.8799C130.104 82.4126 129.33 87.8956 127.811 93.1898C134.871 103.004 138.595 114.715 138.595 127.151C138.595 142.219 133.024 156.383 122.905 167.041C112.786 177.699 99.331 183.57 85.0217 183.57H53.722H53.7121Z" fill="#F7F7F7"/>
<path opacity="0.1" d="M53.0268 182.844C52.3317 182.844 51.6168 182.814 50.9018 182.764C50.1868 182.824 49.4818 182.844 48.7768 182.844C32.402 182.844 19.0758 168.819 19.0758 151.565V51.0337C19.0758 33.7901 32.402 19.7549 48.7768 19.7549H75.8264C90.1357 19.7549 103.591 25.6252 113.71 36.2734C123.829 46.9314 129.399 61.0958 129.399 76.1641C129.399 81.6967 128.625 87.1797 127.105 92.474C134.166 102.288 137.89 113.989 137.89 126.435C137.89 141.503 132.319 155.667 122.2 166.316C112.081 176.974 98.6259 182.834 84.3166 182.834H53.0268V182.844Z" fill="#F3F3F3"/>
<path opacity="0.13" d="M52.3517 182.129C51.6566 182.129 50.9416 182.1 50.2266 182.05C49.5117 182.11 48.8066 182.129 48.1016 182.129C31.7268 182.129 18.4006 168.104 18.4006 150.861V50.349C18.4006 33.1054 31.7268 19.0801 48.1016 19.0801H75.1512C89.4605 19.0801 102.906 24.9504 113.025 35.5986C123.143 46.2566 128.714 60.421 128.714 75.4793C128.714 81.012 127.94 86.495 126.42 91.7793C133.481 101.593 137.204 113.294 137.204 125.73C137.204 140.798 131.634 154.953 121.515 165.611C111.396 176.269 97.9408 182.129 83.6414 182.129H52.3517Z" fill="#EFEFEF"/>
<path opacity="0.16" d="M51.6762 181.415C50.9811 181.415 50.2661 181.385 49.5512 181.336C48.8362 181.395 48.1312 181.415 47.4261 181.415C31.0514 181.415 17.7351 167.39 17.7351 150.146V49.6447C17.7351 32.4011 31.0514 18.3757 47.4261 18.3757H74.4658C88.7652 18.3757 102.22 24.2362 112.329 34.8942C122.448 45.5424 128.019 59.7067 128.019 74.775C128.019 80.3077 127.244 85.7807 125.725 91.075C132.785 100.889 136.509 112.59 136.509 125.026C136.509 140.084 130.938 154.249 120.829 164.897C110.711 175.545 97.2653 181.415 82.956 181.415H51.6762Z" fill="#EBEBEB"/>
<path opacity="0.19" d="M51.001 180.699C50.3059 180.699 49.591 180.669 48.876 180.62C48.161 180.679 47.456 180.699 46.751 180.699C30.3762 180.699 17.0599 166.674 17.0599 149.44V48.9585C17.0599 31.7248 30.3762 17.6995 46.751 17.6995H73.7906C88.09 17.6995 101.535 23.5599 111.654 34.208C121.773 44.8561 127.344 59.0205 127.344 74.0789C127.344 79.6115 126.569 85.0846 125.05 90.3788C132.11 100.183 135.824 111.884 135.824 124.32C135.824 139.378 130.253 153.533 120.144 164.181C110.026 174.829 96.5802 180.699 82.2809 180.699H51.001Z" fill="#E6E7E7"/>
<path opacity="0.23" d="M50.3256 179.984C49.6305 179.984 48.9155 179.954 48.2005 179.905C47.4856 179.964 46.7805 179.984 46.0755 179.984C29.7107 179.984 16.3944 165.959 16.3944 148.725V48.2534C16.3944 31.0197 29.7107 16.9944 46.0755 16.9944H73.1152C87.4145 16.9944 100.86 22.8548 110.969 33.503C121.078 44.1511 126.648 58.3055 126.648 73.3638C126.648 78.8965 125.874 84.3696 124.355 89.6638C131.415 99.4676 135.129 111.169 135.129 123.605C135.129 138.663 129.558 152.818 119.449 163.466C109.33 174.114 95.8849 179.974 81.5856 179.974H50.3057L50.3256 179.984Z" fill="#E2E3E3"/>
<path opacity="0.26" d="M49.6507 179.269C48.9556 179.269 48.2406 179.239 47.5356 179.189C46.8206 179.249 46.1156 179.269 45.4205 179.269C29.0557 179.269 15.7394 165.253 15.7394 148.02V47.5677C15.7394 30.334 29.0557 16.3186 45.4205 16.3186H72.4502C86.7496 16.3186 100.195 22.179 110.304 32.8272C120.413 43.4753 125.983 57.6297 125.983 72.6881C125.983 78.2207 125.209 83.6938 123.69 88.9781C130.74 98.7819 134.464 110.483 134.464 122.909C134.464 137.967 128.893 152.122 118.784 162.76C108.675 173.408 95.2299 179.269 80.9305 179.269H49.6606H49.6507Z" fill="#DEDFE0"/>
<path opacity="0.29" d="M48.965 178.543C48.2699 178.543 47.5549 178.513 46.8499 178.464C46.1349 178.523 45.4299 178.543 44.7348 178.543C28.37 178.543 15.0537 164.528 15.0537 147.294V46.8521C15.0537 29.6184 28.37 15.603 44.7348 15.603H71.7645C86.0639 15.603 99.4993 21.4634 109.608 32.1116C119.717 42.7597 125.288 56.9142 125.288 71.9626C125.288 77.4952 124.513 82.9683 122.994 88.2526C130.044 98.0564 133.768 109.748 133.768 122.184C133.768 137.232 128.197 151.386 118.098 162.035C107.99 172.683 94.5442 178.543 80.2449 178.543H48.9749H48.965Z" fill="#DADBDC"/>
<path opacity="0.32" d="M48.2902 177.829C47.5951 177.829 46.8801 177.799 46.1751 177.749C45.47 177.809 44.7551 177.829 44.06 177.829C27.6951 177.829 14.3888 163.813 14.3888 146.59V46.1676C14.3888 28.9439 27.6951 14.9285 44.06 14.9285H71.0798C85.3692 14.9285 98.8146 20.7889 108.923 31.4271C119.032 42.0752 124.603 56.2197 124.603 71.2781C124.603 76.8107 123.829 82.2838 122.309 87.5681C129.36 97.3719 133.083 109.063 133.083 121.489C133.083 136.538 127.523 150.692 117.414 161.33C107.305 171.978 93.8594 177.839 79.57 177.839H48.31L48.2902 177.829Z" fill="#D6D7D8"/>
<path opacity="0.35" d="M47.6149 177.114C46.9198 177.114 46.2048 177.084 45.4998 177.035C44.7947 177.094 44.0798 177.114 43.3847 177.114C27.0298 177.114 13.7135 163.099 13.7135 145.875V45.4627C13.7135 28.239 27.0198 14.2236 43.3847 14.2236H70.4045C84.6939 14.2236 98.1293 20.0841 108.238 30.7222C118.347 41.3704 123.908 55.5149 123.908 70.5633C123.908 76.096 123.133 81.5591 121.614 86.8533C128.664 96.6572 132.388 108.348 132.388 120.774C132.388 135.823 126.827 149.967 116.719 160.615C106.61 171.254 93.1742 177.124 78.8848 177.124H47.6248L47.6149 177.114Z" fill="#D2D3D4"/>
<path opacity="0.39" d="M46.9396 176.398C46.2444 176.398 45.5295 176.368 44.8244 176.319C44.1194 176.378 43.4044 176.398 42.7093 176.398C26.3544 176.398 13.0481 162.383 13.0481 145.169V44.7765C13.0481 27.5528 26.3544 13.5474 42.7093 13.5474H69.7192C84.0086 13.5474 97.4441 19.4078 107.543 30.046C117.652 40.6842 123.213 54.8386 123.213 69.8771C123.213 75.4098 122.438 80.8729 120.919 86.1572C127.969 95.961 131.693 107.642 131.693 120.068C131.693 135.117 126.132 149.261 116.023 159.899C105.914 170.538 92.479 176.398 78.1896 176.398H46.9396Z" fill="#CECFD0"/>
<path opacity="0.42" d="M46.2643 175.684C45.5692 175.684 44.8542 175.654 44.1492 175.604C43.4441 175.664 42.7291 175.684 42.034 175.684C25.6791 175.684 12.3728 161.678 12.3728 144.454V44.072C12.3728 26.8482 25.6791 12.8428 42.034 12.8428H69.0439C83.3334 12.8428 96.7589 18.7032 106.868 29.3414C116.977 39.9796 122.537 54.1241 122.537 69.1725C122.537 74.7052 121.763 80.1683 120.244 85.4526C127.294 95.2465 131.008 106.938 131.008 119.364C131.008 134.412 125.447 148.547 115.338 159.185C105.229 169.823 91.8037 175.684 77.5143 175.684H46.2643Z" fill="#CACBCC"/>
<path opacity="0.45" d="M45.5889 174.968C44.8938 174.968 44.1788 174.938 43.4738 174.888C42.7688 174.948 42.0538 174.968 41.3587 174.968C25.0038 174.968 11.7074 160.962 11.7074 143.738V43.3759C11.7074 26.1621 25.0137 12.1467 41.3587 12.1467H68.3686C82.658 12.1467 96.0835 18.0072 106.182 28.6354C116.281 39.2736 121.852 53.4181 121.852 68.4566C121.852 73.9793 121.078 79.4524 119.558 84.7367C126.609 94.5306 130.323 106.222 130.323 118.638C130.323 133.676 124.762 147.821 114.663 158.459C104.554 169.097 91.1284 174.958 76.839 174.958H45.5989L45.5889 174.968Z" fill="#C6C7C8"/>
<path opacity="0.48" d="M44.904 174.243C44.2089 174.243 43.4939 174.213 42.7889 174.163C42.0838 174.223 41.3689 174.243 40.6738 174.243C24.3288 174.243 11.0225 160.237 11.0225 143.023V42.6707C11.0225 25.4569 24.3189 11.4514 40.6738 11.4514H67.6737C81.9532 11.4514 95.3887 17.3119 105.488 27.9401C115.586 38.5783 121.157 52.7228 121.157 67.7613C121.157 73.284 120.383 78.7571 118.863 84.0414C125.914 93.8353 129.628 105.516 129.628 117.943C129.628 132.981 124.067 147.126 113.968 157.754C103.869 168.392 90.4335 174.252 76.154 174.252H44.9139L44.904 174.243Z" fill="#C2C3C4"/>
<path opacity="0.52" d="M44.2285 173.528C43.5334 173.528 42.8185 173.498 42.1134 173.449C41.4084 173.508 40.6934 173.528 39.9983 173.528C23.6533 173.528 10.3569 159.523 10.3569 142.309V41.9761C10.3569 24.7623 23.6533 10.7568 39.9983 10.7568H66.9983C81.2778 10.7568 94.7033 16.6073 104.802 27.2455C114.901 37.8837 120.462 52.0183 120.462 67.0568C120.462 72.5795 119.687 78.0526 118.168 83.327C125.218 93.1208 128.932 104.802 128.932 117.218C128.932 132.257 123.371 146.391 113.273 157.029C103.174 167.668 89.7481 173.518 75.4587 173.518H44.2285V173.528Z" fill="#BDBEC0"/>
<path opacity="0.55" d="M43.5534 172.813C42.8582 172.813 42.1433 172.783 41.4382 172.733C40.7332 172.793 40.0182 172.813 39.3231 172.813C22.9782 172.813 9.68176 158.807 9.68176 141.604V41.2809C9.68176 24.0671 22.9782 10.0715 39.3231 10.0715H66.3132C80.5927 10.0715 94.0182 15.922 104.117 26.5602C114.216 37.1984 119.777 51.333 119.777 66.3615C119.777 71.8843 119.002 77.3474 117.483 82.6317C124.533 92.4256 128.247 104.107 128.247 116.523C128.247 131.561 122.686 145.696 112.587 156.324C102.489 166.962 89.063 172.813 74.7835 172.813H43.5534Z" fill="#B9BABC"/>
<path opacity="0.58" d="M42.8783 172.098C42.1832 172.098 41.4682 172.068 40.7632 172.018C40.0582 172.078 39.3432 172.098 38.6481 172.098C22.3031 172.098 9.00671 158.102 9.00671 140.888V40.5853C9.00671 23.3814 22.3031 9.37598 38.6481 9.37598H65.6381C79.9176 9.37598 93.3332 15.2265 103.432 25.8547C113.531 36.483 119.092 50.6176 119.092 65.6561C119.092 71.1788 118.317 76.6419 116.798 81.9262C123.838 91.7201 127.562 103.391 127.562 115.808C127.562 130.836 122.001 144.971 111.912 155.599C101.814 166.227 88.388 172.088 74.1184 172.088H42.8982L42.8783 172.098Z" fill="#B5B6B8"/>
<path opacity="0.61" d="M42.2029 171.382C41.5077 171.382 40.7928 171.353 40.0877 171.303C39.3827 171.363 38.6677 171.382 37.9726 171.382C21.6376 171.382 8.34119 157.387 8.34119 140.183V39.8901C8.34119 22.6862 21.6376 8.69067 37.9726 8.69067H64.9627C79.2422 8.69067 92.6577 14.5412 102.757 25.1694C112.856 35.7977 118.416 49.9323 118.416 64.9608C118.416 70.4835 117.642 75.9467 116.123 81.231C123.163 91.0149 126.877 102.696 126.877 115.112C126.877 130.141 121.316 144.275 111.227 154.904C101.128 165.532 87.7125 171.392 73.433 171.392H42.2128L42.2029 171.382Z" fill="#B1B2B4"/>
<path opacity="0.65" d="M41.5179 170.656C40.8228 170.656 40.1078 170.626 39.4028 170.577C38.6978 170.636 37.9828 170.656 37.2877 170.656C20.9527 170.656 7.65625 156.661 7.65625 139.457V39.1838C7.65625 21.9799 20.9427 7.98438 37.2877 7.98438H64.2678C78.5374 7.98438 91.9629 13.8349 102.052 24.4631C112.151 35.0914 117.702 49.226 117.702 64.2545C117.702 69.7773 116.927 75.2404 115.408 80.5148C122.448 90.2987 126.162 101.98 126.162 114.386C126.162 129.415 120.601 143.539 110.512 154.168C100.413 164.796 86.9978 170.646 72.7282 170.646H41.508L41.5179 170.656Z" fill="#ADAEB0"/>
<path opacity="0.68" d="M40.8425 169.941C40.1474 169.941 39.4324 169.911 38.7273 169.862C38.0223 169.921 37.3073 169.941 36.6122 169.941C20.2772 169.941 6.99072 155.946 6.99072 138.752V38.4885C6.99072 21.2847 20.2772 7.29907 36.6122 7.29907H63.5923C77.8619 7.29907 91.2775 13.1496 101.366 23.7778C111.455 34.4061 117.016 48.5307 117.016 63.5593C117.016 69.082 116.242 74.5451 114.722 79.8195C121.763 89.6035 125.477 101.285 125.477 113.691C125.477 128.719 119.916 142.844 109.827 153.472C99.7379 164.101 86.3124 169.951 72.0429 169.951H40.8325L40.8425 169.941Z" fill="#A9AAAC"/>
<path opacity="0.71" d="M40.1673 169.227C39.4722 169.227 38.7572 169.197 38.0522 169.148C37.3471 169.207 36.6322 169.227 35.9371 169.227C19.602 169.227 6.31555 155.241 6.31555 138.038V37.7942C6.31555 20.6003 19.602 6.60474 35.9371 6.60474H62.9072C77.1768 6.60474 90.5924 12.4552 100.681 23.0736C110.77 33.7018 116.331 47.8265 116.331 62.8451C116.331 68.3678 115.557 73.8309 114.037 79.1053C121.078 88.8893 124.792 100.561 124.792 112.967C124.792 127.995 119.241 142.12 109.152 152.738C99.0628 163.367 85.6472 169.217 71.3776 169.217H40.1673V169.227Z" fill="#A5A6A8"/>
<path opacity="0.74" d="M39.4918 168.512C38.7967 168.512 38.0818 168.482 37.3767 168.432C36.6717 168.492 35.9567 168.512 35.2616 168.512C18.9266 168.512 5.65002 154.526 5.65002 137.332V37.099C5.65002 19.905 18.9365 5.91943 35.2616 5.91943H62.2318C76.5013 5.91943 89.907 11.7699 99.996 22.3882C110.085 33.0165 115.646 47.1411 115.646 62.1598C115.646 67.6825 114.871 73.1357 113.352 78.42C120.392 88.204 124.106 99.8752 124.106 112.281C124.106 127.3 118.555 141.425 108.466 152.043C98.3774 162.671 84.9618 168.522 70.6922 168.522H39.4918V168.512Z" fill="#A1A2A4"/>
<path opacity="0.77" d="M38.8167 167.797C38.1216 167.797 37.4066 167.767 36.7015 167.717C35.9965 167.777 35.2815 167.797 34.5864 167.797C18.2613 167.797 4.97485 153.811 4.97485 136.617V36.4036C4.97485 19.2097 18.2613 5.22412 34.5864 5.22412H61.5566C75.8162 5.22412 89.2318 11.0746 99.3208 21.693C109.41 32.3113 114.961 46.4359 114.961 61.4545C114.961 66.9773 114.186 72.4304 112.667 77.7148C119.707 87.4987 123.421 99.17 123.421 111.566C123.421 126.585 117.87 140.71 107.781 151.328C97.6923 161.946 84.2767 167.797 70.0171 167.797H38.8167Z" fill="#9D9EA1"/>
<path opacity="0.81" d="M38.1412 167.082C37.4461 167.082 36.7311 167.052 36.0261 167.002C35.321 167.062 34.6061 167.082 33.911 167.082C17.5859 167.082 4.30933 153.096 4.30933 135.912V35.7084C4.30933 18.5145 17.5859 4.53882 33.911 4.53882H60.8712C75.1309 4.53882 88.5464 10.3893 98.6255 21.0076C108.714 31.626 114.265 45.7506 114.265 60.7692C114.265 66.2919 113.491 71.7451 111.972 77.0195C119.012 86.8035 122.716 98.4648 122.716 110.871C122.716 125.89 117.165 140.004 107.076 150.623C96.987 161.241 83.5814 167.092 69.3118 167.092H38.1213L38.1412 167.082Z" fill="#999A9D"/>
<path opacity="0.84" d="M37.456 166.355C36.7609 166.355 36.0459 166.325 35.3409 166.276C34.6359 166.335 33.9209 166.355 33.2258 166.355C16.9007 166.355 3.62415 152.37 3.62415 135.186V35.0019C3.62415 17.8179 16.9007 3.83228 33.2258 3.83228H60.186C74.4457 3.83228 87.8513 9.68277 97.9403 20.2912C108.029 30.9095 113.58 45.0242 113.58 60.0428C113.58 65.5556 112.816 71.0187 111.286 76.2931C118.327 86.0671 122.031 97.7384 122.031 110.135C122.031 125.153 116.48 139.268 106.391 149.886C96.3018 160.505 82.8962 166.355 68.6366 166.355H37.4461H37.456Z" fill="#949699"/>
<path opacity="0.87" d="M36.7808 165.641C36.0857 165.641 35.3708 165.611 34.6657 165.561C33.9607 165.621 33.2457 165.641 32.5506 165.641C16.2255 165.641 2.94897 151.665 2.94897 134.481V34.3074C2.94897 17.1234 16.2255 3.14771 32.5506 3.14771H59.5009C73.7606 3.14771 87.1662 8.98829 97.2453 19.6066C107.324 30.2249 112.885 44.3396 112.885 59.3483C112.885 64.8611 112.121 70.3242 110.591 75.5986C117.622 85.3726 121.336 97.0439 121.336 109.44C121.336 124.449 115.785 138.564 105.706 149.182C95.6167 159.8 82.2111 165.651 67.9614 165.651H36.7808V165.641Z" fill="#909295"/>
<path opacity="0.9" d="M36.106 164.926C35.4109 164.926 34.6959 164.897 33.9909 164.847C33.2859 164.906 32.5709 164.926 31.8758 164.926C15.5606 164.926 2.28406 150.951 2.28406 133.767V33.6128C2.28406 16.4288 15.5606 2.45312 31.8758 2.45312H58.8261C73.0857 2.45312 86.4814 8.29369 96.5605 18.912C106.64 29.5303 112.19 43.645 112.19 58.6537C112.19 64.1665 111.426 69.6297 109.907 74.904C116.937 84.6781 120.651 96.3393 120.651 108.736C120.651 123.744 115.1 137.859 105.021 148.467C94.9419 159.086 81.5362 164.926 67.2766 164.926H36.0961H36.106Z" fill="#8C8E91"/>
<path opacity="0.94" d="M35.4307 164.21C34.7356 164.21 34.0206 164.18 33.3156 164.13C32.6106 164.19 31.8956 164.21 31.2005 164.21C14.8853 164.21 1.60876 150.234 1.60876 133.05V32.9063C1.60876 15.7223 14.8853 1.74658 31.2005 1.74658H58.1508C72.4005 1.74658 85.8061 7.58716 95.8852 18.2055C105.964 28.8238 111.515 42.9286 111.515 57.9373C111.515 63.4501 110.751 68.9132 109.231 74.1776C116.262 83.9517 119.976 95.6129 119.976 108.009C119.976 123.018 114.425 137.123 104.346 147.741C94.2666 158.359 80.8609 164.2 66.6112 164.2H35.4406L35.4307 164.21Z" fill="#888A8D"/>
<path opacity="0.97" d="M34.7554 163.495C34.0603 163.495 33.3453 163.466 32.6403 163.416C31.9352 163.475 31.2203 163.495 30.5251 163.495C14.21 163.495 0.943359 149.52 0.943359 132.346V32.2215C0.943359 15.0474 14.21 1.07178 30.5251 1.07178H57.4655C71.7152 1.07178 85.1109 6.91235 95.19 17.5207C105.269 28.1391 110.82 42.2439 110.82 57.2525C110.82 62.7653 110.055 68.2185 108.536 73.4929C115.567 83.2669 119.28 94.9282 119.28 107.315C119.28 122.323 113.73 136.428 103.65 147.036C93.5714 157.645 80.1657 163.495 65.916 163.495H34.7454H34.7554Z" fill="#848689"/>
<path d="M34.0801 162.77C33.385 162.77 32.67 162.74 31.965 162.691C31.2599 162.75 30.545 162.77 29.8499 162.77C13.5347 162.77 0.268066 148.794 0.268066 131.62V31.5062C0.268066 14.3321 13.5347 0.356445 29.8499 0.356445H56.7902C71.0399 0.356445 84.4357 6.19702 94.5147 16.8054C104.594 27.4138 110.145 41.5285 110.145 56.5273C110.145 62.0401 109.38 67.4932 107.861 72.7676C114.891 82.5417 118.595 94.193 118.595 106.589C118.595 121.598 113.044 135.703 102.975 146.311C92.8961 156.92 79.5004 162.77 65.2507 162.77H34.09H34.0801Z" fill="#808285"/>
</g>
<path d="M33.961 163.149C33.2659 163.149 32.5509 163.119 31.8359 163.069C31.121 163.129 30.4159 163.149 29.7109 163.149C13.3262 163.149 0 149.113 0 131.86V31.2888C0 14.0353 13.3262 0 29.7109 0H56.7704C71.0896 0 84.5449 5.87037 94.6637 16.5284C104.792 27.1865 110.363 41.3608 110.363 56.4291C110.363 61.9717 109.589 67.4447 108.069 72.739C115.13 82.5527 118.853 94.2637 118.853 106.71C118.853 121.778 113.283 135.952 103.154 146.61C93.0253 157.268 79.57 163.139 65.2507 163.139H33.9411L33.961 163.149Z" fill="url(#paint0_linear_95_1658)"/>
<path d="M33.9606 160.169C33.2556 160.169 32.5506 160.139 31.8356 160.079C31.1206 160.139 30.4156 160.169 29.7106 160.169C14.8849 160.169 2.81982 147.465 2.81982 131.86V31.2889C2.81982 15.6842 14.8849 2.97998 29.7106 2.97998H56.7701C70.3247 2.97998 83.075 8.54243 92.6674 18.6343C102.26 28.7361 107.543 42.1555 107.543 56.4292C107.543 62.2002 106.649 67.9017 104.921 73.335C112.121 82.7813 116.033 94.4326 116.033 106.72C116.033 120.993 110.75 134.423 101.168 144.515C91.5751 154.616 78.8249 160.169 65.2703 160.169H33.9606Z" fill="url(#paint1_linear_95_1658)"/>
<path d="M101.217 80.0191C100.641 80.0191 100.075 79.7509 99.7179 79.2543C98.8738 78.1021 97.9702 76.9796 97.0268 75.9168C96.5601 75.3904 96.431 74.6355 96.6892 73.9799C97.2254 72.6588 97.7021 71.298 98.1192 69.9272C98.4171 68.9439 99.4597 68.3876 100.443 68.6856C101.426 68.9836 101.982 70.0166 101.684 71.0099C101.346 72.1224 100.969 73.2349 100.562 74.3176C101.317 75.2016 102.042 76.1254 102.727 77.0591C103.332 77.8835 103.154 79.0556 102.33 79.6615C102.002 79.8999 101.615 80.0191 101.227 80.0191H101.217Z" fill="#FAAC18"/>
<path d="M65.2708 155.699H60.8618C59.8291 155.699 58.9949 154.865 58.9949 153.832C58.9949 152.799 59.8291 151.964 60.8618 151.964H65.2708C66.7206 151.964 68.1803 151.885 69.6102 151.746C70.6231 151.636 71.5466 152.381 71.6558 153.404C71.7651 154.428 71.0203 155.341 69.9975 155.451C68.4385 155.61 66.8497 155.689 65.2708 155.689V155.699ZM51.9048 155.699H42.9479C41.9151 155.699 41.081 154.865 41.081 153.832C41.081 152.799 41.9151 151.964 42.9479 151.964H51.9048C52.9376 151.964 53.7717 152.799 53.7717 153.832C53.7717 154.865 52.9376 155.699 51.9048 155.699ZM34.0009 155.699H33.9611C33.2561 155.699 32.561 155.659 31.8361 155.59C29.3933 155.838 27.0101 155.659 24.6765 155.133C23.6735 154.904 23.0479 153.901 23.2763 152.898C23.5047 151.895 24.4977 151.269 25.5106 151.497C27.4966 151.954 29.5224 152.093 31.6375 151.865C31.7666 151.855 31.9056 151.855 32.0446 151.865C32.7 151.934 33.3256 151.974 33.9711 151.974C35.0038 151.974 35.8479 152.808 35.8479 153.842C35.8479 154.875 35.0336 155.709 34.0009 155.709V155.699ZM78.5573 153.643C77.7728 153.643 77.0379 153.136 76.7798 152.342C76.4719 151.358 77.0082 150.315 77.9912 149.997C80.7022 149.133 83.3436 147.981 85.836 146.571C86.7297 146.064 87.8618 146.382 88.3682 147.276C88.8746 148.17 88.5569 149.312 87.6632 149.809C84.9522 151.338 82.0824 152.6 79.1233 153.534C78.9346 153.593 78.7459 153.623 78.5573 153.623V153.643ZM17.07 151.388C16.6728 151.388 16.2756 151.259 15.938 151.001C13.3562 149.024 11.2311 146.571 9.63237 143.7C9.13586 142.806 9.45363 141.664 10.3473 141.167C11.241 140.67 12.383 140.988 12.8795 141.882C14.23 144.306 16.0174 146.372 18.2021 148.041C19.0163 148.666 19.1752 149.839 18.5496 150.653C18.1822 151.13 17.6261 151.388 17.07 151.388ZM94.0582 144.912C93.5319 144.912 93.0155 144.693 92.6481 144.266C91.9728 143.491 92.0622 142.309 92.8367 141.644C93.939 140.69 95.0114 139.667 96.0342 138.594C96.9875 137.591 97.911 136.518 98.7749 135.436C99.4105 134.631 100.582 134.492 101.387 135.128C102.191 135.764 102.33 136.936 101.694 137.74C100.761 138.922 99.768 140.074 98.7352 141.157C97.633 142.319 96.4712 143.422 95.2796 144.455C94.932 144.763 94.4951 144.912 94.0582 144.912ZM8.55992 136.181C7.62649 136.181 6.81222 135.475 6.71292 134.522C6.61362 133.638 6.56396 132.744 6.56396 131.85V125.364C6.56396 124.331 7.39809 123.496 8.43082 123.496C9.46356 123.496 10.2977 124.331 10.2977 125.364V131.85C10.2977 132.605 10.3374 133.37 10.4168 134.115C10.5261 135.138 9.79125 136.052 8.76845 136.171C8.69894 136.171 8.62943 136.181 8.55992 136.181ZM105.081 130.926C104.793 130.926 104.495 130.857 104.227 130.718C103.313 130.241 102.956 129.118 103.432 128.205C104.743 125.672 105.825 122.99 106.65 120.238C106.947 119.255 107.98 118.689 108.963 118.987C109.946 119.285 110.512 120.318 110.214 121.301C109.331 124.271 108.159 127.172 106.739 129.913C106.411 130.549 105.756 130.916 105.081 130.916V130.926ZM8.43082 118.272C7.39809 118.272 6.56396 117.437 6.56396 116.404V107.445C6.56396 106.412 7.39809 105.577 8.43082 105.577C9.46356 105.577 10.2977 106.412 10.2977 107.445V116.404C10.2977 117.437 9.46356 118.272 8.43082 118.272ZM110.185 113.861C110.115 113.861 110.056 113.861 109.986 113.851C108.963 113.742 108.218 112.828 108.328 111.805C108.506 110.127 108.596 108.408 108.596 106.71C108.596 105.538 108.556 104.356 108.467 103.193C108.387 102.17 109.162 101.276 110.185 101.197C111.207 101.127 112.101 101.892 112.181 102.915C112.27 104.167 112.32 105.438 112.32 106.7C112.32 108.527 112.22 110.385 112.032 112.193C111.932 113.146 111.118 113.861 110.185 113.861ZM8.43082 100.363C7.39809 100.363 6.56396 99.5281 6.56396 98.4951V89.5356C6.56396 88.5026 7.39809 87.6682 8.43082 87.6682C9.46356 87.6682 10.2977 88.5026 10.2977 89.5356V98.4951C10.2977 99.5281 9.46356 100.363 8.43082 100.363ZM108.874 96.1013C108.05 96.1013 107.295 95.545 107.077 94.7107C106.352 91.9294 105.359 89.2177 104.137 86.6352C103.7 85.7015 104.088 84.5989 105.021 84.1519C105.954 83.7149 107.057 84.1023 107.504 85.0359C108.824 87.8271 109.897 90.7673 110.681 93.767C110.939 94.7603 110.344 95.7834 109.351 96.0417C109.192 96.0814 109.033 96.1013 108.874 96.1013ZM8.43082 82.4534C7.39809 82.4534 6.56396 81.619 6.56396 80.586V71.6265C6.56396 70.5934 7.39809 69.7591 8.43082 69.7591C9.46356 69.7591 10.2977 70.5934 10.2977 71.6265V80.586C10.2977 81.619 9.46356 82.4534 8.43082 82.4534ZM8.43082 64.5443C7.39809 64.5443 6.56396 63.7099 6.56396 62.6769V53.7174C6.56396 52.6843 7.39809 51.85 8.43082 51.85C9.46356 51.85 10.2977 52.6843 10.2977 53.7174V62.6769C10.2977 63.7099 9.46356 64.5443 8.43082 64.5443ZM101.704 63.4318C101.635 63.4318 101.575 63.4318 101.506 63.4219C100.483 63.3126 99.7382 62.3988 99.8474 61.3757C100.016 59.7368 100.106 58.0779 100.106 56.4291C100.106 55.2073 100.056 53.9756 99.9666 52.7738C99.8871 51.7507 100.652 50.8567 101.684 50.7772C102.697 50.6878 103.601 51.4626 103.68 52.4956C103.78 53.7869 103.829 55.1179 103.829 56.439C103.829 58.217 103.73 60.0149 103.551 61.7829C103.452 62.7365 102.638 63.4517 101.704 63.4517V63.4318ZM8.43082 46.6352C7.39809 46.6352 6.56396 45.8008 6.56396 44.7678V35.8083C6.56396 34.7752 7.39809 33.9409 8.43082 33.9409C9.46356 33.9409 10.2977 34.7752 10.2977 35.8083V44.7678C10.2977 45.8008 9.46356 46.6352 8.43082 46.6352ZM100.344 45.6717C99.5197 45.6717 98.765 45.1154 98.5466 44.2811C97.8117 41.5098 96.8187 38.7882 95.5874 36.2155C95.1405 35.2918 95.5377 34.1793 96.4612 33.7323C97.3947 33.2853 98.4969 33.6826 98.9438 34.6064C100.274 37.3975 101.357 40.3278 102.151 43.3275C102.419 44.3208 101.823 45.3439 100.83 45.6022C100.672 45.6419 100.513 45.6618 100.354 45.6618L100.344 45.6717ZM92.658 29.6101C92.092 29.6101 91.526 29.3518 91.1586 28.8552C90.0464 27.3553 88.8349 25.9051 87.544 24.5443C86.8588 23.8192 86.1439 23.1239 85.4289 22.4584C84.6742 21.7631 84.6245 20.5811 85.3197 19.8262C86.0148 19.0713 87.1964 19.0216 87.9511 19.7169C88.7257 20.4321 89.5002 21.1969 90.245 21.9717C91.6451 23.4417 92.9559 25.0112 94.1574 26.6402C94.7632 27.4646 94.5944 28.6367 93.7602 29.2426C93.4326 29.4909 93.0354 29.6101 92.658 29.6101ZM8.86775 28.746C8.74859 28.746 8.62943 28.736 8.50034 28.7062C7.48747 28.5076 6.83208 27.5242 7.03068 26.521C7.66621 23.3126 8.9174 20.3228 10.7445 17.631C11.3205 16.7767 12.4823 16.5681 13.3363 17.1443C14.1903 17.7204 14.4087 18.8825 13.8229 19.7368C12.2738 22.0114 11.2113 24.5443 10.675 27.256C10.4963 28.14 9.72174 28.7559 8.84789 28.7559L8.86775 28.746ZM79.5602 17.5614C79.2325 17.5614 78.8949 17.4721 78.587 17.2933C76.1442 15.8033 73.5425 14.5617 70.8713 13.5982C69.9081 13.2506 69.4017 12.1877 69.7492 11.2143C70.0968 10.2508 71.1593 9.74422 72.1325 10.0919C75.0519 11.1348 77.8721 12.4857 80.5333 14.1147C81.4072 14.6511 81.6852 15.7934 81.149 16.6774C80.8015 17.2535 80.1858 17.5714 79.5602 17.5714V17.5614ZM18.6787 14.363C18.063 14.363 17.4573 14.0551 17.0998 13.4889C16.5537 12.6148 16.8118 11.4726 17.6857 10.9163C20.486 9.15818 23.5445 8.05561 26.7916 7.62849C27.8045 7.48943 28.7478 8.21455 28.8769 9.23764C29.006 10.2607 28.291 11.1944 27.2682 11.3236C24.5673 11.6811 22.0053 12.6049 19.6618 14.075C19.3539 14.2637 19.0163 14.363 18.6688 14.363H18.6787ZM62.818 11.5818C62.7386 11.5818 62.6492 11.5818 62.5598 11.5619C60.6632 11.3037 58.7169 11.1646 56.7905 11.1646H53.8809C52.8482 11.1646 52.0141 10.3303 52.0141 9.30716C52.0141 8.28407 52.8482 7.44971 53.8809 7.44971H56.7905C58.8857 7.44971 61.0008 7.59869 63.0663 7.87682C64.0891 8.01588 64.7941 8.95951 64.6551 9.97267C64.526 10.9064 63.7316 11.5818 62.8081 11.5818H62.818ZM44.924 11.1746H35.967C34.9343 11.1746 34.1002 10.3402 34.1002 9.31711C34.1002 8.29401 34.9343 7.45963 35.967 7.45963H44.924C45.9567 7.45963 46.7908 8.29401 46.7908 9.31711C46.7908 10.3402 45.9567 11.1746 44.924 11.1746Z" fill="#FAAC18"/>
<path d="M55.4794 111.744H51.0109C49.9782 111.744 49.144 110.91 49.144 109.887V103.55C49.144 102.517 49.9782 101.682 51.0109 101.682H55.4794C56.5122 101.682 57.3463 102.517 57.3463 103.55C57.3463 104.583 56.5122 105.417 55.4794 105.417H52.8778V108.019H55.4794C56.5122 108.019 57.3463 108.854 57.3463 109.887C57.3463 110.92 56.5122 111.744 55.4794 111.744Z" fill="#FAAC18"/>
<path d="M65.2704 111.745H65.0221C63.9894 111.745 63.1553 110.911 63.1553 109.888C63.1553 108.865 63.9894 108.021 65.0221 108.021H65.2704C65.2704 108.021 65.4094 108.02 65.5981 107.822C65.8563 107.554 65.9854 107.176 65.9854 106.709C65.9854 106.243 65.8463 105.875 65.5881 105.597C65.4094 105.408 65.32 105.408 65.2704 105.408H65.0321C63.9993 105.408 63.1652 104.574 63.1652 103.541C63.1652 102.508 63.9993 101.673 65.0321 101.673H65.2704C66.4024 101.673 67.4451 102.14 68.2891 103.014C69.2226 103.998 69.7091 105.269 69.7091 106.699C69.7091 108.13 69.2226 109.401 68.2891 110.375C67.4451 111.259 66.4024 111.726 65.2605 111.726L65.2704 111.745Z" fill="#FAAC18"/>
<path d="M55.4794 61.4546H51.0109C49.9782 61.4546 49.144 60.6202 49.144 59.5872V53.2499C49.144 52.2169 49.9782 51.3826 51.0109 51.3826H55.4794C56.5122 51.3826 57.3463 52.2169 57.3463 53.2499C57.3463 54.283 56.5122 55.1173 55.4794 55.1173H52.8778V57.7198H55.4794C56.5122 57.7198 57.3463 58.5541 57.3463 59.5872C57.3463 60.6202 56.5122 61.4546 55.4794 61.4546Z" fill="#FAAC18"/>
<path d="M91.1584 79.4539C90.1554 78.401 89.0929 77.4276 88.0006 76.5137C91.496 70.5242 93.3926 63.6307 93.3926 56.4293C93.3926 46.1289 89.5894 36.4542 82.6681 29.1634C75.7568 21.8825 66.5615 17.8696 56.7803 17.8696H29.7208C22.6903 17.8696 16.9805 23.8691 16.9805 31.2791V131.85C16.9805 139.26 22.6804 145.26 29.7208 145.26C30.4457 145.26 31.1507 145.18 31.8458 145.061C32.5409 145.18 33.246 145.26 33.9709 145.26H65.2805C75.0617 145.26 84.257 141.247 91.1683 133.966C98.0797 126.685 101.893 117 101.893 106.71C101.893 96.4194 98.0896 86.7348 91.1683 79.444L91.1584 79.4539ZM64.6549 48.1353C66.7601 50.3504 67.9219 53.3004 67.9219 56.4293C67.9219 59.5582 66.7601 62.5083 64.6549 64.7233C62.5497 66.9384 59.7494 68.1601 56.7704 68.1601H42.4413V44.6985H56.7704C59.7494 44.6985 62.5497 45.9203 64.645 48.1353H64.6549ZM73.1452 115.014C71.04 117.229 68.2397 118.451 65.2606 118.451H42.4413V94.9791H65.2606C68.2397 94.9791 71.04 96.2008 73.1352 98.4159C75.2404 100.631 76.4022 103.581 76.4022 106.71C76.4022 109.839 75.2404 112.789 73.1352 115.004L73.1452 115.014Z" fill="url(#paint2_linear_95_1658)"/>
<defs>
<linearGradient id="paint0_linear_95_1658" x1="0" y1="81.5694" x2="118.863" y2="81.5694" gradientUnits="userSpaceOnUse">
<stop stop-color="#F1F2F2"/>
<stop offset="1" stop-color="#D1D3D4"/>
</linearGradient>
<linearGradient id="paint1_linear_95_1658" x1="2.82975" y1="81.5695" x2="116.033" y2="81.5695" gradientUnits="userSpaceOnUse">
<stop stop-color="#D1D3D4"/>
<stop offset="1" stop-color="#F1F2F2"/>
</linearGradient>
<linearGradient id="paint2_linear_95_1658" x1="16.9805" y1="81.5696" x2="101.883" y2="81.5696" gradientUnits="userSpaceOnUse">
<stop stop-color="#FABC45"/>
<stop offset="0.18" stop-color="#FAB531"/>
<stop offset="0.37" stop-color="#FAB022"/>
<stop offset="0.61" stop-color="#FAAC1A"/>
<stop offset="1" stop-color="#FAAC18"/>
</linearGradient>
</defs>
</svg>
