<svg width="149" height="184" viewBox="0 0 149 184" fill="none" xmlns="http://www.w3.org/2000/svg">
<g style="mix-blend-mode:multiply">
<path opacity="0.03" d="M94.986 183.278C53.829 183.278 20.3364 146.891 20.3364 102.166C20.3364 57.44 53.8191 21.053 94.986 21.053C108.725 21.053 122.157 25.1432 133.842 32.8889C140.519 37.315 145.161 44.211 146.909 52.3124C148.657 60.4138 147.304 68.7424 143.106 75.7768C137.664 84.876 128.311 90.3098 118.098 90.3098C112.527 90.3098 107.095 88.66 102.374 85.5281C100.132 84.0362 97.5738 83.2558 94.986 83.2558C86.3931 83.2558 79.4102 91.7424 79.4102 102.175C79.4102 112.608 86.403 121.095 94.986 121.095C97.6232 121.095 100.221 120.275 102.502 118.734C107.283 115.493 112.804 113.784 118.483 113.784C128.577 113.784 137.862 119.119 143.324 128.05C147.6 135.035 149.032 143.354 147.353 151.475C145.684 159.596 141.111 166.542 134.484 171.037C122.651 179.059 108.991 183.308 94.9959 183.308L94.986 183.278Z" fill="#FBFBFB"/>
<path opacity="0.06" d="M94.3047 182.547C53.1575 182.547 19.6847 146.17 19.6847 101.454C19.6847 56.7385 53.1575 20.3613 94.3047 20.3613C108.034 20.3613 121.466 24.4515 133.141 32.1973C139.808 36.6135 144.45 43.5095 146.198 51.601C147.946 59.6925 146.593 68.0211 142.395 75.0456C136.953 84.1349 127.619 89.5688 117.407 89.5688C111.846 89.5688 106.414 87.9189 101.702 84.787C99.4505 83.2952 96.8924 82.5048 94.3047 82.5048C85.7019 82.5048 78.6992 91.0014 78.6992 101.444C78.6992 111.887 85.7019 120.384 94.3047 120.384C96.9418 120.384 99.5394 119.564 101.831 118.013C106.601 114.772 112.123 113.063 117.792 113.063C127.876 113.063 137.161 118.388 142.613 127.309C146.879 134.284 148.312 142.603 146.642 150.714C144.973 158.826 140.4 165.771 133.783 170.266C121.95 178.289 108.3 182.527 94.3047 182.527V182.547Z" fill="#F7F7F7"/>
<path opacity="0.1" d="M93.6329 181.825C52.4957 181.825 19.0327 145.458 19.0327 100.762C19.0327 56.0665 52.4957 19.6992 93.6329 19.6992C107.362 19.6992 120.785 23.7894 132.459 31.5253C139.126 35.9415 143.758 42.8276 145.506 50.9191C147.255 59.0007 145.901 67.3294 141.704 74.344C136.272 83.4333 126.938 88.8573 116.735 88.8573C111.174 88.8573 105.752 87.2074 101.041 84.0854C98.7887 82.5935 96.2207 81.8032 93.6329 81.8032C85.0203 81.8032 78.0077 90.3096 78.0077 100.772C78.0077 111.235 85.0203 119.741 93.6329 119.741C96.28 119.741 98.8776 118.921 101.169 117.37C105.94 114.13 111.461 112.42 117.12 112.42C127.195 112.42 136.469 117.746 141.921 126.657C146.188 133.632 147.62 141.931 145.951 150.042C144.282 158.144 139.719 165.079 133.101 169.575C121.269 177.597 107.629 181.835 93.6329 181.835V181.825Z" fill="#F3F3F3"/>
<path opacity="0.13" d="M92.9512 181.096C51.8238 181.096 18.3707 144.738 18.3707 100.052C18.3707 55.3665 51.8238 19.009 92.9512 19.009C106.67 19.009 120.093 23.0992 131.767 30.8351C138.424 35.2513 143.057 42.1276 144.805 50.2092C146.553 58.2908 145.2 66.5997 141.012 73.6143C135.58 82.6938 126.256 88.1177 116.063 88.1177C110.512 88.1177 105.09 86.4678 100.379 83.3458C98.1168 81.854 95.5587 81.0636 92.9611 81.0636C84.3287 81.0636 77.3161 89.5799 77.3161 100.052C77.3161 110.525 84.3385 119.041 92.9611 119.041C95.6081 119.041 98.2156 118.221 100.507 116.67C105.278 113.439 110.789 111.73 116.448 111.73C126.513 111.73 135.787 117.046 141.229 125.957C145.496 132.922 146.919 141.221 145.259 149.323C143.59 157.424 139.027 164.35 132.419 168.835C120.597 176.848 106.947 181.086 92.9611 181.086L92.9512 181.096Z" fill="#EFEFEF"/>
<path opacity="0.16" d="M92.2801 180.373C51.1724 180.373 17.7194 144.025 17.7194 99.359C17.7194 54.6928 51.1625 18.3452 92.2801 18.3452C105.999 18.3452 119.412 22.4354 131.086 30.1712C137.743 34.5776 142.366 41.4539 144.114 49.5355C145.852 57.6073 144.509 65.9161 140.321 72.9208C134.899 81.9904 125.575 87.4045 115.392 87.4045C109.841 87.4045 104.429 85.7546 99.7174 82.6326C97.4556 81.1309 94.8876 80.3405 92.29 80.3405C83.6477 80.3405 76.6153 88.8667 76.6153 99.359C76.6153 109.851 83.6477 118.377 92.29 118.377C94.937 118.377 97.5543 117.557 99.8458 115.996C104.606 112.766 110.118 111.057 115.777 111.057C125.842 111.057 135.096 116.372 140.539 125.273C144.796 132.239 146.228 140.528 144.559 148.619C142.889 156.711 138.336 163.636 131.728 168.122C119.906 176.134 106.266 180.373 92.29 180.373H92.2801Z" fill="#EBEBEB"/>
<path opacity="0.19" d="M91.5984 179.652C50.5006 179.652 17.0673 143.315 17.0673 98.6583C17.0673 54.0019 50.5006 17.6643 91.5984 17.6643C105.317 17.6643 118.73 21.7545 130.395 29.4804C137.042 33.8868 141.664 40.7532 143.413 48.8249C145.151 56.8967 143.808 65.1957 139.62 72.1905C134.197 81.2601 124.883 86.6643 114.71 86.6643C109.169 86.6643 103.747 85.0144 99.0455 81.9022C96.7837 80.4005 94.2059 79.6102 91.5984 79.6102C82.9462 79.6102 75.904 88.1462 75.904 98.6484C75.904 109.151 82.9462 117.687 91.5984 117.687C94.2552 117.687 96.8726 116.867 99.1739 115.306C103.935 112.075 109.436 110.376 115.086 110.376C125.14 110.376 134.395 115.691 139.827 124.583C144.084 131.538 145.506 139.827 143.847 147.909C142.188 156 137.625 162.916 131.027 167.392C119.204 175.404 105.574 179.642 91.5984 179.642V179.652Z" fill="#E6E7E7"/>
<path opacity="0.23" d="M90.9266 178.922C49.8387 178.922 16.4153 142.604 16.4153 97.9479C16.4153 53.2915 49.8387 16.9736 90.9266 16.9736C104.636 16.9736 118.049 21.0638 129.703 28.7898C136.35 33.1961 140.963 40.0626 142.711 48.1244C144.45 56.1863 143.106 64.4753 138.928 71.4801C133.506 80.5398 124.202 85.944 114.039 85.944C108.498 85.944 103.085 84.2941 98.3936 81.182C96.1219 79.6802 93.544 78.8899 90.9365 78.8899C82.2745 78.8899 75.2223 87.4457 75.2223 97.9479C75.2223 108.45 82.2745 117.006 90.9365 117.006C93.5934 117.006 96.2206 116.186 98.5219 114.625C103.283 111.394 108.774 109.695 114.424 109.695C124.469 109.695 133.713 115 139.156 123.892C143.412 130.847 144.835 139.127 143.175 147.208C141.516 155.29 136.963 162.206 130.365 166.681C118.552 174.694 104.922 178.922 90.9464 178.922H90.9266Z" fill="#E2E3E3"/>
<path opacity="0.26" d="M90.2452 178.201C49.1771 178.201 15.7537 141.893 15.7537 97.2566C15.7537 52.62 49.1672 16.312 90.2452 16.312C103.954 16.312 117.357 20.3924 129.012 28.1282C135.649 32.5247 140.262 39.3911 142.01 47.443C143.748 55.495 142.405 63.7841 138.227 70.779C132.815 79.8288 123.511 85.233 113.357 85.233C107.826 85.233 102.414 83.5929 97.7221 80.4808C95.4504 78.9791 92.8725 78.1789 90.2551 78.1789C81.5733 78.1789 74.5212 86.7446 74.5212 97.2665C74.5212 107.788 81.5832 116.354 90.2551 116.354C92.9219 116.354 95.5491 115.524 97.8504 113.963C102.601 110.742 108.103 109.033 113.742 109.033C123.777 109.033 133.012 114.339 138.454 123.221C142.701 130.166 144.134 138.435 142.464 146.517C140.805 154.589 136.252 161.504 129.664 165.97C117.851 173.973 104.231 178.211 90.2551 178.211L90.2452 178.201Z" fill="#DEDFE0"/>
<path opacity="0.29" d="M89.5735 177.479C48.5152 177.479 15.1116 141.18 15.1116 96.5537C15.1116 51.927 48.5152 15.6289 89.5735 15.6289C103.273 15.6289 116.676 19.7092 128.33 27.4352C134.968 31.8317 139.58 38.6882 141.319 46.7402C143.057 54.7922 141.714 63.0713 137.536 70.0563C132.123 79.0963 122.839 84.5005 112.676 84.5005C107.145 84.5005 101.742 82.8604 97.0503 79.7483C94.7786 78.2367 92.1909 77.4464 89.5735 77.4464C80.8818 77.4464 73.81 86.022 73.81 96.5537C73.81 107.086 80.8818 115.661 89.5735 115.661C92.2403 115.661 94.8774 114.831 97.1787 113.27C101.93 110.049 107.421 108.35 113.061 108.35C123.096 108.35 132.321 113.646 137.753 122.528C142 129.463 143.422 137.732 141.763 145.804C140.104 153.876 135.56 160.772 128.972 165.248C117.17 173.25 103.539 177.488 89.5834 177.488L89.5735 177.479Z" fill="#DADBDC"/>
<path opacity="0.32" d="M88.8919 176.748C47.8435 176.748 14.4497 140.46 14.4497 95.8532C14.4497 51.2463 47.8435 14.958 88.8919 14.958C102.591 14.958 115.984 19.0383 127.639 26.7643C134.266 31.1608 138.879 38.0074 140.617 46.0495C142.356 54.0916 141.012 62.3708 136.844 69.3459C131.442 78.3859 122.157 83.7802 112.004 83.7802C106.473 83.7802 101.08 82.1401 96.3885 79.028C94.1069 77.5164 91.5192 76.7161 88.8919 76.7161C80.1904 76.7161 73.1086 85.3017 73.1086 95.8532C73.1086 106.405 80.1904 114.99 88.8919 114.99C91.5685 114.99 94.1958 114.16 96.5169 112.589C101.258 109.369 106.749 107.669 112.379 107.669C122.404 107.669 131.619 112.965 137.052 121.837C141.299 128.772 142.721 137.032 141.062 145.094C139.402 153.156 134.859 160.052 128.281 164.517C116.478 172.52 102.858 176.748 88.9018 176.748H88.8919Z" fill="#D6D7D8"/>
<path opacity="0.35" d="M88.2108 176.027C47.1723 176.027 13.7883 139.749 13.7883 95.1518C13.7883 50.5547 47.1723 14.2764 88.2108 14.2764C101.9 14.2764 115.293 18.3567 126.938 26.0728C133.565 30.4594 138.168 37.306 139.906 45.3481C141.645 53.3803 140.302 61.6496 136.133 68.6247C130.731 77.6548 121.456 83.0492 111.313 83.0492C105.792 83.0492 100.399 81.4091 95.7172 78.3069C93.4356 76.7953 90.838 75.995 88.2108 75.995C79.4994 75.995 72.4077 84.5904 72.4077 95.1518C72.4077 105.713 79.4994 114.309 88.2108 114.309C90.8874 114.309 93.5245 113.479 95.8456 111.908C100.587 108.697 106.068 106.988 111.698 106.988C121.713 106.988 130.928 112.283 136.351 121.135C140.588 128.061 142.01 136.321 140.351 144.373C138.692 152.425 134.158 159.321 127.58 163.786C115.777 171.789 102.167 176.017 88.2108 176.017V176.027Z" fill="#D2D3D4"/>
<path opacity="0.39" d="M87.5388 175.296C46.5201 175.296 13.146 139.027 13.146 94.4498C13.146 49.8725 46.5201 13.604 87.5388 13.604C101.228 13.604 114.611 17.6843 126.256 25.4004C132.874 29.787 137.476 36.6238 139.215 44.656C140.953 52.6882 139.61 60.9477 135.442 67.9227C130.049 76.9429 120.775 82.3372 110.641 82.3372C105.12 82.3372 99.7368 80.6972 95.0551 77.595C92.7736 76.0834 90.1661 75.2831 87.5388 75.2831C78.8076 75.2831 71.7061 83.8884 71.7061 94.4696C71.7061 105.051 78.8076 113.656 87.5388 113.656C90.2253 113.656 92.8624 112.826 95.1835 111.255C99.9244 108.044 105.396 106.345 111.026 106.345C121.031 106.345 130.237 111.631 135.659 120.483C139.896 127.409 141.319 135.658 139.659 143.71C138 151.762 133.466 158.648 126.898 163.104C115.105 171.097 101.495 175.325 87.5388 175.325V175.296Z" fill="#CECFD0"/>
<path opacity="0.42" d="M86.8573 174.575C45.8484 174.575 12.4843 138.316 12.4843 93.7487C12.4843 49.1812 45.8484 12.9226 86.8573 12.9226C100.537 12.9226 113.93 17.0029 125.565 24.719C132.182 29.1056 136.775 35.9325 138.513 43.9647C140.242 51.9871 138.909 60.2465 134.741 67.2117C129.348 76.2319 120.083 81.6064 109.959 81.6064C104.448 81.6064 99.0553 79.9664 94.3835 76.8642C92.0921 75.3427 89.4944 74.5425 86.8573 74.5425C78.1162 74.5425 71.0049 83.1576 71.0049 93.7487C71.0049 104.34 78.1162 112.955 86.8573 112.955C89.5438 112.955 92.1908 112.125 94.5119 110.544C99.2429 107.333 104.725 105.634 110.345 105.634C120.34 105.634 129.545 110.92 134.958 119.762C139.195 126.678 140.607 134.917 138.958 142.969C137.299 151.012 132.775 157.898 126.207 162.353C114.414 170.346 100.813 174.575 86.8672 174.575H86.8573Z" fill="#CACBCC"/>
<path opacity="0.45" d="M86.1858 173.854C45.1868 173.854 11.8325 137.605 11.8325 93.0473C11.8325 48.4897 45.1868 12.241 86.1858 12.241C99.8653 12.241 113.249 16.3213 124.884 24.0275C131.491 28.4042 136.084 35.2311 137.822 43.2534C139.551 51.2758 138.217 59.5154 134.059 66.4807C128.666 75.491 119.412 80.8655 109.298 80.8655C103.786 80.8655 98.4035 79.2255 93.7318 76.1332C91.4403 74.6117 88.8328 73.8114 86.1957 73.8114C77.4448 73.8114 70.3235 82.4364 70.3235 93.0374C70.3235 103.638 77.4448 112.263 86.1957 112.263C88.8822 112.263 91.5391 111.433 93.87 109.853C98.6011 106.642 104.073 104.952 109.693 104.952C119.688 104.952 128.874 110.228 134.286 119.07C138.514 125.986 139.936 134.216 138.277 142.258C136.627 150.29 132.094 157.177 125.535 161.622C113.742 169.615 100.142 173.844 86.2056 173.844L86.1858 173.854Z" fill="#C6C7C8"/>
<path opacity="0.48" d="M85.5044 173.122C44.5153 173.122 11.1709 136.883 11.1709 92.3452C11.1709 47.8074 44.5153 11.5686 85.5044 11.5686C99.1839 11.5686 112.557 15.639 124.192 23.3551C130.8 27.7318 135.383 34.5489 137.121 42.5712C138.85 50.5836 137.516 58.8234 133.358 65.7787C127.975 74.7791 118.73 80.1537 108.616 80.1537C103.115 80.1537 97.732 78.5136 93.0603 75.4212C90.7589 73.8998 88.1515 73.0995 85.5044 73.0995C76.7436 73.0995 69.6125 81.7344 69.6125 92.3551C69.6125 102.976 76.7436 111.611 85.5044 111.611C88.2008 111.611 90.8577 110.771 93.1887 109.19C97.9197 105.989 103.382 104.29 108.992 104.29C118.977 104.29 128.163 109.566 133.565 118.398C137.793 125.304 139.205 133.534 137.556 141.566C135.906 149.598 131.383 156.465 124.824 160.92C113.041 168.913 99.4407 173.132 85.5044 173.132V173.122Z" fill="#C2C3C4"/>
<path opacity="0.52" d="M84.8325 172.401C43.8631 172.401 10.5286 136.172 10.5286 91.6441C10.5286 47.1162 43.8631 10.8872 84.8325 10.8872C98.5021 10.8872 111.875 14.9576 123.501 22.6737C130.098 27.0504 134.681 33.8675 136.41 41.87C138.138 49.8726 136.805 58.1123 132.647 65.0577C127.264 74.0483 118.029 79.4229 107.925 79.4229C102.423 79.4229 97.0502 77.7927 92.3883 74.7004C90.087 73.1789 87.4696 72.3688 84.8226 72.3688C76.042 72.3688 68.901 81.0135 68.901 91.6441C68.901 102.275 76.042 110.919 84.8226 110.919C87.519 110.919 90.1858 110.08 92.5167 108.499C97.2379 105.298 102.7 103.599 108.31 103.599C118.286 103.599 127.461 108.864 132.864 117.697C137.091 124.603 138.504 132.823 136.854 140.845C135.205 148.867 130.681 155.734 124.133 160.18C112.35 168.163 98.7589 172.391 84.8226 172.391L84.8325 172.401Z" fill="#BDBEC0"/>
<path opacity="0.55" d="M84.1514 171.669C43.1918 171.669 9.86719 135.45 9.86719 90.9421C9.86719 46.4339 43.1918 10.2148 84.1514 10.2148C97.821 10.2148 111.184 14.2853 122.81 21.9915C129.407 26.3583 133.99 33.1753 135.709 41.1779C137.437 49.1805 136.104 57.4103 131.956 64.3459C126.583 73.3364 117.348 78.7011 107.253 78.7011C101.752 78.7011 96.3888 77.071 91.7269 73.9786C89.4256 72.4472 86.7984 71.647 84.1514 71.647C75.3609 71.647 68.21 80.3016 68.21 90.952C68.21 101.602 75.3609 110.257 84.1514 110.257C86.8576 110.257 89.5244 109.417 91.8553 107.836C96.5765 104.635 102.029 102.946 107.639 102.946C117.604 102.946 126.78 108.212 132.173 117.034C136.39 123.93 137.813 132.15 136.153 140.163C134.504 148.185 129.99 155.042 123.442 159.488C111.659 167.47 98.0778 171.689 84.1514 171.689V171.669Z" fill="#B9BABC"/>
<path opacity="0.58" d="M83.4796 170.948C42.53 170.948 9.21521 134.739 9.21521 90.2407C9.21521 45.7424 42.53 9.5332 83.4796 9.5332C97.1394 9.5332 110.503 13.6036 122.128 21.3098C128.716 25.6767 133.299 32.4838 135.017 40.4765C136.746 48.4692 135.412 56.6891 131.264 63.6346C125.891 72.6152 116.666 77.9799 106.582 77.9799C101.09 77.9799 95.727 76.3498 91.0651 73.2574C88.7539 71.726 86.1365 70.9159 83.4796 70.9159C74.6793 70.9159 67.5186 79.5804 67.5186 90.2407C67.5186 100.901 74.6793 109.565 83.4796 109.565C86.1859 109.565 88.8527 108.726 91.2034 107.135C95.9146 103.934 101.377 102.245 106.977 102.245C116.933 102.245 126.098 107.51 131.491 116.323C135.709 123.219 137.121 131.429 135.472 139.442C133.822 147.454 129.308 154.311 122.77 158.747C110.997 166.73 97.4159 170.948 83.4895 170.948H83.4796Z" fill="#B5B6B8"/>
<path opacity="0.61" d="M82.798 170.227C41.8583 170.227 8.56323 134.038 8.56323 89.5395C8.56323 45.0413 41.8681 8.85181 82.798 8.85181C96.4578 8.85181 109.821 12.9223 121.436 20.6186C128.024 24.9755 132.597 31.7826 134.316 39.7753C136.044 47.7582 134.711 55.9781 130.563 62.9137C125.2 71.8845 115.975 77.2492 105.9 77.2492C100.409 77.2492 95.0552 75.619 90.3933 72.5365C88.0822 71.0051 85.4549 70.195 82.7881 70.195C73.9681 70.195 66.7974 78.8793 66.7974 89.5395C66.7974 100.2 73.9681 108.884 82.7881 108.884C85.5043 108.884 88.171 108.044 90.5217 106.454C95.233 103.262 100.685 101.573 106.275 101.573C116.231 101.573 125.387 106.829 130.77 115.642C134.988 122.528 136.4 130.728 134.751 138.741C133.101 146.743 128.597 153.6 122.059 158.036C110.285 166.018 96.7047 170.237 82.7881 170.237L82.798 170.227Z" fill="#B1B2B4"/>
<path opacity="0.65" d="M82.1163 169.496C41.1963 169.496 7.90125 133.316 7.90125 88.8375C7.90125 44.359 41.1963 8.17944 82.1163 8.17944C95.7661 8.17944 109.13 12.2499 120.735 19.9462C127.313 24.3032 131.886 31.1004 133.605 39.0832C135.323 47.066 134 55.2761 129.861 62.2017C124.498 71.1725 115.283 76.5175 105.218 76.5175C99.7367 76.5175 94.3735 74.8873 89.7314 71.8049C87.4202 70.2735 84.783 69.4634 82.1163 69.4634C73.2863 69.4634 66.1058 78.1575 66.1058 88.8375C66.1058 99.5175 73.2863 108.212 82.1163 108.212C84.8324 108.212 87.5091 107.372 89.8598 105.781C94.571 102.59 100.013 100.901 105.604 100.901C115.55 100.901 124.696 106.157 130.078 114.95C134.286 121.836 135.698 130.026 134.049 138.029C132.4 146.031 127.896 152.878 121.367 157.304C109.604 165.277 96.0229 169.496 82.1064 169.496H82.1163Z" fill="#ADAEB0"/>
<path opacity="0.68" d="M81.4448 168.774C40.5347 168.774 7.24951 132.605 7.24951 88.1361C7.24951 43.6674 40.5347 7.4978 81.4448 7.4978C95.0947 7.4978 108.448 11.5683 120.054 19.2646C126.622 23.6215 131.195 30.4089 132.913 38.3917C134.632 46.3646 133.308 54.5747 129.17 61.4905C123.807 70.4514 114.602 75.7963 104.547 75.7963C99.0652 75.7963 93.7119 74.1662 89.0697 71.0837C86.7487 69.5524 84.1115 68.7324 81.4448 68.7324C72.605 68.7324 65.4146 77.4364 65.4146 88.1263C65.4146 98.8161 72.605 107.52 81.4448 107.52C84.1609 107.52 86.8475 106.68 89.1982 105.08C93.8996 101.889 99.3417 100.199 104.932 100.199C114.868 100.199 124.014 105.445 129.387 114.238C133.595 121.115 135.007 129.305 133.358 137.298C131.718 145.29 127.214 152.127 120.686 156.563C108.922 164.536 95.3515 168.755 81.4448 168.755V168.774Z" fill="#A9AAAC"/>
<path opacity="0.71" d="M80.7632 168.044C39.8629 168.044 6.59753 131.884 6.59753 87.4356C6.59753 42.9867 39.8728 6.8269 80.7632 6.8269C94.4131 6.8269 107.757 10.8973 119.362 18.5838C125.93 22.9309 130.493 29.7182 132.212 37.6912C133.931 45.6641 132.607 53.8544 128.469 60.7702C123.115 69.7212 113.92 75.0661 103.865 75.0661C98.3934 75.0661 93.0402 73.436 88.398 70.3634C86.0769 68.8222 83.4299 68.012 80.7632 68.012C71.9135 68.012 64.7033 76.726 64.7033 87.4356C64.7033 98.1452 71.9036 106.859 80.7632 106.859C83.4892 106.859 86.1757 106.009 88.5363 104.419C93.2377 101.228 98.67 99.5481 104.26 99.5481C114.187 99.5481 123.323 104.794 128.706 113.577C132.913 120.444 134.316 128.634 132.676 136.617C131.037 144.6 126.533 151.436 120.014 155.863C108.251 163.836 94.6896 168.044 80.7829 168.044H80.7632Z" fill="#A5A6A8"/>
<path opacity="0.74" d="M80.0919 167.323C39.2114 167.323 5.94604 131.173 5.94604 86.7344C5.94604 42.2954 39.2114 6.14551 80.0919 6.14551C93.7319 6.14551 107.076 10.2061 118.681 17.9024C125.239 22.2495 129.802 29.0269 131.521 36.9999C133.24 44.9629 131.916 53.1532 127.778 60.0591C122.424 69.0003 113.239 74.3453 103.194 74.3453C97.7222 74.3453 92.3788 72.7151 87.7366 69.6425C85.4057 68.1013 82.7686 67.2911 80.0821 67.2911C71.2126 67.2911 64.0025 76.0149 64.0025 86.7344C64.0025 97.4539 71.2126 106.178 80.0821 106.178C82.8081 106.178 85.5045 105.328 87.8651 103.728C92.5665 100.546 97.9987 98.8568 103.569 98.8568C113.496 98.8568 122.622 104.103 127.995 112.876C132.193 119.743 133.605 127.923 131.965 135.896C130.326 143.879 125.832 150.706 119.313 155.132C107.56 163.105 93.9986 167.313 80.0919 167.313V167.323Z" fill="#A1A2A4"/>
<path opacity="0.77" d="M79.4103 166.602C38.5397 166.602 5.28418 130.462 5.28418 86.0431C5.28418 41.6239 38.5397 5.48389 79.4103 5.48389C93.0503 5.48389 106.384 9.54445 117.98 17.2408C124.538 21.5878 129.091 28.3653 130.81 36.3185C132.528 44.2717 131.205 52.462 127.076 59.3679C121.733 68.309 112.547 73.6441 102.512 73.6441C97.0406 73.6441 91.707 72.0238 87.0748 68.9413C84.7438 67.4001 82.0968 66.5801 79.4103 66.5801C70.531 66.5801 63.311 75.3138 63.311 86.053C63.311 96.7923 70.531 105.526 79.4103 105.526C82.1462 105.526 84.8426 104.676 87.2032 103.076C91.8947 99.8946 97.327 98.2051 102.898 98.2051C112.814 98.2051 121.93 103.441 127.303 112.215C131.501 119.071 132.904 127.242 131.264 135.224C129.624 143.197 125.13 150.024 118.622 154.441C106.868 162.404 93.3071 166.622 79.4103 166.622V166.602Z" fill="#9D9EA1"/>
<path opacity="0.81" d="M78.7386 165.871C37.8778 165.871 4.6322 129.74 4.6322 85.331C4.6322 40.9217 37.8778 4.7915 78.7386 4.7915C92.3687 4.7915 105.703 8.85209 117.298 16.5385C123.846 20.8757 128.4 27.6532 130.118 35.5965C131.837 43.5497 130.513 51.7202 126.385 58.6261C121.041 67.5574 111.866 72.8924 101.841 72.8924C96.3787 72.8924 91.0452 71.2722 86.4129 68.1996C84.082 66.6583 81.4251 65.8384 78.7386 65.8384C69.8494 65.8384 62.6195 74.5819 62.6195 85.331C62.6195 96.0802 69.8494 104.824 78.7386 104.824C81.4745 104.824 84.1808 103.974 86.5413 102.374C91.2329 99.1923 96.6553 97.5128 102.226 97.5128C112.132 97.5128 121.249 102.749 126.612 111.512C130.81 118.369 132.212 126.53 130.573 134.502C128.933 142.475 124.449 149.292 117.94 153.709C106.186 161.672 92.6354 165.88 78.7485 165.88L78.7386 165.871Z" fill="#999A9D"/>
<path opacity="0.84" d="M78.057 165.15C37.2061 165.15 3.98022 129.029 3.98022 84.6298C3.98022 40.2304 37.216 4.11011 78.057 4.11011C91.6871 4.11011 105.021 8.17066 116.607 15.8571C123.155 20.1943 127.708 26.9619 129.417 34.9052C131.135 42.8485 129.812 51.019 125.683 57.9151C120.35 66.8365 111.174 72.1715 101.159 72.1715C95.6971 72.1715 90.3735 70.5512 85.7412 67.4787C83.4004 65.9275 80.7435 65.1075 78.057 65.1075C69.1579 65.1075 61.9082 73.8609 61.9082 84.62C61.9082 95.379 69.148 104.132 78.057 104.132C80.8027 104.132 83.4991 103.283 85.8795 101.672C90.571 98.4911 95.9835 96.8116 101.554 96.8116C111.451 96.8116 120.557 102.038 125.92 110.801C130.108 117.648 131.521 125.809 129.881 133.772C128.242 141.735 123.757 148.552 117.258 152.958C105.515 160.921 91.9637 165.13 78.0767 165.13L78.057 165.15Z" fill="#949699"/>
<path opacity="0.87" d="M77.3855 164.429C36.5544 164.429 3.32849 128.318 3.32849 83.9386C3.32849 39.5589 36.5544 3.44849 77.3855 3.44849C91.0057 3.44849 104.34 7.50907 115.925 15.1955C122.464 19.5327 127.017 26.2904 128.726 34.2238C130.444 42.1572 129.111 50.3278 125.002 57.2139C119.668 66.1353 110.503 71.4605 100.497 71.4605C95.0454 71.4605 89.7119 69.8402 85.0895 66.7775C82.7486 65.2264 80.0819 64.4064 77.3954 64.4064C68.4765 64.4064 61.2269 73.1697 61.2269 83.9485C61.2269 94.7272 68.4765 103.491 77.3954 103.491C80.1411 103.491 82.8474 102.641 85.2277 101.031C89.9094 97.8592 95.3219 96.1796 100.883 96.1796C110.769 96.1796 119.876 101.406 125.229 110.159C129.417 117.006 130.82 125.157 129.18 133.11C127.54 141.063 123.066 147.87 116.567 152.277C104.824 160.24 91.2823 164.449 77.3954 164.449L77.3855 164.429Z" fill="#909295"/>
<path opacity="0.9" d="M76.704 163.697C35.8828 163.697 2.66675 127.596 2.66675 83.2265C2.66675 38.8566 35.8828 2.7561 76.704 2.7561C90.3242 2.7561 103.648 6.81668 115.234 14.4932C121.772 18.8205 126.316 25.5783 128.024 33.5117C129.733 41.4451 128.41 49.6058 124.301 56.4821C118.967 65.3936 109.811 70.7089 99.8061 70.7089C94.354 70.7089 89.0304 69.0886 84.408 66.0259C82.0671 64.4748 79.4004 63.6547 76.6941 63.6547C67.7654 63.6547 60.5059 72.4279 60.5059 83.2166C60.5059 94.0052 67.7654 102.778 76.6941 102.778C79.4498 102.778 82.156 101.929 84.5364 100.309C89.218 97.1371 94.6306 95.4576 100.181 95.4576C110.068 95.4576 119.155 100.674 124.508 109.428C128.696 116.264 130.099 124.415 128.459 132.358C126.819 140.312 122.345 147.109 115.856 151.515C104.122 159.468 90.581 163.677 76.6941 163.677L76.704 163.697Z" fill="#8C8E91"/>
<path opacity="0.94" d="M76.0326 162.976C35.2213 162.976 2.02502 126.885 2.02502 82.5352C2.02502 38.1851 35.2312 2.09448 76.0326 2.09448C89.6529 2.09448 102.967 6.15505 114.543 13.8316C121.071 18.1589 125.615 24.9068 127.323 32.8303C129.032 40.7538 127.709 48.9046 123.6 55.7908C118.276 64.6924 109.13 70.0077 99.1248 70.0077C93.6826 70.0077 88.359 68.3874 83.7465 65.3247C81.3958 63.7736 78.729 62.9437 76.0228 62.9437C67.0842 62.9437 59.8049 71.7268 59.8049 82.5352C59.8049 93.3436 67.0743 102.127 76.0228 102.127C78.7784 102.127 81.4946 101.277 83.8749 99.6568C88.5467 96.4854 93.9592 94.8058 99.51 94.8058C109.387 94.8058 118.474 100.022 123.817 108.756C127.995 115.593 129.398 123.724 127.768 131.667C126.138 139.61 121.664 146.408 115.175 150.804C103.441 158.757 89.8998 162.966 76.0326 162.966V162.976Z" fill="#888A8D"/>
<path opacity="0.97" d="M75.3509 162.244C34.5494 162.244 1.36304 126.164 1.36304 81.8233C1.36304 37.4831 34.5494 1.40234 75.3509 1.40234C88.9613 1.40234 102.275 5.46291 113.851 13.1296C120.38 17.4569 124.913 24.1949 126.622 32.1184C128.331 40.0419 127.007 48.1828 122.898 55.0591C117.575 63.9509 108.438 69.2662 98.4431 69.2662C93.0009 69.2662 87.6871 67.6459 83.0746 64.5931C80.7239 63.0321 78.0473 62.212 75.341 62.212C66.3925 62.212 59.1034 71.005 59.1034 81.8233C59.1034 92.6416 66.3827 101.435 75.341 101.435C78.0967 101.435 80.8227 100.575 83.2129 98.9646C87.8847 95.7932 93.2873 94.1236 98.8382 94.1236C108.705 94.1236 117.782 99.3401 123.125 108.064C127.303 114.891 128.706 123.022 127.066 130.965C125.437 138.898 120.962 145.696 114.483 150.092C102.749 158.045 89.218 162.244 75.3509 162.244Z" fill="#848689"/>
<path d="M74.6693 161.523C33.8876 161.523 0.701172 125.462 0.701172 81.1219C0.701172 36.7817 33.8777 0.720703 74.6693 0.720703C88.2796 0.720703 101.584 4.77139 113.16 12.4479C119.678 16.7654 124.212 23.5034 125.921 31.417C127.629 39.3307 126.306 47.4716 122.207 54.338C116.893 63.2297 107.757 68.5351 97.7713 68.5351C92.3292 68.5351 87.0253 66.9149 82.4128 63.8621C80.0522 62.3011 77.3755 61.481 74.6693 61.481C65.701 61.481 58.4119 70.2937 58.4119 81.1219C58.4119 91.9501 65.7109 100.753 74.6693 100.753C77.4348 100.753 80.1608 99.8934 82.551 98.2731C87.2228 95.1116 92.6156 93.4321 98.1565 93.4321C108.014 93.4321 117.091 98.6387 122.424 107.362C126.602 114.189 127.995 122.311 126.365 130.244C124.735 138.177 120.271 144.965 113.792 149.351C102.068 157.304 88.5364 161.503 74.6693 161.503V161.523Z" fill="#808285"/>
</g>
<path d="M74.6694 162.265C33.4926 162.265 0 125.868 0 81.1323C0 36.3969 33.4926 0 74.6694 0C88.4081 0 101.851 4.0902 113.535 11.8458C120.212 16.2719 124.854 23.1778 126.612 31.2792C128.36 39.3806 127.007 47.7191 122.809 54.7534C117.367 63.8625 108.004 69.2964 97.7813 69.2964C92.2107 69.2964 86.7686 67.6366 82.0474 64.5146C79.8053 63.0326 77.2571 62.2423 74.6792 62.2423C66.1061 62.2423 59.1231 70.7191 59.1231 81.1323C59.1231 91.5455 66.1061 100.022 74.6792 100.022C77.3065 100.022 79.9041 99.2023 82.1758 97.6611C86.9562 94.4205 92.4873 92.7015 98.1665 92.7015C108.271 92.7015 117.565 98.0365 123.027 106.978C127.303 113.963 128.736 122.291 127.066 130.412C125.397 138.534 120.824 145.489 114.187 149.994C102.344 158.016 88.6847 162.265 74.6792 162.265H74.6694Z" fill="url(#paint0_linear_98_3613)"/>
<path d="M74.6695 159.301C35.0533 159.301 2.81506 124.228 2.81506 81.133C2.81506 38.0376 35.0533 2.9646 74.6695 2.9646C87.8749 2.9646 100.794 6.9066 112.034 14.346C118.078 18.3473 122.276 24.6012 123.866 31.9319C125.447 39.2627 124.222 46.8108 120.419 53.1733C115.491 61.413 107.026 66.3332 97.7716 66.3332C92.7344 66.3332 87.8157 64.8315 83.539 62.0059C80.8524 60.2176 77.7807 59.279 74.6695 59.279C64.5358 59.279 56.2985 69.0797 56.2985 81.133C56.2985 93.1863 64.5358 102.987 74.6695 102.987C77.84 102.987 80.9611 102.009 83.697 100.151C88.0231 97.2172 93.0307 95.6661 98.1666 95.6661C107.303 95.6661 115.718 100.497 120.656 108.579C124.528 114.902 125.822 122.43 124.311 129.781C122.8 137.131 118.661 143.425 112.656 147.495C101.268 155.211 88.1416 159.291 74.6794 159.291L74.6695 159.301Z" fill="url(#paint1_linear_98_3613)"/>
<path d="M74.6692 154.855C71.6271 154.855 68.5554 154.637 65.5528 154.193C64.5453 154.045 63.8342 153.106 63.9824 152.098C64.1305 151.09 65.0688 150.379 66.0763 150.527C68.9011 150.942 71.7851 151.15 74.6593 151.15H74.9753C74.9753 151.15 74.9753 151.15 74.9852 151.15C76.0025 151.15 76.8322 151.97 76.8322 152.987C76.8322 154.015 76.0124 154.845 74.9951 154.855H74.6494H74.6692ZM83.8448 154.163C82.946 154.163 82.1559 153.501 82.0176 152.582C81.8694 151.575 82.5608 150.626 83.5781 150.478C86.4029 150.053 89.2277 149.421 91.9735 148.591C92.9513 148.294 93.9884 148.848 94.2847 149.826C94.581 150.804 94.0279 151.841 93.0501 152.138C90.1364 153.017 87.1338 153.689 84.1312 154.143C84.0423 154.153 83.9436 154.163 83.8547 154.163H83.8448ZM57.1574 152.306C56.9796 152.306 56.8018 152.276 56.6339 152.227C53.7301 151.367 50.856 150.28 48.0805 149.006C47.1521 148.581 46.7472 147.475 47.1719 146.546C47.5966 145.617 48.7028 145.212 49.6312 145.637C52.2387 146.842 54.9549 147.86 57.6908 148.67C58.6686 148.966 59.2316 149.994 58.9353 150.972C58.6982 151.772 57.9574 152.296 57.1574 152.296V152.306ZM100.803 149.055C100.102 149.055 99.4404 148.66 99.1244 147.978C98.6898 147.05 99.0947 145.953 100.023 145.518C102.611 144.313 105.149 142.91 107.569 141.349C108.428 140.796 109.574 141.043 110.127 141.902C110.68 142.762 110.433 143.908 109.574 144.461C107.016 146.111 104.32 147.603 101.574 148.877C101.317 148.996 101.06 149.045 100.794 149.045L100.803 149.055ZM41.0679 144.916C40.7223 144.916 40.3766 144.817 40.0704 144.619C37.532 142.989 35.0628 141.171 32.7417 139.205C31.9614 138.543 31.8627 137.377 32.5244 136.597C33.1862 135.816 34.3517 135.718 35.1319 136.38C37.3345 138.247 39.6654 139.966 42.0655 141.507C42.9248 142.06 43.1816 143.206 42.6285 144.066C42.2729 144.619 41.6803 144.916 41.0679 144.916ZM115.085 138.81C114.71 138.81 114.325 138.691 113.999 138.454C113.169 137.852 112.982 136.696 113.584 135.866C115.174 133.673 116.3 131.193 116.923 128.496C117.15 127.498 118.147 126.875 119.145 127.112C120.142 127.34 120.765 128.337 120.528 129.335C119.787 132.517 118.463 135.441 116.577 138.039C116.211 138.543 115.648 138.81 115.076 138.81H115.085ZM27.5465 133.485C27.0428 133.485 26.539 133.277 26.1736 132.882C24.1488 130.659 22.2228 128.268 20.4746 125.789C19.882 124.949 20.0795 123.793 20.9191 123.21C21.7586 122.617 22.9142 122.815 23.4969 123.654C25.1661 126.016 26.9835 128.278 28.9095 130.392C29.6009 131.153 29.5416 132.319 28.791 133.011C28.4354 133.337 27.9909 133.495 27.5465 133.495V133.485ZM119.026 121.945C118.137 121.945 117.347 121.303 117.199 120.394C116.774 117.796 115.866 115.346 114.503 113.123L114.335 112.846C113.782 111.987 114.038 110.84 114.908 110.287C115.767 109.734 116.913 109.991 117.466 110.86L117.673 111.196C119.283 113.824 120.36 116.729 120.863 119.801C121.031 120.809 120.34 121.767 119.332 121.926C119.234 121.945 119.135 121.945 119.036 121.945H119.026ZM17.3239 119.011C16.6621 119.011 16.0201 118.655 15.6942 118.033C14.262 115.375 12.9879 112.599 11.8817 109.773C11.5064 108.825 11.9805 107.748 12.9287 107.373C13.8768 106.997 14.9534 107.471 15.3288 108.42C16.3757 111.107 17.6004 113.755 18.9536 116.274C19.4375 117.173 19.1017 118.3 18.2029 118.784C17.9264 118.932 17.6202 119.001 17.3239 119.001V119.011ZM74.6692 111.127C72.0814 111.127 69.5233 110.682 67.0639 109.793C66.1059 109.447 65.6022 108.39 65.9479 107.422C66.2935 106.454 67.3504 105.96 68.3183 106.306C70.8764 107.224 73.5926 107.58 76.2692 107.343C77.2964 107.244 78.1853 108.005 78.2742 109.032C78.3631 110.05 77.6125 110.949 76.5853 111.038C75.9532 111.097 75.3112 111.117 74.6692 111.117V111.127ZM84.8522 108.44C84.2004 108.44 83.5682 108.094 83.2324 107.491C82.7386 106.602 83.0546 105.466 83.9534 104.972C84.4769 104.676 84.9905 104.359 85.4942 104.023C87.5882 102.601 89.8796 101.554 92.2895 100.892C93.2772 100.625 94.2946 101.208 94.5612 102.196C94.8279 103.184 94.2452 104.201 93.2575 104.468C91.2426 105.021 89.3265 105.901 87.5684 107.096C86.9758 107.501 86.3634 107.877 85.751 108.222C85.4646 108.38 85.1584 108.459 84.8522 108.459V108.44ZM109.762 107.353C109.406 107.353 109.041 107.254 108.725 107.037C106.463 105.505 103.954 104.508 101.268 104.063C100.26 103.895 99.5787 102.937 99.7466 101.929C99.9145 100.921 100.863 100.23 101.88 100.408C105.09 100.941 108.093 102.136 110.799 103.964C111.648 104.537 111.866 105.683 111.303 106.533C110.947 107.066 110.364 107.353 109.762 107.353ZM60.1402 105.328C59.6958 105.328 59.2513 105.17 58.9056 104.853C56.6043 102.779 54.6289 100.279 53.0388 97.4436C52.5449 96.5544 52.861 95.4183 53.7499 94.9243C54.6388 94.4303 55.7747 94.7464 56.2685 95.6356C57.6611 98.1253 59.3797 100.299 61.3749 102.097C62.1354 102.779 62.1946 103.954 61.5131 104.715C61.1477 105.12 60.644 105.328 60.1402 105.328ZM10.8545 102.502C10.0347 102.502 9.28409 101.949 9.06679 101.119C8.30627 98.2043 7.70378 95.2009 7.28895 92.1974C7.15068 91.1798 7.85194 90.2512 8.86926 90.103C9.8767 89.9548 10.815 90.6661 10.9632 91.6837C11.3681 94.5389 11.9311 97.404 12.662 100.18C12.9188 101.168 12.3262 102.186 11.3385 102.443C11.1805 102.482 11.0224 102.502 10.8644 102.502H10.8545ZM51.5177 90.1128C50.6683 90.1128 49.9078 89.5299 49.7102 88.6605C49.1571 86.2103 48.8806 83.6613 48.8806 81.1124C48.8806 80.5196 48.8905 79.9268 48.9201 79.3439C48.9695 78.3263 49.8485 77.5458 50.8658 77.5853C51.8831 77.6347 52.6733 78.5041 52.6239 79.5316C52.5943 80.0553 52.5844 80.5789 52.5844 81.1124C52.5844 83.4045 52.8313 85.6669 53.3252 87.8602C53.5524 88.8581 52.9202 89.8461 51.9227 90.0733C51.7844 90.1029 51.6461 90.1227 51.5177 90.1227V90.1128ZM8.39517 84.9457C7.3976 84.9457 6.56794 84.1454 6.54819 83.1377C6.52843 82.4659 6.51855 81.7842 6.51855 81.1025C6.51855 78.7511 6.6272 76.38 6.82474 74.0484C6.91363 73.0308 7.82231 72.2799 8.82975 72.3688C9.84707 72.4577 10.5977 73.3568 10.5088 74.3744C10.3113 76.5874 10.2125 78.8499 10.2125 81.1025C10.2125 81.7545 10.2125 82.3967 10.2323 83.0389C10.2619 84.0664 9.45199 84.9161 8.4248 84.9358C8.40504 84.9358 8.39517 84.9358 8.37541 84.9358L8.39517 84.9457ZM52.4264 72.5763C52.2288 72.5763 52.0313 72.5467 51.8338 72.4775C50.8658 72.1515 50.3424 71.0943 50.6782 70.1261C51.7054 67.0832 53.1474 64.2675 54.9746 61.758C55.5771 60.9281 56.7327 60.7404 57.5624 61.343C58.392 61.9457 58.5698 63.1016 57.9772 63.9315C56.3771 66.1446 55.103 68.6244 54.1943 71.3117C53.9375 72.0823 53.2165 72.5664 52.4363 72.5664L52.4264 72.5763ZM9.95572 67.2808C9.82732 67.2808 9.70879 67.2709 9.58039 67.2413C8.58283 67.0338 7.93095 66.0557 8.13837 65.0578C8.75074 62.0939 9.54089 59.1398 10.4891 56.2747C10.815 55.3065 11.862 54.7731 12.8299 55.0991C13.7978 55.4251 14.3312 56.4724 14.0052 57.4406C13.0966 60.1674 12.3459 62.9831 11.7632 65.8087C11.5854 66.688 10.815 67.2906 9.95572 67.2906V67.2808ZM97.7712 61.8568C97.1786 61.8568 96.586 61.837 96.0033 61.7876C94.9859 61.7086 94.2254 60.8195 94.3044 59.792C94.3835 58.7744 95.2724 58.0136 96.2996 58.0926C99.0058 58.31 101.722 57.9345 104.26 57.0157C105.218 56.6699 106.285 57.164 106.631 58.1223C106.976 59.0806 106.483 60.1476 105.525 60.4934C103.045 61.3924 100.438 61.8469 97.7811 61.8469L97.7712 61.8568ZM87.7067 59.2288C87.4005 59.2288 87.0943 59.1497 86.8079 58.9916C86.3041 58.7051 85.8004 58.3989 85.3066 58.0728C83.4201 56.828 81.3855 55.9191 79.2718 55.3757C78.2841 55.1188 77.6816 54.1111 77.9384 53.1231C78.1952 52.1351 79.2027 51.5325 80.1903 51.7893C82.7188 52.4315 85.1288 53.5084 87.361 54.9904C87.7758 55.267 88.1906 55.5239 88.6252 55.761C89.5141 56.2649 89.8401 57.3912 89.3364 58.2803C89.0005 58.883 88.3684 59.2288 87.7166 59.2288H87.7067ZM62.7774 58.5273C62.1848 58.5273 61.602 58.2408 61.2465 57.7172C60.6736 56.8675 60.9008 55.7215 61.7403 55.1485C64.4861 53.2911 67.459 52.066 70.5801 51.4831C71.5876 51.2954 72.5555 51.9573 72.7432 52.965C72.9308 53.9728 72.2691 54.941 71.2616 55.1287C68.6443 55.6128 66.1355 56.6601 63.8243 58.2211C63.5083 58.4384 63.1428 58.5372 62.7872 58.5372L62.7774 58.5273ZM112.33 55.9092C111.846 55.9092 111.372 55.7215 111.006 55.3559C110.295 54.6248 110.305 53.4492 111.036 52.7378C112.251 51.5424 113.327 50.179 114.226 48.6871C114.73 47.8375 115.174 46.9483 115.55 46.0393C115.935 45.0909 117.021 44.6463 117.969 45.0316C118.918 45.4169 119.362 46.5037 118.977 47.4522C118.532 48.5291 117.999 49.5862 117.407 50.584C116.35 52.3525 115.076 53.9728 113.634 55.3856C113.278 55.7413 112.804 55.9092 112.34 55.9092H112.33ZM15.5362 50.4655C15.2695 50.4655 15.0028 50.4062 14.746 50.2876C13.8176 49.8529 13.4225 48.7464 13.8571 47.8276C15.151 45.081 16.6127 42.3937 18.2128 39.8349C18.756 38.9655 19.9018 38.7086 20.761 39.252C21.6302 39.7954 21.887 40.9414 21.3438 41.801C19.8227 44.2314 18.4301 46.7803 17.1955 49.3985C16.8794 50.0703 16.2177 50.4655 15.5164 50.4655H15.5362ZM118.937 39.9238C117.92 39.9238 117.09 39.1038 117.09 38.0862C117.071 35.3396 116.527 32.6622 115.471 30.1429C115.076 29.1944 115.52 28.1175 116.458 27.7224C117.397 27.3272 118.483 27.7717 118.878 28.7103C120.123 31.6841 120.765 34.8259 120.784 38.0664C120.784 39.084 119.965 39.9238 118.947 39.9337H118.937V39.9238ZM24.9587 35.4384C24.5439 35.4384 24.1389 35.3001 23.7933 35.0235C23.0031 34.3813 22.8846 33.2056 23.5266 32.4152C25.4526 30.054 27.5366 27.8014 29.7194 25.7266C30.4602 25.0252 31.6355 25.0548 32.3368 25.7958C33.038 26.5368 33.0084 27.7125 32.2676 28.4139C30.1935 30.3899 28.2181 32.5239 26.3909 34.7567C26.0254 35.2013 25.4921 35.4384 24.9488 35.4384H24.9587ZM112.201 23.9779C111.737 23.9779 111.273 23.81 110.917 23.4642C110.088 22.6639 109.179 21.9328 108.211 21.3005C106.848 20.3916 105.426 19.5321 103.994 18.7417C103.095 18.2477 102.779 17.1214 103.273 16.2223C103.767 15.3233 104.892 15.0071 105.791 15.5011C107.302 16.3409 108.804 17.2597 110.256 18.2181C111.401 18.9788 112.488 19.8482 113.485 20.8065C114.226 21.5179 114.246 22.6837 113.535 23.4247C113.169 23.8001 112.685 23.9977 112.201 23.9977V23.9779ZM37.8086 23.2271C37.2357 23.2271 36.6727 22.9603 36.3073 22.4663C35.7048 21.6364 35.8925 20.4805 36.7122 19.8778C39.1815 18.0797 41.7791 16.4496 44.436 15.017C45.3348 14.5329 46.4607 14.8688 46.9447 15.7679C47.4287 16.6669 47.0929 17.7932 46.1941 18.2773C43.6853 19.6309 41.226 21.1721 38.895 22.8714C38.5691 23.1085 38.1839 23.2271 37.8086 23.2271ZM96.8527 15.2047C96.6354 15.2047 96.4082 15.1652 96.1909 15.0763C93.5143 14.0488 90.7389 13.1992 87.9536 12.5669C86.956 12.3396 86.3338 11.3417 86.5609 10.3538C86.7881 9.35592 87.7758 8.72362 88.7734 8.96073C91.7266 9.63255 94.6699 10.5316 97.5144 11.6283C98.4725 11.9938 98.9466 13.0707 98.5811 14.0192C98.2947 14.7602 97.5934 15.2047 96.8527 15.2047ZM53.4042 14.8589C52.6535 14.8589 51.9424 14.3946 51.6659 13.6437C51.3103 12.6854 51.8041 11.6184 52.7622 11.2627C55.6166 10.2155 58.5698 9.35594 61.5428 8.73352C62.5403 8.52604 63.528 9.15833 63.7354 10.1661C63.9429 11.1639 63.3107 12.1519 62.3033 12.3594C59.5081 12.9521 56.7228 13.7524 54.0363 14.7404C53.8289 14.8194 53.6116 14.8589 53.3943 14.8589H53.4042ZM79.5977 11.2726C79.5484 11.2726 79.499 11.2726 79.4496 11.2726C76.5853 11.0454 73.6716 11.0256 70.8369 11.2034C69.8097 11.2726 68.9406 10.4921 68.8714 9.4745C68.8023 8.45688 69.5826 7.57757 70.5999 7.50841C73.6025 7.3207 76.7038 7.34047 79.736 7.58747C80.7533 7.6665 81.5139 8.56555 81.4348 9.58316C81.3558 10.5514 80.5459 11.2825 79.5879 11.2825L79.5977 11.2726Z" fill="#0095DA"/>
<path d="M74.6694 144.481C42.8065 144.481 16.8895 116.057 16.8895 81.1322C16.8895 46.2074 42.8065 17.7834 74.6694 17.7834C85.2179 17.7834 95.5492 20.9351 104.537 26.8926C110.453 30.8148 112.231 39.0545 108.508 45.2886C104.784 51.5227 96.9616 53.39 91.0354 49.4677C86.097 46.1975 80.4375 44.4587 74.6694 44.4587C56.7823 44.4587 42.2238 60.9084 42.2238 81.1322C42.2238 101.356 56.7823 117.806 74.6694 117.806C80.5461 117.806 86.3044 116.008 91.312 112.619C97.1986 108.628 105.031 110.416 108.824 116.61C112.616 122.805 110.918 131.055 105.031 135.046C95.9245 141.221 85.4253 144.481 74.6694 144.481Z" fill="url(#paint2_linear_98_3613)"/>
<defs>
<linearGradient id="paint0_linear_98_3613" x1="0" y1="81.1224" x2="127.738" y2="81.1224" gradientUnits="userSpaceOnUse">
<stop stop-color="#F1F2F2"/>
<stop offset="1" stop-color="#D1D3D4"/>
</linearGradient>
<linearGradient id="paint1_linear_98_3613" x1="2.81506" y1="81.1231" x2="124.923" y2="81.1231" gradientUnits="userSpaceOnUse">
<stop stop-color="#D1D3D4"/>
<stop offset="1" stop-color="#F1F2F2"/>
</linearGradient>
<linearGradient id="paint2_linear_98_3613" x1="16.8895" y1="81.1224" x2="110.839" y2="81.1224" gradientUnits="userSpaceOnUse">
<stop stop-color="#00AEEE"/>
<stop offset="0.23" stop-color="#009FE2"/>
<stop offset="0.52" stop-color="#0097DC"/>
<stop offset="1" stop-color="#0095DA"/>
</linearGradient>
</defs>
</svg>
