<svg width="166" height="185" viewBox="0 0 166 185" fill="none" xmlns="http://www.w3.org/2000/svg">
<g style="mix-blend-mode:multiply">
<path opacity="0.03" d="M49.9943 183.361C45.8344 183.361 41.7834 182.452 37.9603 180.673C23.044 173.705 16.299 155.292 22.935 139.616L65.277 39.5443C70.0213 28.3264 80.6489 21.0718 92.3363 21.0718C104.024 21.0718 114.651 28.3264 119.405 39.5443L161.747 139.616C168.383 155.292 161.638 173.715 146.712 180.683C142.899 182.462 138.858 183.371 134.688 183.371C122.991 183.371 112.363 176.116 107.619 164.889L101.32 150.004H83.3528L77.0536 164.889C72.3093 176.116 61.6817 183.371 49.9844 183.371L49.9943 183.361Z" fill="#FBFBFB"/>
<path opacity="0.06" d="M49.3208 182.64C45.1609 182.64 41.1199 181.74 37.2967 179.951C22.3903 172.993 15.6552 154.59 22.2814 138.924L64.6234 38.8525C69.3677 27.6346 79.9854 20.3899 91.6628 20.3899C103.34 20.3899 113.958 27.6346 118.702 38.8525L161.044 138.924C167.67 154.59 160.935 172.993 146.019 179.961C142.206 181.74 138.165 182.64 134.005 182.64C122.317 182.64 111.7 175.395 106.955 164.177L100.656 149.282H82.6596L76.3603 164.177C71.616 175.395 60.9983 182.64 49.3109 182.64H49.3208Z" fill="#F7F7F7"/>
<path opacity="0.1" d="M48.6374 181.908C44.4775 181.908 40.4365 181.009 36.6232 179.22C21.7268 172.262 14.9917 153.878 21.6178 138.223L63.9598 38.1509C68.7041 26.9428 79.3119 19.708 90.9794 19.708C102.647 19.708 113.265 26.9527 117.999 38.1509L160.341 138.223C166.967 153.878 160.232 172.272 145.326 179.22C141.522 180.999 137.481 181.899 133.321 181.899C121.644 181.899 111.036 174.654 106.292 163.446L99.9827 148.541H81.9663L75.6571 163.456C70.9128 174.664 60.305 181.908 48.6275 181.908H48.6374Z" fill="#F3F3F3"/>
<path opacity="0.13" d="M47.9639 181.187C43.8139 181.187 39.7728 180.288 35.9596 178.508C21.073 171.56 14.3478 153.187 20.9641 137.541L63.3061 37.4689C68.0404 26.2707 78.6383 19.0359 90.3059 19.0359C101.973 19.0359 112.571 26.2707 117.306 37.4689L159.648 137.541C166.264 153.177 159.539 171.56 144.652 178.508C140.849 180.288 136.808 181.187 132.658 181.187C120.99 181.187 110.382 173.952 105.648 162.754L99.3389 147.83H81.2927L74.9736 162.754C70.2393 173.952 59.6315 181.187 47.9639 181.187Z" fill="#EFEFEF"/>
<path opacity="0.16" d="M47.2805 180.466C43.1305 180.466 39.0993 179.566 35.2861 177.787C20.4094 170.849 13.6941 152.485 20.3005 136.849L62.6524 36.7772C67.3868 25.589 77.9747 18.364 89.6324 18.364C101.29 18.364 111.878 25.589 116.612 36.7772L158.954 136.849C165.561 152.475 158.845 170.839 143.969 177.787C140.165 179.566 136.134 180.466 131.984 180.466C120.327 180.466 109.729 173.231 104.994 162.043L98.6753 147.108H80.5994L74.2803 162.052C69.5459 173.241 58.958 180.476 47.2904 180.476L47.2805 180.466Z" fill="#EBEBEB"/>
<path opacity="0.19" d="M46.607 179.734C42.457 179.734 38.4258 178.835 34.6225 177.056C19.7656 170.117 13.0404 151.773 19.6468 136.157L61.9887 36.0852C66.7231 24.9068 77.3012 17.6819 88.949 17.6819C100.597 17.6819 111.175 24.9068 115.909 36.0852L158.251 136.157C164.857 151.773 158.142 170.127 143.275 177.065C139.472 178.835 135.451 179.744 131.301 179.744C119.653 179.744 109.065 172.519 104.331 161.341L98.0017 146.387H79.8962L73.5672 161.341C68.8328 172.519 58.2547 179.754 46.607 179.754V179.734Z" fill="#E6E7E7"/>
<path opacity="0.23" d="M45.9236 179.013C41.7835 179.013 37.7523 178.113 33.949 176.334C19.102 169.406 12.3868 151.071 18.9931 135.465L61.3351 35.3933C66.0596 24.2248 76.6376 17.0098 88.2755 17.0098C99.9133 17.0098 110.491 24.2248 115.216 35.3933L157.558 135.465C164.154 151.071 157.449 169.406 142.592 176.344C138.799 178.113 134.767 179.013 130.627 179.013C118.98 179.013 108.411 171.788 103.677 160.619L97.348 145.655H79.2128L72.8838 160.619C68.1593 171.797 57.5812 179.013 45.9434 179.013H45.9236Z" fill="#E2E3E3"/>
<path opacity="0.26" d="M45.2501 178.281C41.11 178.281 37.0788 177.382 33.2854 175.603C18.4483 168.674 11.7429 150.36 18.3394 134.763L60.6715 34.7013C65.3959 23.5427 75.9641 16.3276 87.592 16.3276C99.22 16.3276 109.788 23.5427 114.513 34.7013L156.855 134.773C163.451 150.37 156.746 168.684 141.899 175.612C138.105 177.382 134.084 178.281 129.944 178.281C118.306 178.281 107.738 171.066 103.013 159.897L96.6745 144.914H78.5096L72.1706 159.897C67.4462 171.066 56.878 178.281 45.2501 178.281Z" fill="#DEDFE0"/>
<path opacity="0.29" d="M44.5666 177.56C40.4265 177.56 36.4053 176.66 32.6118 174.891C17.7847 167.973 11.0793 149.668 17.6757 134.082L60.0177 34.0098C64.7422 22.8611 75.2905 15.646 86.9185 15.646C98.5464 15.646 109.095 22.8512 113.819 34.0098L156.161 134.082C162.748 149.658 156.052 167.973 141.215 174.891C137.422 176.66 133.401 177.56 129.27 177.56C117.642 177.56 107.084 170.355 102.37 159.196L96.0208 144.203H77.8261L71.4773 159.196C66.7627 170.355 56.1946 177.56 44.5765 177.56H44.5666Z" fill="#DADBDC"/>
<path opacity="0.32" d="M43.8833 176.838C39.7531 176.838 35.7318 175.939 31.9384 174.169C17.1211 167.251 10.4257 148.966 17.0122 133.39L59.3542 33.3177C64.0687 22.1689 74.6171 14.9736 86.2351 14.9736C97.8532 14.9736 108.392 22.1788 113.116 33.3177L155.458 133.39C162.045 148.956 155.349 167.251 140.532 174.169C136.748 175.939 132.727 176.838 128.597 176.838C116.979 176.838 106.431 169.633 101.716 158.484L95.3671 143.471H77.1428L70.7939 158.484C66.0794 169.633 55.531 176.838 43.913 176.838H43.8833Z" fill="#D6D7D8"/>
<path opacity="0.35" d="M43.2097 176.107C39.0795 176.107 35.0583 175.207 31.2747 173.438C16.4674 166.529 9.78185 148.245 16.3585 132.698L58.7005 32.6259C63.415 21.487 73.9535 14.2917 85.5517 14.2917C97.1499 14.2917 107.698 21.487 112.413 32.6259L154.755 132.698C161.331 148.255 154.646 166.53 139.839 173.448C136.055 175.217 132.044 176.117 127.913 176.117C116.305 176.117 105.757 168.921 101.052 157.782L94.6936 142.759H76.4395L70.0808 157.782C65.3662 168.921 54.8278 176.117 43.2196 176.117L43.2097 176.107Z" fill="#D2D3D4"/>
<path opacity="0.39" d="M42.5263 175.385C38.3961 175.385 34.3847 174.486 30.6012 172.717C15.8038 165.808 9.1182 147.543 15.6948 132.006L58.0368 31.9343C62.7415 20.8053 73.2799 13.6199 84.8683 13.6199C96.4566 13.6199 106.995 20.8053 111.7 31.9343L154.042 132.006C160.618 147.553 153.933 165.818 139.135 172.727C135.352 174.496 131.34 175.385 127.21 175.385C115.612 175.385 105.074 168.19 100.369 157.061L94.0102 142.028H75.7264L69.3676 157.071C64.663 168.2 54.1245 175.395 42.5263 175.395V175.385Z" fill="#CECFD0"/>
<path opacity="0.42" d="M41.8527 174.654C37.7225 174.654 33.7211 173.755 29.9376 171.985C15.16 165.087 8.47439 146.831 15.051 131.304L57.3831 31.2423C62.0878 20.1232 72.6163 12.9377 84.1947 12.9377C95.7732 12.9377 106.302 20.1232 111.006 31.2423L153.348 131.314C159.915 146.841 153.239 165.096 138.452 171.995C134.678 173.764 130.667 174.654 126.537 174.654C114.948 174.654 104.42 167.469 99.7152 156.349L93.3465 141.297H75.033L68.6644 156.349C63.9597 167.469 53.4312 174.664 41.8428 174.664L41.8527 174.654Z" fill="#CACBCC"/>
<path opacity="0.45" d="M41.1694 173.932C37.0491 173.932 33.0378 173.033 29.2641 171.274C14.4964 164.375 7.82075 146.14 14.3875 130.622L56.7295 30.5504C61.4341 19.4411 71.9429 12.2656 83.5213 12.2656C95.0997 12.2656 105.618 19.4411 110.313 30.5504L152.655 130.622C159.222 146.14 152.546 164.375 137.769 171.274C133.995 173.033 129.993 173.932 125.863 173.932C114.285 173.932 103.766 166.747 99.0615 155.638L92.683 140.575H74.3398L67.9612 155.638C63.2566 166.757 52.7379 173.932 41.1595 173.932H41.1694Z" fill="#C6C7C8"/>
<path opacity="0.48" d="M40.4959 173.211C36.3756 173.211 32.3741 172.312 28.6005 170.552C13.8427 163.663 7.17694 145.438 13.7338 129.93L56.0658 29.8586C60.7606 18.7593 71.2693 11.5837 82.8379 11.5837C94.4064 11.5837 104.915 18.7593 109.61 29.8586L151.952 129.93C158.509 145.438 151.843 163.663 137.075 170.552C133.302 172.312 129.3 173.211 125.18 173.211C113.611 173.211 103.093 166.035 98.3979 154.926L92.0194 139.844H73.6464L67.2679 154.926C62.5731 166.035 52.0644 173.211 40.486 173.211H40.4959Z" fill="#C2C3C4"/>
<path opacity="0.52" d="M39.8124 172.48C35.6921 172.48 31.7006 171.59 27.9171 169.821C13.1692 162.932 6.50341 144.726 13.0602 129.239L55.4121 29.1668C60.1069 18.0774 70.6057 10.9019 82.1643 10.9019C93.7229 10.9019 104.222 18.0675 108.917 29.1668L151.259 129.239C157.815 144.736 151.15 162.942 136.402 169.831C132.628 171.59 128.637 172.48 124.516 172.48C112.958 172.48 102.449 165.314 97.7541 154.215L91.3657 139.122H72.963L66.5746 154.215C61.8798 165.314 51.381 172.48 39.8223 172.48H39.8124Z" fill="#BDBEC0"/>
<path opacity="0.55" d="M39.139 171.758C35.0286 171.758 31.0271 170.868 27.2535 169.099C12.5155 162.22 5.85966 144.024 12.4066 128.547L54.7486 28.4747C59.4433 17.3951 69.9322 10.2295 81.4809 10.2295C93.0297 10.2295 103.519 17.3951 108.213 28.4747L150.555 128.547C157.102 144.034 150.446 162.22 135.708 169.109C131.945 170.868 127.943 171.758 123.833 171.758C112.284 171.758 101.785 164.592 97.0905 153.503L90.7021 138.391H72.2697L65.8813 153.503C61.1964 164.592 50.6976 171.758 39.1489 171.758H39.139Z" fill="#B9BABC"/>
<path opacity="0.58" d="M38.4555 171.036C34.3451 171.036 30.3536 170.147 26.5799 168.378C11.8519 161.509 5.20589 143.323 11.7429 127.855L54.0948 27.7829C58.7796 16.7034 69.2686 9.54761 80.8074 9.54761C92.3462 9.54761 102.835 16.7034 107.52 27.7829L149.862 127.855C156.409 143.323 149.753 161.509 135.025 168.378C131.261 170.137 127.27 171.027 123.159 171.027C111.611 171.027 101.132 163.871 96.4368 152.791L90.0384 137.669H71.5763L65.178 152.791C60.4931 163.871 50.0042 171.027 38.4654 171.027L38.4555 171.036Z" fill="#B5B6B8"/>
<path opacity="0.61" d="M37.7821 170.305C33.6717 170.305 29.6801 169.416 25.9164 167.656C11.2081 160.787 4.55226 142.621 11.0992 127.163L53.4313 27.091C58.1161 16.0214 68.5951 8.87549 80.124 8.87549C91.6529 8.87549 102.132 16.0312 106.817 27.091L149.159 127.163C155.696 142.621 149.05 160.787 134.332 167.656C130.568 169.416 126.586 170.305 122.476 170.305C110.937 170.305 100.458 163.149 95.7831 152.08L89.3749 136.948H70.8831L64.4748 152.089C59.79 163.159 49.311 170.315 37.7821 170.315V170.305Z" fill="#B1B2B4"/>
<path opacity="0.65" d="M37.0986 169.584C32.9981 169.584 29.0066 168.694 25.2428 166.935C10.5445 160.076 3.8985 141.919 10.4355 126.471L52.7775 26.3993C57.4524 15.3395 67.9216 8.1936 79.4505 8.1936C90.9794 8.1936 101.439 15.3395 106.123 26.3993L148.465 126.471C155.002 141.919 148.356 160.066 133.648 166.935C129.894 168.694 125.903 169.584 121.802 169.584C110.273 169.584 99.8043 162.438 95.1294 151.378L88.7211 136.226H70.1996L63.7914 151.378C59.1164 162.438 48.6473 169.584 37.1184 169.584H37.0986Z" fill="#ADAEB0"/>
<path opacity="0.68" d="M36.4152 168.852C32.3147 168.852 28.333 167.962 24.5693 166.203C9.88085 159.344 3.2448 141.207 9.7719 125.779L52.1139 25.7071C56.7888 14.6572 67.2481 7.52124 78.7571 7.52124C90.2663 7.52124 100.725 14.6572 105.41 25.7071L147.752 125.779C154.279 141.217 147.643 159.354 132.945 166.213C129.191 167.962 125.21 168.852 121.109 168.852C109.59 168.852 99.1308 161.706 94.4559 150.656L88.0377 135.495H69.4865L63.0683 150.656C58.3934 161.706 47.9342 168.852 36.4152 168.852Z" fill="#A9AAAC"/>
<path opacity="0.71" d="M35.7417 168.131C31.6412 168.131 27.6596 167.241 23.9058 165.482C9.22722 158.633 2.59117 140.506 9.11827 125.088L51.4603 25.0156C56.1352 13.9756 66.5845 6.8396 78.0837 6.8396C89.5829 6.8396 100.042 13.9756 104.707 25.0156L147.049 125.088C153.576 140.506 146.94 158.633 132.262 165.492C128.508 167.241 124.526 168.131 120.436 168.131C108.926 168.131 98.4772 160.995 93.8022 149.945L87.3841 134.764H68.8031L62.3751 149.945C57.7001 160.995 47.2508 168.131 35.7417 168.131Z" fill="#A5A6A8"/>
<path opacity="0.74" d="M35.0582 167.409C30.9677 167.409 26.986 166.52 23.2322 164.76C8.56355 157.911 1.93741 139.804 8.4546 124.396L50.8065 24.3237C55.4715 13.2936 65.9208 6.16748 77.4101 6.16748C88.8994 6.16748 99.3487 13.2936 104.014 24.3237L146.356 124.396C152.873 139.804 146.247 157.921 131.578 164.76C127.824 166.51 123.853 167.399 119.762 167.399C108.263 167.399 97.8135 160.273 93.1485 149.233L86.7204 134.042H68.1097L61.6817 149.233C57.0166 160.273 46.5673 167.399 35.0681 167.399L35.0582 167.409Z" fill="#A1A2A4"/>
<path opacity="0.77" d="M34.3847 166.678C30.2941 166.678 26.3224 165.788 22.5686 164.039C7.90984 157.199 1.29359 139.102 7.80089 123.704L50.1429 23.6317C54.8079 12.6115 65.2473 5.48535 76.7267 5.48535C88.2061 5.48535 98.6455 12.6115 103.311 23.6317L145.653 123.704C152.17 139.102 145.544 157.199 130.885 164.039C127.141 165.788 123.169 166.678 119.079 166.678C107.589 166.678 97.1499 159.552 92.4849 148.521L86.0469 133.311H67.4065L60.9686 148.521C56.3035 159.552 45.8641 166.678 34.3748 166.678H34.3847Z" fill="#9D9EA1"/>
<path opacity="0.81" d="M33.7013 165.956C29.6107 165.956 25.639 165.067 21.8951 163.317C7.25616 156.478 0.630013 138.401 7.14721 123.012L49.4892 22.9399C54.1542 11.9296 64.5738 4.80347 76.0532 4.80347C87.5326 4.80347 97.9522 11.9197 102.617 22.9399L144.959 123.012C151.467 138.401 144.85 156.478 130.201 163.317C126.458 165.067 122.486 165.956 118.405 165.956C106.926 165.956 96.4962 158.84 91.8312 147.82L85.3932 132.599H66.7231L60.2852 147.82C55.6201 158.84 45.1906 165.956 33.7112 165.956H33.7013Z" fill="#999A9D"/>
<path opacity="0.84" d="M33.0279 165.225C28.9472 165.225 24.9755 164.335 21.2315 162.586C6.5926 155.756 -0.0137401 137.699 6.48365 122.32L48.8256 22.2481C53.4808 11.2377 63.9004 4.13135 75.3698 4.13135C86.8393 4.13135 97.2589 11.2476 101.914 22.2481L144.256 122.32C150.763 137.699 144.147 155.766 129.508 162.596C125.764 164.345 121.802 165.225 117.722 165.225C106.252 165.225 95.8228 158.109 91.1676 147.098L84.7197 131.858H66.0199L59.5721 147.098C54.9169 158.109 44.4973 165.225 33.0279 165.225Z" fill="#949699"/>
<path opacity="0.87" d="M32.3444 164.503C28.2637 164.503 24.3019 163.614 20.558 161.864C5.93884 155.035 -0.667501 136.987 5.82989 121.628L48.1719 21.5563C52.827 10.5558 63.2367 3.44946 74.6963 3.44946C86.1559 3.44946 96.5655 10.5558 101.221 21.5563L143.563 121.628C150.06 136.987 143.454 155.045 128.825 161.874C125.091 163.624 121.119 164.503 117.038 164.503C105.579 164.503 95.1591 157.397 90.504 146.397L84.0561 131.146H65.3266L58.8688 146.397C54.2137 157.397 43.804 164.503 32.3444 164.503Z" fill="#909295"/>
<path opacity="0.9" d="M31.6709 163.782C27.5902 163.782 23.6284 162.892 19.8944 161.153C5.28514 154.333 -1.32119 136.295 5.1762 120.946L47.5083 20.8644C52.1634 9.8738 62.5632 2.77734 74.0129 2.77734C85.4625 2.77734 95.8623 9.8738 100.517 20.8644L142.859 120.936C149.357 136.286 142.751 154.323 128.141 161.153C124.407 162.892 120.445 163.782 116.365 163.782C104.915 163.782 94.5054 156.676 89.8503 145.685L83.3925 130.425H64.6333L58.1755 145.695C53.5302 156.685 43.1206 163.792 31.6709 163.792V163.782Z" fill="#8C8E91"/>
<path opacity="0.94" d="M30.9875 163.051C26.9168 163.051 22.9549 162.161 19.2209 160.422C4.6216 153.612 -1.97483 135.584 4.51265 120.245L46.8546 20.1726C51.4999 9.19192 61.8997 2.09546 73.3394 2.09546C84.7792 2.09546 95.179 9.19192 99.8242 20.1726L142.166 120.245C148.654 135.584 142.057 153.612 127.458 160.422C123.724 162.161 119.772 163.051 115.691 163.051C104.242 163.051 93.8518 155.954 89.2065 144.973L82.7389 129.693H63.9499L57.4822 144.973C52.837 155.954 42.4372 163.06 30.9974 163.06L30.9875 163.051Z" fill="#888A8D"/>
<path opacity="0.97" d="M30.314 162.329C26.2432 162.329 22.2913 161.439 18.5573 159.7C3.96788 152.89 -2.61865 134.882 3.85893 119.552L46.191 19.4805C50.8363 8.50967 61.2261 1.4231 72.656 1.4231C84.0859 1.4231 94.4757 8.50967 99.121 19.4805L141.463 119.552C147.95 134.882 141.354 152.89 126.765 159.7C123.04 161.439 119.079 162.329 115.008 162.329C103.568 162.329 93.1782 155.232 88.5429 144.262L82.0752 128.972H63.2566L56.7889 144.262C52.1437 155.242 41.7538 162.329 30.3239 162.329H30.314Z" fill="#848689"/>
<path d="M29.6305 161.607C25.5598 161.607 21.6079 160.728 17.8738 158.978C3.29433 152.178 -3.2922 134.18 3.19528 118.87L45.5373 18.7887C50.1726 7.82778 60.5526 0.741211 71.9725 0.741211C83.3925 0.741211 93.7725 7.82778 98.4177 18.7887L140.76 118.861C147.237 134.18 140.651 152.168 126.071 158.978C122.347 160.718 118.395 161.597 114.324 161.597C102.895 161.597 92.5146 154.511 87.8792 143.54L81.4017 128.23H62.5533L56.0757 143.54C51.4404 154.511 41.0604 161.597 29.6305 161.597V161.607Z" fill="#808285"/>
</g>
<path d="M29.6313 162.349C25.4615 162.349 21.4105 161.439 17.5972 159.66C2.67107 152.692 -4.08384 134.259 2.55222 118.564L44.8942 18.4923C49.6484 7.25459 60.276 0 71.9733 0C83.6705 0 94.308 7.25459 99.0622 18.4923L141.404 118.564C148.04 134.249 141.295 152.692 126.359 159.66C122.546 161.439 118.495 162.349 114.325 162.349C102.618 162.349 91.9805 155.094 87.2362 143.856L80.9468 128.991H63.0096L56.7202 143.856C51.9661 155.094 41.3385 162.349 29.6313 162.349Z" fill="url(#paint0_linear_53_13794)"/>
<path d="M29.6305 159.384C25.8569 159.384 22.1922 158.563 18.7355 156.952C5.22569 150.646 -0.875522 133.963 5.12664 119.77L47.4686 19.6882C51.7672 9.52783 61.3845 2.96509 71.9725 2.96509C82.5605 2.96509 92.1778 9.52783 96.4764 19.6882L138.818 119.76C144.821 133.953 138.719 150.637 125.209 156.942C121.753 158.553 118.098 159.374 114.324 159.374C103.736 159.374 94.1092 152.801 89.8106 142.641L82.7784 126.016H61.1765L54.1443 142.651C49.8457 152.811 40.2284 159.384 29.6305 159.384Z" fill="url(#paint1_linear_53_13794)"/>
<path d="M88.0179 125.671C87.2948 125.671 86.6015 125.246 86.3044 124.534L85.0465 121.569H81.8176C80.7875 121.569 79.9556 120.739 79.9556 119.711C79.9556 118.683 80.7875 117.853 81.8176 117.853H86.2747C87.0175 117.853 87.691 118.297 87.9882 118.989L89.7215 123.091C90.1176 124.03 89.6818 125.117 88.731 125.522C88.4933 125.621 88.2457 125.671 88.008 125.671H88.0179Z" fill="#DD1E47"/>
<path d="M75.2608 121.569H68.6941C67.664 121.569 66.832 120.739 66.832 119.711C66.832 118.683 67.664 117.853 68.6941 117.853H75.2608C76.2909 117.853 77.1229 118.683 77.1229 119.711C77.1229 120.739 76.2909 121.569 75.2608 121.569Z" fill="#DD1E47"/>
<path d="M55.9371 125.671C55.6993 125.671 55.4517 125.621 55.214 125.522C54.2731 125.127 53.8274 124.04 54.2236 123.091L55.9569 118.989C56.2441 118.307 56.9176 117.853 57.6704 117.853H62.1274C63.1575 117.853 63.9895 118.683 63.9895 119.711C63.9895 120.739 63.1575 121.569 62.1274 121.569H58.8985L57.6406 124.534C57.3435 125.246 56.6502 125.671 55.9272 125.671H55.9371Z" fill="#DD1E47"/>
<path d="M27.402 154.807C27.3327 154.807 27.2634 154.807 27.2039 154.798C24.7476 154.531 22.3507 153.859 20.0727 152.791C19.3793 152.465 18.7058 152.109 18.0521 151.714C17.1706 151.19 16.8834 150.053 17.4083 149.174C17.9333 148.294 19.0822 148.007 19.9538 148.531C20.4985 148.857 21.073 149.164 21.6475 149.431C23.5492 150.32 25.5598 150.884 27.61 151.101C28.6302 151.21 29.3631 152.129 29.2542 153.147C29.1551 154.096 28.343 154.798 27.4119 154.798L27.402 154.807ZM116.702 154.788C115.77 154.788 114.968 154.096 114.859 153.147C114.74 152.129 115.473 151.21 116.494 151.091C118.494 150.864 120.455 150.3 122.317 149.431C122.941 149.144 123.546 148.818 124.13 148.462C125.002 147.928 126.15 148.205 126.685 149.085C127.22 149.955 126.943 151.101 126.061 151.635C125.368 152.06 124.635 152.445 123.892 152.791C121.664 153.829 119.326 154.501 116.919 154.778C116.85 154.778 116.771 154.788 116.702 154.788ZM107.877 153.898C107.688 153.898 107.49 153.868 107.292 153.809C104.192 152.791 101.399 151.16 98.9625 148.937C98.2097 148.245 98.1503 147.068 98.8436 146.317C99.5369 145.566 100.706 145.507 101.468 146.199C103.509 148.057 105.856 149.431 108.451 150.281C109.422 150.597 109.957 151.645 109.64 152.623C109.382 153.404 108.659 153.898 107.877 153.898ZM36.2171 153.859C35.4445 153.859 34.7215 153.364 34.4541 152.593C34.1272 151.625 34.6522 150.577 35.6228 150.241C38.2079 149.371 40.5454 147.988 42.5758 146.11C43.3286 145.408 44.5072 145.457 45.2005 146.209C45.8938 146.96 45.8542 148.136 45.1015 148.828C42.6848 151.061 39.8917 152.722 36.8114 153.76C36.6133 153.829 36.4152 153.859 36.2171 153.859ZM12.5056 145.952C11.9212 145.952 11.3467 145.675 10.9803 145.161C9.11821 142.522 7.82072 139.567 7.11749 136.374C6.89959 135.376 7.53348 134.388 8.53384 134.17C9.54411 133.953 10.5247 134.585 10.7426 135.584C11.3269 138.252 12.466 140.822 14.0111 143.036C14.6053 143.876 14.3973 145.032 13.5555 145.616C13.2286 145.843 12.8621 145.952 12.4858 145.952H12.5056ZM131.539 145.833C131.172 145.833 130.806 145.724 130.479 145.507C129.637 144.924 129.429 143.767 130.013 142.927C131.578 140.684 132.658 138.163 133.232 135.455C133.45 134.457 134.431 133.815 135.431 134.032C136.431 134.249 137.075 135.228 136.857 136.226C136.174 139.419 134.896 142.384 133.054 145.032C132.697 145.556 132.113 145.833 131.529 145.833H131.539ZM95.0402 142.235C94.337 142.235 93.6536 141.83 93.3466 141.138C93.2772 140.98 93.198 140.812 93.1287 140.644L89.8404 132.876C89.4442 131.937 89.88 130.849 90.8308 130.444C91.7717 130.049 92.8612 130.484 93.2673 131.433L96.7339 139.606C97.1598 140.535 96.7339 141.632 95.8029 142.057C95.5553 142.166 95.2978 142.226 95.0402 142.226V142.235ZM48.9841 142.107C48.7364 142.107 48.4789 142.057 48.2313 141.949C47.2904 141.534 46.8744 140.437 47.2904 139.508L50.757 131.324C51.1532 130.385 52.2427 129.94 53.1935 130.335C54.1344 130.731 54.5801 131.818 54.1839 132.767L50.6876 141.02C50.3806 141.712 49.6972 142.127 48.994 142.127L48.9841 142.107ZM8.77155 128.981C8.6626 128.981 8.55365 128.981 8.4348 128.952C7.42453 128.764 6.76093 127.805 6.93921 126.797C7.25616 125.077 7.76129 123.377 8.4447 121.756L10.0294 118.02C10.4256 117.082 11.5151 116.637 12.466 117.032C13.4069 117.427 13.8526 118.515 13.4564 119.463L11.8717 123.2C11.2972 124.563 10.8614 126.006 10.6039 127.459C10.4454 128.359 9.66296 128.981 8.78146 128.981H8.77155ZM135.164 128.833C134.292 128.833 133.51 128.211 133.341 127.321C133.074 125.908 132.648 124.514 132.093 123.19L130.459 119.315C130.063 118.376 130.499 117.289 131.449 116.884C132.39 116.479 133.49 116.923 133.886 117.872L135.52 121.747C136.184 123.318 136.679 124.959 136.996 126.629C137.184 127.637 136.521 128.606 135.52 128.794C135.401 128.813 135.282 128.823 135.174 128.823L135.164 128.833ZM15.2194 112.367C14.9817 112.367 14.7341 112.318 14.4964 112.219C13.5555 111.823 13.1098 110.736 13.5059 109.787L16.9824 101.564C17.3786 100.625 18.4681 100.18 19.419 100.576C20.3599 100.971 20.8056 102.058 20.4094 103.007L16.9329 111.23C16.6358 111.942 15.9425 112.367 15.2194 112.367ZM128.686 112.229C127.963 112.229 127.27 111.804 126.973 111.092L123.496 102.869C123.1 101.93 123.536 100.843 124.487 100.437C125.427 100.042 126.517 100.477 126.923 101.426L130.4 109.649C130.796 110.588 130.36 111.675 129.409 112.08C129.171 112.179 128.924 112.229 128.686 112.229ZM22.1724 95.9305C21.9347 95.9305 21.6871 95.8811 21.4494 95.7823C20.5085 95.3869 20.0627 94.2997 20.4589 93.3509L23.9354 85.1277C24.3316 84.1888 25.4211 83.744 26.372 84.1393C27.3129 84.5347 27.7586 85.6219 27.3624 86.5707L23.8859 94.7939C23.5888 95.5055 22.8955 95.9305 22.1724 95.9305ZM121.733 95.7922C121.01 95.7922 120.317 95.3672 120.02 94.6555L116.543 86.4324C116.147 85.4934 116.583 84.4062 117.534 84.001C118.484 83.6056 119.564 84.0405 119.97 84.9893L123.447 93.2125C123.843 94.1515 123.407 95.2387 122.456 95.6439C122.218 95.7427 121.971 95.7922 121.733 95.7922ZM29.1353 79.494C28.8976 79.494 28.65 79.4446 28.4123 79.3458C27.4714 78.9504 27.0257 77.8632 27.4218 76.9144L30.8983 68.6912C31.2945 67.7523 32.384 67.3075 33.3349 67.7029C34.2758 68.0982 34.7215 69.1854 34.3253 70.1342L30.8488 78.3574C30.5517 79.069 29.8584 79.494 29.1353 79.494ZM114.78 79.3557C114.057 79.3557 113.364 78.9307 113.067 78.219L109.59 69.9959C109.194 69.0569 109.63 67.9697 110.58 67.5645C111.531 67.1691 112.611 67.604 113.017 68.5528L116.494 76.776C116.89 77.715 116.454 78.8022 115.503 79.2074C115.265 79.3062 115.018 79.3557 114.78 79.3557ZM36.0883 63.0575C35.8506 63.0575 35.603 63.0081 35.3653 62.9093C34.4244 62.5139 33.9787 61.4267 34.3748 60.4779L37.8513 52.2547C38.2475 51.3158 39.337 50.871 40.2879 51.2664C41.2288 51.6617 41.6745 52.7489 41.2783 53.6977L37.8018 61.9209C37.5047 62.6325 36.8114 63.0575 36.0883 63.0575ZM107.827 62.9192C107.104 62.9192 106.411 62.4942 106.114 61.7825L102.637 53.5594C102.241 52.6204 102.677 51.5332 103.627 51.128C104.578 50.7326 105.668 51.1675 106.064 52.1163L109.541 60.3395C109.937 61.2785 109.501 62.3657 108.55 62.7709C108.312 62.8698 108.065 62.9192 107.827 62.9192ZM43.0413 46.621C42.8036 46.621 42.556 46.5716 42.3183 46.4728C41.3774 46.0774 40.9317 44.9902 41.3278 44.0414L44.8043 35.8182C45.2005 34.8793 46.29 34.4345 47.2409 34.8299C48.1818 35.2252 48.6275 36.3124 48.2313 37.2612L44.7548 45.4844C44.4577 46.196 43.7644 46.621 43.0413 46.621ZM100.864 46.4827C100.141 46.4827 99.4478 46.0577 99.1506 45.3461L95.6741 37.1229C95.278 36.1839 95.7138 35.0967 96.6646 34.6915C97.6055 34.2961 98.7049 34.731 99.1011 35.6799L102.578 43.903C102.974 44.842 102.538 45.9292 101.587 46.3344C101.349 46.4333 101.102 46.4827 100.864 46.4827ZM49.9943 30.1845C49.7566 30.1845 49.509 30.1351 49.2713 30.0363C48.3304 29.6409 47.8847 28.5537 48.2808 27.6049L50.7867 21.6747C51.1333 20.8544 51.5394 20.034 51.9752 19.2532C52.4804 18.3637 53.6095 18.0376 54.5009 18.5416C55.3923 19.0457 55.7093 20.1724 55.214 21.0619C54.8377 21.7242 54.5009 22.4061 54.2137 23.1079L51.7078 29.038C51.4107 29.7497 50.7174 30.1747 49.9943 30.1747V30.1845ZM93.9111 30.0462C93.1881 30.0462 92.4948 29.6212 92.1976 28.9096L89.7512 23.1177C89.4343 22.3765 89.0777 21.655 88.6815 20.9532C88.1764 20.0637 88.4834 18.937 89.3748 18.423C90.2663 17.9189 91.3954 18.2253 91.9104 19.1149C92.3759 19.9352 92.8018 20.7951 93.1782 21.6747L95.6246 27.4665C96.0208 28.4055 95.585 29.4927 94.6342 29.8979C94.3965 29.9968 94.1488 30.0462 93.9111 30.0462ZM59.4334 15.3393C58.8688 15.3393 58.3141 15.0823 57.9477 14.598C57.3336 13.7777 57.4921 12.6213 58.3142 11.9986C60.9389 10.0219 63.8904 8.65798 67.0698 7.94636C68.0701 7.71903 69.0606 8.35158 69.2884 9.34983C69.5162 10.3481 68.8823 11.3364 67.882 11.5638C65.2176 12.1568 62.7514 13.3033 60.5526 14.9637C60.2158 15.2207 59.8295 15.3393 59.4334 15.3393ZM84.4226 15.2504C84.0363 15.2504 83.65 15.1318 83.3133 14.8847C81.0946 13.244 78.6284 12.1173 75.9542 11.5341C74.9538 11.3167 74.31 10.3283 74.5279 9.33006C74.7458 8.33182 75.7363 7.68938 76.7366 7.90682C79.9259 8.59868 82.8874 9.94285 85.522 11.8998C86.344 12.5126 86.5124 13.669 85.8983 14.4893C85.5319 14.9736 84.9772 15.2405 84.4028 15.2405L84.4226 15.2504Z" fill="#DD1E47"/>
<path d="M125.923 125.789L83.5806 25.7172C81.5403 20.9039 76.9941 17.7905 71.9725 17.7905C66.9509 17.7905 62.4047 20.894 60.3644 25.7172L18.0224 125.789C15.1699 132.52 18.062 140.407 24.4702 143.402C30.8884 146.396 38.3861 143.362 41.2387 136.631L52.0049 111.201H91.95L102.716 136.631C104.816 141.603 109.461 144.558 114.334 144.558C116.058 144.558 117.811 144.192 119.485 143.402C125.893 140.407 128.785 132.52 125.933 125.789H125.923ZM63.2961 84.5051L71.9824 63.9867L80.6687 84.5051H63.306H63.2961Z" fill="url(#paint2_linear_53_13794)"/>
<defs>
<linearGradient id="paint0_linear_53_13794" x1="-0.00315878" y1="81.1743" x2="143.96" y2="81.1743" gradientUnits="userSpaceOnUse">
<stop stop-color="#F1F2F2"/>
<stop offset="1" stop-color="#D1D3D4"/>
</linearGradient>
<linearGradient id="paint1_linear_53_13794" x1="2.81888" y1="81.1743" x2="141.136" y2="81.1743" gradientUnits="userSpaceOnUse">
<stop stop-color="#D1D3D4"/>
<stop offset="1" stop-color="#F1F2F2"/>
</linearGradient>
<linearGradient id="paint2_linear_53_13794" x1="16.9329" y1="81.1743" x2="127.022" y2="81.1743" gradientUnits="userSpaceOnUse">
<stop stop-color="#E24263"/>
<stop offset="0.11" stop-color="#E0375A"/>
<stop offset="0.32" stop-color="#DE284F"/>
<stop offset="0.57" stop-color="#DD2048"/>
<stop offset="1" stop-color="#DD1E47"/>
</linearGradient>
</defs>
</svg>
